<?xml version="1.0" standalone="no"?>
<!DOCTYPE svg PUBLIC "-//W3C//DTD SVG 1.1//EN" "http://www.w3.org/Graphics/SVG/1.1/DTD/svg11.dtd" >
<svg xmlns="http://www.w3.org/2000/svg">
<metadata>
Created by FontPrep 20130207 at Sun Jun  9 19:19:06 2013
 By James Campbell
Font data copyright Punchcut 2009
</metadata>
<defs>
<font id="3c9c13c5577c48522a5f10f8fdca5d03" >
  <font-face 
    font-family="Amble-Bold"
    font-weight="700"
    font-stretch="normal"
    units-per-em="2048"
    panose-1="0 0 0 0 0 0 0 0 0 0"
    ascent="1548"
    descent="-500"
    x-height="1000"
    cap-height="1360"
    bbox="-185 -560 1930 1860"
    underline-thickness="100"
    underline-position="-100"
    unicode-range="U+0020-FB02"
  />
<missing-glyph horiz-adv-x="483" 
 />
    <glyph glyph-name="fi" unicode="fi" horiz-adv-x="1360" 
d="M846 1000h299v-1000h-299v1000zM733 1210q-93 0 -168 -18.5t-75 -158.5v-33h269v-182h-269v-818h-300v818h-149l8 182h141v33q0 203 132 300t371 97q138 0 273 -30v-204q-140 14 -233 14z" />
    <glyph glyph-name="fl" unicode="fl" horiz-adv-x="1392" 
d="M190 1033q0 397 515 397q126 0 261 -30h264v-1400h-298v1199q-138 11 -215 11q-132 0 -179.5 -41t-47.5 -136v-33h269v-182h-269v-818h-300v818h-149l8 182h141v33z" />
    <glyph glyph-name=".notdef" horiz-adv-x="483" 
 />
    <glyph glyph-name=".null" horiz-adv-x="0" 
 />
    <glyph glyph-name="nonmarkingreturn" horiz-adv-x="483" 
 />
    <glyph glyph-name="space" unicode=" " horiz-adv-x="492" 
 />
    <glyph glyph-name="space" unicode="&#xa0;" horiz-adv-x="492" 
 />
    <glyph glyph-name="exclam" unicode="!" horiz-adv-x="621" 
d="M175 216h275v-216h-275v216zM164 1376h298l-25 -938h-248z" />
    <glyph glyph-name="quotedbl" unicode="&#x22;" horiz-adv-x="765" 
d="M427 1360h267l-72 -474l-195 10v464zM79 1360h269l-73 -474l-196 10v464z" />
    <glyph glyph-name="numbersign" unicode="#" horiz-adv-x="1455" 
d="M604 554h199l30 234h-199zM102 344v210h242l30 234h-219v210h246l46 362h260l-46 -362h199l46 362h262l-46 -362h209v-210h-236l-30 -234h216v-210h-243l-44 -344h-261l44 344h-199l-44 -344h-260l44 344h-216z" />
    <glyph glyph-name="dollar" unicode="$" 
d="M794 371q0 97 -95 139t-169 66q-180 59 -284 156t-104 248q0 225 131.5 296.5t211.5 88.5v231h273v-225q178 -27 305 -93l-57 -217q-177 60 -243.5 69.5t-111.5 9.5q-101 0 -149.5 -42t-48.5 -108q0 -97 79.5 -136.5t167.5 -67.5q204 -64 303.5 -159.5t99.5 -246.5
t-92.5 -252.5t-253.5 -133.5v-254h-272v248q-205 22 -343 90l73 216q402 -130 490.5 -62.5t88.5 139.5z" />
    <glyph glyph-name="percent" unicode="%" horiz-adv-x="1607" 
d="M1151 1360h192l-916 -1360h-192zM1071 286q0 -72 34 -112.5t89 -40.5t88.5 40.5t33.5 112.5t-33.5 112t-88.5 40t-89 -40t-34 -112zM868 286q0 140 90.5 222t235.5 82q144 0 235 -81t91 -223q0 -141 -90.5 -222.5t-235.5 -81.5q-146 0 -236 82t-90 222zM297 1076
q0 -73 34.5 -113.5t88.5 -40.5t88.5 40.5t34.5 113.5t-34.5 112.5t-88.5 39.5t-88.5 -39.5t-34.5 -112.5zM93 1076q0 141 91.5 222.5t235.5 81.5t235 -82t91 -222q0 -141 -91 -222.5t-235 -81.5q-145 0 -236 81.5t-91 222.5z" />
    <glyph glyph-name="ampersand" unicode="&#x26;" horiz-adv-x="1372" 
d="M731 1152.5q-37 29.5 -78 29.5q-70 0 -113 -35.5t-43 -100.5t72 -140l24 -27q106 71 140.5 107t34.5 87q0 50 -37 79.5zM386 359q0 -72 56.5 -113.5t135.5 -41.5q132 0 239 63l-287 311q-64 -47 -104 -97t-40 -122zM972 99q-190 -119 -402 -119t-351 98.5t-139 266.5
t115.5 260.5t182.5 137.5l-57 63q-107 117 -107 255t111 227.5t300 89.5t300 -82.5t111 -216.5t-90.5 -208t-142.5 -112l-59 -41l265 -284q46 52 127 158l175 -150q-62 -98 -141 -181l175 -187l-228 -132z" />
    <glyph glyph-name="quotesingle" unicode="'" horiz-adv-x="374" 
d="M69 1360h269l-72 -454l-197 10v444z" />
    <glyph glyph-name="parenleft" unicode="(" horiz-adv-x="765" 
d="M426 573q0 -523 259 -875l-182 -60q-375 431 -375 922q0 276 107 534.5t277 419.5l185 -60q-271 -358 -271 -881z" />
    <glyph glyph-name="parenright" unicode=")" horiz-adv-x="765" 
d="M342 581q0 519 -261 873l183 60q377 -417 377 -922q0 -278 -108 -535t-278 -419l-183 60q270 364 270 883z" />
    <glyph glyph-name="asterisk" unicode="*" horiz-adv-x="1053" 
d="M641 1360l-20 -298l275 146l92 -177l-315 -126l230 -242l-160 -118l-193 262l-191 -277l-170 117l222 251l-323 113l89 179l278 -136l-21 306h207z" />
    <glyph glyph-name="plus" unicode="+" horiz-adv-x="1125" 
d="M434 550h-332v218h332v316h262v-316h330v-218h-330v-318h-262v318z" />
    <glyph glyph-name="comma" unicode="," horiz-adv-x="587" 
d="M196 212h282l-168 -516l-194 32z" />
    <glyph glyph-name="hyphen" unicode="-" horiz-adv-x="764" 
d="M102 570v226h563v-226h-563z" />
    <glyph glyph-name="period" unicode="." horiz-adv-x="573" 
d="M146 244h284v-244h-284v244z" />
    <glyph glyph-name="slash" unicode="/" horiz-adv-x="891" 
d="M615 1360h222l-561 -1500h-222z" />
    <glyph glyph-name="zero" unicode="0" 
d="M598 1174q-202 0 -202 -488t202 -488q207 0 207 488t-207 488zM228.5 1192q130.5 188 370.5 188q241 0 374 -188.5t133 -514.5t-132 -511.5t-375 -185.5q-242 0 -371.5 185t-129.5 512t130.5 515z" />
    <glyph glyph-name="one" unicode="1" 
d="M221 0v196h275v933l-301 -78v197l369 112h230v-1164h272v-196h-845z" />
    <glyph glyph-name="two" unicode="2" 
d="M1092 218v-218h-961l-1 127q0 275 160 401t244 174q145 82 193.5 142t48.5 136q0 75 -60.5 120.5t-134.5 45.5q-116 0 -189.5 -24t-193.5 -78l-72 193q134 91 265 117t221 26t179 -26.5t190 -105t101 -252.5q0 -208 -145 -309t-211 -143q-152 -96 -218.5 -161t-77.5 -165
h662z" />
    <glyph glyph-name="three" unicode="3" 
d="M125 1281q163 99 432 99q84 0 177.5 -27.5t196.5 -104t103 -244.5q0 -109 -62.5 -188t-174.5 -119q132 -40 206 -126.5t74 -188.5q0 -189 -147.5 -295.5t-390.5 -106.5q-186 0 -291.5 37t-141.5 59l61 192q163 -70 351 -70t229.5 72t41.5 122q0 99 -74.5 146.5
t-202.5 47.5h-187v218h187q162 0 197.5 70t35.5 115q0 172 -266 172q-132 0 -276 -58z" />
    <glyph glyph-name="four" unicode="4" 
d="M671 464v553l-333 -553h333zM969 244v-244h-298v244h-609v182l564 934h343v-896h171v-220h-171z" />
    <glyph glyph-name="five" unicode="5" 
d="M630 875q221 0 342 -118t121 -322t-150 -329.5t-414 -125.5q-174 0 -271 29.5t-129 46.5l45 200q147 -58 301 -58q313 0 313 240q0 219 -220 219q-126 0 -198 -32l-243 40l97 695h777v-220h-542l-50 -289q105 24 221 24z" />
    <glyph glyph-name="six" unicode="6" 
d="M820 404q0 134 -45 200t-145 66q-136 0 -214 -99q19 -373 220 -373q89 0 136.5 66.5t47.5 139.5zM1015 763q100 -109 100 -314t-135 -337t-372 -132q-238 0 -369 181t-131 505t161.5 519t429.5 195q147 0 204 -19t84 -29l-41 -202q-89 32 -177 32q-318 0 -352 -404
q116 114 307 114t291 -109z" />
    <glyph glyph-name="seven" unicode="7" 
d="M1101 1360v-146l-514 -1214h-294l489 1152h-687v208h1006z" />
    <glyph glyph-name="eight" unicode="8" 
d="M434 984q0 -86 45 -135t119 -49t120 48.5t46 135.5t-46 132.5t-120 45.5t-119 -46t-45 -132zM443.5 249q58.5 -51 152.5 -51q152 0 184.5 74t32.5 120q0 93 -60.5 148t-154.5 55q-95 0 -154 -55.5t-59 -147.5t58.5 -143zM1114 390q0 -197 -142 -303.5t-375 -106.5
t-373 106.5t-140 298.5q0 108 61.5 189t170.5 127q-181 94 -181 284t124.5 292.5t337.5 102.5t340 -102.5t127 -292.5t-185 -284q110 -46 172.5 -127.5t62.5 -183.5z" />
    <glyph glyph-name="nine" unicode="9" 
d="M575 684q133 0 209 100q-16 307 -94 342.5t-125 35.5q-91 0 -138 -65.5t-47 -171.5q0 -169 70.5 -205t124.5 -36zM784 587q-117 -113 -301 -113q-185 0 -291.5 125t-106.5 325t137.5 328t367.5 128q503 0 503 -710q0 -311 -151.5 -500.5t-408.5 -189.5q-149 0 -208 19
t-86 29l39 204q95 -34 182 -34t195.5 48t128.5 341z" />
    <glyph glyph-name="colon" unicode=":" horiz-adv-x="614" 
d="M156 914h284v-244h-284v244zM156 244h284v-244h-284v244z" />
    <glyph glyph-name="semicolon" unicode=";" horiz-adv-x="574" 
d="M175 212h282l-168 -516l-194 32zM156 917h284v-244h-284v244z" />
    <glyph glyph-name="less" unicode="&#x3c;" horiz-adv-x="1086" 
d="M981 294v-256l-885 348v244l885 348v-256l-585 -214z" />
    <glyph glyph-name="equal" unicode="=" horiz-adv-x="1151" 
d="M112 266v206h931v-206h-931zM112 662v206h931v-206h-931z" />
    <glyph glyph-name="greater" unicode="&#x3e;" horiz-adv-x="1094" 
d="M108 722v256l886 -348v-244l-886 -348v256l584 214z" />
    <glyph glyph-name="question" unicode="?" horiz-adv-x="1044" 
d="M311 212h273v-212h-273v212zM516 1380q192 0 310 -95t118 -266t-109 -264t-145 -123q-65 -55 -88 -107.5t-23 -150.5h-270q0 156 27.5 222.5t59 104t77.5 71.5q96 70 136 119.5t40 98.5q0 83 -54 125.5t-144 42.5q-145 0 -327 -86l-58 192q201 116 450 116z" />
    <glyph glyph-name="at" unicode="@" horiz-adv-x="1851" 
d="M726 343q0 -189 125 -189q134 0 201 131l47 464q-53 17 -113 17q-116 0 -177.5 -92.5t-79.5 -273.5q-3 -30 -3 -57zM1257 244q0 -120 75 -120q106 0 173 106.5t67 202v110.5q0 487 -224 580t-377 93q-302 0 -482 -203.5t-194 -552.5q-1 -15 -1 -30v-30q0 -315 160 -496.5
t447 -181.5q138 0 231.5 27.5t127.5 42.5l34 -142q-106 -62 -227.5 -74t-171.5 -12q-375 0 -587.5 224t-212.5 616v125.5t70 292t245 361.5t555 181t583.5 -220t203.5 -604v-124q0 -123 -118 -279.5t-348 -156.5q-80 0 -136.5 43t-81.5 121q-94 -160 -286 -160
q-133 0 -210 94t-77 247t90 380t361 227q174 0 251.5 -40.5t113.5 -61.5l-3 -4h5l-54 -544q-2 -22 -2 -38z" />
    <glyph glyph-name="A" unicode="A" horiz-adv-x="1361" 
d="M507 504h349l-175 536zM927 284h-491l-92 -284h-294l469 1360h325l470 -1360h-294z" />
    <glyph glyph-name="B" unicode="B" horiz-adv-x="1308" 
d="M814 968q0 162 -212 162h-152v-335h310q54 76 54 173zM916 404q0 185 -221 185h-245v-359h217q179 0 214 64.5t35 109.5zM151 1360h467q231 0 363 -99t132 -275t-160 -287q121 -34 188 -113.5t67 -183.5q0 -192 -140.5 -297t-378.5 -105h-538v1360z" />
    <glyph glyph-name="C" unicode="C" horiz-adv-x="1132" 
d="M776 -20q-180 0 -301 50.5t-206 142.5t-131 221.5t-46 367t181 428t491 190.5q165 0 294 -53l-51 -202q-102 37 -210 37q-107 0 -177 -28t-119 -86.5t-75.5 -149t-26.5 -276t100.5 -305t279.5 -119.5q131 0 266 53l47 -203q-136 -68 -316 -68z" />
    <glyph glyph-name="D" unicode="D" horiz-adv-x="1380" 
d="M450 1142v-924h136q281 0 336 171.5t55 349t-103 290.5t-288 113h-136zM151 1360h457q308 0 491.5 -185t183.5 -493t-183.5 -495t-491.5 -187h-457v1360z" />
    <glyph glyph-name="E" unicode="E" horiz-adv-x="1092" 
d="M151 0v1360h876v-220h-577v-346h512v-220h-512v-354h577v-220h-876z" />
    <glyph glyph-name="F" unicode="F" horiz-adv-x="1011" 
d="M450 574v-574h-299v1360h833v-220h-534v-346h468v-220h-468z" />
    <glyph glyph-name="G" unicode="G" horiz-adv-x="1369" 
d="M978 526h-251v218h525v-664q-221 -100 -467 -100q-310 0 -495 203t-185 502t198 497t531 198q199 0 347 -66l-43 -201q-147 49 -274 49q-231 0 -346 -126.5t-115 -346.5q0 -221 109 -356t299 -135q98 0 167 22v306z" />
    <glyph glyph-name="H" unicode="H" horiz-adv-x="1447" 
d="M151 1360h298v-572h552v572h299v-1360h-299v568h-552v-568h-298v1360z" />
    <glyph glyph-name="I" unicode="I" horiz-adv-x="853" 
d="M108 0v170h171v1020h-171v170h641v-170h-172v-1020h172v-170h-641z" />
    <glyph glyph-name="J" unicode="J" horiz-adv-x="943" 
d="M496 393v967h298v-979q0 -323 -162.5 -362t-256.5 -39q-193 0 -315 52l38 202q108 -34 186 -34t145 19.5t67 173.5z" />
    <glyph glyph-name="K" unicode="K" horiz-adv-x="1300" 
d="M448 566v-566h-299v1360h299v-571h156l293 571h310l-351 -674l424 -686h-329l-348 566h-155z" />
    <glyph glyph-name="L" unicode="L" horiz-adv-x="1011" 
d="M151 1360h298v-1140h533v-220h-831v1360z" />
    <glyph glyph-name="M" unicode="M" horiz-adv-x="1690" 
d="M1544 1360v-1360h-299v509l26 471l-333 -602h-179l-337 611l27 -470v-519h-298v1360h338l360 -641l360 641h335z" />
    <glyph glyph-name="N" unicode="N" horiz-adv-x="1478" 
d="M151 1360h298v-1l1 1l581 -917v917h299v-1360h-299l-582 919v-919h-298v1360z" />
    <glyph glyph-name="O" unicode="O" horiz-adv-x="1427" 
d="M382 680q0 -228 87.5 -355t244.5 -127t244 126t87 416.5t-126.5 356t-204.5 65.5t-139.5 -32t-127 -127t-65.5 -323zM82 680q0 322 170.5 511t460.5 189q289 0 460.5 -189t171.5 -511t-171 -511t-461 -189t-460.5 189t-170.5 511z" />
    <glyph glyph-name="P" unicode="P" horiz-adv-x="1250" 
d="M449 1142v-437h183q255 0 255 220q0 112 -63.5 164.5t-191.5 52.5h-183zM151 1360h503q256 0 397 -118.5t141 -316.5t-140.5 -318t-397.5 -120h-205v-487h-298v1360z" />
    <glyph glyph-name="Q" unicode="Q" horiz-adv-x="1432" 
d="M384 680q0 -228 87.5 -355t244.5 -127t244 126t87 416.5t-126.5 356t-204.5 65.5t-139.5 -32t-127 -127t-65.5 -323zM690 -20q-118 0 -235.5 48.5t-244 189t-126.5 462.5t170.5 511t460.5 189q289 0 460.5 -189t171.5 -511q0 -367 -217 -557l264 -316h-330l-164 196
q-92 -23 -210 -23z" />
    <glyph glyph-name="R" unicode="R" horiz-adv-x="1307" 
d="M864 932q0 115 -57 162.5t-174 47.5h-183v-410h335q79 85 79 200zM151 1360h490q254 0 391.5 -113t137.5 -315q0 -203 -209 -352l285 -580h-314l-250 514h-232v-514h-299v1360z" />
    <glyph glyph-name="S" unicode="S" horiz-adv-x="1100" 
d="M498 220q224 0 224 151q0 97 -94 139t-168 66q-178 59 -280 156.5t-102 262.5t133 275t353 110q172 0 281.5 -42t142.5 -60l-56 -217q-179 61 -242.5 70t-108.5 9q-99 0 -147.5 -42t-48.5 -108q0 -97 79.5 -136.5t165.5 -67.5q202 -64 300 -160t98 -262t-133 -275
t-336 -109t-319.5 37.5t-161.5 60.5l72 216q226 -74 348 -74z" />
    <glyph glyph-name="T" unicode="T" horiz-adv-x="1148" 
d="M725 1140v-1140h-299v1140h-386v220h1070v-220h-385z" />
    <glyph glyph-name="U" unicode="U" horiz-adv-x="1432" 
d="M986 1360h298v-924q0 -214 -155 -335t-412 -121t-411.5 122.5t-154.5 337.5v920h299v-920q0 -116 73 -179t193 -63q192 0 231 91.5t39 150.5v920z" />
    <glyph glyph-name="V" unicode="V" horiz-adv-x="1312" 
d="M563 664l95 -359l96 360l211 695h309l-453 -1360h-328l-453 1360h312z" />
    <glyph glyph-name="W" unicode="W" horiz-adv-x="1851" 
d="M1496 1360h308l-291 -1360h-324l-260 924l-264 -924h-322l-294 1360h312l165 -985l275 985h254l273 -987z" />
    <glyph glyph-name="X" unicode="X" horiz-adv-x="1234" 
d="M618 909l261 451h320l-405 -671l405 -689h-322l-258 460l-257 -460h-325l405 689l-405 671h322z" />
    <glyph glyph-name="Y" unicode="Y" horiz-adv-x="1246" 
d="M772 0h-298v464l-434 896h306l278 -600l281 600h302l-435 -902v-458z" />
    <glyph glyph-name="Z" unicode="Z" horiz-adv-x="1198" 
d="M114 1360h956v-170l-615 -971h662l-43 -219h-966v174l604 967h-598v219z" />
    <glyph glyph-name="bracketleft" unicode="[" horiz-adv-x="857" 
d="M254 1524h462v-206h-164v-1412h164v-206h-462v1824z" />
    <glyph glyph-name="backslash" unicode="\" horiz-adv-x="951" 
d="M38 1360h298l560 -1500h-299z" />
    <glyph glyph-name="bracketright" unicode="]" horiz-adv-x="832" 
d="M581 1524v-1824h-435v206h162v1412h-162v206h435z" />
    <glyph glyph-name="asciicircum" unicode="^" horiz-adv-x="993" 
d="M329 708h-238l295 652h224l296 -652h-240l-169 390z" />
    <glyph glyph-name="underscore" unicode="_" horiz-adv-x="973" 
d="M-1 -294v206h976v-206h-976z" />
    <glyph glyph-name="grave" unicode="`" horiz-adv-x="708" 
d="M597 1164l-206 -52l-335 248l288 48z" />
    <glyph glyph-name="a" unicode="a" horiz-adv-x="1138" 
d="M496 188q107 0 209 61v185h-155q-93 -2 -133.5 -47.5t-40.5 -93.5q0 -49 34.5 -77t85.5 -28zM716 103q-140 -119 -324 -119q-143 0 -230.5 81.5t-87.5 213.5t130 228.5t323 96.5h178v18q0 136 -72.5 152t-116.5 16q-79 0 -163.5 -19.5t-136.5 -44.5l-51 205
q169 89 405 89q196 0 314.5 -88.5t118.5 -309.5v-622h-268z" />
    <glyph glyph-name="b" unicode="b" horiz-adv-x="1238" 
d="M623 198q215 0 215 302t-205 302q-105 0 -192 -62v-479q86 -63 182 -63zM140 1402h301v-475q114 93 294 93t294 -141t114 -377t-114 -379t-303 -143q-109 0 -178.5 29t-129.5 85l-24 -94h-254v1402z" />
    <glyph glyph-name="c" unicode="c" horiz-adv-x="957" 
d="M647 -20q-149 0 -247 37.5t-167 106t-106 164.5t-37 273.5t142 318t380 140.5q175 0 285 -54l-55 -196q-82 32 -162 32t-128.5 -17.5t-83 -54t-53 -93t-18.5 -172.5t69.5 -191.5t188.5 -75.5t213 36l41 -189q-113 -65 -262 -65z" />
    <glyph glyph-name="d" unicode="d" horiz-adv-x="1228" 
d="M400 425.5q0 -227.5 203 -227.5q103 0 188 60v484q-88 60 -162 60q-75 0 -115 -19.5t-77 -74.5t-37 -282.5zM791 1400h298v-1400h-261l-20 84q-116 -104 -302 -104q-185 0 -299 143t-114 379t114 377t293 141t291 -91v471z" />
    <glyph glyph-name="e" unicode="e" horiz-adv-x="1106" 
d="M580 814q-78 0 -124.5 -44t-64.5 -153h361q0 150 -68 173.5t-104 23.5zM386 435q29 -237 275 -237q127 0 260 39l60 -178q-131 -79 -342 -79q-262 0 -409 135t-147 380t138.5 385t373.5 140q183 0 307.5 -113t124.5 -290v-182h-641z" />
    <glyph glyph-name="f" unicode="f" horiz-adv-x="780" 
d="M626 1200q-67 0 -102.5 -36t-35.5 -126v-38h269v-187h-269v-813h-299v813h-145l7 187h138v38q0 298 161.5 340t263.5 42t202 -30l-17 -204q-106 14 -173 14z" />
    <glyph glyph-name="g" unicode="g" horiz-adv-x="1184" 
d="M409 -57q-61 -43 -61 -114t73 -94t146 -23q128 0 196 36.5t68 89.5q0 52 -39.5 78.5t-138.5 26.5h-244zM401 646q0 -166 180.5 -166t180.5 166q0 84 -47.5 126t-132.5 42t-133 -42t-48 -126zM276 354q-176 93 -176 280t132.5 286.5t349.5 99.5q93 0 175 -20h386l-17 -140
h-133q70 -91 70 -196q0 -189 -130.5 -281.5t-350.5 -92.5q-69 0 -144 11q-27 -33 -27 -80t27 -83h246q342 0 391 -123.5t47 -194.5q-4 -141 -156 -227t-391 -86q-412 0 -472.5 112.5t-60.5 168.5q0 140 179 222q-63 71 -63 149q0 116 118 195z" />
    <glyph glyph-name="h" unicode="h" horiz-adv-x="1238" 
d="M662 802q-114 0 -221 -78v-724h-301v1400h301v-487q138 107 308 107q169 0 259.5 -85.5t90.5 -300.5v-634h-298v634q0 92 -33 130t-106 38z" />
    <glyph glyph-name="i" unicode="i" horiz-adv-x="621" 
d="M160 1402h305v-212h-305v212zM164 1000h298v-1000h-298v1000z" />
    <glyph glyph-name="j" unicode="j" horiz-adv-x="622" 
d="M181 1402h306v-212h-306v212zM153 -201q33 37 33 131v1070h298v-1070q0 -312 -147 -350t-201 -38q-181 0 -284 42l34 197q76 -19 155 -19t112 37z" />
    <glyph glyph-name="k" unicode="k" horiz-adv-x="1118" 
d="M441 406v-406h-301v1400h301v-771h108l190 371h317l-267 -474l313 -526h-326l-224 406h-111z" />
    <glyph glyph-name="l" unicode="l" horiz-adv-x="621" 
d="M164 1400h298v-1400h-298v1400z" />
    <glyph glyph-name="m" unicode="m" horiz-adv-x="1865" 
d="M635 802q-92 0 -194 -73v-729h-301v1000h252l24 -95q149 115 320 115q226 0 305 -116q150 116 327 116t267.5 -85t90.5 -293v-642h-299v642q0 87 -33.5 123.5t-121.5 36.5t-182 -63q2 -20 2 -41v-698h-299v674q0 71 -33 99.5t-125 28.5z" />
    <glyph glyph-name="n" unicode="n" horiz-adv-x="1238" 
d="M662 802q-113 0 -221 -79v-723h-301v1000h252l28 -104q149 124 324 124t265 -84.5t90 -297.5v-638h-298v638q0 131 -51.5 147.5t-87.5 16.5z" />
    <glyph glyph-name="o" unicode="o" horiz-adv-x="1210" 
d="M383 500q0 -302 223.5 -302t223.5 302q0 232 -87.5 267t-164 35t-136 -72.5t-59.5 -229.5zM83 500q0 239 144 379.5t379 140.5t379 -140t144 -380q0 -239 -143.5 -379.5t-379.5 -140.5t-379.5 140.5t-143.5 379.5z" />
    <glyph glyph-name="p" unicode="p" horiz-adv-x="1231" 
d="M838 500q0 302 -205 302q-105 0 -192 -62v-480q84 -62 191 -62q206 0 206 302zM140 1000h263l20 -88q64 57 132 82.5t167 25.5t176 -37t131.5 -105t84 -164t29.5 -273t-113.5 -319t-303.5 -142q-140 0 -199 35.5t-86 57.5v-473h-301v1400z" />
    <glyph glyph-name="q" unicode="q" horiz-adv-x="1228" 
d="M477 235.5q77 -37.5 153 -37.5t161 60v484q-88 60 -162 60q-75 0 -152 -38.5t-77 -264.5t77 -263.5zM487 -20q-72 0 -149 37t-131.5 105t-84 164t-29.5 273t113.5 319t302.5 142q153 0 213.5 -41.5t89.5 -66.5l24 88h253v-1400h-298v470q-88 -68 -160 -79t-144 -11z" />
    <glyph glyph-name="r" unicode="r" horiz-adv-x="785" 
d="M649 782q-111 0 -208 -126v-656h-301v1000h252l29 -137q108 157 272 157q44 0 84 -4l-17 -242q-42 8 -111 8z" />
    <glyph glyph-name="s" unicode="s" horiz-adv-x="974" 
d="M554 807q-151 0 -151 -95q0 -43 36 -68.5t122 -47.5q334 -89 334 -304q0 -143 -116.5 -227.5t-327.5 -84.5q-210 0 -370 80l41 198q160 -51 215.5 -58t98.5 -7q150 0 150 105q0 62 -73 85.5t-126 37.5q-130 34 -211.5 105.5t-81.5 201.5t116 211t308 81q191 0 348 -66
l-46 -202q-137 43 -183.5 49t-82.5 6z" />
    <glyph glyph-name="t" unicode="t" horiz-adv-x="829" 
d="M583 -9q-111 0 -252.5 34t-141.5 336v452h-155l10 187h145v260l299 20v-280h282v-187h-282v-452q0 -80 30 -112t98 -32t153 18l24 -208q-99 -36 -210 -36z" />
    <glyph glyph-name="u" unicode="u" horiz-adv-x="1238" 
d="M579 198q115 0 222 80v722h298v-1000h-250l-27 108q-149 -128 -325 -128t-266.5 87.5t-90.5 310.5v622h301v-622q0 -143 51 -161.5t87 -18.5z" />
    <glyph glyph-name="v" unicode="v" horiz-adv-x="1038" 
d="M11 1000h304l137 -450l69 -294l73 296l133 448h304l-358 -1000h-304z" />
    <glyph glyph-name="w" unicode="w" horiz-adv-x="1528" 
d="M1199 1000h285l-252 -1000h-266l1 2l-200 655l-204 -655l2 -2h-263l-253 1000h285l117 -691l207 691h219l204 -685z" />
    <glyph glyph-name="x" unicode="x" horiz-adv-x="1094" 
d="M369 0h-326l350 508l-341 492h322l176 -298l174 298h321l-340 -492l350 -508h-327l-179 307z" />
    <glyph glyph-name="y" unicode="y" horiz-adv-x="1084" 
d="M309 -412q-70 0 -149 18l20 208l68 -2q67 -1 95.5 26.5t56.5 110.5l-368 1051h304l203 -704l212 704h304l-377 -1050q-82 -290 -190.5 -326t-178.5 -36z" />
    <glyph glyph-name="z" unicode="z" horiz-adv-x="967" 
d="M83 1000h777v-156l-430 -625h485l-42 -219h-796l-1 172l420 609h-413v219z" />
    <glyph glyph-name="braceleft" unicode="{" horiz-adv-x="805" 
d="M555 294v-236q0 -144 36 -214t123 -70l-35 -148q-320 0 -365 161.5t-45 270.5v236q0 174 -72 193t-113 19v167q91 0 138 46t47 166v220q0 222 96.5 327t313.5 105l35 -148q-87 0 -123 -69.5t-36 -214.5v-220q0 -212 -201 -296q201 -79 201 -295z" />
    <glyph glyph-name="bar" unicode="|" horiz-adv-x="474" 
d="M102 1524h272v-1824h-272v1824z" />
    <glyph glyph-name="braceright" unicode="}" horiz-adv-x="805" 
d="M255 869v236q0 145 -36.5 214.5t-122.5 69.5l35 148q217 0 313 -106t96 -326v-236q0 -174 72.5 -193t114.5 -19v-167q-138 0 -162.5 -74t-24.5 -138v-220q0 -330 -150 -381t-259 -51l-35 148q87 0 123 69.5t36 214.5v220q0 216 200 295q-200 84 -200 296z" />
    <glyph glyph-name="asciitilde" unicode="~" horiz-adv-x="1413" 
d="M597 740q65 -26 136 -76q207 -148 287 -86t119 155l170 -116q-42 -145 -139 -217t-214 -72q-118 0 -189 43.5t-117 77.5q-209 156 -285 59t-97 -147l-168 116q41 147 138 218t196 71q98 0 163 -26z" />
    <glyph glyph-name="exclamdown" unicode="&#xa1;" horiz-adv-x="569" 
d="M420 784h-275v216h275v-216zM431 -376h-298l25 938h248z" />
    <glyph glyph-name="cent" unicode="&#xa2;" 
d="M782 -194h-214v188q-181 38 -285 173t-104 335.5t103.5 333.5t285.5 171v167h214v-157q120 -9 204 -51l-55 -196q-82 32 -162 32t-128.5 -17.5t-83 -54t-53 -93t-18.5 -172.5t69.5 -191.5t188.5 -75.5t213 36l41 -189q-89 -51 -216 -62v-177z" />
    <glyph glyph-name="sterling" unicode="&#xa3;" horiz-adv-x="1175" 
d="M833 1148q-87 0 -125.5 -10.5t-71.5 -43.5t-33 -142v-165h315v-209h-315v-117q0 -85 -32.5 -141.5t-98.5 -99.5h646v-220h-1018v220h8l-6 2q98 0 150 73t52 182v101h-197l29 209h168v207q0 206 119.5 296t365.5 90q125 0 242 -30l-1 -224q-110 22 -197 22z" />
    <glyph glyph-name="currency" unicode="&#xa4;" horiz-adv-x="1425" 
d="M699 200q69 0 127 22t99 63.5t64 101t23 133.5t-23 133.5t-64 101t-99 64t-127 22.5t-126.5 -22.5t-99 -64t-64.5 -101t-23 -133.5t23 -133.5t64.5 -101t99 -63.5t126.5 -22zM699.5 1060q165.5 0 303.5 -75l141 129l180 -163l-142 -129q91 -132 91 -303t-95 -308
l144 -131l-179 -162l-147 133q-130 -71 -297 -71t-297 71l-146 -133l-180 162l145 130q-96 138 -96 309q0 172 92 305l-141 127l180 163l140 -129q138 75 303.5 75z" />
    <glyph glyph-name="yen" unicode="&#xa5;" 
d="M1062 646v-146h-299l-20 -42v-91h319v-146h-319v-221h-298v221h-295v146h295v98l-17 35h-278v146h207l-346 714h306l278 -600l281 600h302l-345 -714h229z" />
    <glyph glyph-name="brokenbar" unicode="&#xa6;" horiz-adv-x="474" 
d="M375 762h-273v762h273v-762zM102 514h273v-814h-273v814z" />
    <glyph glyph-name="section" unicode="&#xa7;" horiz-adv-x="1201" 
d="M842 380q0 82 -61.5 129t-172.5 81t-177 63q-70 -55 -70 -150q0 -62 52 -108t177 -85t187 -64q65 52 65 134zM1060 -62q0 -194 -130.5 -303.5t-358.5 -109.5t-439 101l57 214q179 -57 254 -66t143 -9t117.5 40t49.5 112q0 83 -112 120t-187 57q-167 46 -269 141.5
t-102 232.5q0 194 169 293q-106 95 -106 219q0 182 132 292t354 110q167 0 277 -42.5t142 -60.5l-52 -214q-181 59 -243.5 68t-107.5 9q-99 0 -147 -42.5t-48 -109.5q0 -78 102.5 -117.5t176.5 -60.5q199 -57 292.5 -151.5t93.5 -237.5q0 -185 -150 -293q92 -88 92 -192z
" />
    <glyph glyph-name="dieresis" unicode="&#xa8;" horiz-adv-x="1051" 
d="M648 1414h269v-188h-269v188zM123 1414h269v-188h-269v188z" />
    <glyph glyph-name="copyright" unicode="&#xa9;" horiz-adv-x="1754" 
d="M878 104q123 0 230.5 35t187.5 106.5t126.5 179.5t46.5 255t-46.5 255.5t-126.5 180t-187.5 106.5t-230.5 35t-230.5 -35t-187.5 -106.5t-126 -180t-46 -255.5t46 -255t126 -179.5t187.5 -106.5t230.5 -35zM878 1380q157 0 292 -49t233.5 -140t154.5 -220.5t56 -290.5
t-56 -290.5t-154.5 -220.5t-233.5 -140t-292 -49t-291.5 49t-233.5 140t-155 220.5t-56 290.5t56 290.5t155 220.5t233.5 140t291.5 49zM909 274q-192 0 -300 106.5t-108 289t99.5 287.5t268.5 105t270 -62l-44 -137q-92 41 -207 41q-196 0 -196 -234q0 -178 80 -208
t125 -30q128 0 225 51l45 -135q-113 -74 -258 -74z" />
    <glyph glyph-name="ordfeminine" unicode="&#xaa;" horiz-adv-x="870" 
d="M286 875q0 -70 106 -70q51 0 123 43v104h-100q-67 -2 -98 -28.5t-31 -48.5zM404 1214q-140 0 -242 -46l-40 149q136 63 292 63t239 -62.5t83 -216.5v-433h-203l-11 72q-110 -84 -216 -84q-175 0 -208.5 80t-33.5 125q0 94 96.5 157t237.5 63h117v20q0 64 -33 88.5
t-78 24.5z" />
    <glyph glyph-name="guillemotleft" unicode="&#xab;" horiz-adv-x="1160" 
d="M609 152l-134 -110l-373 386v84l373 406l134 -110l-228 -336zM1065 152l-134 -110l-373 386v84l373 406l134 -110l-228 -336z" />
    <glyph glyph-name="logicalnot" unicode="&#xac;" horiz-adv-x="1227" 
d="M108 563v220h977v-474h-253v254h-724z" />
    <glyph glyph-name="uni00AD" unicode="&#xad;" horiz-adv-x="1159" 
d="M86 538v194h977v-194h-977z" />
    <glyph glyph-name="registered" unicode="&#xae;" horiz-adv-x="1754" 
d="M1012 810q0 91 -118 91h-114v-181h145q55 8 71 38.5t16 51.5zM1195 824q0 -121 -118 -186l149 -306h-184l-123 262h-139v-262h-177v722h302q290 0 290 -230zM878 104q123 0 230.5 35t187.5 106.5t126.5 179.5t46.5 255t-46.5 255.5t-126.5 180t-187.5 106.5t-230.5 35
t-230.5 -35t-187.5 -106.5t-126 -180t-46 -255.5t46 -255t126 -179.5t187.5 -106.5t230.5 -35zM878 1380q157 0 292 -49t233.5 -140t154.5 -220.5t56 -290.5t-56 -290.5t-154.5 -220.5t-233.5 -140t-292 -49t-291.5 49t-233.5 140t-155 220.5t-56 290.5t56 290.5t155 220.5
t233.5 140t291.5 49z" />
    <glyph glyph-name="macron" unicode="&#xaf;" horiz-adv-x="969" 
d="M102 1422h768v-161h-768v161z" />
    <glyph glyph-name="degree" unicode="&#xb0;" horiz-adv-x="689" 
d="M434 1066.5q36 34.5 36 71.5q0 61 -35.5 95.5t-75.5 34.5q-67 0 -103 -34t-36 -71t9.5 -58.5t36.5 -47t80 -25.5q52 0 88 34.5zM518.5 1310q73.5 -66 73.5 -160t-73 -159t-174.5 -65t-172.5 65t-71 159q0 93 71.5 159.5t172 66.5t174 -66z" />
    <glyph glyph-name="plusminus" unicode="&#xb1;" horiz-adv-x="1113" 
d="M96 -2v192h907v-192h-907zM434 617h-332v218h332v316h262v-316h330v-218h-330v-318h-262v318z" />
    <glyph glyph-name="twosuperior" unicode="&#xb2;" horiz-adv-x="774" 
d="M581.5 1326.5q73.5 -53.5 73.5 -154.5t-81 -153t-138 -82t-94.5 -59.5t-48.5 -72.5h369v-137h-558l-1 70q0 143 90.5 205t140.5 87q86 43 112 69t26 66q0 69 -112 69q-83 0 -137 -22t-81 -32l-40 124q139 76 273 76q133 0 206.5 -53.5z" />
    <glyph glyph-name="threesuperior" unicode="&#xb3;" horiz-adv-x="702" 
d="M290 1380q316 0 316 -198q0 -115 -122 -158q144 -44 144 -169q0 -92 -74 -147.5t-226 -55.5t-261 51l34 123q114 -38 199 -38q149 0 149 84t-132 84h-138v136h138q110 0 110 75t-125 75q-86 0 -183 -31l-39 115q108 54 210 54z" />
    <glyph glyph-name="acute" unicode="&#xb4;" horiz-adv-x="708" 
d="M362 1408l290 -48l-335 -248l-194 40z" />
    <glyph glyph-name="mu" unicode="&#xb5;" horiz-adv-x="1240" 
d="M444 -400h-302l1 1400h301v-681q2 -68 40 -94.5t130 -26.5t190 76v726h298v-1000h-251l-23 94q-120 -114 -256 -114q-73 0 -128 13v-393z" />
    <glyph glyph-name="mu" unicode="&#x3bc;" horiz-adv-x="1240" 
d="M444 -400h-302l1 1400h301v-681q2 -68 40 -94.5t130 -26.5t190 76v726h298v-1000h-251l-23 94q-120 -114 -256 -114q-73 0 -128 13v-393z" />
    <glyph glyph-name="paragraph" unicode="&#xb6;" horiz-adv-x="1067" 
d="M944 0h-299v520h-25q-244 0 -381 114.5t-137 307.5t137 305.5t381 112.5h324v-1360z" />
    <glyph glyph-name="periodcentered" unicode="&#xb7;" horiz-adv-x="422" 
d="M102 196h221v-196h-221v196z" />
    <glyph glyph-name="cedilla" unicode="&#xb8;" horiz-adv-x="639" 
d="M303 -110q0 50 -52 123l239 25q40 -89 40 -157q0 -130 -91.5 -209t-270.5 -94l-64 139q136 10 167.5 66.5t31.5 106.5z" />
    <glyph glyph-name="onesuperior" unicode="&#xb9;" horiz-adv-x="513" 
d="M73 668v114h110v437l-123 -36v124l166 58h138v-583h108v-114h-399z" />
    <glyph glyph-name="ordmasculine" unicode="&#xba;" horiz-adv-x="903" 
d="M451 815q149 0 149 202q0 110 -41 156.5t-108 46.5q-101 0 -122 -74t-21 -202.5t143 -128.5zM187.5 1282.5q99.5 97.5 265.5 97.5t266.5 -97.5t100.5 -266.5q0 -168 -101 -265t-266 -97t-265 96.5t-100 265.5t99.5 266.5z" />
    <glyph glyph-name="guillemotright" unicode="&#xbb;" horiz-adv-x="1162" 
d="M94 808l134 110l372 -386v-84l-372 -406l-134 110l226 336zM552 808l134 110l372 -386v-84l-372 -406l-134 110l226 336z" />
    <glyph glyph-name="onequarter" unicode="&#xbc;" horiz-adv-x="1448" 
d="M111 669v114h110v437l-123 -36v124l166 58h138v-583h108v-114h-399zM1102 1360h192l-916 -1360h-192zM1144 247v281l-219 -281h219zM1308 125v-123h-164v123h-394v100l375 475h183v-453h85v-122h-85z" />
    <glyph glyph-name="onehalf" unicode="&#xbd;" horiz-adv-x="1565" 
d="M1392 658q74 -54 74 -155t-124 -181q-38 -24 -95 -54t-95 -60t-48 -72h369v-137h-558l-1 70q0 143 133 235q47 32 97 57q86 43 113 69q26 26 26 66q0 69 -112 69q-83 0 -137 -22t-81 -32l-40 124q139 76 273 76q132 1 206 -53zM111 668v114h110v437l-123 -36v124l166 58
h138v-583h108v-114h-399zM1119 1360h192l-916 -1360h-192z" />
    <glyph glyph-name="threequarters" unicode="&#xbe;" horiz-adv-x="1426" 
d="M290 1380q316 0 316 -198q0 -115 -122 -158q144 -44 144 -169q0 -91 -74 -147t-226 -56t-261 51l34 123q114 -38 199 -38q149 0 149 84t-132 84h-138v136h138q110 0 110 75t-125 75q-86 0 -183 -31l-39 115q108 54 210 54zM1158 1360h192l-916 -1360h-192zM1159 247v281
l-219 -281h219zM1323 125v-123h-164v123h-394v100l375 475h183v-453h85v-122h-85z" />
    <glyph glyph-name="questiondown" unicode="&#xbf;" horiz-adv-x="1043" 
d="M772 785h-273v212h273v-212zM567 -383q-192 0 -310 95t-118 266t171 317q47 40 83 71q65 55 88 107t23 150h270q0 -156 -27 -223q-27 -66 -59 -104q-31 -38 -78 -71q-96 -70 -136 -119t-40 -99q0 -83 54 -125t144 -43q145 0 327 86l58 -192q-201 -116 -450 -116z" />
    <glyph glyph-name="Agrave" unicode="&#xc0;" horiz-adv-x="1361" 
d="M507 504h349l-175 536zM927 284h-491l-92 -284h-294l469 1360h325l470 -1360h-294zM845 1524l-206 -52l-335 248l288 48z" />
    <glyph glyph-name="Aacute" unicode="&#xc1;" horiz-adv-x="1361" 
d="M507 504h349l-175 536zM927 284h-491l-92 -284h-294l469 1360h325l470 -1360h-294zM814 1770l290 -48l-335 -248l-194 40z" />
    <glyph glyph-name="Acircumflex" unicode="&#xc2;" horiz-adv-x="1361" 
d="M507 504h349l-175 536zM927 284h-491l-92 -284h-294l469 1360h325l470 -1360h-294zM599 1472h-258l296 232h174l295 -232h-258l-125 110z" />
    <glyph glyph-name="Atilde" unicode="&#xc3;" horiz-adv-x="1361" 
d="M507 504h349l-175 536zM927 284h-491l-92 -284h-294l469 1360h325l470 -1360h-294zM538 1778q89 0 189 -71q149 -106 250 51l121 -106q-103 -165 -257 -165q-84 0 -190 75q-82 55 -136 39t-105 -88l-122 100q99 165 250 165z" />
    <glyph glyph-name="Adieresis" unicode="&#xc4;" horiz-adv-x="1361" 
d="M507 504h349l-175 536zM927 284h-491l-92 -284h-294l469 1360h325l470 -1360h-294zM860 1660h269v-188h-269v188zM335 1660h269v-188h-269v188z" />
    <glyph glyph-name="Aring" unicode="&#xc5;" horiz-adv-x="1361" 
d="M507 504h349l-175 536zM927 284h-491l-92 -284h-294l469 1360h325l470 -1360h-294zM662 1588q36 0 59 23q24 23 24 55t-24 56q-23 22 -59 22t-62 -22t-25 -56q-1 -32 25 -55t62 -23zM660 1860q87 0 149 -58t62 -136q0 -79 -62 -137q-62 -57 -149 -57q-88 0 -149 57
t-61 137t62 137q61 57 148 57z" />
    <glyph glyph-name="AE" unicode="&#xc6;" horiz-adv-x="2031" 
d="M1054 516v501l-331 -501h331zM1054 296h-476l-195 -296l-319 1l915 1359h951v-220h-577v-346h512v-220h-512v-354h577v-220h-876v296z" />
    <glyph glyph-name="Ccedilla" unicode="&#xc7;" horiz-adv-x="1132" 
d="M845 -132q0 -117 -91 -196t-271 -94l-64 139q136 11 183 95q16 28 16 75t-42 111q-184 42 -307 175q-177 192 -177 509q0 318 181 508t491 190q165 0 294 -53l-51 -202q-102 37 -210 37q-107 0 -177 -28t-119 -86t-75 -150q-26 -90 -27 -216q0 -245 100 -364
q100 -120 280 -120q131 0 266 53l47 -203q-111 -56 -266 -66q19 -59 19 -114z" />
    <glyph glyph-name="Egrave" unicode="&#xc8;" horiz-adv-x="1092" 
d="M151 0v1360h876v-220h-577v-346h512v-220h-512v-354h577v-220h-876zM757 1522l-206 -52l-335 248l288 48z" />
    <glyph glyph-name="Eacute" unicode="&#xc9;" horiz-adv-x="1092" 
d="M151 0v1360h876v-220h-577v-346h512v-220h-512v-354h577v-220h-876zM726 1768l290 -48l-335 -248l-194 40z" />
    <glyph glyph-name="Ecircumflex" unicode="&#xca;" horiz-adv-x="1092" 
d="M151 0v1360h876v-220h-577v-346h512v-220h-512v-354h577v-220h-876zM511 1470h-258l296 232h174l295 -232h-258l-125 110z" />
    <glyph glyph-name="Edieresis" unicode="&#xcb;" horiz-adv-x="1092" 
d="M151 0v1360h876v-220h-577v-346h512v-220h-512v-354h577v-220h-876zM772 1658h269v-188h-269v188zM247 1658h269v-188h-269v188z" />
    <glyph glyph-name="Igrave" unicode="&#xcc;" horiz-adv-x="853" 
d="M108 0v170h171v1020h-171v170h641v-170h-172v-1020h172v-170h-641zM597 1522l-206 -52l-335 248l288 48z" />
    <glyph glyph-name="Iacute" unicode="&#xcd;" horiz-adv-x="853" 
d="M108 0v170h171v1020h-171v170h641v-170h-172v-1020h172v-170h-641zM566 1768l290 -48l-335 -248l-194 40z" />
    <glyph glyph-name="Icircumflex" unicode="&#xce;" horiz-adv-x="853" 
d="M108 0v170h171v1020h-171v170h641v-170h-172v-1020h172v-170h-641zM352 1470h-258l296 232h174l295 -232h-258l-125 110z" />
    <glyph glyph-name="Idieresis" unicode="&#xcf;" horiz-adv-x="853" 
d="M108 0v170h171v1020h-171v170h641v-170h-172v-1020h172v-170h-641zM613 1658h269v-188h-269v188zM88 1658h269v-188h-269v188z" />
    <glyph glyph-name="Eth" unicode="&#xd0;" horiz-adv-x="1440" 
d="M507 558v-340h136q281 0 336 171.5t55 349t-103 290.5t-288 113h-136v-366h254v-218h-254zM208 558h-106v218h106v584h457q308 0 491.5 -185t183.5 -493t-183.5 -495t-491.5 -187h-457v558z" />
    <glyph glyph-name="Ntilde" unicode="&#xd1;" horiz-adv-x="1478" 
d="M151 1360h298v-1l1 1l581 -917v917h299v-1360h-299l-582 919v-919h-298v1360zM888 1485q-84 0 -190 75q-82 55 -136 39t-105 -88l-122 100q99 165 250 165q89 0 189 -71q149 -106 250 51l121 -106q-103 -165 -257 -165z" />
    <glyph glyph-name="Ograve" unicode="&#xd2;" horiz-adv-x="1427" 
d="M382 680q0 -228 88 -355t244 -127q157 0 244 126t87 356q0 351 -192 450q-61 32 -139 32t-140 -32t-104 -94q-88 -128 -88 -356zM82 680q0 322 171 511t460 189t461 -189t171 -511q0 -322 -171 -511t-461 -189t-461 189q-170 189 -170 511zM875 1540l-206 -52l-335 248
l288 48z" />
    <glyph glyph-name="Oacute" unicode="&#xd3;" horiz-adv-x="1427" 
d="M382 680q0 -228 88 -355t244 -127q157 0 244 126t87 356q0 351 -192 450q-61 32 -139 32t-140 -32t-104 -94q-88 -128 -88 -356zM82 680q0 322 171 511t460 189t461 -189t171 -511q0 -322 -171 -511t-461 -189t-461 189q-170 189 -170 511zM844 1786l290 -48l-335 -248
l-194 40z" />
    <glyph glyph-name="Ocircumflex" unicode="&#xd4;" horiz-adv-x="1427" 
d="M382 680q0 -228 88 -355t244 -127q157 0 244 126t87 356q0 351 -192 450q-61 32 -139 32t-140 -32t-104 -94q-88 -128 -88 -356zM82 680q0 322 171 511t460 189t461 -189t171 -511q0 -322 -171 -511t-461 -189t-461 189q-170 189 -170 511zM629 1488h-258l296 232h174
l295 -232h-258l-125 110z" />
    <glyph glyph-name="Otilde" unicode="&#xd5;" horiz-adv-x="1427" 
d="M382 680q0 -228 88 -355t244 -127q157 0 244 126t87 356q0 351 -192 450q-61 32 -139 32t-140 -32t-104 -94q-88 -128 -88 -356zM82 680q0 322 171 511t460 189t461 -189t171 -511q0 -322 -171 -511t-461 -189t-461 189q-170 189 -170 511zM871 1503q-84 0 -190 75
q-82 55 -136 39t-105 -88l-122 100q99 165 250 165q89 0 189 -71q149 -106 250 51l121 -106q-103 -165 -257 -165z" />
    <glyph glyph-name="Odieresis" unicode="&#xd6;" horiz-adv-x="1427" 
d="M382 680q0 -228 88 -355t244 -127q157 0 244 126t87 356q0 351 -192 450q-61 32 -139 32t-140 -32t-104 -94q-88 -128 -88 -356zM82 680q0 322 171 511t460 189t461 -189t171 -511q0 -322 -171 -511t-461 -189t-461 189q-170 189 -170 511zM890 1676h269v-188h-269v188z
M365 1676h269v-188h-269v188z" />
    <glyph glyph-name="multiply" unicode="&#xd7;" horiz-adv-x="1082" 
d="M260 1038l282 -260l282 260l159 -146l-282 -260l280 -258l-158 -146l-280 258l-281 -258l-159 146l281 259l-282 260z" />
    <glyph glyph-name="Oslash" unicode="&#xd8;" horiz-adv-x="1481" 
d="M763 198q158 0 245 126t87 314q0 187 -37 296l-504 -652q82 -84 209 -84zM432 664q0 -132 38 -239l503 653q-82 84 -224 84t-229.5 -126.5t-87.5 -371.5zM286 187q-154 187 -154 501t170.5 503t460.5 189q210 0 363 -104l65 84h196l-146 -189q154 -187 154 -500
t-171 -502t-461 -189q-213 0 -362 103l-64 -83h-195z" />
    <glyph glyph-name="Ugrave" unicode="&#xd9;" horiz-adv-x="1432" 
d="M986 1360h298v-924q0 -214 -155 -335t-412 -121t-411 122q-155 122 -155 338v920h299v-920q0 -116 73 -179t193 -63q192 0 250 138q20 46 20 104v920zM886 1522l-206 -52l-335 248l288 48z" />
    <glyph glyph-name="Uacute" unicode="&#xda;" horiz-adv-x="1432" 
d="M986 1360h298v-924q0 -214 -155 -335t-412 -121t-411 122q-155 122 -155 338v920h299v-920q0 -116 73 -179t193 -63q192 0 250 138q20 46 20 104v920zM855 1768l290 -48l-335 -248l-194 40z" />
    <glyph glyph-name="Ucircumflex" unicode="&#xdb;" horiz-adv-x="1432" 
d="M986 1360h298v-924q0 -214 -155 -335t-412 -121t-411 122q-155 122 -155 338v920h299v-920q0 -116 73 -179t193 -63q192 0 250 138q20 46 20 104v920zM640 1470h-258l296 232h174l295 -232h-258l-125 110z" />
    <glyph glyph-name="Udieresis" unicode="&#xdc;" horiz-adv-x="1432" 
d="M986 1360h298v-924q0 -214 -155 -335t-412 -121t-411 122q-155 122 -155 338v920h299v-920q0 -116 73 -179t193 -63q192 0 250 138q20 46 20 104v920zM901 1658h269v-188h-269v188zM376 1658h269v-188h-269v188z" />
    <glyph glyph-name="Yacute" unicode="&#xdd;" horiz-adv-x="1246" 
d="M772 0h-298v464l-434 896h306l278 -600l281 600h302l-435 -902v-458zM736 1768l290 -48l-335 -248l-194 40z" />
    <glyph glyph-name="Thorn" unicode="&#xde;" horiz-adv-x="1245" 
d="M627 494q254 0 254 198t-254 198h-180v-396h180zM148 1360h299v-252h202q255 0 397.5 -111.5t142.5 -303.5q0 -191 -143 -304t-397 -113h-202v-276h-299v1360z" />
    <glyph glyph-name="germandbls" unicode="&#xdf;" horiz-adv-x="1349" 
d="M935 346q0 72 -45.5 109t-73.5 57q-83 62 -126.5 116t-43.5 128q0 121 70 203t70 124q0 43 -35.5 72t-99.5 29q-107 0 -165 -60t-56 -146v-1170h-304v1170q-2 181 136.5 302.5t364.5 121.5q345 0 403.5 -109t58.5 -159q0 -75 -21 -119t-53 -81q-51 -71 -59 -104.5
t-8 -59.5q0 -47 31.5 -82.5t79.5 -71.5q94 -70 138 -132t44 -156q0 -174 -147.5 -264t-360.5 -88q-121 0 -204 24l28 216q71 -22 146 -22q232 0 232 152z" />
    <glyph glyph-name="agrave" unicode="&#xe0;" horiz-adv-x="1138" 
d="M496 188q107 0 209 61v185h-155q-93 -2 -134 -47q-40 -46 -40 -94q0 -49 34 -77t86 -28zM716 103q-140 -119 -324 -119q-143 0 -230 81q-88 81 -88 214q0 132 130 228q130 97 323 97h178v18q1 136 -109 160q-36 8 -80 8q-79 0 -163 -19t-137 -45l-51 205q169 89 405 89
q196 0 304 -81q128 -96 129 -317v-622h-268zM740 1202l-206 -52l-335 248l288 48z" />
    <glyph glyph-name="aacute" unicode="&#xe1;" horiz-adv-x="1138" 
d="M496 188q107 0 209 61v185h-155q-93 -2 -134 -47q-40 -46 -40 -94q0 -49 34 -77t86 -28zM716 103q-140 -119 -324 -119q-143 0 -230 81q-88 81 -88 214q0 132 130 228q130 97 323 97h178v18q1 136 -109 160q-36 8 -80 8q-79 0 -163 -19t-137 -45l-51 205q169 89 405 89
q196 0 304 -81q128 -96 129 -317v-622h-268zM709 1448l290 -48l-335 -248l-194 40z" />
    <glyph glyph-name="acircumflex" unicode="&#xe2;" horiz-adv-x="1138" 
d="M496 188q107 0 209 61v185h-155q-93 -2 -134 -47q-40 -46 -40 -94q0 -49 34 -77t86 -28zM716 103q-140 -119 -324 -119q-143 0 -230 81q-88 81 -88 214q0 132 130 228q130 97 323 97h178v18q1 136 -109 160q-36 8 -80 8q-79 0 -163 -19t-137 -45l-51 205q169 89 405 89
q196 0 304 -81q128 -96 129 -317v-622h-268zM494 1150h-258l296 232h174l295 -232h-258l-125 110z" />
    <glyph glyph-name="atilde" unicode="&#xe3;" horiz-adv-x="1138" 
d="M496 188q107 0 209 61v185h-155q-93 -2 -134 -47q-40 -46 -40 -94q0 -49 34 -77t86 -28zM716 103q-140 -119 -324 -119q-143 0 -230 81q-88 81 -88 214q0 132 130 228q130 97 323 97h178v18q1 136 -109 160q-36 8 -80 8q-79 0 -163 -19t-137 -45l-51 205q169 89 405 89
q196 0 304 -81q128 -96 129 -317v-622h-268zM433 1456q89 0 189 -71q149 -106 250 51l121 -106q-103 -165 -257 -165q-84 0 -190 75q-82 55 -136 39t-105 -88l-122 100q99 165 250 165z" />
    <glyph glyph-name="adieresis" unicode="&#xe4;" horiz-adv-x="1138" 
d="M496 188q107 0 209 61v185h-155q-93 -2 -134 -47q-40 -46 -40 -94q0 -49 34 -77t86 -28zM716 103q-140 -119 -324 -119q-143 0 -230 81q-88 81 -88 214q0 132 130 228q130 97 323 97h178v18q1 136 -109 160q-36 8 -80 8q-79 0 -163 -19t-137 -45l-51 205q169 89 405 89
q196 0 304 -81q128 -96 129 -317v-622h-268zM755 1339h269v-188h-269v188zM230 1339h269v-188h-269v188z" />
    <glyph glyph-name="aring" unicode="&#xe5;" horiz-adv-x="1138" 
d="M496 188q107 0 209 61v185h-155q-93 -2 -134 -47q-40 -46 -40 -94q0 -49 34 -77t86 -28zM716 103q-140 -119 -324 -119q-143 0 -230 81q-88 81 -88 214q0 132 130 228q130 97 323 97h178v18q1 136 -109 160q-36 8 -80 8q-79 0 -163 -19t-137 -45l-51 205q169 89 405 89
q196 0 304 -81q128 -96 129 -317v-622h-268zM556 1267q36 0 60 23q24 24 24 56t-24 54t-60 23q-36 -1 -60 -23q-26 -22 -26 -54t26 -56q24 -23 60 -23zM555 1539q87 0 149 -58q62 -59 62 -137q0 -79 -62 -136t-149 -57q-88 0 -149 57q-61 56 -61 136t62 138q61 57 148 57z
" />
    <glyph glyph-name="ae" unicode="&#xe6;" horiz-adv-x="1772" 
d="M1223 814q-78 0 -124.5 -44t-64.5 -153h361q0 150 -68 173.5t-104 23.5zM405 284q0 -94 114 -94t203 25v192h-148q-135 0 -152 -48t-17 -75zM1029 435q29 -237 275 -237q127 0 260 39l60 -178q-131 -79 -360 -79q-230 0 -373 119q-195 -113 -443 -113q-163 0 -253.5 81
t-90.5 213q0 131 121 216t302 85h195v41q0 95 -41 131.5t-147 36.5t-186.5 -26t-105.5 -38l-52 203q187 91 404 91t322 -96q128 96 316 96t313 -113t125 -290v-182h-641z" />
    <glyph glyph-name="ccedilla" unicode="&#xe7;" horiz-adv-x="957" 
d="M726 -131q0 -118 -91 -197t-271 -94l-64 139q136 11 183 95q16 28 16 75t-43 113q-133 34 -212 113q-80 79 -117 175t-37 214q0 237 142 377q142 141 380 141q175 0 285 -54l-55 -196q-82 32 -162 32t-128 -18t-84 -54q-34 -36 -52 -92t-19 -136q0 -153 70 -228
q70 -76 188 -76q119 0 213 36l41 -189q-87 -50 -202 -61q19 -59 19 -115z" />
    <glyph glyph-name="egrave" unicode="&#xe8;" horiz-adv-x="1106" 
d="M580 814q-78 0 -125 -44t-64 -153h361q0 151 -106 187q-30 10 -66 10zM386 435q29 -237 275 -237q127 0 260 39l60 -178q-131 -79 -342 -79q-262 0 -409 135t-147 380t139 385t373 140q183 0 307 -113q125 -113 125 -290v-182h-641zM731 1202l-206 -52l-335 248l288 48z
" />
    <glyph glyph-name="eacute" unicode="&#xe9;" horiz-adv-x="1106" 
d="M580 814q-78 0 -125 -44t-64 -153h361q0 151 -106 187q-30 10 -66 10zM386 435q29 -237 275 -237q127 0 260 39l60 -178q-131 -79 -342 -79q-262 0 -409 135t-147 380t139 385t373 140q183 0 307 -113q125 -113 125 -290v-182h-641zM700 1448l290 -48l-335 -248l-194 40z
" />
    <glyph glyph-name="ecircumflex" unicode="&#xea;" horiz-adv-x="1106" 
d="M580 814q-78 0 -125 -44t-64 -153h361q0 151 -106 187q-30 10 -66 10zM386 435q29 -237 275 -237q127 0 260 39l60 -178q-131 -79 -342 -79q-262 0 -409 135t-147 380t139 385t373 140q183 0 307 -113q125 -113 125 -290v-182h-641zM485 1150h-258l296 232h174l295 -232
h-258l-125 110z" />
    <glyph glyph-name="edieresis" unicode="&#xeb;" horiz-adv-x="1106" 
d="M580 814q-78 0 -125 -44t-64 -153h361q0 151 -106 187q-30 10 -66 10zM386 435q29 -237 275 -237q127 0 260 39l60 -178q-131 -79 -342 -79q-262 0 -409 135t-147 380t139 385t373 140q183 0 307 -113q125 -113 125 -290v-182h-641zM746 1339h269v-188h-269v188z
M221 1339h269v-188h-269v188z" />
    <glyph glyph-name="igrave" unicode="&#xec;" horiz-adv-x="500" 
d="M102 1000h299v-1000h-299v1000zM386 1197l-206 -52l-335 248l288 48z" />
    <glyph glyph-name="iacute" unicode="&#xed;" horiz-adv-x="500" 
d="M102 1000h299v-1000h-299v1000zM355 1443l290 -48l-335 -248l-194 40z" />
    <glyph glyph-name="icircumflex" unicode="&#xee;" horiz-adv-x="500" 
d="M102 1000h299v-1000h-299v1000zM140 1146h-258l296 232h174l295 -232h-258l-125 110z" />
    <glyph glyph-name="idieresis" unicode="&#xef;" horiz-adv-x="500" 
d="M102 1000h299v-1000h-299v1000zM401 1334h269v-188h-269v188zM-124 1334h269v-188h-269v188z" />
    <glyph glyph-name="eth" unicode="&#xf0;" horiz-adv-x="1245" 
d="M603 646q-101 0 -147.5 -63.5t-46.5 -168.5q0 -142 71 -177t118 -35q222 0 245 327q-83 117 -240 117zM976 1152q177 -206 177 -516q0 -311 -140.5 -481.5t-378.5 -170.5t-382 130.5t-144 322.5t112 300.5t306 108.5t314 -122q-21 195 -115 305l-210 -102l-67 95l176 87
q-96 53 -230 53l47 218q264 0 444 -141l175 87l69 -99z" />
    <glyph glyph-name="ntilde" unicode="&#xf1;" horiz-adv-x="1238" 
d="M662 802q-113 0 -221 -79v-723h-301v1000h252l28 -104q149 124 324 124t265 -84t90 -298v-638h-298v638q-1 132 -77 156q-26 8 -62 8zM774 1165q-84 0 -190 75q-82 55 -136 39t-105 -88l-122 100q99 165 250 165q89 0 189 -71q149 -106 250 51l121 -106
q-103 -165 -257 -165z" />
    <glyph glyph-name="ograve" unicode="&#xf2;" horiz-adv-x="1210" 
d="M383 500q-1 -302 223 -302t224 302q0 232 -134 286q-42 16 -90 16q-104 0 -163 -73q-60 -72 -60 -229zM83 500q0 239 144 379q144 141 379 141t379 -141t144 -379q0 -239 -143 -380q-143 -140 -380 -140q-236 0 -380 140q-143 141 -143 380zM769 1200l-206 -52l-335 248
l288 48z" />
    <glyph glyph-name="oacute" unicode="&#xf3;" horiz-adv-x="1210" 
d="M383 500q-1 -302 223 -302t224 302q0 232 -134 286q-42 16 -90 16q-104 0 -163 -73q-60 -72 -60 -229zM83 500q0 239 144 379q144 141 379 141t379 -141t144 -379q0 -239 -143 -380q-143 -140 -380 -140q-236 0 -380 140q-143 141 -143 380zM738 1446l290 -48l-335 -248
l-194 40z" />
    <glyph glyph-name="ocircumflex" unicode="&#xf4;" horiz-adv-x="1210" 
d="M383 500q-1 -302 223 -302t224 302q0 232 -134 286q-42 16 -90 16q-104 0 -163 -73q-60 -72 -60 -229zM83 500q0 239 144 379q144 141 379 141t379 -141t144 -379q0 -239 -143 -380q-143 -140 -380 -140q-236 0 -380 140q-143 141 -143 380zM523 1148h-258l296 232h174
l295 -232h-258l-125 110z" />
    <glyph glyph-name="otilde" unicode="&#xf5;" horiz-adv-x="1210" 
d="M383 500q-1 -302 223 -302t224 302q0 232 -134 286q-42 16 -90 16q-104 0 -163 -73q-60 -72 -60 -229zM83 500q0 239 144 379q144 141 379 141t379 -141t144 -379q0 -239 -143 -380q-143 -140 -380 -140q-236 0 -380 140q-143 141 -143 380zM765 1163q-84 0 -190 75
q-82 55 -136 39t-105 -88l-122 100q99 165 250 165q89 0 189 -71q149 -106 250 51l121 -106q-103 -165 -257 -165z" />
    <glyph glyph-name="odieresis" unicode="&#xf6;" horiz-adv-x="1210" 
d="M383 500q-1 -302 223 -302t224 302q0 232 -134 286q-42 16 -90 16q-104 0 -163 -73q-60 -72 -60 -229zM83 500q0 239 144 379q144 141 379 141t379 -141t144 -379q0 -239 -143 -380q-143 -140 -380 -140q-236 0 -380 140q-143 141 -143 380zM784 1337h269v-188h-269v188z
M259 1337h269v-188h-269v188z" />
    <glyph glyph-name="divide" unicode="&#xf7;" horiz-adv-x="1125" 
d="M431 378h259v-202h-259v202zM431 1002h259v-202h-259v202zM108 486v206h912v-206h-912z" />
    <glyph glyph-name="oslash" unicode="&#xf8;" horiz-adv-x="1316" 
d="M693 802q-121 0 -180.5 -72.5t-59.5 -229.5q0 -74 13 -126l348 383q-55 45 -121 45zM900 500q0 76 -15 132l-352 -385q55 -49 143 -49q224 0 224 302zM265 154q-112 137 -112 361t144 364.5t379 140.5q176 0 304 -81l56 61h186l-139 -152q116 -137 116 -362
t-143.5 -365.5t-379.5 -140.5q-182 0 -310 84l-58 -64h-184z" />
    <glyph glyph-name="ugrave" unicode="&#xf9;" horiz-adv-x="1238" 
d="M579 198q115 0 222 80v722h298v-1000h-250l-27 108q-149 -128 -325 -128t-266 88q-91 88 -91 310v622h301v-622q0 -142 76 -170q26 -10 62 -10zM778 1182l-206 -52l-335 248l288 48z" />
    <glyph glyph-name="uacute" unicode="&#xfa;" horiz-adv-x="1238" 
d="M579 198q115 0 222 80v722h298v-1000h-250l-27 108q-149 -128 -325 -128t-266 88q-91 88 -91 310v622h301v-622q0 -142 76 -170q26 -10 62 -10zM747 1428l290 -48l-335 -248l-194 40z" />
    <glyph glyph-name="ucircumflex" unicode="&#xfb;" horiz-adv-x="1238" 
d="M579 198q115 0 222 80v722h298v-1000h-250l-27 108q-149 -128 -325 -128t-266 88q-91 88 -91 310v622h301v-622q0 -142 76 -170q26 -10 62 -10zM532 1131h-258l296 232h174l295 -232h-258l-125 110z" />
    <glyph glyph-name="udieresis" unicode="&#xfc;" horiz-adv-x="1238" 
d="M579 198q115 0 222 80v722h298v-1000h-250l-27 108q-149 -128 -325 -128t-266 88q-91 88 -91 310v622h301v-622q0 -142 76 -170q26 -10 62 -10zM793 1319h269v-188h-269v188zM268 1319h269v-188h-269v188z" />
    <glyph glyph-name="yacute" unicode="&#xfd;" horiz-adv-x="1084" 
d="M309 -412q-70 0 -149 18l20 208l86 -3q49 0 77 28q29 28 57 110l-368 1051h304l203 -704l212 704h304l-377 -1050q-82 -290 -248 -345q-52 -17 -121 -17zM671 1428l290 -48l-335 -248l-194 40z" />
    <glyph glyph-name="thorn" unicode="&#xfe;" horiz-adv-x="1196" 
d="M809 500q0 225 -77.5 262.5t-135.5 37.5q-97 0 -182 -63v-476q85 -63 192 -63q203 0 203 302zM414 -400h-301v1800h301v-468q113 88 294 88t295 -142t114 -378t-113.5 -378t-295.5 -142t-294 87v-467z" />
    <glyph glyph-name="ydieresis" unicode="&#xff;" horiz-adv-x="1084" 
d="M309 -412q-70 0 -149 18l20 208l86 -3q49 0 77 28q29 28 57 110l-368 1051h304l203 -704l212 704h304l-377 -1050q-82 -290 -248 -345q-52 -17 -121 -17zM717 1319h269v-188h-269v188zM192 1319h269v-188h-269v188z" />
    <glyph glyph-name="Amacron" unicode="&#x100;" horiz-adv-x="1361" 
d="M507 504h349l-175 536zM927 284h-491l-92 -284h-294l469 1360h325l470 -1360h-294zM274 1638h768v-161h-768v161z" />
    <glyph glyph-name="amacron" unicode="&#x101;" horiz-adv-x="1138" 
d="M496 188q107 0 209 61v185h-155q-93 -2 -134 -47q-40 -46 -40 -94q0 -49 34 -77t86 -28zM716 103q-140 -119 -324 -119q-143 0 -230 81q-88 81 -88 214q0 132 130 228q130 97 323 97h178v18q1 136 -109 160q-36 8 -80 8q-79 0 -163 -19t-137 -45l-51 205q169 89 405 89
q196 0 304 -81q128 -96 129 -317v-622h-268zM169 1317h768v-161h-768v161z" />
    <glyph glyph-name="Abreve" unicode="&#x102;" horiz-adv-x="1361" 
d="M507 504h349l-175 536zM927 284h-491l-92 -284h-294l469 1360h325l470 -1360h-294zM314 1710h191q1 -62 41 -98t122 -37q82 1 123 37q40 36 40 98h191q0 -127 -95 -197t-259 -68q-248 -3 -328 151q-26 50 -26 114z" />
    <glyph glyph-name="abreve" unicode="&#x103;" horiz-adv-x="1138" 
d="M496 188q107 0 209 61v185h-155q-93 -2 -134 -47q-40 -46 -40 -94q0 -49 34 -77t86 -28zM716 103q-140 -119 -324 -119q-143 0 -230 81q-88 81 -88 214q0 132 130 228q130 97 323 97h178v18q1 136 -109 160q-36 8 -80 8q-79 0 -163 -19t-137 -45l-51 205q169 89 405 89
q196 0 304 -81q128 -96 129 -317v-622h-268zM209 1388h191q0 -62 40 -98t124 -37q82 1 122 37t40 98h191q0 -127 -95 -197t-259 -68q-249 -3 -329 151q-26 50 -25 114z" />
    <glyph glyph-name="Aogonek" unicode="&#x104;" horiz-adv-x="1361" 
d="M507 504h349l-175 536zM856 -215q0 158 155 242l-84 257h-491l-92 -284h-294l469 1360h325l470 -1360h-45q-94 -34 -129 -63q-66 -53 -66 -108q0 -78 91 -78q28 0 58 10l22 -158q-38 -22 -144 -22q-105 1 -175 55t-70 149z" />
    <glyph glyph-name="aogonek" unicode="&#x105;" horiz-adv-x="1138" 
d="M496 188q107 0 209 61v185h-155q-93 -2 -134 -47q-40 -46 -40 -94q0 -49 34 -77t86 -28zM165 931q169 89 405 89q196 0 304 -81q128 -96 129 -317v-622h-57q-94 -34 -129 -63q-66 -53 -66 -108q0 -78 91 -78q28 0 58 10l22 -158q-39 -22 -144 -22q-106 1 -176 55t-69 149
q0 178 194 261l-11 57q-140 -119 -324 -119q-143 0 -230 81q-88 81 -88 214q0 132 130 228q130 97 323 97h178v18q1 136 -109 160q-36 8 -80 8q-79 0 -163 -19t-137 -45z" />
    <glyph glyph-name="Cacute" unicode="&#x106;" horiz-adv-x="1132" 
d="M776 -20q-180 0 -302 50q-120 50 -205 143q-85 91 -131 221t-46 288q0 318 181 508t491 190q165 0 294 -53l-51 -202q-102 37 -210 37q-107 0 -177 -28t-119 -86t-75 -150q-26 -90 -27 -216q0 -245 100 -364q100 -120 280 -120q131 0 266 53l47 -203q-136 -68 -316 -68z
M879 1788l290 -48l-335 -248l-194 40z" />
    <glyph glyph-name="cacute" unicode="&#x107;" horiz-adv-x="957" 
d="M647 -20q-149 0 -247 38t-167 106t-106 164t-37 214q0 237 142 377q142 141 380 141q175 0 285 -54l-55 -196q-82 32 -162 32t-128 -18t-84 -54q-34 -36 -52 -92t-19 -136q0 -153 70 -228q70 -76 188 -76q119 0 213 36l41 -189q-113 -65 -262 -65zM728 1448l290 -48
l-335 -248l-194 40z" />
    <glyph glyph-name="Ccircumflex" unicode="&#x108;" horiz-adv-x="1132" 
d="M776 -20q-180 0 -302 50q-120 50 -205 143q-85 91 -131 221t-46 288q0 318 181 508t491 190q165 0 294 -53l-51 -202q-102 37 -210 37q-107 0 -177 -28t-119 -86t-75 -150q-26 -90 -27 -216q0 -245 100 -364q100 -120 280 -120q131 0 266 53l47 -203q-136 -68 -316 -68z
M664 1490h-258l296 232h174l295 -232h-258l-125 110z" />
    <glyph glyph-name="ccircumflex" unicode="&#x109;" horiz-adv-x="957" 
d="M647 -20q-149 0 -247 38t-167 106t-106 164t-37 214q0 237 142 377q142 141 380 141q175 0 285 -54l-55 -196q-82 32 -162 32t-128 -18t-84 -54q-34 -36 -52 -92t-19 -136q0 -153 70 -228q70 -76 188 -76q119 0 213 36l41 -189q-113 -65 -262 -65zM513 1150h-258l296 232
h174l295 -232h-258l-125 110z" />
    <glyph glyph-name="Cdotaccent" unicode="&#x10a;" horiz-adv-x="1132" 
d="M776 -20q-180 0 -302 50q-120 50 -205 143q-85 91 -131 221t-46 288q0 318 181 508t491 190q165 0 294 -53l-51 -202q-102 37 -210 37q-107 0 -177 -28t-119 -86t-75 -150q-26 -90 -27 -216q0 -245 100 -364q100 -120 280 -120q131 0 266 53l47 -203q-136 -68 -316 -68z
M619 1690h307v-200h-307v200z" />
    <glyph glyph-name="cdotaccent" unicode="&#x10b;" horiz-adv-x="957" 
d="M647 -20q-149 0 -247 38t-167 106t-106 164t-37 214q0 237 142 377q142 141 380 141q175 0 285 -54l-55 -196q-82 32 -162 32t-128 -18t-84 -54q-34 -36 -52 -92t-19 -136q0 -153 70 -228q70 -76 188 -76q119 0 213 36l41 -189q-113 -65 -262 -65zM468 1351h307v-200
h-307v200z" />
    <glyph glyph-name="Ccaron" unicode="&#x10c;" horiz-adv-x="1132" 
d="M776 -20q-180 0 -302 50q-120 50 -205 143q-85 91 -131 221t-46 288q0 318 181 508t491 190q165 0 294 -53l-51 -202q-102 37 -210 37q-107 0 -177 -28t-119 -86t-75 -150q-26 -90 -27 -216q0 -245 100 -364q100 -120 280 -120q131 0 266 53l47 -203q-136 -68 -316 -68z
M901 1724h258l-295 -232h-174l-296 232h258l124 -114z" />
    <glyph glyph-name="ccaron" unicode="&#x10d;" horiz-adv-x="957" 
d="M647 -20q-149 0 -247 38t-167 106t-106 164t-37 214q0 237 142 377q142 141 380 141q175 0 285 -54l-55 -196q-82 32 -162 32t-128 -18t-84 -54q-34 -36 -52 -92t-19 -136q0 -153 70 -228q70 -76 188 -76q119 0 213 36l41 -189q-113 -65 -262 -65zM750 1384h258
l-295 -232h-174l-296 232h258l124 -114z" />
    <glyph glyph-name="Dcaron" unicode="&#x10e;" horiz-adv-x="1380" 
d="M450 1142v-924h136q281 0 363 256q28 88 28 208q0 234 -103 347t-288 113h-136zM151 1360h457q308 0 491 -185q184 -185 184 -493t-184 -495t-491 -187h-457v1360zM728 1704h258l-295 -232h-174l-296 232h258l124 -114z" />
    <glyph glyph-name="dcaron" unicode="&#x10f;" horiz-adv-x="1419" 
d="M405 502q0 -304 203 -304q103 0 188 60v484q-88 60 -162 60q-75 0 -115 -20q-39 -20 -65 -57q-48 -72 -49 -223zM796 1400h298v-1400h-261l-20 84q-116 -104 -302 -104q-185 0 -299 143t-114 379t114 377t293 141t291 -91v471zM1242 1401h287l-175 -492l-205 20z" />
    <glyph glyph-name="Dcroat" unicode="&#x110;" horiz-adv-x="1440" 
d="M507 558v-340h136q281 0 336 171.5t55 349t-103 290.5t-288 113h-136v-366h254v-218h-254zM208 558h-106v218h106v584h457q308 0 491.5 -185t183.5 -493t-183.5 -495t-491.5 -187h-457v558z" />
    <glyph glyph-name="dcroat" unicode="&#x111;" horiz-adv-x="1228" 
d="M400 502q0 -304 203 -304q103 0 188 60v484q-88 60 -162 60q-75 0 -115 -20t-66 -57q-48 -72 -48 -223zM791 1128h-371v161h371v111h298v-111h99v-161h-99v-1128h-261l-20 84q-116 -104 -302 -104q-185 0 -299 143t-114 379t114 377t293 141t291 -91v199z" />
    <glyph glyph-name="Emacron" unicode="&#x112;" horiz-adv-x="1092" 
d="M151 0v1360h876v-220h-577v-346h512v-220h-512v-354h577v-220h-876zM186 1636h768v-161h-768v161z" />
    <glyph glyph-name="emacron" unicode="&#x113;" horiz-adv-x="1106" 
d="M580 814q-78 0 -125 -44t-64 -153h361q0 151 -106 187q-30 10 -66 10zM386 435q29 -237 275 -237q127 0 260 39l60 -178q-131 -79 -342 -79q-262 0 -409 135t-147 380t139 385t373 140q183 0 307 -113q125 -113 125 -290v-182h-641zM160 1317h768v-161h-768v161z" />
    <glyph glyph-name="Edotaccent" unicode="&#x116;" horiz-adv-x="1092" 
d="M151 0v1360h876v-220h-577v-346h512v-220h-512v-354h577v-220h-876zM466 1670h307v-200h-307v200z" />
    <glyph glyph-name="edotaccent" unicode="&#x117;" horiz-adv-x="1106" 
d="M580 814q-78 0 -125 -44t-64 -153h361q0 151 -106 187q-30 10 -66 10zM386 435q29 -237 275 -237q127 0 260 39l60 -178q-131 -79 -342 -79q-262 0 -409 135t-147 380t139 385t373 140q183 0 307 -113q125 -113 125 -290v-182h-641zM440 1351h307v-200h-307v200z" />
    <glyph glyph-name="Eogonek" unicode="&#x118;" horiz-adv-x="1092" 
d="M569 -215q0 131 112 215h-530v1360h876v-220h-577v-346h512v-220h-512v-354h577v-220h-45q-94 -34 -129 -63q-66 -53 -66 -108q0 -78 91 -78q28 0 58 10l22 -158q-38 -22 -144 -22q-106 1 -176 55t-69 149z" />
    <glyph glyph-name="eogonek" unicode="&#x119;" horiz-adv-x="1106" 
d="M580 814q-78 0 -125 -44t-64 -153h361q0 151 -106 187q-30 10 -66 10zM386 435q29 -237 275 -237q127 0 260 39l60 -178q-74 -45 -182 -65q-179 -70 -179 -164q0 -40 24 -59q24 -20 60 -20q35 0 65 10l22 -158q-38 -22 -144 -22q-105 1 -175 55t-70 163t100 192
q-287 47 -381 284q-38 95 -38 219q0 247 139 386q139 140 373 140q183 0 307 -113q125 -113 125 -290v-182h-641z" />
    <glyph glyph-name="Ecaron" unicode="&#x11a;" horiz-adv-x="1092" 
d="M151 0v1360h876v-220h-577v-346h512v-220h-512v-354h577v-220h-876zM748 1704h258l-295 -232h-174l-296 232h258l124 -114z" />
    <glyph glyph-name="ecaron" unicode="&#x11b;" horiz-adv-x="1106" 
d="M580 814q-78 0 -125 -44t-64 -153h361q0 151 -106 187q-30 10 -66 10zM386 435q29 -237 275 -237q127 0 260 39l60 -178q-131 -79 -342 -79q-262 0 -409 135t-147 380t139 385t373 140q183 0 307 -113q125 -113 125 -290v-182h-641zM722 1384h258l-295 -232h-174
l-296 232h258l124 -114z" />
    <glyph glyph-name="Gcircumflex" unicode="&#x11c;" horiz-adv-x="1369" 
d="M978 526h-251v218h525v-664q-221 -100 -467 -100q-310 0 -495 203t-185 502t198 497t531 198q199 0 347 -66l-43 -201q-147 49 -274 49q-231 0 -346 -126t-115 -347t109 -356t299 -135q98 0 167 22v306zM711 1488h-258l296 232h174l295 -232h-258l-125 110z" />
    <glyph glyph-name="gcircumflex" unicode="&#x11d;" horiz-adv-x="1184" 
d="M409 -57q-61 -43 -61 -114t88 -99q59 -18 131 -18q128 0 196 37t68 89q1 52 -27 70q-51 35 -151 35h-244zM401 646q1 -166 181 -166t180 166q0 84 -48 126t-132 42q-85 0 -133 -42t-48 -126zM276 354q-176 93 -176 280t132 287q132 99 350 99q93 0 175 -20h386l-17 -140
h-133q70 -91 70 -196q0 -189 -130 -282q-130 -92 -351 -92q-69 0 -144 11q-27 -33 -27 -80t27 -83h246q342 0 417 -189q23 -58 21 -129q-4 -141 -156 -227t-391 -86q-413 0 -511 183q-22 42 -22 98q0 140 179 222q-63 71 -63 149q0 116 118 195zM517 1148h-258l296 232h174
l295 -232h-258l-125 110z" />
    <glyph glyph-name="Gbreve" unicode="&#x11e;" horiz-adv-x="1369" 
d="M978 526h-251v218h525v-664q-221 -100 -467 -100q-310 0 -495 203t-185 502t198 497t531 198q199 0 347 -66l-43 -201q-147 49 -274 49q-231 0 -346 -126t-115 -347t109 -356t299 -135q98 0 167 22v306zM426 1726h191q1 -62 41 -98t122 -37q82 1 123 37q40 36 40 98h191
q0 -127 -95 -197t-259 -68q-248 -3 -328 151q-26 50 -26 114z" />
    <glyph glyph-name="gbreve" unicode="&#x11f;" horiz-adv-x="1184" 
d="M409 -57q-61 -43 -61 -114t88 -99q59 -18 131 -18q128 0 196 37t68 89q1 52 -27 70q-51 35 -151 35h-244zM401 646q1 -166 181 -166t180 166q0 84 -48 126t-132 42q-85 0 -133 -42t-48 -126zM276 354q-176 93 -176 280t132 287q132 99 350 99q93 0 175 -20h386l-17 -140
h-133q70 -91 70 -196q0 -189 -130 -282q-130 -92 -351 -92q-69 0 -144 11q-27 -33 -27 -80t27 -83h246q342 0 417 -189q23 -58 21 -129q-4 -141 -156 -227t-391 -86q-413 0 -511 183q-22 42 -22 98q0 140 179 222q-63 71 -63 149q0 116 118 195zM232 1386h191q1 -62 41 -98
t122 -37q82 1 123 37q40 36 40 98h191q0 -127 -95 -197t-259 -68q-248 -3 -328 151q-26 50 -26 114z" />
    <glyph glyph-name="Gdotaccent" unicode="&#x120;" horiz-adv-x="1369" 
d="M978 526h-251v218h525v-664q-221 -100 -467 -100q-310 0 -495 203t-185 502t198 497t531 198q199 0 347 -66l-43 -201q-147 49 -274 49q-231 0 -346 -126t-115 -347t109 -356t299 -135q98 0 167 22v306zM666 1688h307v-200h-307v200z" />
    <glyph glyph-name="gdotaccent" unicode="&#x121;" horiz-adv-x="1184" 
d="M409 -57q-61 -43 -61 -114t88 -99q59 -18 131 -18q128 0 196 37t68 89q1 52 -27 70q-51 35 -151 35h-244zM401 646q1 -166 181 -166t180 166q0 84 -48 126t-132 42q-85 0 -133 -42t-48 -126zM276 354q-176 93 -176 280t132 287q132 99 350 99q93 0 175 -20h386l-17 -140
h-133q70 -91 70 -196q0 -189 -130 -282q-130 -92 -351 -92q-69 0 -144 11q-27 -33 -27 -80t27 -83h246q342 0 417 -189q23 -58 21 -129q-4 -141 -156 -227t-391 -86q-413 0 -511 183q-22 42 -22 98q0 140 179 222q-63 71 -63 149q0 116 118 195zM472 1349h307v-200h-307v200
z" />
    <glyph glyph-name="Gcommaaccent" unicode="&#x122;" horiz-adv-x="1369" 
d="M978 526h-251v218h525v-664q-221 -100 -467 -100q-310 0 -495 203t-185 502t198 497t531 198q199 0 347 -66l-43 -201q-147 49 -274 49q-231 0 -346 -126t-115 -347t109 -356t299 -135q98 0 167 22v306zM729 -91h270l-166 -409l-179 32z" />
    <glyph glyph-name="gcommaaccent" unicode="&#x123;" horiz-adv-x="1184" 
d="M409 -57q-61 -43 -61 -114t88 -99q59 -18 131 -18q128 0 196 37t68 89q1 52 -27 70q-51 35 -151 35h-244zM401 646q1 -166 181 -166t180 166q0 84 -48 126t-132 42q-85 0 -133 -42t-48 -126zM276 354q-176 93 -176 280t132 287q132 99 350 99q93 0 175 -20h386l-17 -140
h-133q70 -91 70 -196q0 -189 -130 -282q-130 -92 -351 -92q-69 0 -144 11q-27 -33 -27 -80t27 -83h246q342 0 417 -189q23 -58 21 -129q-4 -141 -156 -227t-391 -86q-413 0 -511 183q-22 42 -22 98q0 140 179 222q-63 71 -63 149q0 116 118 195zM779 1124h-287l176 492
l205 -20z" />
    <glyph glyph-name="Hcircumflex" unicode="&#x124;" horiz-adv-x="1447" 
d="M151 1360h298v-572h552v572h299v-1360h-299v568h-552v-568h-298v1360zM638 1468h-258l296 232h174l295 -232h-258l-125 110z" />
    <glyph glyph-name="hcircumflex" unicode="&#x125;" horiz-adv-x="1238" 
d="M662 802q-114 0 -221 -78v-724h-301v1400h301v-487q138 107 308 107q169 0 259 -86q91 -86 91 -300v-634h-298v634q0 92 -33 130t-106 38zM210 1500h-258l296 232h174l295 -232h-258l-125 110z" />
    <glyph glyph-name="Hbar" unicode="&#x126;" horiz-adv-x="1450" 
d="M449 788h552v197h-552v-197zM-9 1146h160v214h298v-214h552v214h299v-214h151v-161h-151v-985h-299v568h-552v-568h-298v985h-160v161z" />
    <glyph glyph-name="hbar" unicode="&#x127;" horiz-adv-x="1240" 
d="M662 802q-114 0 -221 -78v-724h-301v1102h-174v161h174v137h301v-137h293v-161h-293v-189q138 107 308 107q169 0 259.5 -85.5t90.5 -300.5v-634h-298v634q0 92 -33 130t-106 38z" />
    <glyph glyph-name="Itilde" unicode="&#x128;" horiz-adv-x="853" 
d="M108 0v170h171v1020h-171v170h641v-170h-172v-1020h172v-170h-641zM594 1485q-84 0 -190 75q-82 55 -136 39t-105 -88l-122 100q99 165 250 165q89 0 189 -71q149 -106 250 51l121 -106q-103 -165 -257 -165z" />
    <glyph glyph-name="itilde" unicode="&#x129;" horiz-adv-x="500" 
d="M102 1000h299v-1000h-299v1000zM382 1160q-84 0 -190 75q-82 55 -136 39t-105 -88l-122 100q99 165 250 165q89 0 189 -71q149 -106 250 51l121 -106q-103 -165 -257 -165z" />
    <glyph glyph-name="Imacron" unicode="&#x12a;" horiz-adv-x="853" 
d="M108 0v170h171v1020h-171v170h641v-170h-172v-1020h172v-170h-641zM27 1636h768v-161h-768v161z" />
    <glyph glyph-name="imacron" unicode="&#x12b;" horiz-adv-x="500" 
d="M102 1000h299v-1000h-299v1000zM-185 1312h768v-161h-768v161z" />
    <glyph glyph-name="Iogonek" unicode="&#x12e;" horiz-adv-x="853" 
d="M293 -215q0 131 112 215h-297v170h171v1020h-171v170h641v-170h-172v-1020h172v-170h-43q-94 -34 -129 -63q-66 -53 -66 -108q0 -78 91 -78q28 0 58 10l22 -158q-38 -22 -144 -22q-106 1 -176 55t-69 149z" />
    <glyph glyph-name="iogonek" unicode="&#x12f;" horiz-adv-x="621" 
d="M160 1402h305v-212h-305v212zM-21 -215q0 174 185 257v958h298v-1000h-70q-94 -34 -129 -63q-66 -53 -66 -108q0 -78 91 -78q28 0 58 10l22 -158q-39 -22 -144 -22q-106 1 -176 55t-69 149z" />
    <glyph glyph-name="Idotaccent" unicode="&#x130;" horiz-adv-x="853" 
d="M108 0v170h171v1020h-171v170h641v-170h-172v-1020h172v-170h-641zM306 1670h307v-200h-307v200z" />
    <glyph glyph-name="dotlessi" unicode="&#x131;" horiz-adv-x="500" 
d="M102 1000h299v-1000h-299v1000z" />
    <glyph glyph-name="Jcircumflex" unicode="&#x134;" horiz-adv-x="943" 
d="M496 393v967h298v-979q0 -323 -248 -383q-78 -18 -171 -18q-193 0 -315 52l38 202q108 -34 186 -34t112 10q100 29 100 183zM615 1468h-258l296 232h174l295 -232h-258l-125 110z" />
    <glyph glyph-name="jcircumflex" unicode="&#x135;" horiz-adv-x="601" 
d="M132 -201q33 37 33 131v1070h298v-1070q-1 -312 -227 -370q-68 -18 -121 -18q-180 0 -283 42l33 197q76 -19 155 -19t112 37zM233 1182h-258l296 232h174l295 -232h-258l-125 110z" />
    <glyph glyph-name="Kcommaaccent" unicode="&#x136;" horiz-adv-x="1300" 
d="M448 566v-566h-299v1360h299v-571h156l293 571h310l-351 -674l424 -686h-329l-348 566h-155zM576 -91h270l-166 -409l-179 32z" />
    <glyph glyph-name="kcommaaccent" unicode="&#x137;" horiz-adv-x="1118" 
d="M441 406v-406h-301v1400h301v-771h108l190 371h317l-267 -474l313 -526h-326l-224 406h-111zM496 -91h270l-166 -409l-179 32z" />
    <glyph glyph-name="kgreenlandic" unicode="&#x138;" horiz-adv-x="1162" 
d="M441 406v-406h-301v1000h301v-368h177l208 368h317l-291 -474h-1l340 -526h-326l-245 406h-179z" />
    <glyph glyph-name="Lacute" unicode="&#x139;" horiz-adv-x="1011" 
d="M151 1360h298v-1140h533v-220h-831v1360zM432 1768l290 -48l-335 -248l-194 40z" />
    <glyph glyph-name="lacute" unicode="&#x13a;" horiz-adv-x="621" 
d="M164 1400h298v-1400h-298v1400zM436 1828l290 -48l-335 -248l-194 40z" />
    <glyph glyph-name="Lcommaaccent" unicode="&#x13b;" horiz-adv-x="1011" 
d="M151 1360h298v-1140h533v-220h-831v1360zM531 -91h270l-166 -409l-179 32z" />
    <glyph glyph-name="lcommaaccent" unicode="&#x13c;" horiz-adv-x="621" 
d="M164 1400h298v-1400h-298v1400zM239 -91h270l-166 -409l-179 32z" />
    <glyph glyph-name="Lcaron" unicode="&#x13d;" horiz-adv-x="1011" 
d="M151 1360h298v-1140h533v-220h-831v1360zM661 1349h287l-175 -492l-205 20z" />
    <glyph glyph-name="lcaron" unicode="&#x13e;" horiz-adv-x="621" 
d="M164 1400h298v-1400h-298v1400zM665 1408h287l-175 -492l-205 20z" />
    <glyph glyph-name="Lslash" unicode="&#x141;" horiz-adv-x="1166" 
d="M232 1360h298v-526l193 66v-170l-193 -66v-444h533v-220h-831v564l-124 -42v170l124 42v626z" />
    <glyph glyph-name="lslash" unicode="&#x142;" horiz-adv-x="823" 
d="M265 1400h298v-573l174 49v-170l-174 -49v-657h-298v573l-184 -51v170l184 51v657z" />
    <glyph glyph-name="Nacute" unicode="&#x143;" horiz-adv-x="1478" 
d="M151 1360h298v-1l1 1l581 -917v917h299v-1360h-299l-582 919v-919h-298v1360zM861 1768l290 -48l-335 -248l-194 40z" />
    <glyph glyph-name="nacute" unicode="&#x144;" horiz-adv-x="1238" 
d="M662 802q-113 0 -221 -79v-723h-301v1000h252l28 -104q149 124 324 124t265 -84t90 -298v-638h-298v638q-1 132 -77 156q-26 8 -62 8zM747 1448l290 -48l-335 -248l-194 40z" />
    <glyph glyph-name="Ncommaaccent" unicode="&#x145;" horiz-adv-x="1478" 
d="M151 1360h298v-1l1 1l581 -917v917h299v-1360h-299l-582 919v-919h-298v1360zM652 -91h270l-166 -409l-179 32z" />
    <glyph glyph-name="ncommaaccent" unicode="&#x146;" horiz-adv-x="1238" 
d="M662 802q-113 0 -221 -79v-723h-301v1000h252l28 -104q149 124 324 124t265 -84t90 -298v-638h-298v638q-1 132 -77 156q-26 8 -62 8zM550 -91h270l-166 -409l-179 32z" />
    <glyph glyph-name="Ncaron" unicode="&#x147;" horiz-adv-x="1478" 
d="M151 1360h298v-1l1 1l581 -917v917h299v-1360h-299l-582 919v-919h-298v1360zM883 1704h258l-295 -232h-174l-296 232h258l124 -114z" />
    <glyph glyph-name="ncaron" unicode="&#x148;" horiz-adv-x="1238" 
d="M662 802q-113 0 -221 -79v-723h-301v1000h252l28 -104q149 124 324 124t265 -84t90 -298v-638h-298v638q-1 132 -77 156q-26 8 -62 8zM769 1384h258l-295 -232h-174l-296 232h258l124 -114z" />
    <glyph glyph-name="Eng" unicode="&#x14a;" horiz-adv-x="1474" 
d="M817 -200q78 0 145 19.5t67 173.5v10l-580 916v-919h-298v1360h298v-1l1 1l579 -914v514h2v400h299v-1360h-3v-19q0 -323 -162.5 -362t-256.5 -39q-193 0 -315 52l38 202q108 -34 186 -34z" />
    <glyph glyph-name="eng" unicode="&#x14b;" horiz-adv-x="1232" 
d="M662 802q-113 0 -221 -79v-723h-301v1000h252l28 -104q149 124 324 124t265 -84.5t90 -297.5v-657q0 -324 -162.5 -361.5t-256.5 -37.5q-198 0 -320 52l44 202q108 -34 186 -34q79 0 145 19.5t66 171.5v645q0 131 -51.5 147.5t-87.5 16.5z" />
    <glyph glyph-name="Omacron" unicode="&#x14c;" horiz-adv-x="1427" 
d="M382 680q0 -228 88 -355t244 -127q157 0 244 126t87 356q0 351 -192 450q-61 32 -139 32t-140 -32t-104 -94q-88 -128 -88 -356zM82 680q0 322 171 511t460 189t461 -189t171 -511q0 -322 -171 -511t-461 -189t-461 189q-170 189 -170 511zM304 1654h768v-161h-768v161z
" />
    <glyph glyph-name="omacron" unicode="&#x14d;" horiz-adv-x="1210" 
d="M383 500q-1 -302 223 -302t224 302q0 232 -134 286q-42 16 -90 16q-104 0 -163 -73q-60 -72 -60 -229zM83 500q0 239 144 379q144 141 379 141t379 -141t144 -379q0 -239 -143 -380q-143 -140 -380 -140q-236 0 -380 140q-143 141 -143 380zM198 1315h768v-161h-768v161z
" />
    <glyph glyph-name="Ohungarumlaut" unicode="&#x150;" horiz-adv-x="1427" 
d="M382 680q0 -228 88 -355t244 -127q157 0 244 126t87 356q0 351 -192 450q-61 32 -139 32t-140 -32t-104 -94q-88 -128 -88 -356zM82 680q0 322 171 511t460 189t461 -189t171 -511q0 -322 -171 -511t-461 -189t-461 189q-170 189 -170 511zM1079 1818l213 -60l-372 -268
l-141 40zM662 1818l196 -60l-307 -268l-123 40z" />
    <glyph glyph-name="ohungarumlaut" unicode="&#x151;" horiz-adv-x="1210" 
d="M383 500q-1 -302 223 -302t224 302q0 232 -134 286q-42 16 -90 16q-104 0 -163 -73q-60 -72 -60 -229zM83 500q0 239 144 379q144 141 379 141t379 -141t144 -379q0 -239 -143 -380q-143 -140 -380 -140q-236 0 -380 140q-143 141 -143 380zM973 1478l213 -60l-372 -268
l-141 40zM556 1478l196 -60l-307 -268l-123 40z" />
    <glyph glyph-name="OE" unicode="&#x152;" horiz-adv-x="1837" 
d="M821 1144q-198 0 -309 -123.5t-111 -340t111 -341.5t309 -125q18 0 38 2v926q-18 2 -38 2zM821 -4q-335 0 -527 184t-192 499t192 499t527 184h25q24 0 41 -2h848v-220h-577v-346h512v-220h-512v-354h577v-220h-835q-40 -4 -79 -4z" />
    <glyph glyph-name="oe" unicode="&#x153;" horiz-adv-x="1911" 
d="M1351 814q-78 0 -124.5 -44t-64.5 -153h361q0 150 -68 173.5t-104 23.5zM403 500q0 -302 223.5 -302t223.5 302q0 232 -87.5 267t-164 35t-136 -72.5t-59.5 -229.5zM1157 435q29 -237 275 -237q127 0 260 39l60 -178q-131 -79 -342 -79q-263 0 -410 135
q-141 -135 -376 -135t-378 140t-143 380q0 239 144 379.5t376 140.5q233 0 375 -134q136 134 368 134q183 0 307.5 -113t124.5 -290v-182h-641z" />
    <glyph glyph-name="Racute" unicode="&#x154;" horiz-adv-x="1307" 
d="M864 932q0 114 -57 162t-174 48h-183v-410h335q79 85 79 200zM151 1360h490q254 0 392 -113q137 -113 137 -315q0 -203 -209 -352l285 -580h-314l-250 514h-232v-514h-299v1360zM763 1768l290 -48l-335 -248l-194 40z" />
    <glyph glyph-name="racute" unicode="&#x155;" horiz-adv-x="785" 
d="M649 782q-111 0 -208 -126v-656h-301v1000h252l29 -137q108 157 272 157q44 0 84 -4l-17 -242q-42 8 -111 8zM522 1448l290 -48l-335 -248l-194 40z" />
    <glyph glyph-name="Rcommaaccent" unicode="&#x156;" horiz-adv-x="1307" 
d="M864 932q0 114 -57 162t-174 48h-183v-410h335q79 85 79 200zM151 1360h490q254 0 392 -113q137 -113 137 -315q0 -203 -209 -352l285 -580h-314l-250 514h-232v-514h-299v1360zM590 -91h270l-166 -409l-179 32z" />
    <glyph glyph-name="rcommaaccent" unicode="&#x157;" horiz-adv-x="785" 
d="M649 782q-111 0 -208 -126v-656h-301v1000h252l29 -137q108 157 272 157q44 0 84 -4l-17 -242q-42 8 -111 8zM212 -87h270l-166 -409l-179 32z" />
    <glyph glyph-name="Rcaron" unicode="&#x158;" horiz-adv-x="1307" 
d="M864 932q0 114 -57 162t-174 48h-183v-410h335q79 85 79 200zM151 1360h490q254 0 392 -113q137 -113 137 -315q0 -203 -209 -352l285 -580h-314l-250 514h-232v-514h-299v1360zM785 1704h258l-295 -232h-174l-296 232h258l124 -114z" />
    <glyph glyph-name="rcaron" unicode="&#x159;" horiz-adv-x="785" 
d="M649 782q-111 0 -208 -126v-656h-301v1000h252l29 -137q108 157 272 157q44 0 84 -4l-17 -242q-42 8 -111 8zM545 1384h258l-295 -232h-174l-296 232h258l124 -114z" />
    <glyph glyph-name="Sacute" unicode="&#x15a;" horiz-adv-x="1100" 
d="M498 220q224 0 224 151q0 97 -143 161q-45 20 -119 44q-178 59 -280 157q-102 97 -102 262t133 275t353 110q172 0 344 -66q47 -18 80 -36l-56 -217q-179 61 -242 70q-64 9 -109 9q-99 0 -147 -42t-49 -108q0 -98 117 -156q42 -20 128 -48q202 -64 300 -160t98 -262
t-133 -275t-336 -109t-380 57q-56 18 -101 41l72 216q226 -74 348 -74zM709 1784l290 -48l-335 -248l-194 40z" />
    <glyph glyph-name="sacute" unicode="&#x15b;" horiz-adv-x="974" 
d="M554 807q-151 0 -151 -95q0 -43 36 -68q36 -26 122 -48q334 -89 334 -304q0 -143 -117 -228q-117 -84 -327 -84t-370 80l41 198q160 -51 216 -58q55 -7 98 -7q150 0 150 105q0 62 -112 98q-34 11 -87 25q-130 34 -212 106q-81 72 -81 201q0 130 116 211t308 81
q191 0 348 -66l-46 -202q-137 43 -183 49q-47 6 -83 6zM630 1448l290 -48l-335 -248l-194 40z" />
    <glyph glyph-name="Scircumflex" unicode="&#x15c;" horiz-adv-x="1100" 
d="M498 220q224 0 224 151q0 97 -143 161q-45 20 -119 44q-178 59 -280 157q-102 97 -102 262t133 275t353 110q172 0 344 -66q47 -18 80 -36l-56 -217q-179 61 -242 70q-64 9 -109 9q-99 0 -147 -42t-49 -108q0 -98 117 -156q42 -20 128 -48q202 -64 300 -160t98 -262
t-133 -275t-336 -109t-380 57q-56 18 -101 41l72 216q226 -74 348 -74zM494 1486h-258l296 232h174l295 -232h-258l-125 110z" />
    <glyph glyph-name="scircumflex" unicode="&#x15d;" horiz-adv-x="974" 
d="M554 807q-151 0 -151 -95q0 -43 36 -68q36 -26 122 -48q334 -89 334 -304q0 -143 -117 -228q-117 -84 -327 -84t-370 80l41 198q160 -51 216 -58q55 -7 98 -7q150 0 150 105q0 62 -112 98q-34 11 -87 25q-130 34 -212 106q-81 72 -81 201q0 130 116 211t308 81
q191 0 348 -66l-46 -202q-137 43 -183 49q-47 6 -83 6zM415 1150h-258l296 232h174l295 -232h-258l-125 110z" />
    <glyph glyph-name="Scedilla" unicode="&#x15e;" horiz-adv-x="1100" 
d="M498 220q224 0 224 151q0 97 -143 161q-45 20 -119 44q-178 59 -280 157q-102 97 -102 262t133 275t353 110q172 0 344 -66q47 -18 80 -36l-56 -217q-179 61 -242 70q-64 9 -109 9q-99 0 -147 -42t-49 -108q0 -98 117 -156q42 -20 128 -48q202 -64 300 -160t98 -262
t-132 -275q-88 -72 -220 -97q29 -74 29 -136q0 -124 -91 -203t-271 -94l-64 139q136 10 183 94q16 28 16 78q0 49 -46 116q-216 22 -354 92l72 216q226 -74 348 -74z" />
    <glyph glyph-name="scedilla" unicode="&#x15f;" horiz-adv-x="974" 
d="M554 807q-151 0 -151 -95q0 -43 36 -68q36 -26 122 -48q334 -89 334 -304q0 -142 -115 -226q-71 -52 -176 -73q22 -64 22 -122q0 -120 -91 -199t-271 -94l-64 139q136 11 183 95q16 28 16 72t-34 101q-167 16 -284 75l41 198q160 -51 216 -58q55 -7 98 -7q150 0 150 105
q0 62 -112 98q-34 11 -87 25q-130 34 -212 106q-81 72 -81 201q0 130 116 211t308 81q191 0 348 -66l-46 -202q-137 43 -183 49q-47 6 -83 6z" />
    <glyph glyph-name="Scaron" unicode="&#x160;" horiz-adv-x="1100" 
d="M498 220q224 0 224 151q0 97 -143 161q-45 20 -119 44q-178 59 -280 157q-102 97 -102 262t133 275t353 110q172 0 344 -66q47 -18 80 -36l-56 -217q-179 61 -242 70q-64 9 -109 9q-99 0 -147 -42t-49 -108q0 -98 117 -156q42 -20 128 -48q202 -64 300 -160t98 -262
t-133 -275t-336 -109t-380 57q-56 18 -101 41l72 216q226 -74 348 -74zM731 1720h258l-295 -232h-174l-296 232h258l124 -114z" />
    <glyph glyph-name="scaron" unicode="&#x161;" horiz-adv-x="974" 
d="M554 807q-151 0 -151 -95q0 -43 36 -68q36 -26 122 -48q334 -89 334 -304q0 -143 -117 -228q-117 -84 -327 -84t-370 80l41 198q160 -51 216 -58q55 -7 98 -7q150 0 150 105q0 62 -112 98q-34 11 -87 25q-130 34 -212 106q-81 72 -81 201q0 130 116 211t308 81
q191 0 348 -66l-46 -202q-137 43 -183 49q-47 6 -83 6zM652 1384h258l-295 -232h-174l-296 232h258l124 -114z" />
    <glyph glyph-name="Tcommaaccent" unicode="&#x162;" horiz-adv-x="1148" 
d="M725 1140v-1140h-299v1140h-386v220h1070v-220h-385zM541 -91h270l-166 -409l-179 32z" />
    <glyph glyph-name="tcommaaccent" unicode="&#x163;" horiz-adv-x="829" 
d="M583 -9q-111 1 -179 17q-214 52 -215 353v452h-155l10 187h145v260l299 20v-280h282v-187h-282v-452q0 -80 30 -112t98 -32t153 18l24 -208q-99 -36 -210 -36zM480 -91h270l-166 -409l-179 32z" />
    <glyph glyph-name="Tcaron" unicode="&#x164;" horiz-adv-x="1148" 
d="M725 1140v-1140h-299v1140h-386v220h1070v-220h-385zM760 1704h258l-295 -232h-174l-296 232h258l124 -114z" />
    <glyph glyph-name="tcaron" unicode="&#x165;" horiz-adv-x="829" 
d="M583 -9q-111 1 -179 17q-214 52 -215 353v452h-155l10 187h145v260l299 20v-280h282v-187h-282v-452q0 -80 30 -112t98 -32t153 18l24 -208q-99 -36 -210 -36zM929 1307h287l-175 -492l-205 20z" />
    <glyph glyph-name="Tbar" unicode="&#x166;" horiz-adv-x="1149" 
d="M725 1140v-208h394v-161h-394v-771h-299v771h-382v161h382v208h-386v220h1070v-220h-385z" />
    <glyph glyph-name="tbar" unicode="&#x167;" horiz-adv-x="843" 
d="M583 -9q-111 0 -252.5 34t-141.5 336v170h-151v161h151v121h-155l10 187h145v260l299 20v-280h282v-187h-282v-121h272v-161h-272v-170q0 -80 30 -112t98 -32t153 18l24 -208q-99 -36 -210 -36z" />
    <glyph glyph-name="Utilde" unicode="&#x168;" horiz-adv-x="1432" 
d="M986 1360h298v-924q0 -214 -155 -335t-412 -121t-411 122q-155 122 -155 338v920h299v-920q0 -116 73 -179t193 -63q192 0 250 138q20 46 20 104v920zM882 1485q-84 0 -190 75q-82 55 -136 39t-105 -88l-122 100q99 165 250 165q89 0 189 -71q149 -106 250 51l121 -106
q-103 -165 -257 -165z" />
    <glyph glyph-name="utilde" unicode="&#x169;" horiz-adv-x="1238" 
d="M579 198q115 0 222 80v722h298v-1000h-250l-27 108q-149 -128 -325 -128t-266 88q-91 88 -91 310v622h301v-622q0 -142 76 -170q26 -10 62 -10zM774 1145q-84 0 -190 75q-82 55 -136 39t-105 -88l-122 100q99 165 250 165q89 0 189 -71q149 -106 250 51l121 -106
q-103 -165 -257 -165z" />
    <glyph glyph-name="Umacron" unicode="&#x16a;" horiz-adv-x="1432" 
d="M986 1360h298v-924q0 -214 -155 -335t-412 -121t-411 122q-155 122 -155 338v920h299v-920q0 -116 73 -179t193 -63q192 0 250 138q20 46 20 104v920zM315 1636h768v-161h-768v161z" />
    <glyph glyph-name="umacron" unicode="&#x16b;" horiz-adv-x="1238" 
d="M579 198q115 0 222 80v722h298v-1000h-250l-27 108q-149 -128 -325 -128t-266 88q-91 88 -91 310v622h301v-622q0 -142 76 -170q26 -10 62 -10zM207 1297h768v-161h-768v161z" />
    <glyph glyph-name="Ubreve" unicode="&#x16c;" horiz-adv-x="1432" 
d="M986 1360h298v-924q0 -214 -155 -335t-412 -121t-411 122q-155 122 -155 338v920h299v-920q0 -116 73 -179t193 -63q192 0 250 138q20 46 20 104v920zM355 1708h191q0 -62 40 -98t124 -37q82 1 122 37t40 98h191q0 -127 -95 -197t-259 -68q-249 -3 -329 151
q-26 50 -25 114z" />
    <glyph glyph-name="ubreve" unicode="&#x16d;" horiz-adv-x="1238" 
d="M579 198q115 0 222 80v722h298v-1000h-250l-27 108q-149 -128 -325 -128t-266 88q-91 88 -91 310v622h301v-622q0 -142 76 -170q26 -10 62 -10zM247 1369h191q0 -63 40 -99t124 -36q82 0 122 36t40 99h191q0 -127 -95 -197t-259 -68q-249 -4 -329 150q-26 50 -25 115z
" />
    <glyph glyph-name="Uring" unicode="&#x16e;" horiz-adv-x="1432" 
d="M986 1360h298v-924q0 -214 -155 -335t-412 -121t-411 122q-155 122 -155 338v920h299v-920q0 -116 73 -179t193 -63q192 0 250 138q20 46 20 104v920zM702 1586q36 0 60 23t24 55t-24 56q-24 22 -60 22t-60 -22q-26 -22 -26 -56q0 -32 26 -55q24 -23 60 -23zM701 1858
q87 0 149 -58t62 -136q0 -79 -62 -137q-62 -57 -149 -57q-88 0 -149 57t-61 137t62 137q61 57 148 57z" />
    <glyph glyph-name="uring" unicode="&#x16f;" horiz-adv-x="1238" 
d="M579 198q115 0 222 80v722h298v-1000h-250l-27 108q-149 -128 -325 -128t-266 88q-91 88 -91 310v622h301v-622q0 -142 76 -170q26 -10 62 -10zM594 1247q36 0 60 23q24 24 24 56t-24 54t-60 23q-36 -1 -60 -23q-26 -22 -26 -54t26 -56q24 -23 60 -23zM593 1519
q87 0 149 -58q62 -59 62 -137q0 -79 -62 -136t-149 -57q-88 0 -149 57q-61 56 -61 136t62 138q61 57 148 57z" />
    <glyph glyph-name="Uhungarumlaut" unicode="&#x170;" horiz-adv-x="1432" 
d="M986 1360h298v-924q0 -214 -155 -335t-412 -121t-411 122q-155 122 -155 338v920h299v-920q0 -116 73 -179t193 -63q192 0 250 138q20 46 20 104v920zM1090 1800l213 -60l-372 -268l-141 40zM673 1800l196 -60l-307 -268l-123 40z" />
    <glyph glyph-name="uhungarumlaut" unicode="&#x171;" horiz-adv-x="1238" 
d="M579 198q115 0 222 80v722h298v-1000h-250l-27 108q-149 -128 -325 -128t-266 88q-91 88 -91 310v622h301v-622q0 -142 76 -170q26 -10 62 -10zM982 1460l213 -60l-372 -268l-141 40zM565 1460l196 -60l-307 -268l-123 40z" />
    <glyph glyph-name="Uogonek" unicode="&#x172;" horiz-adv-x="1432" 
d="M486 -201q0 109 99 190q-291 43 -393 257q-41 86 -41 194v920h299v-920q0 -116 73 -179t193 -63q192 0 250 138q20 46 20 104v920h298v-924q0 -214 -157 -336q-96 -75 -239 -104q-184 -70 -184 -166q0 -40 24 -59q24 -20 60 -20q35 0 65 10l22 -158q-38 -22 -144 -22
q-105 1 -175 55t-70 163z" />
    <glyph glyph-name="uogonek" unicode="&#x173;" horiz-adv-x="1238" 
d="M140 378v622h301v-622q0 -142 76 -170q26 -10 62 -10q115 0 222 80v722h298v-1000h-65q-94 -34 -129 -63q-66 -53 -66 -108q0 -78 91 -78q28 0 58 10l22 -158q-38 -22 -144 -22q-106 1 -176 55t-69 149q0 189 214 269l-13 54q-149 -128 -325 -128t-266 88q-91 87 -91 310
z" />
    <glyph glyph-name="Ydieresis" unicode="&#x178;" horiz-adv-x="1246" 
d="M772 0h-298v464l-434 896h306l278 -600l281 600h302l-435 -902v-458zM782 1658h269v-188h-269v188zM257 1658h269v-188h-269v188z" />
    <glyph glyph-name="Zacute" unicode="&#x179;" horiz-adv-x="1198" 
d="M114 1360h956v-170l-615 -971h662l-43 -219h-966v174l604 967h-598v219zM736 1768l290 -48l-335 -248l-194 40z" />
    <glyph glyph-name="zacute" unicode="&#x17a;" horiz-adv-x="967" 
d="M83 1000h777v-156l-430 -625h485l-42 -219h-796l-1 172l420 609h-413v219zM675 1428l290 -48l-335 -248l-194 40z" />
    <glyph glyph-name="Zdotaccent" unicode="&#x17b;" horiz-adv-x="1198" 
d="M114 1360h956v-170l-615 -971h662l-43 -219h-966v174l604 967h-598v219zM476 1670h307v-200h-307v200z" />
    <glyph glyph-name="zdotaccent" unicode="&#x17c;" horiz-adv-x="967" 
d="M83 1000h777v-156l-430 -625h485l-42 -219h-796l-1 172l420 609h-413v219zM415 1331h307v-200h-307v200z" />
    <glyph glyph-name="Zcaron" unicode="&#x17d;" horiz-adv-x="1198" 
d="M114 1360h956v-170l-615 -971h662l-43 -219h-966v174l604 967h-598v219zM758 1704h258l-295 -232h-174l-296 232h258l124 -114z" />
    <glyph glyph-name="zcaron" unicode="&#x17e;" horiz-adv-x="967" 
d="M83 1000h777v-156l-430 -625h485l-42 -219h-796l-1 172l420 609h-413v219zM697 1365h258l-295 -232h-174l-296 232h258l124 -114z" />
    <glyph glyph-name="florin" unicode="&#x192;" horiz-adv-x="781" 
d="M88 -198q55 0 78.5 24.5t23.5 84.5v907h-149l8 182h141v38q0 298 161 340t262 42t205 -30l-18 -204q-81 14 -160 14t-114.5 -36t-35.5 -126v-38h258v-182h-258v-879q0 -357 -375 -357q-93 0 -176 30l21 204q73 -14 128 -14z" />
    <glyph glyph-name="dotlessj" unicode="&#x237;" horiz-adv-x="601" 
d="M132 -201q33 37 33 131v1070h298v-1070q0 -312 -147 -350t-201 -38q-180 0 -283 42l33 197q76 -19 155 -19t112 37z" />
    <glyph glyph-name="circumflex" unicode="&#x2c6;" horiz-adv-x="932" 
d="M352 1148h-258l296 232h174l295 -232h-258l-125 110z" />
    <glyph glyph-name="caron" unicode="&#x2c7;" horiz-adv-x="932" 
d="M601 1380h258l-295 -232h-174l-296 232h258l124 -114z" />
    <glyph glyph-name="breve" unicode="&#x2d8;" horiz-adv-x="795" 
d="M56 1380h191q0 -62 40.5 -98.5t122.5 -36.5t122.5 36.5t40.5 98.5h191q0 -127 -95.5 -197t-258.5 -68q-249 -3 -301.5 98.5t-52.5 166.5z" />
    <glyph glyph-name="dotaccent" unicode="&#x2d9;" horiz-adv-x="508" 
d="M102 1426h307v-200h-307v200z" />
    <glyph glyph-name="ring" unicode="&#x2da;" horiz-adv-x="622" 
d="M314 1344q36 0 59.5 23t23.5 55t-23.5 55t-59.5 23t-61.5 -23t-25.5 -55t25.5 -55t61.5 -23zM312 1616q87 0 149 -58t62 -136q0 -79 -61.5 -136.5t-149.5 -57.5t-149 57t-61 137t61.5 137t148.5 57z" />
    <glyph glyph-name="ogonek" unicode="&#x2db;" horiz-adv-x="506" 
d="M21 -215q0 165 106 218t152 65l155 -64v-4q-94 -34 -144.5 -75t-50.5 -96q0 -78 91 -78q28 0 58 10l22 -158q-39 -22 -144 -22q-106 0 -175.5 54.5t-69.5 149.5z" />
    <glyph glyph-name="tilde" unicode="&#x2dc;" horiz-adv-x="1011" 
d="M655 1141q-84 0 -190 75q-82 55 -136 39t-105 -88l-122 100q99 165 250 165q89 0 189 -71q149 -106 250 51l121 -106q-103 -165 -257 -165z" />
    <glyph glyph-name="hungarumlaut" unicode="&#x2dd;" horiz-adv-x="1116" 
d="M799 1440l213 -60l-372 -268l-141 40zM382 1440l196 -60l-307 -268l-123 40z" />
    <glyph glyph-name="pi" unicode="&#x3c0;" horiz-adv-x="1377" 
d="M1134 332q0 -139 169 -132l-5 -212q-56 -6 -127 -6t-204 45t-133 280v499h-274v-806h-299v806h-202v194h1262v-194h-187v-474z" />
    <glyph glyph-name="endash" unicode="&#x2013;" horiz-adv-x="1134" 
d="M78 538v194h977v-194h-977z" />
    <glyph glyph-name="emdash" unicode="&#x2014;" horiz-adv-x="1797" 
d="M100 538v194h1586v-194h-1586z" />
    <glyph glyph-name="quoteleft" unicode="&#x2018;" horiz-adv-x="580" 
d="M397 910h-287l176 492l205 -20z" />
    <glyph glyph-name="quoteright" unicode="&#x2019;" horiz-adv-x="569" 
d="M210 1402h287l-175 -492l-205 20z" />
    <glyph glyph-name="quotesinglbase" unicode="&#x201a;" horiz-adv-x="582" 
d="M196 212h282l-168 -516l-194 32z" />
    <glyph glyph-name="quotedblleft" unicode="&#x201c;" horiz-adv-x="959" 
d="M363 910h-287l175 492l205 -20zM744 910h-287l175 492l205 -20z" />
    <glyph glyph-name="quotedblright" unicode="&#x201d;" horiz-adv-x="959" 
d="M208 1402h287l-175 -492l-205 20zM585 1402h287l-175 -492l-205 20z" />
    <glyph glyph-name="quotedblbase" unicode="&#x201e;" horiz-adv-x="946" 
d="M195 212h282l-168 -516l-194 32zM550 212h282l-168 -516l-194 32z" />
    <glyph glyph-name="dagger" unicode="&#x2020;" horiz-adv-x="1090" 
d="M685 780v-780h-298v780h-285v220h285v360h298v-360h307v-220h-307z" />
    <glyph glyph-name="daggerdbl" unicode="&#x2021;" horiz-adv-x="1090" 
d="M685 0v-400h-298v400h-285v222h285v556h-285v222h285v360h298v-360h307v-222h-307v-556h307v-222h-307z" />
    <glyph glyph-name="bullet" unicode="&#x2022;" horiz-adv-x="792" 
d="M396 900q118 0 200 -77t82 -188.5t-82 -187.5t-201 -76q-118 0 -198 76t-80 187.5t80.5 188.5t198.5 77z" />
    <glyph glyph-name="ellipsis" unicode="&#x2026;" horiz-adv-x="1680" 
d="M131 244h284v-244h-284v244zM690 244h284v-244h-284v244zM1262 244h284v-244h-284v244z" />
    <glyph glyph-name="perthousand" unicode="&#x2030;" horiz-adv-x="2011" 
d="M1141 1360h192l-916 -1360h-192zM299 1076q0 -77 34 -118.5t89 -41.5t88.5 41.5t33.5 118.5t-33.5 117.5t-88.5 40.5t-89 -40.5t-34 -117.5zM1017 290q0 -77 34.5 -118.5t88.5 -41.5t88.5 41.5t34.5 118.5v7q-2 73 -36 112t-88 39t-88 -40.5t-34 -117.5zM1583 130
q53 0 87.5 41.5t34.5 118.5t-34.5 117.5t-87.5 40.5t-87.5 -39t-36.5 -112v-15q2 -73 36.5 -112.5t87.5 -39.5zM102 1076q0 141 88 222.5t231 81.5t232 -81t89 -223q0 -141 -88.5 -222.5t-232.5 -81.5t-231.5 81.5t-87.5 222.5zM1360 58q-86 -72 -225 -72q-138 0 -226.5 81
t-88.5 223q0 141 89 222.5t226 81.5t225 -73q88 73 226 73q139 0 228 -81t89 -223q0 -141 -88.5 -222.5t-228.5 -81.5t-226 72z" />
    <glyph glyph-name="guilsinglleft" unicode="&#x2039;" horiz-adv-x="700" 
d="M609 152l-134 -110l-373 386v84l373 406l134 -110l-228 -336z" />
    <glyph glyph-name="guilsinglright" unicode="&#x203a;" horiz-adv-x="700" 
d="M94 808l134 110l372 -386v-84l-372 -406l-134 110l226 336z" />
    <glyph glyph-name="fraction" unicode="&#x2044;" horiz-adv-x="1146" 
d="M927 1360h192l-916 -1360h-192z" />
    <glyph glyph-name="foursuperior" unicode="&#x2074;" horiz-adv-x="724" 
d="M423 914v281l-219 -281h219zM587 792v-123h-164v123h-394v100l375 475h183v-453h85v-122h-85z" />
    <glyph glyph-name="Euro" unicode="&#x20ac;" 
d="M61 446v146h187q-3 44 -3 74v29q0 29 1 43h-185v146h202q44 231 188.5 363.5t362.5 132.5q166 0 295 -53l-51 -202q-102 37 -216 37q-113 0 -180.5 -67t-94.5 -211h474v-146h-489l-1 -56q0 -48 3 -90h487v-146h-467q60 -248 256 -248q131 0 266 53l46 -203
q-134 -68 -340 -68q-207 0 -345.5 125t-186.5 341h-209z" />
    <glyph glyph-name="trademark" unicode="&#x2122;" horiz-adv-x="1403" 
d="M406 1248v-382h-139v382h-186v112h509v-112h-184zM1281 1360v-494h-126v341l-122 -199h-89l-124 203v-345h-141v494h186l124 -200l126 200h166z" />
    <glyph glyph-name="minus" unicode="&#x2212;" horiz-adv-x="1109" 
d="M102 550v206h907v-206h-907z" />
    <glyph glyph-name="lessequal" unicode="&#x2264;" horiz-adv-x="1063" 
d="M93 65v178h698l-695 227v203l885 289v-213l-585 -178l585 -178v-150h19v-178h-907z" />
    <glyph glyph-name="greaterequal" unicode="&#x2265;" horiz-adv-x="1069" 
d="M1000 243v-178h-907v178h11v150l584 178l-584 178v213l886 -289v-203l-696 -227h706z" />
    <glyph glyph-name="commaaccent" horiz-adv-x="573" 
d="M184 -91h270l-166 -409l-179 32z" />
    <glyph glyph-name="y.alt" horiz-adv-x="1226" 
d="M521 -242q144 0 199 47.5t55 162.5v100q-130 -88 -289 -88t-249.5 87t-90.5 311v622h298v-622q0 -143 51.5 -161.5t87.5 -18.5q102 0 192 58v744h299v-1032q0 -348 -201 -389t-283 -41q-203 0 -361 44l32 208q184 -32 260 -32z" />
    <glyph glyph-name="g.alt2" horiz-adv-x="1177" 
d="M390 427q0 -225 205 -225q103 0 184 57v486q-81 57 -157 57q-75 0 -115.5 -19.5t-78.5 -75t-38 -280.5zM504 -242q98 0 143.5 10t88.5 43.5t43 139.5v112q-108 -79 -287 -79t-293 141t-114 377t114 377t302 141q144 0 205 -35.5t90 -57.5l17 73h265v-1049
q0 -337 -201 -375.5t-283 -38.5q-220 0 -361 45l33 208q140 -32 238 -32z" />
    <glyph glyph-name="a.alt" horiz-adv-x="1174" 
d="M474 746q-85 -55 -85 -317q0 -172 71 -200.5t106 -28.5q106 0 175 86v485q-73 30 -127 30q-55 0 -140 -55zM461 -20q-194 0 -283 113.5t-89 351.5t128 406.5t333 168.5q102 0 146.5 -28.5t65.5 -44.5l28 53h251v-1000h-240l-36 114q-110 -134 -304 -134z" />
    <glyph glyph-name="r.alt" horiz-adv-x="788" 
d="M649 782q-111 0 -208 -126v-467h135v-189h-436v1000h252l29 -137q108 157 272 157q44 0 84 -4l-17 -242q-42 8 -111 8z" />
    <glyph glyph-name="zero.onum" horiz-adv-x="1331" 
d="M911 501q0 313 -244.5 313t-244.5 -308t182.5 -308t244.5 77.5t62 225.5zM267 882q144 138 400 138t400 -138t144 -382t-144 -382t-400 -138t-400 138t-144 382t144 382z" />
    <glyph glyph-name="one.onum" horiz-adv-x="888" 
d="M107 0v184h201v572l-228 -72v204l301 112h226v-816h203v-184h-703z" />
    <glyph glyph-name="two.onum" horiz-adv-x="1119" 
d="M99 893q205 126 469 126q183 0 301.5 -81.5t118.5 -220.5q0 -169 -119.5 -235.5t-181.5 -91.5q-141 -57 -195.5 -89t-70.5 -83h593v-218h-922l-2 86q0 316 412 462q101 37 141 69.5t40 79.5t-47.5 73t-115.5 26q-108 0 -180 -22t-166 -68z" />
    <glyph glyph-name="three.onum" horiz-adv-x="1154" 
d="M133 926q151 94 405 94q82 0 175 -25t193.5 -96t100.5 -231q0 -102 -59 -176t-168 -112q128 -41 199.5 -126.5t71.5 -193.5q0 -205 -170 -321.5t-454 -116.5q-171 0 -282 40l40 188q148 -22 219 -22q160 0 257 61t97 185q0 145 -102.5 170.5t-162.5 25.5h-176v76l-24 144
h200q158 0 189 61.5t31 101.5q0 149 -254 149q-124 0 -265 -57z" />
    <glyph glyph-name="four.onum" horiz-adv-x="1169" 
d="M661 220v481l-346 -481h346zM960 0v-360h-299v360h-629v182l590 818h338v-780h172v-220h-172z" />
    <glyph glyph-name="five.onum" horiz-adv-x="1064" 
d="M691 124q0 194 -229 194q-67 0 -125 -34l-248 40l99 676h719v-220h-489l-45 -277q76 21 178 21q204 0 324.5 -110t120.5 -290q0 -226 -167 -364t-447 -138q-178 0 -266 42l42 182q58 -18 179 -18q180 0 267 71t87 225z" />
    <glyph glyph-name="six.onum" horiz-adv-x="1208" 
d="M818 404q0 134 -45 200t-145 66q-136 0 -214 -99q19 -373 220 -373q89 0 136 67q48 66 48 139zM1013 763q100 -109 100 -314t-135 -337t-372 -132q-238 0 -369 181t-131 505t162 519t429 195q147 0 234 -29q27 -9 54 -19l-41 -202q-89 32 -177 32q-318 0 -352 -404
q116 114 307 114t291 -109z" />
    <glyph glyph-name="seven.onum" horiz-adv-x="969" 
d="M1098 1001v-146l-514 -1214h-294l489 1152h-687v208h1006z" />
    <glyph glyph-name="eight.onum" horiz-adv-x="1258" 
d="M437 984q0 -86 45 -135q44 -49 118 -49t120 48t47 136q-1 86 -47 132t-120 46t-118 -46q-45 -46 -45 -132zM446 249q58 -51 153 -51q152 0 201 111q16 37 16 83q0 93 -60 148t-156 55q-95 0 -153 -56q-59 -56 -59 -147q0 -92 58 -143zM1117 390q0 -197 -142 -303
q-142 -107 -375 -107t-373 107t-140 298q-1 108 61 189t171 127q-181 94 -181 284t125 292q125 103 337 103q213 0 340 -102t127 -293q0 -190 -185 -284q110 -46 172 -127q62 -82 63 -184z" />
    <glyph glyph-name="nine.onum" horiz-adv-x="1207" 
d="M575 325q133 0 209 100q-16 307 -135 361q-37 17 -84 17q-91 0 -138 -66t-47 -171q0 -169 104 -222q37 -19 91 -19zM784 228q-117 -113 -301 -113q-185 0 -291 125q-107 125 -107 325t138 328t367 128q503 0 503 -710q0 -311 -152 -501q-152 -189 -408 -189
q-149 0 -239 29q-28 9 -55 19l39 204q95 -34 182 -34t139 23q165 73 185 366z" />
    <glyph glyph-name="A.smcp" horiz-adv-x="1348" 
d="M525 496h301l-150 393zM910 276h-469l-106 -276h-295l473 1160h323l472 -1160h-293z" />
    <glyph glyph-name="B.smcp" horiz-adv-x="1289" 
d="M795 813q0 67 -52 92t-146 25h-148v-235h295q51 51 51 118zM897 354q0 135 -218 135h-230v-259h207q241 0 241 124zM1189 334q0 -155 -137 -244.5t-375 -89.5h-526v1160h462q224 0 352.5 -84t128.5 -232t-148 -243q243 -61 243 -267z" />
    <glyph glyph-name="C.smcp" horiz-adv-x="1145" 
d="M86 588q0 273 184.5 432.5t494.5 159.5q149 0 287 -53l-51 -202q-102 37 -207 37q-401 0 -401 -366q0 -302 145 -350t255 -48t245 53l47 -203q-134 -68 -317 -68q-332 0 -507 167.5t-175 440.5z" />
    <glyph glyph-name="D.smcp" horiz-adv-x="1386" 
d="M450 942v-724h136q281 0 334.5 139t53.5 233q0 179 -103 265.5t-285 86.5h-136zM151 1160h457q306 0 489.5 -155t183.5 -419q0 -263 -182.5 -424.5t-490.5 -161.5h-457v1160z" />
    <glyph glyph-name="E.smcp" horiz-adv-x="1087" 
d="M151 0v1160h876v-220h-578v-228h513v-220h-513v-272h578v-220h-876z" />
    <glyph glyph-name="F.smcp" horiz-adv-x="1000" 
d="M449 461v-461h-298v1160h833v-220h-535v-259h469v-220h-469z" />
    <glyph glyph-name="G.smcp" horiz-adv-x="1382" 
d="M984 438h-233v218h507v-588q-215 -88 -411 -88q-352 0 -544 175.5t-192 431.5q0 257 194 425t522 168q194 0 325 -54l-48 -201q-118 37 -238 37q-222 0 -339.5 -103.5t-117.5 -268.5t109.5 -278.5t296.5 -113.5q97 0 169 22v218z" />
    <glyph glyph-name="H.smcp" horiz-adv-x="1447" 
d="M151 1160h299v-460h551v460h299v-1160h-299v480h-551v-480h-299v1160z" />
    <glyph glyph-name="I.smcp" horiz-adv-x="853" 
d="M108 0v162h171v836h-171v162h641v-162h-172v-836h172v-162h-641z" />
    <glyph glyph-name="J.smcp" horiz-adv-x="941" 
d="M496 393v767h298v-779q0 -323 -162.5 -362t-233.5 -39q-222 0 -343 54l43 200q108 -34 186 -34t145 19.5t67 173.5z" />
    <glyph glyph-name="K.smcp" horiz-adv-x="1302" 
d="M450 486v-486h-299v1160h299v-448h169l280 448h309l-350 -554h-1l425 -606h-329l-339 486h-164z" />
    <glyph glyph-name="L.smcp" horiz-adv-x="1011" 
d="M151 1160h299v-940h532v-220h-831v1160z" />
    <glyph glyph-name="M.smcp" horiz-adv-x="1690" 
d="M1543 1160v-1160h-299v381l26 424l-339 -571h-165l-344 580l27 -423v-391h-298v1160h340l358 -590l357 590h337z" />
    <glyph glyph-name="N.smcp" horiz-adv-x="1478" 
d="M151 1160h299l581 -768v768h299v-1160h-299l-581 768v-768h-299v1160z" />
    <glyph glyph-name="O.smcp" horiz-adv-x="1397" 
d="M698 198q317 0 317 396q0 178 -79 273t-238 95q-230 0 -272 -140t-42 -228q0 -196 81 -296t233 -100zM248 1022q164 158 452 158q287 0 451 -158t164 -437t-163.5 -442t-451.5 -163t-452 162.5t-164 442.5q0 279 164 437z" />
    <glyph glyph-name="P.smcp" horiz-adv-x="1252" 
d="M613 594q271 0 271 174t-271 174h-163v-348h163zM151 1160h483q261 0 407.5 -105t146.5 -285t-146 -287t-408 -107h-184v-376h-299v1160z" />
    <glyph glyph-name="Q.smcp" horiz-adv-x="1352" 
d="M698 198q317 0 317 396q0 178 -79 273t-238 95q-230 0 -272 -140t-42 -228q0 -196 81 -296t233 -100zM1315 594q0 -319 -200 -484l212 -275h-332l-125 163q-80 -18 -198 -18t-231.5 42t-235 162.5t-121.5 400.5q0 279 164 437t452 158q287 0 451 -158t164 -428z" />
    <glyph glyph-name="R.smcp" horiz-adv-x="1321" 
d="M862 779q0 163 -240 163h-172v-327h335q77 67 77 164zM450 397v-397h-299v1160h479q253 0 395 -102.5t142 -285.5t-211 -319l301 -453h-313l-260 397h-234z" />
    <glyph glyph-name="S.smcp" horiz-adv-x="1100" 
d="M581 940q-196 0 -196 -100q0 -75 78.5 -103.5t160.5 -51.5q193 -54 297.5 -139t104.5 -232t-131 -240.5t-335 -93.5t-320.5 37.5t-161.5 60.5l72 214q221 -72 376 -72q194 0 194 101q0 77 -92 106t-162 47q-166 43 -277 132.5t-111 223.5q0 162 132.5 256t353.5 94
q167 0 279 -42.5t145 -59.5l-56 -214q-190 61 -248 68.5t-103 7.5z" />
    <glyph glyph-name="T.smcp" horiz-adv-x="1122" 
d="M712 940v-940h-299v940h-384v220h1068v-220h-385z" />
    <glyph glyph-name="U.smcp" horiz-adv-x="1432" 
d="M986 1160h298v-724q0 -214 -155 -335t-412 -121t-411.5 122.5t-154.5 337.5v720h299v-720q0 -116 73 -179t193 -63q192 0 231 91.5t39 150.5v720z" />
    <glyph glyph-name="V.smcp" horiz-adv-x="1312" 
d="M563 535l95 -303l95 304l212 624h309l-453 -1160h-328l-453 1160h312z" />
    <glyph glyph-name="W.smcp" horiz-adv-x="1851" 
d="M1496 1160h308l-291 -1160h-324l-260 803l-264 -803h-322l-294 1160h312l165 -829l275 829h254l273 -831z" />
    <glyph glyph-name="X.smcp" horiz-adv-x="1234" 
d="M618 778l261 382h320l-399 -570l399 -590h-322l-258 393l-257 -393h-325l399 590l-399 570h322z" />
    <glyph glyph-name="Y.smcp" horiz-adv-x="1246" 
d="M773 0h-299v381l-434 779h306l278 -515l281 515h302l-434 -782v-378z" />
    <glyph glyph-name="Z.smcp" horiz-adv-x="1178" 
d="M114 1160h956v-170l-587 -771h634l-43 -219h-966v174l576 767h-570v219z" />
    <glyph glyph-name="zero.tnum" 
d="M598 1174q-202 0 -202 -488t202 -488q207 0 207 488t-207 488zM228.5 1192q130.5 188 370.5 188q241 0 374 -188.5t133 -514.5t-132 -511.5t-375 -185.5q-242 0 -371.5 185t-129.5 512t130.5 515z" />
    <glyph glyph-name="one.tnum" 
d="M221 0v196h275v933l-301 -78v197l369 112h230v-1164h272v-196h-845z" />
    <glyph glyph-name="two.tnum" 
d="M1092 218v-218h-961l-1 127q0 275 160 401t244 174q145 82 193.5 142t48.5 136q0 75 -60.5 120.5t-134.5 45.5q-116 0 -189.5 -24t-193.5 -78l-72 193q134 91 265 117t221 26t179 -26.5t190 -105t101 -252.5q0 -208 -145 -309t-211 -143q-152 -96 -218.5 -161t-77.5 -165
h662z" />
    <glyph glyph-name="three.tnum" 
d="M125 1281q163 99 432 99q84 0 177.5 -27.5t196.5 -104t103 -244.5q0 -109 -62.5 -188t-174.5 -119q132 -40 206 -126.5t74 -188.5q0 -189 -147.5 -295.5t-390.5 -106.5q-186 0 -291.5 37t-141.5 59l61 192q163 -70 351 -70t229.5 72t41.5 122q0 99 -74.5 146.5
t-202.5 47.5h-187v218h187q162 0 197.5 70t35.5 115q0 172 -266 172q-132 0 -276 -58z" />
    <glyph glyph-name="four.tnum" 
d="M671 464v553l-333 -553h333zM969 244v-244h-298v244h-609v182l564 934h343v-896h171v-220h-171z" />
    <glyph glyph-name="five.tnum" 
d="M630 875q221 0 342 -118t121 -322t-150 -329.5t-414 -125.5q-174 0 -271 29.5t-129 46.5l45 200q147 -58 301 -58q313 0 313 240q0 219 -220 219q-126 0 -198 -32l-243 40l97 695h777v-220h-542l-50 -289q105 24 221 24z" />
    <glyph glyph-name="six.tnum" 
d="M820 404q0 134 -45 200t-145 66q-136 0 -214 -99q19 -373 220 -373q89 0 136.5 66.5t47.5 139.5zM1015 763q100 -109 100 -314t-135 -337t-372 -132q-238 0 -369 181t-131 505t161.5 519t429.5 195q147 0 204 -19t84 -29l-41 -202q-89 32 -177 32q-318 0 -352 -404
q116 114 307 114t291 -109z" />
    <glyph glyph-name="seven.tnum" 
d="M1101 1360v-146l-514 -1214h-294l489 1152h-687v208h1006z" />
    <glyph glyph-name="eight.tnum" 
d="M434 984q0 -86 45 -135t119 -49t120 48.5t46 135.5t-46 132.5t-120 45.5t-119 -46t-45 -132zM443.5 249q58.5 -51 152.5 -51q152 0 184.5 74t32.5 120q0 93 -60.5 148t-154.5 55q-95 0 -154 -55.5t-59 -147.5t58.5 -143zM1114 390q0 -197 -142 -303.5t-375 -106.5
t-373 106.5t-140 298.5q0 108 61.5 189t170.5 127q-181 94 -181 284t124.5 292.5t337.5 102.5t340 -102.5t127 -292.5t-185 -284q110 -46 172.5 -127.5t62.5 -183.5z" />
    <glyph glyph-name="nine.tnum" 
d="M575 684q133 0 209 100q-16 307 -94 342.5t-125 35.5q-91 0 -138 -65.5t-47 -171.5q0 -169 70.5 -205t124.5 -36zM784 587q-117 -113 -301 -113q-185 0 -291.5 125t-106.5 325t137.5 328t367.5 128q503 0 503 -710q0 -311 -151.5 -500.5t-408.5 -189.5q-149 0 -208 19
t-86 29l39 204q95 -34 182 -34t195.5 48t128.5 341z" />
    <glyph glyph-name="zero.lnum" horiz-adv-x="1331" 
d="M668.5 198.5q244.5 0.5 244.5 484.5q0 241 -63 366t-244.5 125t-181.5 -488t244.5 -487.5zM268.5 1192q143.5 188 398.5 188t400 -188t145 -513t-144.5 -511.5t-400.5 -186.5t-399 186.5t-143 511.5t143.5 513z" />
    <glyph glyph-name="one.lnum" horiz-adv-x="930" 
d="M114 0v184h215v934l-242 -74v204l314 112h228v-1176h215v-184h-730z" />
    <glyph glyph-name="two.lnum" horiz-adv-x="1119" 
d="M103 1243q203 137 475 137q199 0 331.5 -104.5t132.5 -279.5q0 -208 -144 -310t-210 -143q-150 -94 -218 -160t-81 -165h664v-218h-961l-3 127q0 270 161 397.5t244 176.5q145 86 194 145t49 135t-54 120.5t-129 44.5q-117 0 -195 -25t-183 -75z" />
    <glyph glyph-name="three.lnum" horiz-adv-x="1144" 
d="M105 1281q159 99 421 99q84 0 176 -27.5t193 -104t101 -244.5q0 -109 -61.5 -188t-172.5 -119q130 -40 201.5 -126.5t71.5 -188.5q0 -189 -143 -295.5t-386 -106.5q-181 0 -284.5 38t-139.5 60l65 190q159 -70 312 -70q205 0 244.5 67.5t39.5 116.5q0 101 -70 152.5
t-192 51.5h-176v218h176q160 0 190.5 70t30.5 118q0 169 -238 169q-137 0 -283 -58z" />
    <glyph glyph-name="four.lnum" horiz-adv-x="1175" 
d="M667 464v554l-349 -554h349zM966 244v-244h-299v244h-629v182l591 934h337v-896h173v-220h-173z" />
    <glyph glyph-name="five.lnum" horiz-adv-x="1098" 
d="M551 884q205 0 330.5 -122t125.5 -326t-141.5 -330t-381.5 -126q-156 0 -245.5 30.5t-120.5 47.5l42 198q155 -58 280 -58q262 0 262 240q0 117 -55.5 172.5t-148.5 55.5t-147 -32l-246 40l97 686h718v-220h-489l-43 -273q65 17 163 17z" />
    <glyph glyph-name="six.lnum" horiz-adv-x="1245" 
d="M657 672q-153 0 -237 -116q14 -186 74.5 -272t159.5 -86t151.5 67t52.5 161q0 172 -73.5 209t-127.5 37zM419 752q122 130 320 130q197 0 305.5 -116.5t108.5 -312.5l-1 -30q-11 -179 -150 -311t-376 -132t-376 185.5t-139 506.5t161.5 514.5t434.5 193.5q145 0 203 -19
t85 -29l-41 -203q-94 33 -183 33q-325 0 -352 -410z" />
    <glyph glyph-name="seven.lnum" horiz-adv-x="939" 
d="M896 1360v-148l-400 -1212h-292l389 1152h-569v208h872z" />
    <glyph glyph-name="eight.lnum" horiz-adv-x="1324" 
d="M466 984q0 -86 54 -134.5t144 -48.5t142.5 48t52.5 135t-52.5 132.5t-142.5 45.5t-144 -46t-54 -132zM417 392q0 -46 18 -82.5t50.5 -61t78 -37.5t128 -13t149.5 51.5t67 142.5q0 92 -67 146.5t-208.5 54.5t-178.5 -77.5t-37 -123.5zM1208 396q0 -197 -149 -306.5
t-395 -109.5t-396 109.5t-150 301.5q0 107 64.5 186t178.5 124q-194 90 -194 279q0 190 135.5 295t360.5 105t360.5 -105t135.5 -295q0 -189 -195 -279q115 -45 179.5 -124t64.5 -181z" />
    <glyph glyph-name="nine.lnum" horiz-adv-x="1241" 
d="M589 682q157 0 239 113q-20 288 -100 327.5t-154.5 39.5t-128 -71.5t-53.5 -172.5q0 -165 72 -200.5t125 -35.5zM96 879q0 25 3 51q13 184 149 317t358 133q255 0 393.5 -185.5t138.5 -510.5q0 -326 -160 -515t-429 -189q-150 0 -209 19t-87 29l40 204q102 -34 190 -34
q163 0 247.5 99t98.5 299q-118 -124 -310 -124t-307.5 114t-115.5 293z" />
    <glyph glyph-name="onehalf.tnum" 
d="M173 771v96h93v367l-104 -30v104l140 49h116v-490h90v-96h-335zM839 599q113 0 174.5 -45t61.5 -131t-68 -128.5t-116 -67.5t-79.5 -50t-40.5 -61h310v-115h-469v59q0 121 76 172.5t118 72.5q70 35 92.5 57.5t22.5 56.5q0 58 -94 58q-65 0 -112.5 -18.5t-70.5 -27.5
l-33 104q115 64 228 64zM1047 1070l68 -101l-887 -618l-67 95z" />
    <glyph glyph-name="onequarter.tnum" 
d="M173 771v96h93v367l-104 -30v104l140 49h116v-490h90v-96h-335zM805 208v236l-184 -236h184zM943 105v-103h-138v103h-331v84l315 399h154v-380h71v-103h-71zM1047 1070l68 -101l-887 -618l-67 95z" />
    <glyph glyph-name="threequarters.tnum" 
d="M805 208v236l-184 -236h184zM943 105v-103h-138v103h-331v84l315 399h154v-380h71v-103h-71zM519 1335.5q61 -44.5 61 -130.5t-102 -124q121 -35 121 -142q0 -77 -62.5 -123.5t-191.5 -46.5t-218 43l29 103q91 -32 167 -32q125 1 125 71t-111 70h-116v114h116q93 0 93 63
t-105 63q-76 0 -154 -26l-33 97q95 45 208 45q112 0 173 -44.5zM1047 1070l68 -101l-887 -618l-67 95z" />
    <glyph glyph-name="apple" horiz-adv-x="481" 
d="M444 -556h4v-4h-4v4zM161 50v-8q0 -9 -1 -11l1 -1q2 1 7 1h37q33 0 35 -1l1 1q-2 4 -2 13v6q0 18 -23 18h-30q-25 0 -25 -18zM174 965h166v-32h-88q-89 0 -91 1l-1 -1q1 -1 1 -2v-34h-25v103h25v-17q0 -17 -1 -19l1 -1q4 2 13 2zM179 455q-23 0 -23 -19t23 -19h116
q23 0 23 19.5t-22 19.5h-16v31h12q51 0 51 -51t-51 -51h-110q-50 0 -50 50.5t50 50.5h12v-31h-15zM179 718q-23 0 -23 -19t23 -19h116q23 0 23 19t-22 19h-16v31h12q51 0 51 -51t-51 -51h-110q-50 0 -50 51t50 51h12v-31h-15zM312 160v17q0 15 2 17l-1 2q-2 -2 -3 -2h-175
v31h159q49 -1 49 -51t-49 -50h-159v31h88q88 0 90 -1l1 1q-2 2 -2 5zM312 810v18q0 15 2 17l-1 1q-2 -2 -3 -2h-175v31h159q49 -1 49 -51t-49 -50h-159v32h165q9 0 13 -2l1 1q-2 2 -2 5zM205 584h-69v33h204v-33h-82q-9 0 -13 2l-1 -1q1 -2 1 -5v-17q0 -15 -1 -17h1l13 1h82
v-32h-204v32h69l12 -1h3q-3 3 -3 14v13q0 9 3 12l-3 1q-4 -2 -12 -2zM265 31h75v-32h-204v54q0 47 46 47h35q21 0 34.5 -12.5t13.5 -35.5v-21zM235 284h105v-30h-204v33l109 34q6 2 12 3.5t11 3.5v2q-18 -3 -29 -3h-103v30h204v-33l-135 -41v-2q15 3 30 3z" />
    <glyph glyph-name="percent.tnum" horiz-adv-x="1243" 
d="M850 446q-119 0 -119 -168t121 -167q121 0 121 167q0 91 -34 129.5t-89 38.5zM549 278q0 70 21.5 126t61 94.5t95 59.5t123.5 21t124.5 -21t96.5 -59.5t62 -94.5t22 -126t-22 -126t-62 -94.5t-96.5 -59t-124.5 -20.5t-123.5 20.5t-95 59t-61 94.5t-21.5 126zM385 1247
q-119 1 -119 -167t121 -168t121 167q0 91 -34 129.5t-89 38.5zM84 1079q0 70 21.5 126t61 94.5t95 59.5t123.5 21t124.5 -21t96.5 -59.5t62 -94.5t22 -126t-22 -126t-62 -94.5t-96.5 -59t-124.5 -20.5t-123.5 20.5t-95 59t-61 94.5t-21.5 126zM1084 1070l68 -101l-887 -618
l-67 95z" />
    <glyph glyph-name="f.liga" horiz-adv-x="780" 
d="M733 1210q-93 0 -168 -18.5t-75 -158.5v-33h269v-182h-269v-818h-300v818h-149l8 182h141v33q0 203 132 300t371 97q138 0 273 -30v-204q-140 14 -233 14z" />
    <glyph glyph-name="fj" horiz-adv-x="1356" 
d="M733 1210q-93 0 -131 -10q-112 -28 -112 -167v-33h269v-182h-269v-818h-300v818h-149l8 182h141v33q0 203 132 300t371 97q138 0 273 -30v-204q-140 14 -233 14zM865 -201q33 37 33 131v1070h298v-1070q0 -312 -226 -370q-68 -18 -122 -18q-180 0 -283 42l33 197
q76 -19 155 -19t112 37z" />
    </font>
</defs>
</svg>
