<?xml version="1.0" standalone="no"?>
<!DOCTYPE svg PUBLIC "-//W3C//DTD SVG 1.1//EN" "http://www.w3.org/Graphics/SVG/1.1/DTD/svg11.dtd" >
<svg xmlns="http://www.w3.org/2000/svg">
<metadata>
Created by FontPrep 20130207 at Sun Jun  9 19:19:04 2013
 By James Campbell
Digitized data (c) 2007 Ascender Corporation. All rights reserved.
</metadata>
<defs>
<font id="0bf9bf9589928b88616aa22aeb5ac722" >
  <font-face 
    font-family="LiberationSans"
    font-weight="400"
    font-stretch="normal"
    units-per-em="2048"
    panose-1="2 11 6 4 2 2 2 2 2 4"
    ascent="1638"
    descent="-410"
    x-height="1082"
    cap-height="1409"
    bbox="-416 -621 2151 1864"
    underline-thickness="150"
    underline-position="-142"
    unicode-range="U+0020-F005"
  />
<missing-glyph horiz-adv-x="1536" 
d="M281 1333v-1257h973v1257h-973zM205 1409h1125v-1409h-1125v1409z" />
    <glyph glyph-name=".notdef" horiz-adv-x="1536" 
d="M281 1333v-1257h973v1257h-973zM205 1409h1125v-1409h-1125v1409z" />
    <glyph glyph-name=".null" horiz-adv-x="0" 
 />
    <glyph glyph-name="nonmarkingreturn" horiz-adv-x="569" 
 />
    <glyph glyph-name="space" unicode=" " horiz-adv-x="569" 
 />
    <glyph glyph-name="space" unicode="&#xa0;" horiz-adv-x="569" 
 />
    <glyph glyph-name="exclam" unicode="!" horiz-adv-x="569" 
d="M185 0v201h194v-201h-194zM359 397h-148l-24 1012h196z" />
    <glyph glyph-name="quotedbl" unicode="&#x22;" horiz-adv-x="727" 
d="M249 966h-141l-21 443h184zM618 966h-142l-20 443h184z" />
    <glyph glyph-name="numbersign" unicode="#" 
d="M425 885l-80 -369h362l78 369h-360zM1078 516v-108h-283l-88 -408h-110l86 408h-363l-84 -408h-110l84 408h-201v108h225l78 369h-252v108h274l89 408h110l-88 -408h363l88 408h110l-88 -408h211v-108h-233l-78 -369h260z" />
    <glyph glyph-name="dollar" unicode="$" 
d="M258 1048q0 -140 102.5 -175.5t157.5 -49.5v421q-260 -14 -260 -196zM934 398q0 109 -70 153.5t-222 83.5v-468q292 18 292 231zM86 1039q0 169 117 253.5t315 92.5v131h124v-131q280 -14 346.5 -129.5t86.5 -190.5l-174 -33q-20 94 -81 146.5t-178 63.5v-445
q155 -37 247 -73.5t154.5 -113.5t62.5 -225t-117 -250.5t-347 -114.5v-162h-124v162q-426 18 -496 359l170 37q48 -230 326 -248v496l-20 5q-193 45 -267 98t-109.5 117t-35.5 155z" />
    <glyph glyph-name="percent" unicode="%" horiz-adv-x="1821" 
d="M519.5 1237.5q-40.5 75.5 -127.5 75.5t-129.5 -75t-42.5 -263q0 -269 65 -303.5t105 -34.5t71 17t65 78t34 246q0 184 -40.5 259.5zM1558.5 699q-41.5 75 -127.5 75t-128.5 -75t-42.5 -265q0 -266 64.5 -301t104.5 -35t71.5 17t65.5 78t34 246t-41.5 260zM622 1320.5
q85 -100.5 85 -340.5t-86 -348t-231 -108q-225 0 -271 162t-46 291t24.5 215t85 157.5t207.5 71.5t232 -100.5zM527 0h-155l922 1409h157zM1748 438q0 -129 -25.5 -214.5t-69 -138t-101.5 -75t-163 -22.5t-190.5 104.5t-85.5 341.5q0 363 125.5 407t192.5 44t124.5 -20.5
t100 -72t67.5 -138.5t25 -216z" />
    <glyph glyph-name="ampersand" unicode="&#x26;" horiz-adv-x="1366" 
d="M240 373q0 -181 108 -221.5t166 -40.5q169 0 281 106q-198 234 -319 457q-236 -100 -236 -301zM818.5 1251q-50.5 45 -140.5 45q-91 0 -141 -51.5t-50 -126.5q0 -130 65 -260q157 63 237 123.5t80 142.5t-50.5 127zM1193 -12q-177 0 -298 127q-156 -135 -376 -135
q-221 0 -334 108t-113 283q0 278 343 429q-81 153 -81 302q0 220 129 267.5t212 47.5q158 0 252 -75t94 -209q0 -194 -163 -276.5t-246 -115.5q111 -205 293 -412q113 166 171 410l145 -43q-63 -249 -212 -469q96 -98 208 -98q71 0 117 16v-135q-56 -22 -141 -22z" />
    <glyph glyph-name="quotesingle" unicode="'" horiz-adv-x="391" 
d="M266 966h-141l-21 443h184z" />
    <glyph glyph-name="parenleft" unicode="(" horiz-adv-x="682" 
d="M127 532q0 420 136 633.5t233 318.5h174q-362 -404 -362 -888.5t134 -699.5t228 -320h-174q-286 309 -327.5 560.5t-41.5 391.5v4z" />
    <glyph glyph-name="parenright" unicode=")" horiz-adv-x="682" 
d="M555 528q0 -420 -136 -633.5t-233 -318.5h-174q362 404 362 954t-362 954h174q286 -309 327.5 -561t41.5 -391v-4z" />
    <glyph glyph-name="asterisk" unicode="*" horiz-adv-x="797" 
d="M456 1114l264 103l45 -132l-282 -73l185 -250l-119 -72l-150 258l-156 -256l-119 72l189 248l-280 73l45 134l267 -107l-12 297h136z" />
    <glyph glyph-name="plus" unicode="+" horiz-adv-x="1196" 
d="M671 608v-428h-147v428h-424v146h424v428h147v-428h424v-146h-424z" />
    <glyph glyph-name="comma" unicode="," horiz-adv-x="569" 
d="M385 51q0 -188 -78 -313h-123q94 136 94 262h-88v219h195v-168z" />
    <glyph glyph-name="hyphen" unicode="-" horiz-adv-x="682" 
d="M91 464v160h500v-160h-500z" />
    <glyph glyph-name="hyphen" unicode="&#xad;" horiz-adv-x="682" 
d="M91 464v160h500v-160h-500z" />
    <glyph glyph-name="period" unicode="." horiz-adv-x="569" 
d="M187 0v219h195v-219h-195z" />
    <glyph glyph-name="slash" unicode="/" horiz-adv-x="569" 
d="M0 -20l411 1504h158l-407 -1504h-162z" />
    <glyph glyph-name="zero" unicode="0" 
d="M801 1156q-75 128 -231 128t-232 -128t-76 -451q0 -457 117 -517.5t189 -60.5t129 29.5t118 133.5t61 421t-75 445zM573 1430q486 0 486 -720q0 -386 -134 -558t-358 -172q-346 0 -416.5 261t-70.5 469q0 393 130 556.5t363 163.5z" />
    <glyph glyph-name="one" unicode="1" 
d="M156 0v153h359v1084l-318 -227v170l333 229h166v-1256h343v-153h-883z" />
    <glyph glyph-name="two" unicode="2" 
d="M103 0v127q85 195 222.5 318t217 185t143.5 124t103.5 130t39.5 141q0 131 -69 194t-188 63q-175 0 -222.5 -89.5t-54.5 -148.5l-184 17q19 161 138.5 265t322.5 104q320 0 381 -146t61 -228t-25.5 -146.5t-68 -122.5t-98.5 -112t-117 -105.5t-205 -169t-199 -247.5h735
v-153h-933z" />
    <glyph glyph-name="three" unicode="3" 
d="M784.5 196q77.5 67 77.5 202t-103.5 188t-240.5 53h-102v156h98q204 0 257.5 85t53.5 158q0 113 -66.5 178.5t-191.5 65.5t-198.5 -61t-85.5 -172l-181 14q21 179 148 273t332 94q206 0 317 -104t111 -269q0 -197 -108.5 -257.5t-186.5 -76.5v-4q164 -17 249 -108
t85 -205q0 -211 -123.5 -318.5t-358.5 -107.5t-351.5 107.5t-137.5 274.5l186 17q36 -250 307 -250q136 0 213.5 67z" />
    <glyph glyph-name="four" unicode="4" 
d="M711 461v745q-4 -10 -31.5 -58.5t-35.5 -60.5l-361 -532q-28 -46 -70 -94h498zM881 319v-319h-170v319h-664v140l645 950h189v-948h198v-142h-198z" />
    <glyph glyph-name="five" unicode="5" 
d="M307 809q117 90 308 90t314.5 -122t123.5 -329t-129.5 -337.5t-370.5 -130.5q-311 0 -384 132.5t-87 202.5l182 21q57 -209 293 -209q143 0 226 86.5t83 229.5t-81.5 226t-225.5 83t-260 -101h-176l47 758h801v-153h-637z" />
    <glyph glyph-name="six" unicode="6" 
d="M792.5 687q-73.5 85 -210.5 85q-185 0 -233 -100t-48 -177q0 -159 79.5 -264.5t208.5 -105.5t203 87.5t74 238.5t-73.5 236zM606 1284q-152 0 -237.5 -141.5t-85.5 -417.5q49 91 138 138.5t195 47.5q203 0 318 -121.5t115 -334.5q0 -212 -119 -343.5t-349 -131.5
q-229 0 -353 180t-124 531q0 352 132.5 545.5t371.5 193.5q319 0 402 -287l-172 -31q-53 172 -232 172z" />
    <glyph glyph-name="seven" unicode="7" 
d="M553 0h-188q0 445 198 777t299 479h-757v153h931v-146q-106 -162 -294.5 -478.5t-188.5 -784.5z" />
    <glyph glyph-name="eight" unicode="8" 
d="M863 402q0 272 -297 272q-148 0 -219.5 -76.5t-71.5 -191.5q0 -291 297 -291q230 0 260.5 114t30.5 173zM828 1057q0 239 -261 239t-261 -239q0 -166 91 -207t173 -41q150 0 204 70t54 178zM1050 386q0 -83 -28.5 -158.5t-87 -130.5t-149.5 -86t-271.5 -31t-302.5 111.5
t-122 299.5q0 145 82.5 236t198.5 110v4q-117 28 -182.5 118.5t-65.5 209.5q0 155 116.5 258t331.5 103t330 -102.5t115 -260.5q0 -118 -66 -209.5t-184 -114.5v-4q198 -32 241.5 -151t43.5 -202z" />
    <glyph glyph-name="nine" unicode="9" 
d="M770 1177.5q-76 106.5 -209 106.5q-132 0 -207 -88.5t-75 -239.5q0 -231 104.5 -282t164.5 -51t111 17t119 74.5t68 207.5q0 149 -76 255.5zM494 481q-76 0 -153.5 34.5t-161 130.5t-83.5 313t123.5 344t352.5 127q228 0 349 -174t121 -533t-134.5 -551t-378.5 -192
t-313 107.5t-91 186.5l172 27q54 -176 238 -176q231 0 279 207.5t50 347.5q-63 -141 -178.5 -170t-191.5 -29z" />
    <glyph glyph-name="colon" unicode=":" horiz-adv-x="569" 
d="M187 0v207h195v-207h-195zM187 875v207h195v-207h-195z" />
    <glyph glyph-name="semicolon" unicode=";" horiz-adv-x="569" 
d="M190 875v207h195v-207h-195zM385 51q0 -188 -78 -313h-123q94 136 94 262h-88v207h195v-156z" />
    <glyph glyph-name="semicolon" unicode="&#x37e;" horiz-adv-x="569" 
d="M190 875v207h195v-207h-195zM385 51q0 -188 -78 -313h-123q94 136 94 262h-88v207h195v-156z" />
    <glyph glyph-name="less" unicode="&#x3c;" horiz-adv-x="1196" 
d="M101 571v205l995 418v-154l-858 -366l858 -367v-153z" />
    <glyph glyph-name="equal" unicode="=" horiz-adv-x="1196" 
d="M100 344v148h995v-148h-995zM100 856v148h995v-148h-995z" />
    <glyph glyph-name="greater" unicode="&#x3e;" horiz-adv-x="1196" 
d="M101 154v153l858 367l-858 366v154l995 -418v-205z" />
    <glyph glyph-name="question" unicode="?" 
d="M438 0v201h195v-201h-195zM1063 1042q0 -81 -18.5 -135t-49.5 -96.5t-70.5 -76t-80.5 -63.5t-131 -96t-92 -198h-175q5 174 93 245t128 99.5t78.5 57t68.5 63.5t48.5 79t18.5 132t-79 152.5t-218 64.5q-138 0 -220 -70t-96 -192l-184 12q37 286 207.5 348t288.5 62
t207 -28t150.5 -79.5t93.5 -125.5t32 -155z" />
    <glyph glyph-name="at" unicode="@" horiz-adv-x="2079" 
d="M706 491q0 -256 194 -256q131 0 242 118t132.5 241.5t21.5 163.5q0 91 -66 153.5t-164 62.5q-175 0 -267.5 -147t-92.5 -336zM1245 350q-131 -246 -381 -246q-157 0 -240 106t-83 279q0 250 141.5 431t360.5 181t301 -182h6l39 160h156l-116 -506q-37 -164 -37 -255
q0 -92 81 -92q124 0 208.5 152t84.5 375q0 267 -167.5 436t-470.5 169q-259 0 -445.5 -117.5t-283.5 -315.5t-97 -434q0 -290 172 -468t479 -178t604 162l55 -112q-297 -178 -663 -178q-367 0 -577.5 214t-210.5 560q0 278 154 565t410.5 357.5t428.5 70.5t318.5 -59
t288 -207t141.5 -448t-125.5 -483t-326.5 -183q-202 0 -202 176q0 34 3 70h-6z" />
    <glyph glyph-name="A" unicode="A" horiz-adv-x="1366" 
d="M768 1026q-28 69 -47.5 129t-27 82.5t-8.5 27.5q-2 -5 -18 -58t-65 -183l-180 -463h527zM1167 0l-161 412h-642l-162 -412h-198l575 1409h217l566 -1409h-195z" />
    <glyph glyph-name="B" unicode="B" horiz-adv-x="1366" 
d="M1065 412q0 249 -350 249h-356v-508h371q243 0 289 92t46 167zM984 1044q0 114 -78 163t-226 49h-321v-446h321q237 0 270.5 90t33.5 144zM680 1409q496 0 496 -342q0 -188 -100.5 -248.5t-167.5 -75.5q254 -30 302 -153.5t48 -211.5t-80.5 -233t-437.5 -145h-572v1409
h512z" />
    <glyph glyph-name="C" unicode="C" horiz-adv-x="1479" 
d="M1207 1021q-101 253 -431 253q-104 0 -196.5 -40t-155 -114t-94.5 -178t-32 -296t134.5 -350.5t367.5 -158.5q296 0 445 293l156 -78q-126 -263 -309.5 -317.5t-327.5 -54.5t-272.5 54.5t-258 200.5t-129.5 478t180.5 524.5t505.5 192.5q455 0 598 -349z" />
    <glyph glyph-name="D" unicode="D" horiz-adv-x="1479" 
d="M1039.5 1124.5q-149.5 131.5 -409.5 131.5h-271v-1103h314q230 0 373 147t143 420t-149.5 404.5zM1381 721q0 -343 -192.5 -532t-493.5 -189h-527v1409h466q529 0 638 -255t109 -433z" />
    <glyph glyph-name="E" unicode="E" horiz-adv-x="1366" 
d="M168 0v1409h1069v-156h-878v-452h818v-154h-818v-491h919v-156h-1110z" />
    <glyph glyph-name="F" unicode="F" horiz-adv-x="1251" 
d="M359 1253v-524h786v-158h-786v-571h-191v1409h1001v-156h-810z" />
    <glyph glyph-name="G" unicode="G" horiz-adv-x="1593" 
d="M1440 219q-234 -239 -662 -239q-142 0 -275.5 54.5t-222 152t-133 231.5t-44.5 296q0 334 181 525t532 191t454.5 -127.5t138.5 -204.5l-182 -54q-115 230 -428 230q-250 0 -376 -150.5t-126 -411.5t134 -419t369 -158q302 0 464 156v254h-421v160h597v-486z" />
    <glyph glyph-name="H" unicode="H" horiz-adv-x="1479" 
d="M1121 0v653h-762v-653h-191v1409h191v-596h762v596h191v-1409h-191z" />
    <glyph glyph-name="I" unicode="I" horiz-adv-x="569" 
d="M189 0v1409h191v-1409h-191z" />
    <glyph glyph-name="J" unicode="J" horiz-adv-x="1024" 
d="M458 135q104 0 164 71.5t60 209.5v837h-271v156h461v-989q0 -203 -110.5 -321.5t-304.5 -118.5q-358 0 -425 370l187 31q28 -185 113 -215.5t126 -30.5z" />
    <glyph glyph-name="K" unicode="K" horiz-adv-x="1366" 
d="M359 0h-191v1409h191v-706l679 706h225l-600 -612l680 -797h-237l-563 680l-184 -140v-540z" />
    <glyph glyph-name="L" unicode="L" 
d="M168 0v1409h191v-1253h712v-156h-903z" />
    <glyph glyph-name="M" unicode="M" horiz-adv-x="1706" 
d="M338 0h-170v1409h251l375 -977q45 -129 63 -224q8 43 34 123.5t34 100.5l368 977h245v-1409h-172v940q0 156 9 300q-49 -179 -88 -280l-364 -960h-134l-369 960q-6 15 -12.5 35t-28 85t-48.5 160l7 -300v-940z" />
    <glyph glyph-name="N" unicode="N" horiz-adv-x="1479" 
d="M338 936v-936h-170v1409h222l762 -1208q-12 196 -12 284v924h172v-1409h-230l-754 1200q10 -245 10 -264z" />
    <glyph glyph-name="O" unicode="O" horiz-adv-x="1593" 
d="M1169 1122q-131 152 -375 152q-245 0 -374 -150.5t-129 -411.5t131.5 -419t378.5 -158q248 0 373.5 156t125.5 418q0 261 -131 413zM1308.5 178.5q-186.5 -198.5 -519.5 -198.5t-512.5 201.5t-179.5 532.5t183 523.5t517 192.5q333 0 515.5 -194t182.5 -526
q0 -333 -186.5 -531.5z" />
    <glyph glyph-name="P" unicode="P" horiz-adv-x="1366" 
d="M746 700q320 0 320 283q0 273 -328 273h-379v-556h387zM1132 671q-126 -122 -359 -122h-414v-549h-191v1409h593q243 0 370 -113.5t127 -308.5q0 -194 -126 -316z" />
    <glyph glyph-name="Q" unicode="Q" horiz-adv-x="1593" 
d="M1169 1122q-131 152 -375 152q-245 0 -374 -150.5t-129 -411.5t131.5 -419t378.5 -158q248 0 373.5 156t125.5 418q0 261 -131 413zM733 -16q-309 16 -472.5 214.5t-163.5 522.5t183 516.5t517 192.5q333 0 515.5 -194t182.5 -508t-149.5 -506t-417.5 -228
q61 -185 143 -211.5t135 -26.5t113 13v-134q-93 -22 -178 -22q-161 0 -255.5 92t-152.5 279z" />
    <glyph glyph-name="R" unicode="R" horiz-adv-x="1479" 
d="M1136 1008q0 122 -84.5 185t-239.5 63h-453v-520h461q236 0 276 106t40 166zM359 585v-585h-191v1409h663q361 0 429 -154.5t68 -234.5q0 -160 -86.5 -271.5t-257.5 -141.5l400 -607h-220l-366 585h-439z" />
    <glyph glyph-name="S" unicode="S" horiz-adv-x="1366" 
d="M692 1286q-347 0 -347 -223q0 -112 93 -158.5t229 -77.5t200.5 -46.5t161 -50.5t170 -116.5t73.5 -224.5q0 -289 -216 -349t-366 -60q-515 0 -597 358l185 37q63 -246 419 -246q276 0 331 91.5t55 159.5t-31.5 111t-88.5 71t-136 47t-157 37t-137 33t-216.5 77
t-157.5 282q0 207 145.5 299.5t389.5 92.5q367 0 444.5 -122t100.5 -202l-188 -33q-44 160 -160 186.5t-199 26.5z" />
    <glyph glyph-name="T" unicode="T" horiz-adv-x="1251" 
d="M720 1253v-1253h-190v1253h-484v156h1158v-156h-484z" />
    <glyph glyph-name="U" unicode="U" horiz-adv-x="1479" 
d="M158 512v897h191v-881q0 -301 149.5 -347t231.5 -46q178 0 289.5 97.5t111.5 308.5v868h190v-879q0 -269 -165.5 -409.5t-421.5 -140.5q-253 0 -414.5 135t-161.5 397z" />
    <glyph glyph-name="V" unicode="V" horiz-adv-x="1366" 
d="M782 0h-198l-575 1409h201l390 -992q33 -99 52 -154q19 -56 32 -95q12 37 25 75t27.5 82t31.5 92l388 992h201z" />
    <glyph glyph-name="W" unicode="W" horiz-adv-x="1933" 
d="M1511 0h-228l-244 895q-24 84 -70 301q-13 -58 -34 -151t-37 -150l-246 -895h-228l-415 1409h199l253 -895q45 -168 83 -346q14 68 26 116t19 79t14.5 61t15 57.5t13.5 50.5l245 877h183l245 -877q6 -23 13.5 -50.5t15 -57t14 -60t18.5 -78.5t27 -118q1 0 33 137.5
t52 208.5l249 895h199z" />
    <glyph glyph-name="X" unicode="X" horiz-adv-x="1366" 
d="M1112 0l-423 616l-432 -616h-211l536 732l-495 677h211l392 -553l381 553h211l-482 -670l523 -739h-211z" />
    <glyph glyph-name="Y" unicode="Y" horiz-adv-x="1366" 
d="M777 0h-190v584l-542 825h210l429 -671l427 671h210l-544 -825v-584z" />
    <glyph glyph-name="Z" unicode="Z" horiz-adv-x="1251" 
d="M1187 0h-1122v143l858 1110h-785v156h1002v-139l-858 -1114h905v-156z" />
    <glyph glyph-name="bracketleft" unicode="[" horiz-adv-x="569" 
d="M146 -425v1909h407v-129h-233v-1651h233v-129h-407z" />
    <glyph glyph-name="backslash" unicode="\" horiz-adv-x="569" 
d="M407 -20l-407 1504h158l411 -1504h-162z" />
    <glyph glyph-name="bracketright" unicode="]" horiz-adv-x="569" 
d="M16 -425v129h233v1651h-233v129h407v-1909h-407z" />
    <glyph glyph-name="asciicircum" unicode="^" horiz-adv-x="961" 
d="M787 673l-309 633l-306 -633h-162l368 736h203l370 -736h-164z" />
    <glyph glyph-name="underscore" unicode="_" 
d="M-31 -407v130h1193v-130h-1193z" />
    <glyph glyph-name="grave" unicode="`" horiz-adv-x="682" 
d="M106 1508h207l217 -287v-20h-94l-330 278v29z" />
    <glyph glyph-name="a" unicode="a" 
d="M454 115q161 0 252 104.5t91 225.5v89l-197 -4q-157 -2 -216 -35t-85.5 -78t-26.5 -125t47.5 -128.5t134.5 -48.5zM1010 -10q-111 0 -156 53.5t-51 163.5h-6q-64 -114 -152 -170.5t-241 -56.5t-235 86t-82 236q0 196 129 272.5t338 81.5l243 4v59q0 192 -86.5 219
t-142.5 27q-116 0 -175 -37t-70 -135l-188 17q46 292 434 292q204 0 307 -93.5t103 -270.5v-466q0 -80 21 -120.5t80 -40.5q26 0 59 7v-112q-68 -16 -129 -16z" />
    <glyph glyph-name="b" unicode="b" 
d="M864 538q0 227 -59.5 326t-200.5 99q-142 0 -214 -100.5t-72 -333.5q0 -329 109.5 -372.5t177.5 -43.5t116 23t95.5 98.5t47.5 303.5zM318 1061q0 -65 -4 -153h4q50 104 132.5 149t204.5 45q205 0 301.5 -138t96.5 -418q0 -566 -398 -566q-123 0 -204.5 44.5
t-132.5 143.5h-2q0 -128 -10 -168h-174q6 54 6 223v1261h180v-423z" />
    <glyph glyph-name="c" unicode="c" horiz-adv-x="1024" 
d="M338 233.5q63 -111.5 210 -111.5q96 0 160.5 52t79.5 160l182 -12q-20 -146 -127 -244t-290 -98q-242 0 -354 152.5t-112 409.5q0 392 169 476t278 84q191 0 296.5 -89.5t133.5 -233.5l-185 -14q-14 90 -71 143t-148 53t-142.5 -25.5t-97 -98.5t-45.5 -283
q0 -209 63 -320.5z" />
    <glyph glyph-name="d" unicode="d" 
d="M275 544q0 -227 59.5 -326t201.5 -99t213.5 101.5t71.5 333.5q0 327 -109.5 371t-177.5 44t-116 -23t-95.5 -98.5t-47.5 -303.5zM825 174h-4q-50 -104 -132.5 -149t-204.5 -45q-205 0 -301.5 138t-96.5 418q0 566 398 566q123 0 205 -45t132 -143h2l-1 30l-1 540h180
v-1261q0 -169 6 -223h-172q-10 50 -10 174z" />
    <glyph glyph-name="e" unicode="e" 
d="M568 969q-181 0 -233.5 -115t-56.5 -213h584q-15 171 -87 249.5t-207 78.5zM571 1102q477 0 477 -575v-24h-772q0 -277 111 -332.5t209 -55.5t169 47t96 119l158 -45q-97 -256 -441 -256q-240 0 -365.5 143t-125.5 427t133.5 418t350.5 134z" />
    <glyph glyph-name="f" unicode="f" horiz-adv-x="569" 
d="M361 1179v-97h211v-131h-211v-951h-180v951h-152v131h152v122q0 132 57.5 205t206.5 73q75 0 127 -12v-137q-45 8 -100 8q-111 0 -111 -162z" />
    <glyph glyph-name="g" unicode="g" 
d="M738.5 859q-83.5 106 -211.5 106q-129 0 -192 -100t-63 -324q0 -333 96.5 -374.5t157.5 -41.5t112.5 23t117.5 103.5t66 290.5q0 211 -83.5 317zM1001 31q0 -456 -453 -456q-268 0 -335.5 103.5t-81.5 163.5l181 26q37 -156 241 -156q269 0 269 315v174h-2
q-102 -209 -348 -209q-300 0 -343 206t-43 338q0 276 96 419.5t310 143.5q115 0 199.5 -52.5t130.5 -149.5h2q0 82 5 132t7 53h171q-6 -54 -6 -224v-827z" />
    <glyph glyph-name="h" unicode="h" 
d="M322 1098q0 -145 -8 -201h3q87 160 185.5 182.5t181.5 22.5q173 0 247.5 -97.5t74.5 -283.5v-721h-181v686q0 149 -44.5 213t-175.5 64q-130 0 -206.5 -88t-76.5 -237v-638h-180v1484h180v-386z" />
    <glyph glyph-name="i" unicode="i" horiz-adv-x="455" 
d="M137 0v1082h180v-1082h-180zM137 1312v172h180v-172h-180z" />
    <glyph glyph-name="j" unicode="j" horiz-adv-x="455" 
d="M20 -283q66 0 91.5 39t25.5 137v1189h180v-1216q0 -210 -84 -250.5t-158 -40.5t-125 9v139q40 -6 70 -6zM137 1312v172h180v-172h-180z" />
    <glyph glyph-name="k" unicode="k" horiz-adv-x="1024" 
d="M318 0h-180v1484h180v-927l475 525h211l-439 -465l462 -617h-211l-366 494l-132 -109v-385z" />
    <glyph glyph-name="l" unicode="l" horiz-adv-x="455" 
d="M138 0v1484h180v-1484h-180z" />
    <glyph glyph-name="m" unicode="m" horiz-adv-x="1706" 
d="M142 851q0 189 -6 231h170q1 -5 2 -27t3.5 -69.5t2.5 -88.5h3q53 104 124.5 154.5t193.5 50.5q121 0 192.5 -49t99.5 -156h3q105 205 328 205q165 0 239 -90t74 -291v-721h-178v686q0 157 -43.5 217t-154.5 60q-179 0 -214 -126.5t-35 -209.5v-627h-178v686
q0 157 -43.5 217t-156.5 60t-180 -88t-67 -248v-627h-179v851z" />
    <glyph glyph-name="n" unicode="n" 
d="M142 851q0 189 -6 231h170q1 -5 2 -27t3.5 -69.5t2.5 -88.5h3q113 205 325 205q200 0 282 -89.5t82 -291.5v-721h-181v686q0 156 -48.5 216.5t-175.5 60.5t-203 -88.5t-76 -247.5v-627h-180v851z" />
    <glyph glyph-name="o" unicode="o" 
d="M864 542q0 239 -72 333t-219 94t-222.5 -96t-75.5 -331q0 -343 112.5 -386t178.5 -43t122 19.5t116 95t60 314.5zM1053 542q0 -284 -125 -423t-363 -139q-350 0 -414.5 209.5t-64.5 352.5q0 560 485 560q370 0 426 -210t56 -350z" />
    <glyph glyph-name="p" unicode="p" 
d="M807 858q-57 104 -196 104q-140 0 -216.5 -93t-76.5 -341q0 -328 110 -371.5t182 -43.5t121.5 29t91 106.5t41.5 291.5t-57 318zM138 861q0 167 -6 221h174q3 -8 6.5 -78t3.5 -96h4q73 152 172.5 172.5t187.5 20.5t164 -40t142.5 -143.5t66.5 -371.5q0 -566 -398 -566
q-250 0 -336 188h-5q4 -8 4 -170v-423h-180v1286z" />
    <glyph glyph-name="q" unicode="q" 
d="M747 874.5q-74 94.5 -213 94.5t-199 -103t-60 -324q0 -222 59 -322.5t195 -100.5t214 95t78 331q0 235 -74 329.5zM821 14q0 48 4 164h-2q-79 -154 -176.5 -176t-162.5 -22q-206 0 -302 139t-96 417q0 566 398 566q189 0 250.5 -70.5t86.5 -117.5h2q0 82 5 130.5t7 51.5
h173q-7 -60 -7 -295v-1226h-180v439z" />
    <glyph glyph-name="r" unicode="r" horiz-adv-x="682" 
d="M551 937q-117 0 -173 -101t-56 -272v-564h-180v830q0 114 -6 252h170q8 -184 8 -221h4q40 131 94.5 186t162.5 55q36 0 73 -10v-165q-36 10 -97 10z" />
    <glyph glyph-name="s" unicode="s" horiz-adv-x="1024" 
d="M275 814q0 -79 64.5 -112t168.5 -58q103 -26 148 -38.5t169.5 -64t124.5 -226.5q0 -168 -115 -251.5t-324 -83.5q-291 0 -363.5 99t-90.5 175l159 31q23 -87 95 -127.5t200 -40.5q264 0 264 168q0 88 -64 121t-122.5 48.5t-126.5 33.5q-176 47 -269 109.5t-93 204.5
t106 219.5t296 77.5t295.5 -63t133.5 -202l-162 -20q-32 149 -263 149t-231 -149z" />
    <glyph glyph-name="t" unicode="t" horiz-adv-x="569" 
d="M156 229v722h-125v131h132l53 242h120v-242h200v-131h-200v-683q0 -78 25.5 -109.5t75.5 -31.5t117 14v-133q-89 -24 -182 -24q-216 0 -216 245z" />
    <glyph glyph-name="u" unicode="u" 
d="M997 231q0 -189 6 -231h-170q-1 5 -2 27t-3.5 69.5t-2.5 88.5h-3q-113 -205 -325 -205q-200 0 -282 89.5t-82 291.5v721h181v-686q0 -156 48.5 -216.5t175.5 -60.5t203 88.5t76 247.5v627h180v-851z" />
    <glyph glyph-name="v" unicode="v" horiz-adv-x="1024" 
d="M613 0h-213l-393 1082h192l238 -704q31 -98 47 -157t22 -80q42 147 74 235l246 706h191z" />
    <glyph glyph-name="w" unicode="w" horiz-adv-x="1479" 
d="M1174 0h-209l-173 698q-19 65 -52 236q-27 -137 -54 -240l-178 -694h-208l-303 1082h178l183 -735q8 -27 22 -93q13 -66 21 -105q9 37 17 71t16 66t14 53l196 743h193l189 -743q17 -63 46 -190q8 37 16 71t15 67.5t14 59.5l191 735h176z" />
    <glyph glyph-name="x" unicode="x" horiz-adv-x="1024" 
d="M801 0l-291 444l-293 -444h-194l385 556l-367 526h199l270 -421l268 421h201l-367 -524l390 -558h-201z" />
    <glyph glyph-name="y" unicode="y" horiz-adv-x="1024" 
d="M151 -285q168 0 266 247l17 43l-429 1077h192l228 -598q10 -27 25.5 -72t42.5 -122.5t30 -93.5q6 22 45.5 130t49.5 138l212 618h190l-416 -1082q-85 -218 -176 -321.5t-237 -103.5q-74 0 -124 11v135q38 -6 84 -6z" />
    <glyph glyph-name="z" unicode="z" horiz-adv-x="1024" 
d="M49 0v137l661 806h-621v139h824v-137l-662 -806h699v-139h-901z" />
    <glyph glyph-name="braceleft" unicode="{" horiz-adv-x="684" 
d="M513 -425q-193 0 -228.5 112.5t-35.5 180.5v361q0 178 -82 206.5t-133 30.5v127q215 8 215 236v362q0 141 66.5 217t197.5 76h135v-129h-63q-91 0 -129.5 -53.5t-38.5 -161.5v-356q0 -147 -76.5 -194.5t-117.5 -57.5v-2q135 -31 164.5 -117t29.5 -137v-357
q0 -106 38.5 -160.5t129.5 -54.5h63v-129h-135z" />
    <glyph glyph-name="bar" unicode="|" horiz-adv-x="532" 
d="M183 -434v1918h166v-1918h-166z" />
    <glyph glyph-name="braceright" unicode="}" horiz-adv-x="684" 
d="M94 -296q91 0 130.5 54.5t39.5 160.5v357q0 151 75 197.5t118 56.5v2q-84 20 -138.5 87t-54.5 165v356q0 108 -39.5 161.5t-130.5 53.5h-60v129h132q131 0 197.5 -76t66.5 -217v-362q0 -177 82.5 -205.5t134.5 -30.5v-127q-217 -8 -217 -237v-361q0 -211 -99.5 -252
t-164.5 -41h-132v129h60z" />
    <glyph glyph-name="asciitilde" unicode="~" horiz-adv-x="1196" 
d="M860 690q130 0 244 92v-149q-111 -80 -260 -80q-69 0 -141.5 21.5t-173.5 57.5t-189 36q-126 0 -248 -88v143q111 84 263 84q109 1 301 -69q131 -48 204 -48z" />
    <glyph glyph-name="exclamdown" unicode="&#xa1;" horiz-adv-x="682" 
d="M440 1082v-201h-194v201h194zM266 685h148l24 -1012h-196z" />
    <glyph glyph-name="cent" unicode="&#xa2;" 
d="M606 277q86 0 150.5 52t79.5 160l182 -12q-27 -211 -150 -271.5t-206 -68.5v-168h-124v168q-211 19 -307 169t-96 410q0 259 111.5 390.5t291.5 147.5v155h124v-155q222 -23 280 -140t70 -180l-185 -14q-14 90 -71 143t-148 53t-142.5 -25.5t-97 -98.5t-45.5 -291
q0 -308 98.5 -366t184.5 -58z" />
    <glyph glyph-name="sterling" unicode="&#xa3;" 
d="M738 153q174 0 203 176l163 -18q-26 -233 -148 -272t-189 -39h-698v154q175 90 175 327v144h-186v129h186v280q0 288 150 342t236 54q160 0 261 -59.5t136 -170.5l-174 -57q-31 97 -99 118t-104 21q-114 0 -170 -57.5t-56 -182.5v-288h408v-129h-408v-126
q0 -180 -64.5 -252.5t-104.5 -93.5h483z" />
    <glyph glyph-name="currency" unicode="&#xa4;" 
d="M291 686q0 -117 83.5 -198.5t197.5 -81.5q115 0 197.5 81.5t82.5 198.5t-83 199t-197 82t-197.5 -82t-83.5 -199zM137 684q0 138 78 252l-100 100l104 103l99 -101q114 82 252 82q139 0 253 -80l97 97l104 -105l-96 -96q80 -117 80 -253.5t-82 -250.5l100 -100l-102 -105
l-101 101q-114 -78 -254 -78t-249 80l-105 -105l-102 105l102 102q-78 114 -78 252z" />
    <glyph glyph-name="yen" unicode="&#xa5;" 
d="M1041 709v-125h-383v-154h383v-127h-383v-303h-178v303h-381v127h381l2 154h-383v125h320l-421 700h199l371 -647l375 647h199l-422 -700h321z" />
    <glyph glyph-name="brokenbar" unicode="&#xa6;" horiz-adv-x="532" 
d="M183 -434v779h166v-779h-166zM183 706v778h166v-778h-166z" />
    <glyph glyph-name="section" unicode="&#xa7;" 
d="M866 664q0 85 -83.5 133.5t-231.5 82.5q-112 -6 -175 -60.5t-63 -135.5q0 -119 119.5 -156.5t179.5 -52.5q177 3 215.5 72.5t38.5 116.5zM334 1204q0 -116 121 -151.5t185 -50.5q171 -40 277.5 -110t106.5 -212q0 -143 -82.5 -198.5t-136.5 -68.5q213 -91 213 -268
q0 -147 -114.5 -232t-326.5 -85q-295 0 -369 97.5t-93 174.5l161 31q32 -144 138 -158t164 -14q125 0 202.5 41t77.5 129q0 133 -137.5 173t-202.5 56q-164 39 -264.5 109.5t-100.5 203.5q0 89 61.5 163t166.5 104q-142 47 -174.5 125.5t-32.5 126.5q0 139 105.5 216.5
t308.5 77.5q256 0 327 -95.5t86 -164.5l-161 -20q-27 150 -252 150q-125 0 -189.5 -39.5t-64.5 -110.5z" />
    <glyph glyph-name="dieresis" unicode="&#xa8;" horiz-adv-x="682" 
d="M45 1219v184h165v-184h-165zM439 1219v184h163v-184h-163z" />
    <glyph glyph-name="copyright" unicode="&#xa9;" horiz-adv-x="1509" 
d="M498 753.5q0 -274.5 100 -322.5t167 -48q158 0 233 156l115 -35q-53 -103 -132 -164t-198 -61q-213 0 -313.5 117t-100.5 313q0 306 145.5 365t231.5 59q150 0 230 -59t122 -150l-114 -33q-63 137 -224 137q-262 0 -262 -274.5zM1385 706q0 86 -22.5 167t-84.5 186.5
t-207.5 190.5t-295.5 85q-280 0 -464.5 -184.5t-184.5 -444.5t184 -444t444 -184t411.5 150t185.5 271t34 207zM1477 732q0 -125 -26 -217.5t-97 -214.5t-237.5 -219t-362.5 -97q-296 0 -470 171.5t-213.5 311.5t-39.5 240t26 192t97.5 214t238 219.5t339.5 97.5
q172 0 303.5 -57t230 -155t155 -229.5t56.5 -256.5z" />
    <glyph glyph-name="ordfeminine" unicode="&#xaa;" horiz-adv-x="758" 
d="M176 883q0 -121 123 -121q93 0 155 60t62 137v65l-138 -4q-100 -5 -151 -32t-51 -105zM659 874q0 -108 55 -108q27 0 51 8v-104q-49 -13 -87 -13q-73 0 -111.5 39.5t-42.5 101.5h-4q-73 -147 -250 -147t-210.5 83.5t-33.5 143.5q0 119 86 175.5t226 58.5l178 4v60
q0 126 -58 140.5t-109 14.5q-125 0 -141 -135l-149 10q24 158 128.5 192t174.5 34q298 0 297 -250v-308z" />
    <glyph glyph-name="guillemotleft" unicode="&#xab;" 
d="M586 940v-31l-335 -372l337 -367v-29h-169l-336 365v63l336 371h167zM1054 940v-31l-338 -372l340 -367v-29h-170l-338 365v63l338 371h168z" />
    <glyph glyph-name="logicalnot" unicode="&#xac;" horiz-adv-x="1196" 
d="M950 180v428h-850v146h995v-574h-145z" />
    <glyph glyph-name="registered" unicode="&#xae;" horiz-adv-x="1509" 
d="M941 878q0 72 -47.5 108t-128.5 36h-170v-301h182q80 0 122 42.5t42 114.5zM595 625v-336h-127v831h307q142 0 217.5 -63t75.5 -169t-52 -168t-137 -81l221 -350h-145l-199 336h-161zM1385 706q0 86 -22.5 167t-84.5 186.5t-207.5 190.5t-295.5 85q-280 0 -464.5 -184.5
t-184.5 -444.5t184 -444t444 -184t411.5 150t185.5 271t34 207zM1477 732q0 -125 -26 -217.5t-97 -214.5t-237.5 -219t-362.5 -97q-296 0 -470 171.5t-213.5 311.5t-39.5 240t26 192t97.5 214t238 219.5t339.5 97.5q172 0 303.5 -57t230 -155t155 -229.5t56.5 -256.5z" />
    <glyph glyph-name="macron" unicode="&#xaf;" horiz-adv-x="1131" 
d="M1148 1452h-1165v94h1165v-94z" />
    <glyph glyph-name="degree" unicode="&#xb0;" horiz-adv-x="819" 
d="M536 1272.5q-51 52.5 -127 52.5q-75 0 -126.5 -53t-51.5 -126.5t52 -127t126 -53.5t126 53t52 127.5t-51 127zM696 1146q0 -119 -84.5 -202.5t-202 -83.5t-202.5 84t-85 202t84.5 201t203 83t202.5 -82.5t84 -201.5z" />
    <glyph glyph-name="plusminus" unicode="&#xb1;" horiz-adv-x="1124" 
d="M65 0v145h995v-145h-995zM636 680v-395h-147v395h-424v145h424v394h147v-394h424v-145h-424z" />
    <glyph glyph-name="uni00B2" unicode="&#xb2;" horiz-adv-x="682" 
d="M493 1184q0 56 -35.5 93.5t-106.5 37.5t-115 -36.5t-52 -104.5l-133 8q12 105 92 172t210 67t203.5 -62t73.5 -171q0 -147 -159.5 -264.5t-206 -161.5t-64.5 -86h443v-113h-600l-2 103q56 127 218.5 240.5t198 167.5t35.5 110z" />
    <glyph glyph-name="uni00B3" unicode="&#xb3;" horiz-adv-x="682" 
d="M505 803q0 137 -189 137h-61v109h57q113 0 142.5 48.5t29.5 98.5t-37 84.5t-107 34.5t-111.5 -35t-47.5 -100l-135 12q20 169 129 199t173 30q129 0 201 -60.5t72 -146.5q0 -176 -176 -215v-2q98 -9 147.5 -65t49.5 -137q0 -116 -77.5 -180t-219.5 -64q-286 0 -318 227
l136 13q18 -136 180 -136t162 148z" />
    <glyph glyph-name="acute" unicode="&#xb4;" horiz-adv-x="682" 
d="M72 1201v20l217 287h207v-29l-330 -278h-94z" />
    <glyph glyph-name="mu" unicode="&#xb5;" horiz-adv-x="1180" 
d="M1017 -20q-179 0 -188 194h-3q-106 -194 -299 -194q-143 0 -207 79v-484h-180v1507h181v-686q0 -219 87 -248t139 -29q128 0 201 87t73 249v627h180v-816q0 -118 30 -131.5t51 -13.5t51 8v-129q-65 -20 -116 -20z" />
    <glyph glyph-name="paragraph" unicode="&#xb6;" horiz-adv-x="1100" 
d="M884 1307v-1571h-112v1571h-217v-1571h-113v958q-164 0 -263 91t-99 261q0 171 98 267t272 96h563v-102h-129z" />
    <glyph glyph-name="periodcentered" unicode="&#xb7;" horiz-adv-x="569" 
d="M187 446v220h195v-220h-195z" />
    <glyph glyph-name="periodcentered" unicode="&#x2219;" horiz-adv-x="569" 
d="M187 446v220h195v-220h-195z" />
    <glyph glyph-name="cedilla" unicode="&#xb8;" horiz-adv-x="682" 
d="M205 -338q147 0 147 79t-133 79h-21q-22 0 -36 -2l65 182h107l-39 -100q94 -3 141 -43.5t47 -109.5q0 -181 -274 -181q-57 0 -90 4v98q49 -6 86 -6z" />
    <glyph glyph-name="uni00B9" unicode="&#xb9;" horiz-adv-x="682" 
d="M80 563v107h211v620l-202 -138v120l210 137h123v-739h215v-107h-557z" />
    <glyph glyph-name="ordmasculine" unicode="&#xba;" horiz-adv-x="748" 
d="M574 1042q0 84 -12.5 138.5t-37.5 87t-61 46t-111 13.5t-124 -63.5t-49 -221.5q0 -231 74.5 -258.5t120.5 -27.5t83.5 13t63.5 46t39.5 88t13.5 139zM376 1432q347 0 347 -390q0 -188 -87.5 -289.5t-259.5 -101.5t-260.5 100.5t-88.5 290.5q0 284 130.5 337t218.5 53z
" />
    <glyph glyph-name="guillemotright" unicode="&#xbb;" 
d="M83 141v29l338 367l-336 372v31h168l335 -371v-63l-335 -365h-170zM550 141v29l338 367l-336 372v31h166l338 -371v-63l-338 -365h-168z" />
    <glyph glyph-name="onequarter" unicode="&#xbc;" horiz-adv-x="1708" 
d="M56 563v107h211v620l-202 -138v120l210 137h123v-739h215v-107h-557zM493 0h-148l881 1409h145zM1372 293v360q0 44 2 62q-22 -40 -82 -135l-199 -287h279zM1503 180v-178h-131v178h-406v111l386 557h151v-555h111v-113h-111z" />
    <glyph glyph-name="onehalf" unicode="&#xbd;" horiz-adv-x="1708" 
d="M56 563v107h211v620l-202 -138v120l210 137h123v-739h215v-107h-557zM493 0h-148l881 1409h145zM1503 624q1 56 -35 92q-36 38 -107 38t-115 -36t-52 -105l-133 8q12 105 92 172t210 67t203 -62q74 -62 74 -171q0 -147 -188 -285q-131 -97 -178 -141q-46 -44 -64 -86h443
v-113h-600l-2 103q57 127 267 274q115 80 159 149q26 40 26 96z" />
    <glyph glyph-name="threequarters" unicode="&#xbe;" horiz-adv-x="1708" 
d="M513 0h-148l881 1409h145zM1372 293v360q0 44 2 62q-22 -40 -82 -135l-199 -287h279zM1503 180v-178h-131v178h-406v111l386 557h151v-555h111v-113h-111zM551 803q0 137 -189 137h-61v109h57q113 1 156 71q16 26 16 76t-37 84t-107 35q-70 0 -111 -35q-42 -35 -48 -100
l-135 12q20 169 187 215q51 14 115 14q129 0 201 -61t72 -146q0 -176 -176 -215v-2q98 -9 148 -65q49 -56 49 -137q0 -116 -78 -180t-219 -64q-286 0 -318 227l136 13q18 -136 180 -136t162 148z" />
    <glyph glyph-name="questiondown" unicode="&#xbf;" horiz-adv-x="1251" 
d="M756 1082v-201h-195v201h195zM131 40q0 82 18.5 135.5t49.5 96t70.5 76t80.5 63.5t131 96t92 198h175q-5 -174 -93 -245t-128 -99.5t-78.5 -57t-68.5 -63.5t-48.5 -79t-18.5 -132t79 -152.5t218 -64.5q138 0 220 70t96 192l184 -12q-37 -286 -207.5 -348t-288.5 -62
t-207 28t-150.5 79.5t-93.5 125t-32 155.5z" />
    <glyph glyph-name="Agrave" unicode="&#xc0;" horiz-adv-x="1366" 
d="M768 1026q-28 69 -47 129q-19 61 -27 83t-9 27q-2 -5 -9 -28q-25 -83 -74 -213l-180 -463h527zM1167 0l-161 412h-642l-162 -412h-198l575 1409h217l566 -1409h-195zM440 1776h207l217 -226v-20h-114l-310 217v29z" />
    <glyph glyph-name="Aacute" unicode="&#xc1;" horiz-adv-x="1366" 
d="M768 1026q-28 69 -47 129q-19 61 -27 83t-9 27q-2 -5 -9 -28q-25 -83 -74 -213l-180 -463h527zM1167 0l-161 412h-642l-162 -412h-198l575 1409h217l566 -1409h-195zM547 1530v20l217 226h207v-29l-310 -217h-114z" />
    <glyph glyph-name="Acircumflex" unicode="&#xc2;" horiz-adv-x="1366" 
d="M768 1026q-28 69 -47 129q-19 61 -27 83t-9 27q-2 -5 -9 -28q-25 -83 -74 -213l-180 -463h527zM1167 0l-161 412h-642l-162 -412h-198l575 1409h217l566 -1409h-195zM1014 1530h-105l-219 139h-2l-232 -139h-104v20l234 240h204l224 -240v-20z" />
    <glyph glyph-name="Atilde" unicode="&#xc3;" horiz-adv-x="1366" 
d="M768 1026q-28 69 -47 129q-19 61 -27 83t-9 27q-2 -5 -9 -28q-25 -83 -74 -213l-180 -463h527zM1167 0l-161 412h-642l-162 -412h-198l575 1409h217l566 -1409h-195zM835 1679q100 0 117 119h92q-13 -118 -41 -167q-27 -49 -64 -75t-88 -26t-93 18t-81 42q-39 22 -75 40
t-78 19q-87 0 -106 -119h-91q13 120 42 169q28 49 65 74q36 25 88 25t94 -18t81 -42q39 -22 73 -40t65 -19z" />
    <glyph glyph-name="Adieresis" unicode="&#xc4;" horiz-adv-x="1366" 
d="M768 1026q-28 69 -47 129q-19 61 -27 83t-9 27q-2 -5 -9 -28q-25 -83 -74 -213l-180 -463h527zM1167 0l-161 412h-642l-162 -412h-198l575 1409h217l566 -1409h-195zM409 1530v184h165v-184h-165zM803 1530v184h163v-184h-163z" />
    <glyph glyph-name="Aring" unicode="&#xc5;" horiz-adv-x="1366" 
d="M768 1026q-28 69 -47 129q-19 61 -27 83t-9 27q-2 -5 -9 -28q-25 -83 -74 -213l-180 -463h527zM444 1546q0 50 19 94t52 76t77 52q44 19 94 19t94 -19q44 -20 77 -52q71 -70 71 -170q0 -128 -107 -200l541 -1346h-195l-161 412h-642l-162 -412h-198l549 1344
q-60 40 -85 96q-24 56 -24 106zM781 1641q-39 39 -81 39q-70 0 -110 -39q-39 -39 -39 -81q0 -69 38 -110t82 -41q43 1 67 11t43 29q39 41 39 97t-39 95z" />
    <glyph glyph-name="AE" unicode="&#xc6;" horiz-adv-x="2048" 
d="M969 1262h-151q-1 -3 -9 -20.5t-19 -42.5t-24.5 -54t-25.5 -54.5t-21 -44.5t-11 -24l-217 -461h478v701zM969 0v412h-548l-198 -412h-199l686 1409h1209v-156h-759v-452h699v-154h-699v-491h800v-156h-991z" />
    <glyph glyph-name="Ccedilla" unicode="&#xc7;" horiz-adv-x="1479" 
d="M1207 1021q-101 253 -431 253q-104 0 -196 -40t-156 -114q-62 -74 -94 -178t-32 -231q0 -257 135 -415q135 -159 367 -159q296 0 445 293l156 -78q-127 -264 -397 -344q-77 -23 -167 -27l-32 -81q94 -4 141 -44t47 -109q0 -181 -274 -181q-57 0 -90 4v98q49 -6 86 -6
q147 0 147 79t-133 79h-29q-14 0 -28 -2l58 164q-288 17 -457 208t-169 523t180 524q180 193 506 193q455 0 598 -349z" />
    <glyph glyph-name="Egrave" unicode="&#xc8;" horiz-adv-x="1366" 
d="M168 0v1409h1069v-156h-878v-452h818v-154h-818v-491h919v-156h-1110zM425 1776h207l217 -226v-20h-114l-310 217v29z" />
    <glyph glyph-name="Eacute" unicode="&#xc9;" horiz-adv-x="1366" 
d="M168 0v1409h1069v-156h-878v-452h818v-154h-818v-491h919v-156h-1110zM551 1530v20l217 226h207v-29l-310 -217h-114z" />
    <glyph glyph-name="Ecircumflex" unicode="&#xca;" horiz-adv-x="1366" 
d="M168 0v1409h1069v-156h-878v-452h818v-154h-818v-491h919v-156h-1110zM1037 1530h-105l-219 139h-2l-232 -139h-104v20l234 240h204l224 -240v-20z" />
    <glyph glyph-name="Edieresis" unicode="&#xcb;" horiz-adv-x="1366" 
d="M168 0v1409h1069v-156h-878v-452h818v-154h-818v-491h919v-156h-1110zM422 1530v184h165v-184h-165zM816 1530v184h163v-184h-163z" />
    <glyph glyph-name="Igrave" unicode="&#xcc;" horiz-adv-x="569" 
d="M189 0v1409h191v-1409h-191zM9 1776h207l217 -226v-20h-114l-310 217v29z" />
    <glyph glyph-name="Iacute" unicode="&#xcd;" horiz-adv-x="569" 
d="M189 0v1409h191v-1409h-191zM142 1530v20l217 226h207v-29l-310 -217h-114z" />
    <glyph glyph-name="Icircumflex" unicode="&#xce;" horiz-adv-x="569" 
d="M189 0v1409h191v-1409h-191zM616 1530h-105l-219 139h-2l-232 -139h-104v20l234 240h204l224 -240v-20z" />
    <glyph glyph-name="Idieresis" unicode="&#xcf;" horiz-adv-x="569" 
d="M189 0v1409h191v-1409h-191zM7 1530v184h165v-184h-165zM401 1530v184h163v-184h-163z" />
    <glyph glyph-name="Eth" unicode="&#xd0;" horiz-adv-x="1479" 
d="M1039.5 1124.5q-149.5 131.5 -409.5 131.5h-271v-455h406v-154h-406v-494h314q230 0 373 147t143 420t-149.5 404.5zM14 801h154v608h466q529 0 638 -255t109 -433q0 -343 -192.5 -532t-493.5 -189h-527v647h-154v154z" />
    <glyph glyph-name="Ntilde" unicode="&#xd1;" horiz-adv-x="1479" 
d="M338 936v-936h-170v1409h222l762 -1208q-12 196 -12 284v924h172v-1409h-230l-754 1200q10 -245 10 -264zM902 1679q100 0 117 119h92q-13 -118 -41 -167q-27 -49 -64 -75t-88 -26t-93 18t-81 42q-38 22 -74 40t-79 19q-87 0 -106 -119h-91q13 120 42 169q28 49 65 74
t89 25t93 -18q42 -18 81 -42q40 -22 74 -40t64 -19z" />
    <glyph glyph-name="Ograve" unicode="&#xd2;" horiz-adv-x="1593" 
d="M1170 1122q-130 152 -376 152q-245 0 -374 -151t-129 -411q0 -261 131 -419t379 -158t373 156q126 156 126 418q0 261 -130 413zM1309 179q-186 -199 -520 -199q-333 0 -512 201q-180 201 -180 533q0 331 183 524q183 192 517 192q333 0 515 -194q183 -194 183 -526
t-186 -531zM544 1776h207l217 -226v-20h-114l-310 217v29z" />
    <glyph glyph-name="Oacute" unicode="&#xd3;" horiz-adv-x="1593" 
d="M1170 1122q-130 152 -376 152q-245 0 -374 -151t-129 -411q0 -261 131 -419t379 -158t373 156q126 156 126 418q0 261 -130 413zM1309 179q-186 -199 -520 -199q-333 0 -512 201q-180 201 -180 533q0 331 183 524q183 192 517 192q333 0 515 -194q183 -194 183 -526
t-186 -531zM621 1530v20l217 226h207v-29l-310 -217h-114z" />
    <glyph glyph-name="Ocircumflex" unicode="&#xd4;" horiz-adv-x="1593" 
d="M1170 1122q-130 152 -376 152q-245 0 -374 -151t-129 -411q0 -261 131 -419t379 -158t373 156q126 156 126 418q0 261 -130 413zM1309 179q-186 -199 -520 -199q-333 0 -512 201q-180 201 -180 533q0 331 183 524q183 192 517 192q333 0 515 -194q183 -194 183 -526
t-186 -531zM1131 1530h-105l-219 139h-2l-232 -139h-104v20l234 240h204l224 -240v-20z" />
    <glyph glyph-name="Otilde" unicode="&#xd5;" horiz-adv-x="1593" 
d="M1170 1122q-130 152 -376 152q-245 0 -374 -151t-129 -411q0 -261 131 -419t379 -158t373 156q126 156 126 418q0 261 -130 413zM1309 179q-186 -199 -520 -199q-333 0 -512 201q-180 201 -180 533q0 331 183 524q183 192 517 192q333 0 515 -194q183 -194 183 -526
t-186 -531zM934 1679q100 0 117 119h92q-13 -118 -41 -167q-27 -49 -64 -75t-88 -26t-93 18t-81 42q-38 22 -74 40t-79 19q-87 0 -106 -119h-91q13 120 42 169q28 49 65 74t89 25t93 -18q42 -18 81 -42q40 -22 74 -40t64 -19z" />
    <glyph glyph-name="Odieresis" unicode="&#xd6;" horiz-adv-x="1593" 
d="M1170 1122q-130 152 -376 152q-245 0 -374 -151t-129 -411q0 -261 131 -419t379 -158t373 156q126 156 126 418q0 261 -130 413zM1309 179q-186 -199 -520 -199q-333 0 -512 201q-180 201 -180 533q0 331 183 524q183 192 517 192q333 0 515 -194q183 -194 183 -526
t-186 -531zM516 1530v184h165v-184h-165zM910 1530v184h163v-184h-163z" />
    <glyph glyph-name="multiply" unicode="&#xd7;" horiz-adv-x="1196" 
d="M142 330l354 354l-352 352l104 103l350 -353l350 351l105 -105l-350 -348l352 -352l-102 -105l-353 353l-356 -355z" />
    <glyph glyph-name="Oslash" unicode="&#xd8;" horiz-adv-x="1593" 
d="M797 1274q-247 0 -376.5 -150.5t-129.5 -396.5t101 -394l707 853q-124 88 -302 88zM795 135q254 0 379.5 156t125.5 400t-98 388l-709 -853q122 -91 302 -91zM1323 1224q172 -190 172 -518t-186.5 -527t-513.5 -199q-246 0 -414 112l-120 -145h-190l200 241
q-174 192 -174 525t183 525t517 192q247 0 414 -110l121 146h192z" />
    <glyph glyph-name="Ugrave" unicode="&#xd9;" horiz-adv-x="1479" 
d="M158 512v897h191v-881q1 -302 229 -372q70 -22 152 -21q178 0 289 97q112 97 112 309v868h190v-879q0 -269 -165 -409q-165 -141 -422 -141q-253 0 -414 135q-162 135 -162 397zM503 1776h207l217 -226v-20h-114l-310 217v29z" />
    <glyph glyph-name="Uacute" unicode="&#xda;" horiz-adv-x="1479" 
d="M158 512v897h191v-881q1 -302 229 -372q70 -22 152 -21q178 0 289 97q112 97 112 309v868h190v-879q0 -269 -165 -409q-165 -141 -422 -141q-253 0 -414 135q-162 135 -162 397zM565 1530v20l217 226h207v-29l-310 -217h-114z" />
    <glyph glyph-name="Ucircumflex" unicode="&#xdb;" horiz-adv-x="1479" 
d="M158 512v897h191v-881q1 -302 229 -372q70 -22 152 -21q178 0 289 97q112 97 112 309v868h190v-879q0 -269 -165 -409q-165 -141 -422 -141q-253 0 -414 135q-162 135 -162 397zM1070 1530h-105l-219 139h-2l-232 -139h-104v20l234 240h204l224 -240v-20z" />
    <glyph glyph-name="Udieresis" unicode="&#xdc;" horiz-adv-x="1479" 
d="M158 512v897h191v-881q1 -302 229 -372q70 -22 152 -21q178 0 289 97q112 97 112 309v868h190v-879q0 -269 -165 -409q-165 -141 -422 -141q-253 0 -414 135q-162 135 -162 397zM459 1530v184h165v-184h-165zM853 1530v184h163v-184h-163z" />
    <glyph glyph-name="Yacute" unicode="&#xdd;" horiz-adv-x="1366" 
d="M777 0h-190v584l-542 825h210l429 -671l427 671h210l-544 -825v-584zM536 1530v20l217 226h207v-29l-310 -217h-114z" />
    <glyph glyph-name="Thorn" unicode="&#xde;" horiz-adv-x="1366" 
d="M738 1014h-379v-576h387q159 0 239.5 80.5t80.5 213.5t-82 207.5t-246 74.5zM1258 738q0 -192 -126 -316.5t-359 -124.5h-414v-297h-191v1409h191v-252h402q244 0 370.5 -113.5t126.5 -305.5z" />
    <glyph glyph-name="germandbls" unicode="&#xdf;" horiz-adv-x="1251" 
d="M1078 67q-89 -87 -264 -87t-288 49l-2 164q123 -69 281 -69q92 0 141 43t49 111t-27 106t-67.5 69t-155.5 100t-115 232q0 114 89 188t111 115.5t22 81.5q0 78 -66 125.5t-156 47.5q-163 0 -235.5 -76.5t-72.5 -245.5v-1021h-180v1027q0 457 467 457q197 0 306 -83
t109 -220t-96 -225t-113 -112.5t-17 -57.5t27.5 -62.5t68.5 -58t88.5 -60.5t116 -103t68.5 -209q0 -139 -89 -226z" />
    <glyph glyph-name="agrave" unicode="&#xe0;" 
d="M454 115q161 0 252 105t91 225v89l-197 -4q-157 -2 -216 -35q-60 -33 -86 -78t-26 -125t48 -129q48 -48 134 -48zM1010 -10q-111 0 -156 53t-51 164h-6q-64 -114 -152 -170q-88 -57 -241 -57t-235 86t-82 236q1 196 147 283q111 66 320 71l243 4v59q1 193 -129 233
q-44 14 -100 13q-116 0 -174 -37q-59 -37 -71 -135l-188 17q46 292 434 292q204 0 307 -94t103 -270v-466q0 -80 21 -120t80 -41q26 0 59 7v-112q-68 -16 -129 -16zM294 1508h207l217 -287v-20h-94l-330 278v29z" />
    <glyph glyph-name="aacute" unicode="&#xe1;" 
d="M454 115q161 0 252 105t91 225v89l-197 -4q-157 -2 -216 -35q-60 -33 -86 -78t-26 -125t48 -129q48 -48 134 -48zM1010 -10q-111 0 -156 53t-51 164h-6q-64 -114 -152 -170q-88 -57 -241 -57t-235 86t-82 236q1 196 147 283q111 66 320 71l243 4v59q1 193 -129 233
q-44 14 -100 13q-116 0 -174 -37q-59 -37 -71 -135l-188 17q46 292 434 292q204 0 307 -94t103 -270v-466q0 -80 21 -120t80 -41q26 0 59 7v-112q-68 -16 -129 -16zM412 1201v20l217 287h207v-29l-330 -278h-94z" />
    <glyph glyph-name="acircumflex" unicode="&#xe2;" 
d="M454 115q161 0 252 105t91 225v89l-197 -4q-157 -2 -216 -35q-60 -33 -86 -78t-26 -125t48 -129q48 -48 134 -48zM1010 -10q-111 0 -156 53t-51 164h-6q-64 -114 -152 -170q-88 -57 -241 -57t-235 86t-82 236q1 196 147 283q111 66 320 71l243 4v59q1 193 -129 233
q-44 14 -100 13q-116 0 -174 -37q-59 -37 -71 -135l-188 17q46 292 434 292q204 0 307 -94t103 -270v-466q0 -80 21 -120t80 -41q26 0 59 7v-112q-68 -16 -129 -16zM880 1201h-105l-219 169h-2l-232 -169h-104v20l234 270h204l224 -270v-20z" />
    <glyph glyph-name="atilde" unicode="&#xe3;" 
d="M454 115q161 0 252 105t91 225v89l-197 -4q-157 -2 -216 -35q-60 -33 -86 -78t-26 -125t48 -129q48 -48 134 -48zM1010 -10q-111 0 -156 53t-51 164h-6q-64 -114 -152 -170q-88 -57 -241 -57t-235 86t-82 236q1 196 147 283q111 66 320 71l243 4v59q1 193 -129 233
q-44 14 -100 13q-116 0 -174 -37q-59 -37 -71 -135l-188 17q46 292 434 292q204 0 307 -94t103 -270v-466q0 -80 21 -120t80 -41q26 0 59 7v-112q-68 -16 -129 -16zM730 1350q100 0 117 119h92q-13 -118 -41 -167q-27 -50 -64 -76t-88 -25t-93 19t-81 40q-38 22 -74 42
q-36 18 -79 18q-87 0 -106 -119h-91q13 120 42 169q28 49 65 74t89 25q52 -1 93 -19q42 -18 81 -40q40 -22 74 -42q34 -18 64 -18z" />
    <glyph glyph-name="adieresis" unicode="&#xe4;" 
d="M454 115q161 0 252 105t91 225v89l-197 -4q-157 -2 -216 -35q-60 -33 -86 -78t-26 -125t48 -129q48 -48 134 -48zM1010 -10q-111 0 -156 53t-51 164h-6q-64 -114 -152 -170q-88 -57 -241 -57t-235 86t-82 236q1 196 147 283q111 66 320 71l243 4v59q1 193 -129 233
q-44 14 -100 13q-116 0 -174 -37q-59 -37 -71 -135l-188 17q46 292 434 292q204 0 307 -94t103 -270v-466q0 -80 21 -120t80 -41q26 0 59 7v-112q-68 -16 -129 -16zM280 1219v184h165v-184h-165zM674 1219v184h163v-184h-163z" />
    <glyph glyph-name="aring" unicode="&#xe5;" 
d="M454 115q161 0 252 105t91 225v89l-197 -4q-157 -2 -216 -35q-60 -33 -86 -78t-26 -125t48 -129q48 -48 134 -48zM1010 -10q-111 0 -156 53t-51 164h-6q-64 -114 -152 -170q-88 -57 -241 -57t-235 86t-82 236q1 196 147 283q111 66 320 71l243 4v59q1 193 -129 233
q-44 14 -100 13q-116 0 -174 -37q-59 -37 -71 -135l-188 17q46 292 434 292q204 0 307 -94t103 -270v-466q0 -80 21 -120t80 -41q26 0 59 7v-112q-68 -16 -129 -16zM652 1505q-40 39 -82 39q-70 0 -109 -39t-39 -81q0 -69 38 -110t82 -41q44 1 68 11t42 29q39 41 39 97
t-39 95zM799 1410q0 -50 -19 -94t-52 -77t-77 -52t-94 -19t-94 19t-77 52t-52 77t-19 94t19 94t52 76t77 52q44 19 94 19t94 -19q44 -20 77 -52t52 -76t19 -94z" />
    <glyph glyph-name="ae" unicode="&#xe6;" horiz-adv-x="1821" 
d="M1250 969q-178 0 -227 -115t-53 -213h574q-15 171 -87 249.5t-207 78.5zM251 281q0 -69 49.5 -117.5t141.5 -48.5q167 0 255.5 104t88.5 226v89l-195 -4q-214 -5 -277 -70.5t-63 -178.5zM1253 1102q477 0 477 -575v-24h-762v-17q3 -265 108.5 -318t203.5 -53t168 47
t95 119l158 -45q-97 -256 -429 -256q-333 0 -435 257q-68 -120 -166.5 -188.5t-267.5 -68.5q-168 0 -252.5 86t-84.5 236q0 346 480 354l240 4v59q0 135 -55 190.5t-174 55.5q-120 0 -164.5 -27t-64 -60.5t-26.5 -84.5l-188 17q46 292 444 292q250 0 349 -139
q118 139 346 139z" />
    <glyph glyph-name="ccedilla" unicode="&#xe7;" horiz-adv-x="1024" 
d="M473 -338q147 0 147 79t-133 79h-29q-14 0 -28 -2l59 165q-194 19 -298 160q-104 142 -104 399q1 392 241 512q98 48 206 48q191 0 297 -89t133 -234l-185 -14q-14 90 -71 143t-148 53q-90 1 -142 -25t-84 -78q-59 -95 -59 -312q-1 -308 143 -393q52 -31 140 -31
q86 0 150 52t80 160l182 -12q-20 -146 -120 -238q-101 -92 -255 -103l-32 -81q94 -4 141 -44t47 -109q0 -181 -274 -181q-57 0 -90 4v98q49 -6 86 -6z" />
    <glyph glyph-name="egrave" unicode="&#xe8;" 
d="M568 969q-181 -1 -257 -167q-29 -64 -33 -161h584q-15 171 -87 249t-207 79zM571 1102q477 0 477 -575v-24h-772q0 -277 165 -359q57 -28 155 -29q98 0 170 47q70 47 95 119l158 -45q-97 -256 -441 -256q-240 0 -366 143t-125 427q-1 284 133 418t351 134zM327 1508h207
l217 -287v-20h-94l-330 278v29z" />
    <glyph glyph-name="eacute" unicode="&#xe9;" 
d="M568 969q-181 -1 -257 -167q-29 -64 -33 -161h584q-15 171 -87 249t-207 79zM571 1102q477 0 477 -575v-24h-772q0 -277 165 -359q57 -28 155 -29q98 0 170 47q70 47 95 119l158 -45q-97 -256 -441 -256q-240 0 -366 143t-125 427q-1 284 133 418t351 134zM440 1201v20
l217 287h207v-29l-330 -278h-94z" />
    <glyph glyph-name="ecircumflex" unicode="&#xea;" 
d="M568 969q-181 -1 -257 -167q-29 -64 -33 -161h584q-15 171 -87 249t-207 79zM571 1102q477 0 477 -575v-24h-772q0 -277 165 -359q57 -28 155 -29q98 0 170 47q70 47 95 119l158 -45q-97 -256 -441 -256q-240 0 -366 143t-125 427q-1 284 133 418t351 134zM907 1201h-105
l-219 169h-2l-232 -169h-104v20l234 270h204l224 -270v-20z" />
    <glyph glyph-name="edieresis" unicode="&#xeb;" 
d="M568 969q-181 -1 -257 -167q-29 -64 -33 -161h584q-15 171 -87 249t-207 79zM571 1102q477 0 477 -575v-24h-772q0 -277 165 -359q57 -28 155 -29q98 0 170 47q70 47 95 119l158 -45q-97 -256 -441 -256q-240 0 -366 143t-125 427q-1 284 133 418t351 134zM293 1219v184
h165v-184h-165zM687 1219v184h163v-184h-163z" />
    <glyph glyph-name="igrave" unicode="&#xec;" horiz-adv-x="569" 
d="M194 0v1082h180v-1082h-180zM10 1508h207l217 -287v-20h-94l-330 278v29z" />
    <glyph glyph-name="iacute" unicode="&#xed;" horiz-adv-x="569" 
d="M194 0v1082h180v-1082h-180zM135 1201v20l217 287h207v-29l-330 -278h-94z" />
    <glyph glyph-name="icircumflex" unicode="&#xee;" horiz-adv-x="569" 
d="M194 0v1082h180v-1082h-180zM617 1201h-105l-219 169h-2l-232 -169h-104v20l234 270h204l224 -270v-20z" />
    <glyph glyph-name="idieresis" unicode="&#xef;" horiz-adv-x="569" 
d="M194 0v1082h180v-1082h-180zM8 1219v184h165v-184h-165zM402 1219v184h163v-184h-163z" />
    <glyph glyph-name="eth" unicode="&#xf0;" 
d="M874 480q0 190 -69.5 278t-227.5 88q-236 0 -269 -137t-33 -228q0 -190 72 -279t217 -89q239 0 274.5 136.5t35.5 230.5zM1063 516v-6q0 -386 -182.5 -458t-310.5 -72q-244 0 -364 134t-120 367q0 355 177 426.5t279 71.5q168 0 262 -59q-109 217 -234 331l-301 -133v114
l218 94q-109 87 -242 158h209q80 -36 170 -102l306 132l-1 -112l-211 -92q252 -230 298.5 -451.5t46.5 -342.5z" />
    <glyph glyph-name="ntilde" unicode="&#xf1;" 
d="M146 851q0 189 -6 231h170q1 -5 2 -27q2 -21 4 -69t2 -89h3q113 205 325 205q200 0 282 -89t82 -292v-721h-181v686q0 156 -48 217q-48 60 -176 60q-127 0 -203 -88t-76 -248v-627h-180v851zM730 1350q100 0 117 119h92q-13 -118 -41 -167q-27 -50 -64 -76t-88 -25
t-93 19t-81 40q-38 22 -74 42q-36 18 -79 18q-87 0 -106 -119h-91q13 120 42 169q28 49 65 74t89 25q52 -1 93 -19q42 -18 81 -40q40 -22 74 -42q34 -18 64 -18z" />
    <glyph glyph-name="ograve" unicode="&#xf2;" 
d="M864 542q0 239 -72 333t-219 94t-222 -96q-76 -96 -76 -331q-1 -343 173 -409q52 -20 118 -20q66 -1 122 19t95 69q81 102 81 341zM1053 542q0 -284 -125 -423t-363 -139q-351 0 -447 314q-32 106 -32 248q0 560 485 560q370 0 454 -315q28 -105 28 -245zM329 1508h207
l217 -287v-20h-94l-330 278v29z" />
    <glyph glyph-name="oacute" unicode="&#xf3;" 
d="M864 542q0 239 -72 333t-219 94t-222 -96q-76 -96 -76 -331q-1 -343 173 -409q52 -20 118 -20q66 -1 122 19t95 69q81 102 81 341zM1053 542q0 -284 -125 -423t-363 -139q-351 0 -447 314q-32 106 -32 248q0 560 485 560q370 0 454 -315q28 -105 28 -245zM431 1201v20
l217 287h207v-29l-330 -278h-94z" />
    <glyph glyph-name="ocircumflex" unicode="&#xf4;" 
d="M864 542q0 239 -72 333t-219 94t-222 -96q-76 -96 -76 -331q-1 -343 173 -409q52 -20 118 -20q66 -1 122 19t95 69q81 102 81 341zM1053 542q0 -284 -125 -423t-363 -139q-351 0 -447 314q-32 106 -32 248q0 560 485 560q370 0 454 -315q28 -105 28 -245zM902 1201h-105
l-219 169h-2l-232 -169h-104v20l234 270h204l224 -270v-20z" />
    <glyph glyph-name="otilde" unicode="&#xf5;" 
d="M864 542q0 239 -72 333t-219 94t-222 -96q-76 -96 -76 -331q-1 -343 173 -409q52 -20 118 -20q66 -1 122 19t95 69q81 102 81 341zM1053 542q0 -284 -125 -423t-363 -139q-351 0 -447 314q-32 106 -32 248q0 560 485 560q370 0 454 -315q28 -105 28 -245zM732 1350
q100 0 117 119h92q-13 -118 -41 -167q-27 -50 -64 -76t-88 -25t-93 19t-81 40q-38 22 -74 42q-36 18 -79 18q-87 0 -106 -119h-91q13 120 42 169q28 49 65 74t89 25q52 -1 93 -19q42 -18 81 -40q40 -22 74 -42q34 -18 64 -18z" />
    <glyph glyph-name="odieresis" unicode="&#xf6;" 
d="M864 542q0 239 -72 333t-219 94t-222 -96q-76 -96 -76 -331q-1 -343 173 -409q52 -20 118 -20q66 -1 122 19t95 69q81 102 81 341zM1053 542q0 -284 -125 -423t-363 -139q-351 0 -447 314q-32 106 -32 248q0 560 485 560q370 0 454 -315q28 -105 28 -245zM295 1219v184
h165v-184h-165zM689 1219v184h163v-184h-163z" />
    <glyph glyph-name="divide" unicode="&#xf7;" horiz-adv-x="1124" 
d="M478 223v183h168v-183h-168zM65 608v146h995v-146h-995zM478 958v183h168v-183h-168z" />
    <glyph glyph-name="oslash" unicode="&#xf8;" horiz-adv-x="1251" 
d="M840 888q-67 81 -211 81t-219.5 -96t-75.5 -331q0 -130 24 -215zM417 201q68 -88 212 -88q143 0 218.5 95t75.5 334q0 129 -23 221zM1112 520q0 -262 -125 -401t-363 -139q-195 0 -313 98l-100 -116h-167l184 214q-83 138 -83 366q0 560 485 560q201 0 316 -91l91 105
h167l-173 -201q81 -133 81 -395z" />
    <glyph glyph-name="ugrave" unicode="&#xf9;" 
d="M1003 231q0 -189 6 -231h-170q-1 5 -2 27q-1 21 -3 69t-3 89h-3q-113 -205 -325 -205q-200 0 -282 89t-82 292v721h181v-686q0 -156 48 -217q48 -60 176 -60q127 0 203 88t76 248v627h180v-851zM342 1508h207l217 -287v-20h-94l-330 278v29z" />
    <glyph glyph-name="uacute" unicode="&#xfa;" 
d="M1003 231q0 -189 6 -231h-170q-1 5 -2 27q-1 21 -3 69t-3 89h-3q-113 -205 -325 -205q-200 0 -282 89t-82 292v721h181v-686q0 -156 48 -217q48 -60 176 -60q127 0 203 88t76 248v627h180v-851zM415 1201v20l217 287h207v-29l-330 -278h-94z" />
    <glyph glyph-name="ucircumflex" unicode="&#xfb;" 
d="M1003 231q0 -189 6 -231h-170q-1 5 -2 27q-1 21 -3 69t-3 89h-3q-113 -205 -325 -205q-200 0 -282 89t-82 292v721h181v-686q0 -156 48 -217q48 -60 176 -60q127 0 203 88t76 248v627h180v-851zM901 1201h-105l-219 169h-2l-232 -169h-104v20l234 270h204l224 -270v-20z
" />
    <glyph glyph-name="udieresis" unicode="&#xfc;" 
d="M1003 231q0 -189 6 -231h-170q-1 5 -2 27q-1 21 -3 69t-3 89h-3q-113 -205 -325 -205q-200 0 -282 89t-82 292v721h181v-686q0 -156 48 -217q48 -60 176 -60q127 0 203 88t76 248v627h180v-851zM282 1219v184h165v-184h-165zM676 1219v184h163v-184h-163z" />
    <glyph glyph-name="yacute" unicode="&#xfd;" horiz-adv-x="1024" 
d="M151 -285q168 0 266 247l17 43l-429 1077h192l228 -598q9 -27 25 -72t43 -123t30 -93q6 22 46 130q39 108 49 138l212 618h190l-416 -1082q-85 -218 -166 -310q-101 -115 -247 -115q-74 0 -124 11v135q38 -6 84 -6zM355 1201v20l217 287h207v-29l-330 -278h-94z" />
    <glyph glyph-name="thorn" unicode="&#xfe;" 
d="M807 858q-57 104 -196 104q-140 0 -216.5 -93t-76.5 -341q0 -328 110 -371.5t182 -43.5t121.5 29t91 106.5t41.5 291.5t-57 318zM318 -2v-423h-180v1909h180v-423q0 -65 -4 -153h6q73 152 172.5 172.5t187.5 20.5t164 -40t142.5 -143.5t66.5 -371.5q0 -566 -398 -566
q-250 0 -336 188h-5q4 -8 4 -170z" />
    <glyph glyph-name="ydieresis" unicode="&#xff;" horiz-adv-x="1024" 
d="M151 -285q168 0 266 247l17 43l-429 1077h192l228 -598q9 -27 25 -72t43 -123t30 -93q6 22 46 130q39 108 49 138l212 618h190l-416 -1082q-85 -218 -166 -310q-101 -115 -247 -115q-74 0 -124 11v135q38 -6 84 -6zM232 1219v184h165v-184h-165zM626 1219v184h163v-184
h-163z" />
    <glyph glyph-name="Amacron" unicode="&#x100;" horiz-adv-x="1366" 
d="M768 1026q-28 69 -47 129q-19 61 -27 83t-9 27q-2 -5 -9 -28q-25 -83 -74 -213l-180 -463h527zM1167 0l-161 412h-642l-162 -412h-198l575 1409h217l566 -1409h-195zM960 1570h-549v127h549v-127z" />
    <glyph glyph-name="amacron" unicode="&#x101;" 
d="M454 115q161 0 252 105t91 225v89l-197 -4q-157 -2 -216 -35q-60 -33 -86 -78t-26 -125t48 -129q48 -48 134 -48zM1010 -10q-111 0 -156 53t-51 164h-6q-64 -114 -152 -170q-88 -57 -241 -57t-235 86t-82 236q1 196 147 283q111 66 320 71l243 4v59q1 193 -129 233
q-44 14 -100 13q-116 0 -174 -37q-59 -37 -71 -135l-188 17q46 292 434 292q204 0 307 -94t103 -270v-466q0 -80 21 -120t80 -41q26 0 59 7v-112q-68 -16 -129 -16zM833 1236h-549v127h549v-127z" />
    <glyph glyph-name="Abreve" unicode="&#x102;" horiz-adv-x="1366" 
d="M768 1026q-28 69 -47 129q-19 61 -27 83t-9 27q-2 -5 -9 -28q-25 -83 -74 -213l-180 -463h527zM1167 0l-161 412h-642l-162 -412h-198l575 1409h217l566 -1409h-195zM686 1530q-141 0 -228 72t-105 177h117q36 -113 216 -113q179 0 216 113h117q-31 -169 -200 -229
q-58 -20 -133 -20z" />
    <glyph glyph-name="abreve" unicode="&#x103;" 
d="M454 115q161 0 252 105t91 225v89l-197 -4q-157 -2 -216 -35q-60 -33 -86 -78t-26 -125t48 -129q48 -48 134 -48zM1010 -10q-111 0 -156 53t-51 164h-6q-64 -114 -152 -170q-88 -57 -241 -57t-235 86t-82 236q1 196 147 283q111 66 320 71l243 4v59q1 193 -129 233
q-44 14 -100 13q-116 0 -174 -37q-59 -37 -71 -135l-188 17q46 292 434 292q204 0 307 -94t103 -270v-466q0 -80 21 -120t80 -41q26 0 59 7v-112q-68 -16 -129 -16zM561 1357q187 0 216 153h117q-31 -210 -200 -284q-58 -26 -133 -25q-141 0 -228 89q-88 89 -105 220h117
q29 -153 216 -153z" />
    <glyph glyph-name="Aogonek" unicode="&#x104;" horiz-adv-x="1366" 
d="M768 1026q-28 69 -47 129q-19 61 -27 83t-9 27q-2 -5 -9 -28q-25 -83 -74 -213l-180 -463h527zM1226 -416q-90 0 -144 51q-53 51 -53 135t58 158q33 42 80 72l-161 412h-642l-162 -412h-198l575 1409h217l566 -1409h-63q-81 -55 -115 -142q-14 -36 -14 -76t24 -64t74 -24
q49 0 111 24v-107q-63 -27 -153 -27z" />
    <glyph glyph-name="aogonek" unicode="&#x105;" 
d="M454 115q161 0 252 105t91 225v89l-197 -4q-157 -2 -216 -35q-60 -33 -86 -78t-26 -125t48 -129q48 -48 134 -48zM986 -427q-90 0 -144 51q-53 51 -53 135t48 145t100 92q-124 28 -134 211h-6q-64 -114 -152 -170q-88 -57 -241 -57t-235 86t-82 236q1 196 147 283
q111 66 320 71l243 4v59q1 193 -129 233q-44 14 -100 13q-116 0 -174 -37q-59 -37 -71 -135l-188 17q46 292 434 292q204 0 307 -94t103 -270v-466q0 -80 21 -120t80 -41q26 0 59 7v-112q-37 -9 -73 -13q-86 -55 -122 -146q-14 -35 -14 -75t24 -65q24 -24 74 -24
q49 0 111 24v-107q-63 -27 -153 -27z" />
    <glyph glyph-name="Cacute" unicode="&#x106;" horiz-adv-x="1479" 
d="M1207 1021q-101 253 -431 253q-104 0 -196 -40t-156 -114q-62 -74 -94 -178t-32 -231q0 -257 135 -415q135 -159 367 -159q296 0 445 293l156 -78q-127 -264 -397 -344q-96 -28 -240 -28t-272 54t-216 152q-172 194 -172 527q0 332 180 524q180 193 506 193
q455 0 598 -349zM667 1530v20l217 226h207v-29l-310 -217h-114z" />
    <glyph glyph-name="cacute" unicode="&#x107;" horiz-adv-x="1024" 
d="M338 233q63 -111 210 -111q96 0 160 52t80 160l182 -12q-20 -146 -127 -244t-290 -98q-243 0 -361 162q-106 144 -105 400q1 392 241 512q98 48 206 48q191 0 297 -89t133 -234l-185 -14q-14 90 -71 143t-148 53q-90 1 -142 -25t-84 -78q-59 -95 -59 -304q0 -210 63 -321
zM431 1201v20l217 287h207v-29l-330 -278h-94z" />
    <glyph glyph-name="Ccircumflex" unicode="&#x108;" horiz-adv-x="1479" 
d="M1207 1021q-101 253 -431 253q-104 0 -196 -40t-156 -114q-62 -74 -94 -178t-32 -231q0 -257 135 -415q135 -159 367 -159q296 0 445 293l156 -78q-127 -264 -397 -344q-96 -28 -240 -28t-272 54t-216 152q-172 194 -172 527q0 332 180 524q180 193 506 193
q455 0 598 -349zM1122 1530h-105l-219 139h-2l-232 -139h-104v20l234 240h204l224 -240v-20z" />
    <glyph glyph-name="ccircumflex" unicode="&#x109;" horiz-adv-x="1024" 
d="M338 233q63 -111 210 -111q96 0 160 52t80 160l182 -12q-20 -146 -127 -244t-290 -98q-243 0 -361 162q-106 144 -105 400q1 392 241 512q98 48 206 48q191 0 297 -89t133 -234l-185 -14q-14 90 -71 143t-148 53q-90 1 -142 -25t-84 -78q-59 -95 -59 -304q0 -210 63 -321
zM870 1201h-105l-219 169h-2l-232 -169h-104v20l234 270h204l224 -270v-20z" />
    <glyph glyph-name="Cdotaccent" unicode="&#x10a;" horiz-adv-x="1479" 
d="M1207 1021q-101 253 -431 253q-104 0 -196 -40t-156 -114q-62 -74 -94 -178t-32 -231q0 -257 135 -415q135 -159 367 -159q296 0 445 293l156 -78q-127 -264 -397 -344q-96 -28 -240 -28t-272 54t-216 152q-172 194 -172 527q0 332 180 524q180 193 506 193
q455 0 598 -349zM702 1530v172h180v-172h-180z" />
    <glyph glyph-name="cdotaccent" unicode="&#x10b;" horiz-adv-x="1024" 
d="M338 233q63 -111 210 -111q96 0 160 52t80 160l182 -12q-20 -146 -127 -244t-290 -98q-243 0 -361 162q-106 144 -105 400q1 392 241 512q98 48 206 48q191 0 297 -89t133 -234l-185 -14q-14 90 -71 143t-148 53q-90 1 -142 -25t-84 -78q-59 -95 -59 -304q0 -210 63 -321
zM456 1237v172h180v-172h-180z" />
    <glyph glyph-name="Ccaron" unicode="&#x10c;" horiz-adv-x="1479" 
d="M1207 1021q-101 253 -431 253q-104 0 -196 -40t-156 -114q-62 -74 -94 -178t-32 -231q0 -257 135 -415q135 -159 367 -159q296 0 445 293l156 -78q-127 -264 -397 -344q-96 -28 -240 -28t-272 54t-216 152q-172 194 -172 527q0 332 180 524q180 193 506 193
q455 0 598 -349zM460 1790h104l232 -139h2l219 139h105v-21l-224 -239h-204l-234 239v21z" />
    <glyph glyph-name="ccaron" unicode="&#x10d;" horiz-adv-x="1024" 
d="M338 233q63 -111 210 -111q96 0 160 52t80 160l182 -12q-20 -146 -127 -244t-290 -98q-243 0 -361 162q-106 144 -105 400q1 392 241 512q98 48 206 48q191 0 297 -89t133 -234l-185 -14q-14 90 -71 143t-148 53q-90 1 -142 -25t-84 -78q-59 -95 -59 -304q0 -210 63 -321
zM214 1491h104l232 -169h2l219 169h105v-20l-224 -270h-204l-234 270v20z" />
    <glyph glyph-name="Dcaron" unicode="&#x10e;" horiz-adv-x="1479" 
d="M1039 1124q-150 132 -409 132h-271v-1103h314q230 0 373 147t143 420q0 272 -150 404zM1381 721q0 -343 -192 -532t-494 -189h-527v1409h466q530 0 692 -380q56 -130 55 -308zM358 1790h104l232 -139h2l219 139h105v-21l-224 -239h-204l-234 239v21z" />
    <glyph glyph-name="dcaron" unicode="&#x10f;" horiz-adv-x="1259" 
d="M275 544q0 -227 59 -326t202 -99q142 0 213 101q72 101 72 334q1 328 -165 394q-54 22 -122 21q-68 0 -116 -23t-80 -74q-63 -100 -63 -328zM825 174h-4q-51 -104 -133 -149t-204 -45q-206 0 -302 138t-96 418q0 566 398 566q123 0 205 -45t132 -143h2l-2 121v449h180
v-1261q0 -169 6 -223h-172q-10 50 -10 174zM1279 1378q0 -152 -84 -251h-117q94 100 94 190h-88v167h195v-106z" />
    <glyph glyph-name="Dcroat" unicode="&#x110;" horiz-adv-x="1479" 
d="M1039 1124q-150 132 -409 132h-271v-455h406v-154h-406v-494h314q230 0 373 147t143 420q0 272 -150 404zM14 801h154v608h466q530 0 692 -380q56 -130 55 -308q0 -343 -192 -532t-494 -189h-527v647h-154v154z" />
    <glyph glyph-name="dcroat" unicode="&#x111;" 
d="M275 544q0 -227 59.5 -326t201.5 -99t213.5 101.5t71.5 333.5q0 327 -109.5 371t-177.5 44t-116 -23t-95.5 -98.5t-47.5 -303.5zM825 174h-4q-50 -104 -132.5 -149t-204.5 -45q-205 0 -301.5 138t-96.5 418q0 566 398 566q123 0 205 -45t132 -143h2l-1 30l-1 262h-300
v131h300v147h180v-147h132v-131h-132v-983q0 -169 6 -223h-172q-10 50 -10 174z" />
    <glyph glyph-name="Emacron" unicode="&#x112;" horiz-adv-x="1366" 
d="M168 0v1409h1069v-156h-878v-452h818v-154h-818v-491h919v-156h-1110zM978 1570h-549v127h549v-127z" />
    <glyph glyph-name="emacron" unicode="&#x113;" 
d="M568 969q-181 -1 -257 -167q-29 -64 -33 -161h584q-15 171 -87 249t-207 79zM571 1102q477 0 477 -575v-24h-772q0 -277 165 -359q57 -28 155 -29q98 0 170 47q70 47 95 119l158 -45q-97 -256 -441 -256q-240 0 -366 143t-125 427q-1 284 133 418t351 134zM845 1236h-549
v127h549v-127z" />
    <glyph glyph-name="Ebreve" unicode="&#x114;" horiz-adv-x="1366" 
d="M168 0v1409h1069v-156h-878v-452h818v-154h-818v-491h919v-156h-1110zM702 1666q179 0 216 113h117q-31 -169 -200 -229q-58 -20 -133 -20q-141 0 -228 72t-105 177h117q37 -113 216 -113z" />
    <glyph glyph-name="ebreve" unicode="&#x115;" 
d="M568 969q-181 -1 -257 -167q-29 -64 -33 -161h584q-15 171 -87 249t-207 79zM571 1102q477 0 477 -575v-24h-772q0 -277 165 -359q57 -28 155 -29q98 0 170 47q70 47 95 119l158 -45q-97 -256 -441 -256q-240 0 -366 143t-125 427q-1 284 133 418t351 134zM570 1357
q187 0 216 153h117q-31 -210 -200 -284q-58 -26 -133 -25q-141 0 -228 89q-88 89 -105 220h117q29 -153 216 -153z" />
    <glyph glyph-name="Edotaccent" unicode="&#x116;" horiz-adv-x="1366" 
d="M168 0v1409h1069v-156h-878v-452h818v-154h-818v-491h919v-156h-1110zM613 1530v172h180v-172h-180z" />
    <glyph glyph-name="edotaccent" unicode="&#x117;" 
d="M568 969q-181 -1 -257 -167q-29 -64 -33 -161h584q-15 171 -87 249t-207 79zM571 1102q477 0 477 -575v-24h-772q0 -277 165 -359q57 -28 155 -29q98 0 170 47q70 47 95 119l158 -45q-97 -256 -441 -256q-240 0 -366 143t-125 427q-1 284 133 418t351 134zM480 1237v172
h180v-172h-180z" />
    <glyph glyph-name="Eogonek" unicode="&#x118;" horiz-adv-x="1366" 
d="M1124 -427q-90 0 -143 51t-53 135t50 147t105 94h-915v1409h1069v-156h-878v-452h818v-154h-818v-491h919v-156h-62q-96 -53 -134 -153q-14 -35 -13 -75t25 -65q24 -24 73 -24t111 24v-107q-64 -27 -154 -27z" />
    <glyph glyph-name="eogonek" unicode="&#x119;" 
d="M568 969q-181 -1 -257 -167q-29 -64 -33 -161h584q-15 171 -87 249t-207 79zM461 -240q0 129 124 220h-7q-240 0 -366 143t-125 427q-1 284 133 418t351 134q477 0 477 -575v-24h-772q0 -277 165 -359q57 -28 155 -29q98 0 170 47q70 47 95 119l158 -45
q-69 -183 -271 -237q-94 -53 -132 -152q-14 -35 -14 -75t24 -65q24 -24 74 -24q49 0 111 24v-107q-63 -27 -153 -27t-144 51q-53 51 -53 136z" />
    <glyph glyph-name="Ecaron" unicode="&#x11a;" horiz-adv-x="1366" 
d="M168 0v1409h1069v-156h-878v-452h818v-154h-818v-491h919v-156h-1110zM367 1790h104l232 -139h2l219 139h105v-21l-224 -239h-204l-234 239v21z" />
    <glyph glyph-name="ecaron" unicode="&#x11b;" 
d="M568 969q-181 -1 -257 -167q-29 -64 -33 -161h584q-15 171 -87 249t-207 79zM571 1102q477 0 477 -575v-24h-772q0 -277 165 -359q57 -28 155 -29q98 0 170 47q70 47 95 119l158 -45q-97 -256 -441 -256q-240 0 -366 143t-125 427q-1 284 133 418t351 134zM234 1491h104
l232 -169h2l219 169h105v-20l-224 -270h-204l-234 270v20z" />
    <glyph glyph-name="Gcircumflex" unicode="&#x11c;" horiz-adv-x="1593" 
d="M1440 219q-234 -239 -662 -239q-142 0 -276 54t-222 152t-132 232t-45 296q0 334 181 525t532 191t508 -194q50 -62 85 -138l-182 -54q-115 230 -428 230q-250 0 -376 -150t-126 -412q0 -261 134 -419t369 -158q302 0 464 156v254h-421v160h597v-486zM1137 1530h-105
l-219 139h-2l-232 -139h-104v20l234 240h204l224 -240v-20z" />
    <glyph glyph-name="gcircumflex" unicode="&#x11d;" 
d="M739 859q-83 106 -212 106t-192 -100t-63 -324q0 -333 144 -395q49 -21 110 -21q60 0 112 23t93 73q91 111 91 321q0 211 -83 317zM1001 31q0 -456 -453 -456q-268 0 -371 158q-32 49 -46 109l181 26q37 -156 241 -156q269 0 269 315v174h-2q-102 -209 -348 -209
q-300 0 -364 310q-22 102 -22 234q0 276 96 420q96 143 310 143q116 -1 200 -53t130 -149h2q0 82 5 132t7 53h171q-6 -54 -6 -224v-827zM878 1201h-105l-219 169h-2l-232 -169h-104v20l234 270h204l224 -270v-20z" />
    <glyph glyph-name="Gbreve" unicode="&#x11e;" horiz-adv-x="1593" 
d="M1440 219q-234 -239 -662 -239q-142 0 -276 54t-222 152t-132 232t-45 296q0 334 181 525t532 191t508 -194q50 -62 85 -138l-182 -54q-115 230 -428 230q-250 0 -376 -150t-126 -412q0 -261 134 -419t369 -158q302 0 464 156v254h-421v160h597v-486zM811 1666
q179 0 216 113h117q-31 -169 -200 -229q-58 -20 -133 -20q-141 0 -228 72t-105 177h117q37 -113 216 -113z" />
    <glyph glyph-name="gbreve" unicode="&#x11f;" 
d="M739 859q-83 106 -212 106t-192 -100t-63 -324q0 -333 144 -395q49 -21 110 -21q60 0 112 23t93 73q91 111 91 321q0 211 -83 317zM1001 31q0 -456 -453 -456q-268 0 -371 158q-32 49 -46 109l181 26q37 -156 241 -156q269 0 269 315v174h-2q-102 -209 -348 -209
q-300 0 -364 310q-22 102 -22 234q0 276 96 420q96 143 310 143q116 -1 200 -53t130 -149h2q0 82 5 132t7 53h171q-6 -54 -6 -224v-827zM547 1357q187 0 216 153h117q-31 -210 -200 -284q-58 -26 -133 -25q-141 0 -228 89q-88 89 -105 220h117q29 -153 216 -153z" />
    <glyph glyph-name="Gdotaccent" unicode="&#x120;" horiz-adv-x="1593" 
d="M1440 219q-234 -239 -662 -239q-142 0 -276 54t-222 152t-132 232t-45 296q0 334 181 525t532 191t508 -194q50 -62 85 -138l-182 -54q-115 230 -428 230q-250 0 -376 -150t-126 -412q0 -261 134 -419t369 -158q302 0 464 156v254h-421v160h597v-486zM721 1530v172h180
v-172h-180z" />
    <glyph glyph-name="gdotaccent" unicode="&#x121;" 
d="M739 859q-83 106 -212 106t-192 -100t-63 -324q0 -333 144 -395q49 -21 110 -21q60 0 112 23t93 73q91 111 91 321q0 211 -83 317zM1001 31q0 -456 -453 -456q-268 0 -371 158q-32 49 -46 109l181 26q37 -156 241 -156q269 0 269 315v174h-2q-102 -209 -348 -209
q-300 0 -364 310q-22 102 -22 234q0 276 96 420q96 143 310 143q116 -1 200 -53t130 -149h2q0 82 5 132t7 53h171q-6 -54 -6 -224v-827zM457 1237v172h180v-172h-180z" />
    <glyph glyph-name="Gcommaaccent" unicode="&#x122;" horiz-adv-x="1593" 
d="M1440 219q-234 -239 -662 -239q-142 0 -276 54t-222 152t-132 232t-45 296q0 334 181 525t532 191t508 -194q50 -62 85 -138l-182 -54q-115 230 -428 230q-250 0 -376 -150t-126 -412q0 -261 134 -419t369 -158q302 0 464 156v254h-421v160h597v-486zM918 -193
q0 -87 -22 -141t-62 -100h-117q94 100 94 180h-88v156h195v-95z" />
    <glyph glyph-name="gcommaaccent" unicode="&#x123;" 
d="M739 859q-83 106 -212 106t-192 -100t-63 -324q0 -333 144 -395q49 -21 110 -21q60 0 112 23t93 73q91 111 91 321q0 211 -83 317zM1001 31q0 -456 -453 -456q-268 0 -371 158q-32 49 -46 109l181 26q37 -156 241 -156q269 0 269 315v174h-2q-102 -209 -348 -209
q-300 0 -364 310q-22 102 -22 234q0 276 96 420q96 143 310 143q116 -1 200 -53t130 -149h2q0 82 5 132t7 53h171q-6 -54 -6 -224v-827zM442 1317q0 152 84 251h117q-94 -100 -94 -190h88v-167h-195v106z" />
    <glyph glyph-name="Hcircumflex" unicode="&#x124;" horiz-adv-x="1479" 
d="M1121 0v653h-762v-653h-191v1409h191v-596h762v596h191v-1409h-191zM1071 1530h-105l-219 139h-2l-232 -139h-104v20l234 240h204l224 -240v-20z" />
    <glyph glyph-name="hcircumflex" unicode="&#x125;" 
d="M322 1098q0 -145 -8 -201h3q87 159 234 193q50 12 133 12q172 0 254 -106q68 -89 68 -275v-721h-181v686q0 149 -45 213t-175 64q-131 0 -207 -88t-76 -237v-638h-180v1484h180v-386zM904 1594h-105l-219 139h-2l-232 -139h-104v20l234 240h204l224 -240v-20z" />
    <glyph glyph-name="Hbar" unicode="&#x126;" horiz-adv-x="1479" 
d="M1126 813v212h-767v-212h767zM1126 0v653h-767v-653h-191v1025h-154v154h154v230h191v-230h767v230h186v-230h153v-154h-153v-1025h-186z" />
    <glyph glyph-name="hbar" unicode="&#x127;" 
d="M322 1058q0 -145 -8 -201h3q87 160 185.5 182.5t181.5 22.5q173 0 247.5 -97.5t74.5 -283.5v-681h-181v646q0 149 -44.5 213t-175.5 64q-130 0 -206.5 -88t-76.5 -237v-598h-180v1206h-132v131h132v147h180v-147h300v-131h-300v-148z" />
    <glyph glyph-name="Itilde" unicode="&#x128;" horiz-adv-x="569" 
d="M189 0v1409h191v-1409h-191zM436 1679q100 0 117 119h92q-13 -118 -41 -167q-27 -49 -64 -75t-88 -26t-93 18t-81 42q-38 22 -74 40t-79 19q-87 0 -106 -119h-91q13 120 42 169q28 49 65 74t89 25t93 -18q42 -18 81 -42q40 -22 74 -40t64 -19z" />
    <glyph glyph-name="itilde" unicode="&#x129;" horiz-adv-x="569" 
d="M194 0v1082h180v-1082h-180zM436 1350q100 0 117 119h92q-13 -118 -41 -167q-27 -50 -64 -76t-88 -25t-93 19t-81 40q-38 22 -74 42q-36 18 -79 18q-87 0 -106 -119h-91q13 120 42 169q28 49 65 74t89 25q52 -1 93 -19q42 -18 81 -40q40 -22 74 -42q34 -18 64 -18z" />
    <glyph glyph-name="Imacron" unicode="&#x12a;" horiz-adv-x="569" 
d="M189 0v1409h191v-1409h-191zM561 1570h-549v127h549v-127z" />
    <glyph glyph-name="imacron" unicode="&#x12b;" horiz-adv-x="569" 
d="M194 0v1082h180v-1082h-180zM561 1236h-549v127h549v-127z" />
    <glyph glyph-name="Ibreve" unicode="&#x12c;" horiz-adv-x="569" 
d="M189 0v1409h191v-1409h-191zM287 1530q-141 0 -228 72t-105 177h117q36 -113 216 -113q179 0 216 113h117q-31 -169 -200 -229q-58 -20 -133 -20z" />
    <glyph glyph-name="ibreve" unicode="&#x12d;" horiz-adv-x="569" 
d="M194 0v1082h180v-1082h-180zM287 1357q187 0 216 153h117q-31 -210 -200 -284q-58 -26 -133 -25q-141 0 -228 89q-88 89 -105 220h117q29 -153 216 -153z" />
    <glyph glyph-name="Iogonek" unicode="&#x12e;" horiz-adv-x="569" 
d="M288 -427q-90 0 -143 51t-53 135t50 147t105 94h-58v1409h191v-1409q-96 -53 -134 -153q-14 -35 -13 -75t25 -65q24 -24 73 -24t111 24v-107q-63 -27 -154 -27z" />
    <glyph glyph-name="iogonek" unicode="&#x12f;" horiz-adv-x="455" 
d="M84 -376q-53 51 -53 135t50 147t105 94h-49v1082h180v-1082h2q-95 -53 -133 -153q-14 -35 -14 -75t24 -65q24 -24 74 -24q49 0 111 24v-107q-63 -27 -154 -27q-90 0 -143 51zM137 1312v172h180v-172h-180z" />
    <glyph glyph-name="Idotaccent" unicode="&#x130;" horiz-adv-x="569" 
d="M189 0v1409h191v-1409h-191zM195 1530v172h180v-172h-180z" />
    <glyph glyph-name="dotlessi" unicode="&#x131;" horiz-adv-x="569" 
d="M194 0v1082h180v-1082h-180z" />
    <glyph glyph-name="IJ" unicode="&#x132;" horiz-adv-x="1505" 
d="M170 0v1409h191v-1409h-191zM939 135q104 -1 164 71t60 210v837h-271v156h461v-989q0 -203 -110 -321q-110 -119 -305 -119q-358 0 -425 370l187 31q28 -185 159 -232q39 -14 80 -14z" />
    <glyph glyph-name="ij" unicode="&#x133;" horiz-adv-x="909" 
d="M137 0v1082h180v-1082h-180zM137 1312v172h180v-172h-180zM474 -283q66 0 91 39q26 39 26 137v1189h180v-1216q1 -210 -121 -268q-46 -22 -121 -23q-74 0 -125 9v139q40 -6 70 -6zM591 1312v172h180v-172h-180z" />
    <glyph glyph-name="Jcircumflex" unicode="&#x134;" horiz-adv-x="1024" 
d="M458 135q104 -1 164 71t60 210v837h-271v156h461v-989q0 -203 -110 -321q-110 -119 -305 -119q-358 0 -425 370l187 31q28 -185 159 -232q39 -14 80 -14zM973 1530h-105l-219 139h-2l-232 -139h-104v20l234 240h204l224 -240v-20z" />
    <glyph glyph-name="jcircumflex" unicode="&#x135;" horiz-adv-x="455" 
d="M559 1201h-105l-219 169h-2l-232 -169h-104v20l234 270h204l224 -270v-20zM20 -283q66 0 91.5 39t25.5 137v1189h180v-1216q0 -210 -84 -250.5t-158 -40.5t-125 9v139q40 -6 70 -6z" />
    <glyph glyph-name="Kcommaaccent" unicode="&#x136;" horiz-adv-x="1366" 
d="M359 0h-191v1409h191v-706l679 706h225l-600 -612l680 -797h-237l-563 680l-184 -140v-540zM805 -193q0 -87 -22 -141t-62 -100h-117q94 100 94 180h-88v156h195v-95z" />
    <glyph glyph-name="kcommaaccent" unicode="&#x137;" horiz-adv-x="1024" 
d="M318 0h-180v1484h180v-927l475 525h211l-439 -465l462 -617h-211l-366 494l-132 -109v-385zM662 -193q0 -87 -22 -141t-62 -100h-117q94 100 94 180h-88v156h195v-95z" />
    <glyph glyph-name="kgreenlandic" unicode="&#x138;" horiz-adv-x="1024" 
d="M318 0h-180v1082h180v-525l475 525h211l-439 -465l462 -617h-211l-366 494l-132 -108v-386z" />
    <glyph glyph-name="Lacute" unicode="&#x139;" 
d="M168 0v1409h191v-1253h712v-156h-903zM245 1530v20l217 226h207v-29l-310 -217h-114z" />
    <glyph glyph-name="lacute" unicode="&#x13a;" horiz-adv-x="455" 
d="M138 0v1484h180v-1484h-180zM91 1608v20l217 226h207v-29l-310 -217h-114z" />
    <glyph glyph-name="Lcommaaccent" unicode="&#x13b;" 
d="M168 0v1409h191v-1253h712v-156h-903zM717 -193q0 -87 -22 -141t-62 -100h-117q94 100 94 180h-88v156h195v-95z" />
    <glyph glyph-name="lcommaaccent" unicode="&#x13c;" horiz-adv-x="455" 
d="M138 0v1484h180v-1484h-180zM327 -193q0 -87 -22 -141t-62 -100h-117q94 100 94 180h-88v156h195v-95z" />
    <glyph glyph-name="Lcaron" unicode="&#x13d;" 
d="M168 0v1409h191v-1253h712v-156h-903zM858 1303q0 -152 -84 -251h-117q94 100 94 190h-88v167h195v-106z" />
    <glyph glyph-name="lcaron" unicode="&#x13e;" horiz-adv-x="597" 
d="M138 0v1484h180v-1484h-180zM617 1378q0 -152 -84 -251h-117q94 100 94 190h-88v167h195v-106z" />
    <glyph glyph-name="Ldot" unicode="&#x13f;" 
d="M168 0v1409h191v-1253h712v-156h-903zM625 612v172h180v-172h-180z" />
    <glyph glyph-name="ldot" unicode="&#x140;" horiz-adv-x="684" 
d="M138 0v1484h180v-1484h-180zM478 612v172h180v-172h-180z" />
    <glyph glyph-name="Lslash" unicode="&#x141;" 
d="M359 156h712v-156h-903v538l-148 -85v158l148 85v713h191v-603l257 148v-157l-257 -149v-492z" />
    <glyph glyph-name="lslash" unicode="&#x142;" horiz-adv-x="455" 
d="M138 0v542l-122 -68v158l122 68v784h180v-680l124 72v-159l-124 -71v-646h-180z" />
    <glyph glyph-name="Nacute" unicode="&#x143;" horiz-adv-x="1479" 
d="M338 936v-936h-170v1409h222l762 -1208q-12 196 -12 284v924h172v-1409h-230l-754 1200q10 -245 10 -264zM601 1530v20l217 226h207v-29l-310 -217h-114z" />
    <glyph glyph-name="nacute" unicode="&#x144;" 
d="M146 851q0 189 -6 231h170q1 -5 2 -27q2 -21 4 -69t2 -89h3q113 205 325 205q200 0 282 -89t82 -292v-721h-181v686q0 156 -48 217q-48 60 -176 60q-127 0 -203 -88t-76 -248v-627h-180v851zM460 1201v20l217 287h207v-29l-330 -278h-94z" />
    <glyph glyph-name="Ncommaaccent" unicode="&#x145;" horiz-adv-x="1479" 
d="M338 936v-936h-170v1409h222l762 -1208q-12 196 -12 284v924h172v-1409h-230l-754 1200q10 -245 10 -264zM836 -193q0 -87 -22 -141t-62 -100h-117q94 100 94 180h-88v156h195v-95z" />
    <glyph glyph-name="ncommaaccent" unicode="&#x146;" 
d="M146 851q0 189 -6 231h170q1 -5 2 -27q2 -21 4 -69t2 -89h3q113 205 325 205q200 0 282 -89t82 -292v-721h-181v686q0 156 -48 217q-48 60 -176 60q-127 0 -203 -88t-76 -248v-627h-180v851zM675 -193q0 -87 -22 -141t-62 -100h-117q94 100 94 180h-88v156h195v-95z" />
    <glyph glyph-name="Ncaron" unicode="&#x147;" horiz-adv-x="1479" 
d="M338 936v-936h-170v1409h222l762 -1208q-12 196 -12 284v924h172v-1409h-230l-754 1200q10 -245 10 -264zM403 1790h104l232 -139h2l219 139h105v-21l-224 -239h-204l-234 239v21z" />
    <glyph glyph-name="ncaron" unicode="&#x148;" 
d="M146 851q0 189 -6 231h170q1 -5 2 -27q2 -21 4 -69t2 -89h3q113 205 325 205q200 0 282 -89t82 -292v-721h-181v686q0 156 -48 217q-48 60 -176 60q-127 0 -203 -88t-76 -248v-627h-180v851zM242 1491h104l232 -169h2l219 169h105v-20l-224 -270h-204l-234 270v20z" />
    <glyph glyph-name="napostrophe" unicode="&#x149;" horiz-adv-x="1237" 
d="M240 851q0 189 -6 231h170q1 -5 2 -27q2 -21 4 -69t2 -89h3q113 205 325 205q200 0 282 -89t82 -292v-721h-181v686q0 156 -48 217q-48 60 -176 60q-127 0 -203 -88t-76 -248v-627h-180v851zM199 1264q0 -187 -78 -312h-123q94 136 94 260h-88v197h195v-145z" />
    <glyph glyph-name="Eng" unicode="&#x14a;" horiz-adv-x="1481" 
d="M356 1158h4q107 191 263.5 231t261.5 40q228 0 337.5 -130t109.5 -410v-347q0 -287 -81 -424.5t-295 -137.5t-333 148l127 115q90 -110 203 -110t151 99.5t38 313.5v322q0 215 -79 310.5t-260 95.5t-312 -114t-131 -269v-891h-191v1092q0 229 -4 317h184q7 -154 7 -251z
" />
    <glyph glyph-name="eng" unicode="&#x14b;" 
d="M146 851q0 189 -6 231h170q1 -5 2 -27t3.5 -69.5t2.5 -88.5h3q113 205 325 205q200 0 282 -89.5t82 -291.5v-855q0 -209 -84.5 -250t-158.5 -41t-125 9v139q40 -6 70 -6q66 0 91.5 39t25.5 137v793q0 156 -48.5 216.5t-175.5 60.5t-203 -88.5t-76 -247.5v-627h-180v851z
" />
    <glyph glyph-name="Omacron" unicode="&#x14c;" horiz-adv-x="1593" 
d="M1170 1122q-130 152 -376 152q-245 0 -374 -151t-129 -411q0 -261 131 -419t379 -158t373 156q126 156 126 418q0 261 -130 413zM1309 179q-186 -199 -520 -199q-333 0 -512 201q-180 201 -180 533q0 331 183 524q183 192 517 192q333 0 515 -194q183 -194 183 -526
t-186 -531zM1070 1570h-549v127h549v-127z" />
    <glyph glyph-name="omacron" unicode="&#x14d;" 
d="M864 542q0 239 -72 333t-219 94t-222 -96q-76 -96 -76 -331q-1 -343 173 -409q52 -20 118 -20q66 -1 122 19t95 69q81 102 81 341zM1053 542q0 -284 -125 -423t-363 -139q-351 0 -447 314q-32 106 -32 248q0 560 485 560q370 0 454 -315q28 -105 28 -245zM844 1236h-549
v127h549v-127z" />
    <glyph glyph-name="Obreve" unicode="&#x14e;" horiz-adv-x="1593" 
d="M1170 1122q-130 152 -376 152q-245 0 -374 -151t-129 -411q0 -261 131 -419t379 -158t373 156q126 156 126 418q0 261 -130 413zM1309 179q-186 -199 -520 -199q-333 0 -512 201q-180 201 -180 533q0 331 183 524q183 192 517 192q333 0 515 -194q183 -194 183 -526
t-186 -531zM796 1666q179 0 216 113h117q-31 -169 -200 -229q-58 -20 -133 -20q-141 0 -228 72t-105 177h117q37 -113 216 -113z" />
    <glyph glyph-name="obreve" unicode="&#x14f;" 
d="M864 542q0 239 -72 333t-219 94t-222 -96q-76 -96 -76 -331q-1 -343 173 -409q52 -20 118 -20q66 -1 122 19t95 69q81 102 81 341zM1053 542q0 -284 -125 -423t-363 -139q-351 0 -447 314q-32 106 -32 248q0 560 485 560q370 0 454 -315q28 -105 28 -245zM570 1357
q187 0 216 153h117q-31 -210 -200 -284q-58 -26 -133 -25q-141 0 -228 89q-88 89 -105 220h117q29 -153 216 -153z" />
    <glyph glyph-name="Ohungarumlaut" unicode="&#x150;" horiz-adv-x="1593" 
d="M1170 1122q-130 152 -376 152q-245 0 -374 -151t-129 -411q0 -261 131 -419t379 -158t373 156q126 156 126 418q0 261 -130 413zM1309 179q-186 -199 -520 -199q-333 0 -512 201q-180 201 -180 533q0 331 183 524q183 192 517 192q333 0 515 -194q183 -194 183 -526
t-186 -531zM861 1530v20l197 227h207v-29l-310 -218h-94zM514 1530v20l197 227h207v-29l-310 -218h-94z" />
    <glyph glyph-name="ohungarumlaut" unicode="&#x151;" 
d="M864 542q0 239 -72 333t-219 94t-222 -96q-76 -96 -76 -331q-1 -343 173 -409q52 -20 118 -20q66 -1 122 19t95 69q81 102 81 341zM1053 542q0 -284 -125 -423t-363 -139q-351 0 -447 314q-32 106 -32 248q0 560 485 560q370 0 454 -315q28 -105 28 -245zM634 1201v20
l217 287h207v-29l-330 -278h-94zM287 1201v20l217 287h207v-29l-330 -278h-94z" />
    <glyph glyph-name="OE" unicode="&#x152;" horiz-adv-x="2048" 
d="M870 1264h-79q-371 0 -435.5 -211t-64.5 -341q0 -264 129 -415.5t369 -151.5q82 0 134 4v1111q-44 4 -53 4zM229 240q-132 144 -132 473t183.5 518t510.5 189q107 0 212 -11h914v-156h-803v-452h743v-154h-743v-491h844v-156h-959q-67 -10 -223 -10t-285.5 53t-261.5 197
z" />
    <glyph glyph-name="oe" unicode="&#x153;" horiz-adv-x="1933" 
d="M1362 969q-181 0 -233.5 -115t-56.5 -213h584q-15 171 -87 249.5t-207 78.5zM275 542q0 -429 298 -429q151 0 229.5 95t78.5 387.5t-114.5 333t-182.5 40.5q-149 0 -229 -97.5t-80 -329.5zM1365 1102q477 0 477 -575v-24h-772q0 -277 111 -332.5t209 -55.5t169 47t96 119
l158 -45q-97 -256 -441 -256q-275 0 -396 183q-124 -183 -401 -183q-354 0 -421.5 209.5t-67.5 352.5q0 279 126.5 419.5t368.5 140.5q281 0 398 -177q126 177 386 177z" />
    <glyph glyph-name="Racute" unicode="&#x154;" horiz-adv-x="1479" 
d="M1136 1008q0 122 -85 184q-85 64 -239 64h-453v-520h461q236 0 298 162q18 50 18 110zM359 585v-585h-191v1409h663q361 0 464 -234q33 -75 33 -155q0 -160 -86 -272q-86 -111 -258 -141l400 -607h-220l-366 585h-439zM553 1530v20l217 226h207v-29l-310 -217h-114z" />
    <glyph glyph-name="racute" unicode="&#x155;" horiz-adv-x="682" 
d="M551 937q-117 0 -173 -101t-56 -272v-564h-180v830q0 114 -6 252h170q8 -184 8 -221h4q40 131 94 186t163 55q36 0 73 -10v-165q-36 10 -97 10zM254 1201v20l217 287h207v-29l-330 -278h-94z" />
    <glyph glyph-name="Rcommaaccent" unicode="&#x156;" horiz-adv-x="1479" 
d="M1136 1008q0 122 -85 184q-85 64 -239 64h-453v-520h461q236 0 298 162q18 50 18 110zM359 585v-585h-191v1409h663q361 0 464 -234q33 -75 33 -155q0 -160 -86 -272q-86 -111 -258 -141l400 -607h-220l-366 585h-439zM845 -193q0 -87 -22 -141t-62 -100h-117
q94 100 94 180h-88v156h195v-95z" />
    <glyph glyph-name="rcommaaccent" unicode="&#x157;" horiz-adv-x="682" 
d="M551 937q-117 0 -173 -101t-56 -272v-564h-180v830q0 114 -6 252h170q8 -184 8 -221h4q40 131 94 186t163 55q36 0 73 -10v-165q-36 10 -97 10zM330 -193q0 -87 -22 -141t-62 -100h-117q94 100 94 180h-88v156h195v-95z" />
    <glyph glyph-name="Rcaron" unicode="&#x158;" horiz-adv-x="1479" 
d="M1136 1008q0 122 -85 184q-85 64 -239 64h-453v-520h461q236 0 298 162q18 50 18 110zM359 585v-585h-191v1409h663q361 0 464 -234q33 -75 33 -155q0 -160 -86 -272q-86 -111 -258 -141l400 -607h-220l-366 585h-439zM358 1790h104l232 -139h2l219 139h105v-21
l-224 -239h-204l-234 239v21z" />
    <glyph glyph-name="rcaron" unicode="&#x159;" horiz-adv-x="682" 
d="M551 937q-117 0 -173 -101t-56 -272v-564h-180v830q0 114 -6 252h170q8 -184 8 -221h4q40 131 94 186t163 55q36 0 73 -10v-165q-36 10 -97 10zM56 1491h104l232 -169h2l219 169h105v-20l-224 -270h-204l-234 270v20z" />
    <glyph glyph-name="Sacute" unicode="&#x15a;" horiz-adv-x="1366" 
d="M692 1286q-347 0 -347 -223q0 -112 117 -171q69 -34 205 -65q137 -31 201 -47t123 -36q134 -49 208 -130q73 -81 73 -225q0 -289 -322 -379q-110 -30 -260 -30q-515 0 -597 358l185 37q63 -246 419 -246q275 1 357 137q28 48 29 114q1 68 -31 111t-89 71t-136 47t-157 37
t-136 32q-60 16 -114 38q-260 103 -261 322q0 207 145 299q145 93 390 93q368 0 484 -184q38 -60 61 -140l-188 -33q-45 160 -215 199q-62 14 -144 14zM562 1530v20l217 287h207v-29l-330 -278h-94z" />
    <glyph glyph-name="sacute" unicode="&#x15b;" horiz-adv-x="1024" 
d="M275 814q-1 -78 81 -120q48 -24 152 -50q103 -26 148 -38q46 -12 88 -30q206 -85 206 -261q0 -168 -115 -252q-115 -83 -324 -83q-291 0 -397 146q-38 52 -57 128l159 31q23 -87 95 -127t200 -41q264 0 264 168q0 88 -87 133q-42 20 -100 36t-126 34q-176 46 -246 94
q-116 77 -116 220q0 142 106 220t296 77q190 0 296 -63t133 -202l-162 -20q-32 149 -263 149t-231 -149zM385 1201v20l217 287h207v-29l-330 -278h-94z" />
    <glyph glyph-name="Scircumflex" unicode="&#x15c;" horiz-adv-x="1366" 
d="M692 1286q-347 0 -347 -223q0 -112 117 -171q69 -34 205 -65q137 -31 201 -47t123 -36q134 -49 208 -130q73 -81 73 -225q0 -289 -322 -379q-110 -30 -260 -30q-515 0 -597 358l185 37q63 -246 419 -246q275 1 357 137q28 48 29 114q1 68 -31 111t-89 71t-136 47t-157 37
t-136 32q-60 16 -114 38q-260 103 -261 322q0 207 145 299q145 93 390 93q368 0 484 -184q38 -60 61 -140l-188 -33q-45 160 -215 199q-62 14 -144 14zM1032 1528h-105l-219 169h-2l-232 -169h-104v20l234 270h204l224 -270v-20z" />
    <glyph glyph-name="scircumflex" unicode="&#x15d;" horiz-adv-x="1024" 
d="M275 814q-1 -78 81 -120q48 -24 152 -50q103 -26 148 -38q46 -12 88 -30q206 -85 206 -261q0 -168 -115 -252q-115 -83 -324 -83q-291 0 -397 146q-38 52 -57 128l159 31q23 -87 95 -127t200 -41q264 0 264 168q0 88 -87 133q-42 20 -100 36t-126 34q-176 46 -246 94
q-116 77 -116 220q0 142 106 220t296 77q190 0 296 -63t133 -202l-162 -20q-32 149 -263 149t-231 -149zM834 1201h-105l-219 169h-2l-232 -169h-104v20l234 270h204l224 -270v-20z" />
    <glyph glyph-name="Scedilla" unicode="&#x15e;" horiz-adv-x="1366" 
d="M692 1286q-347 0 -347 -223q0 -112 117 -171q69 -34 205 -65q137 -31 201 -47t123 -36q134 -49 208 -130q73 -81 73 -225q0 -289 -322 -379q-87 -24 -201 -29l-32 -81q94 -4 141 -44t47 -109q0 -181 -274 -181q-57 0 -90 4v98q49 -6 86 -6q147 0 147 79t-133 79h-29
q-14 0 -28 -2l58 163q-471 16 -549 357l185 37q63 -246 419 -246q275 1 357 137q28 48 29 114q1 68 -31 111t-89 71t-136 47t-157 37t-136 32q-60 16 -114 38q-260 103 -261 322q0 207 145 299q145 93 390 93q368 0 484 -184q38 -60 61 -140l-188 -33q-45 160 -215 199
q-62 14 -144 14z" />
    <glyph glyph-name="scedilla" unicode="&#x15f;" horiz-adv-x="1024" 
d="M275 814q-1 -78 81 -120q48 -24 152 -50q103 -26 148 -38q46 -12 88 -30q206 -85 206 -261q0 -91 -30 -151q-86 -173 -376 -183l-31 -81q94 -4 141 -44t47 -109q0 -181 -274 -181q-57 0 -90 4v98q49 -6 86 -6q147 0 147 79t-133 79h-29q-14 0 -28 -2l59 164
q-142 10 -215 50q-72 42 -110 94t-57 128l159 31q23 -87 95 -127t200 -41q264 0 264 168q0 88 -87 133q-42 20 -100 36t-126 34q-176 46 -246 94q-116 77 -116 220q0 142 106 220t296 77q190 0 296 -63t133 -202l-162 -20q-32 149 -263 149t-231 -149z" />
    <glyph glyph-name="Scaron" unicode="&#x160;" horiz-adv-x="1366" 
d="M692 1286q-347 0 -347 -223q0 -112 117 -171q69 -34 205 -65q137 -31 201 -47t123 -36q134 -49 208 -130q73 -81 73 -225q0 -289 -322 -379q-110 -30 -260 -30q-515 0 -597 358l185 37q63 -246 419 -246q275 1 357 137q28 48 29 114q1 68 -31 111t-89 71t-136 47t-157 37
t-136 32q-60 16 -114 38q-260 103 -261 322q0 207 145 299q145 93 390 93q368 0 484 -184q38 -60 61 -140l-188 -33q-45 160 -215 199q-62 14 -144 14zM371 1790h104l232 -139h2l219 139h105v-21l-224 -239h-204l-234 239v21z" />
    <glyph glyph-name="scaron" unicode="&#x161;" horiz-adv-x="1024" 
d="M275 814q-1 -78 81 -120q48 -24 152 -50q103 -26 148 -38q46 -12 88 -30q206 -85 206 -261q0 -168 -115 -252q-115 -83 -324 -83q-291 0 -397 146q-38 52 -57 128l159 31q23 -87 95 -127t200 -41q264 0 264 168q0 88 -87 133q-42 20 -100 36t-126 34q-176 46 -246 94
q-116 77 -116 220q0 142 106 220t296 77q190 0 296 -63t133 -202l-162 -20q-32 149 -263 149t-231 -149zM173 1491h104l232 -169h2l219 169h105v-20l-224 -270h-204l-234 270v20z" />
    <glyph glyph-name="Tcommaaccent" unicode="&#x162;" horiz-adv-x="1251" 
d="M720 1253v-1253h-190v1253h-484v156h1158v-156h-484zM723 -193q0 -87 -22 -141t-62 -100h-117q94 100 94 180h-88v156h195v-95z" />
    <glyph glyph-name="tcommaaccent" unicode="&#x163;" horiz-adv-x="569" 
d="M156 229v722h-125v131h132l53 242h120v-242h200v-131h-200v-683q0 -78 26 -110t75 -31q50 0 117 14v-133q-89 -24 -182 -24q-216 0 -216 245zM443 -193q0 -87 -22 -141t-62 -100h-117q94 100 94 180h-88v156h195v-95z" />
    <glyph glyph-name="Tcaron" unicode="&#x164;" horiz-adv-x="1251" 
d="M720 1253v-1253h-190v1253h-484v156h1158v-156h-484zM289 1790h104l232 -139h2l219 139h105v-21l-224 -239h-204l-234 239v21z" />
    <glyph glyph-name="tcaron" unicode="&#x165;" horiz-adv-x="768" 
d="M156 229v722h-125v131h132l53 242h120v-242h200v-131h-200v-683q0 -78 26 -110t75 -31q50 0 117 14v-133q-89 -24 -182 -24q-216 0 -216 245zM785 1378q0 -152 -84 -251h-117q94 100 94 190h-88v167h195v-106z" />
    <glyph glyph-name="Tbar" unicode="&#x166;" horiz-adv-x="1251" 
d="M720 1253v-452h281v-154h-281v-647h-190v647h-279v154h279v452h-484v156h1158v-156h-484z" />
    <glyph glyph-name="tbar" unicode="&#x167;" horiz-adv-x="569" 
d="M156 229v287h-125v131h125v304h-125v131h132l53 242h120v-242h200v-131h-200v-304h200v-131h-200v-248q0 -78 25.5 -109.5t75.5 -31.5t117 14v-133q-89 -24 -182 -24q-216 0 -216 245z" />
    <glyph glyph-name="Utilde" unicode="&#x168;" horiz-adv-x="1479" 
d="M158 512v897h191v-881q1 -302 229 -372q70 -22 152 -21q178 0 289 97q112 97 112 309v868h190v-879q0 -269 -165 -409q-165 -141 -422 -141q-253 0 -414 135q-162 135 -162 397zM889 1679q100 0 117 119h92q-13 -118 -41 -167q-27 -49 -64 -75t-88 -26t-93 18t-81 42
q-39 22 -75 40t-78 19q-87 0 -106 -119h-91q13 120 42 169q28 49 65 74q36 25 88 25t94 -18t81 -42q39 -22 73 -40t65 -19z" />
    <glyph glyph-name="utilde" unicode="&#x169;" 
d="M997 231q0 -189 6 -231h-170q-1 5 -2 27q-1 21 -3 69t-3 89h-3q-113 -205 -325 -205q-200 0 -282 89t-82 292v721h181v-686q0 -156 48 -217q48 -60 176 -60q127 0 203 88t76 248v627h180v-851zM731 1350q100 0 117 119h92q-13 -118 -41 -167q-27 -50 -64 -76t-88 -25
t-93 19t-81 40t-75 42q-36 18 -78 18q-87 0 -106 -119h-91q13 120 42 169q28 49 65 74q36 25 88 25q52 -1 94 -19t81 -40t73 -42q34 -18 65 -18z" />
    <glyph glyph-name="Umacron" unicode="&#x16a;" horiz-adv-x="1479" 
d="M158 512v897h191v-881q1 -302 229 -372q70 -22 152 -21q178 0 289 97q112 97 112 309v868h190v-879q0 -269 -165 -409q-165 -141 -422 -141q-253 0 -414 135q-162 135 -162 397zM1015 1565h-549v127h549v-127z" />
    <glyph glyph-name="umacron" unicode="&#x16b;" 
d="M997 231q0 -189 6 -231h-170q-1 5 -2 27q-1 21 -3 69t-3 89h-3q-113 -205 -325 -205q-200 0 -282 89t-82 292v721h181v-686q0 -156 48 -217q48 -60 176 -60q127 0 203 88t76 248v627h180v-851zM840 1236h-549v127h549v-127z" />
    <glyph glyph-name="Ubreve" unicode="&#x16c;" horiz-adv-x="1479" 
d="M158 512v897h191v-881q1 -302 229 -372q70 -22 152 -21q178 0 289 97q112 97 112 309v868h190v-879q0 -269 -165 -409q-165 -141 -422 -141q-253 0 -414 135q-162 135 -162 397zM739 1666q179 0 216 113h117q-31 -169 -200 -229q-58 -20 -133 -20q-141 0 -228 72
t-105 177h117q37 -113 216 -113z" />
    <glyph glyph-name="ubreve" unicode="&#x16d;" 
d="M997 231q0 -189 6 -231h-170q-1 5 -2 27q-1 21 -3 69t-3 89h-3q-113 -205 -325 -205q-200 0 -282 89t-82 292v721h181v-686q0 -156 48 -217q48 -60 176 -60q127 0 203 88t76 248v627h180v-851zM565 1357q187 0 216 153h117q-31 -210 -200 -284q-58 -26 -133 -25
q-141 0 -228 89q-88 89 -105 220h117q29 -153 216 -153z" />
    <glyph glyph-name="Uring" unicode="&#x16e;" horiz-adv-x="1479" 
d="M158 512v897h191v-881q1 -302 229 -372q70 -22 152 -21q178 0 289 97q112 97 112 309v868h190v-879q0 -269 -165 -409q-165 -141 -422 -141q-253 0 -414 135q-162 135 -162 397zM835 1708q-39 39 -81 39q-70 0 -110 -39q-39 -40 -39 -82q0 -69 38 -109q38 -41 82 -41
q43 0 67 10t43 30q39 41 39 97t-39 95zM982 1613q0 -50 -19 -94t-52 -77t-77 -52t-94 -19t-94 19t-77 52t-52 77t-19 94t19 94q19 45 52 77t77 51t94 19t94 -19t77 -51t52 -77q19 -44 19 -94z" />
    <glyph glyph-name="uring" unicode="&#x16f;" 
d="M997 231q0 -189 6 -231h-170q-1 5 -2 27q-1 21 -3 69t-3 89h-3q-113 -205 -325 -205q-200 0 -282 89t-82 292v721h181v-686q0 -156 48 -217q48 -60 176 -60q127 0 203 88t76 248v627h180v-851zM664 1505q-40 39 -82 39q-70 0 -109 -39t-39 -81q0 -69 38 -110t82 -41
q44 1 68 11t42 29q39 41 39 97t-39 95zM811 1410q0 -50 -19 -94t-52 -77t-77 -52t-94 -19t-94 19t-77 52t-52 77t-19 94t19 94t52 76t77 52q44 19 94 19t94 -19q44 -20 77 -52t52 -76t19 -94z" />
    <glyph glyph-name="Uhungarumlaut" unicode="&#x170;" horiz-adv-x="1479" 
d="M158 512v897h191v-881q1 -302 229 -372q70 -22 152 -21q178 0 289 97q112 97 112 309v868h190v-879q0 -269 -165 -409q-165 -141 -422 -141q-253 0 -414 135q-162 135 -162 397zM792 1530v20l197 227h207v-29l-310 -218h-94zM445 1530v20l197 227h207v-29l-310 -218h-94z
" />
    <glyph glyph-name="uhungarumlaut" unicode="&#x171;" 
d="M997 231q0 -189 6 -231h-170q-1 5 -2 27q-1 21 -3 69t-3 89h-3q-113 -205 -325 -205q-200 0 -282 89t-82 292v721h181v-686q0 -156 48 -217q48 -60 176 -60q127 0 203 88t76 248v627h180v-851zM630 1201v20l217 287h207v-29l-330 -278h-94zM283 1201v20l217 287h207v-29
l-330 -278h-94z" />
    <glyph glyph-name="Uogonek" unicode="&#x172;" horiz-adv-x="1479" 
d="M624 -240q0 129 124 220h-17q-250 0 -411 135q-162 135 -162 397v897h191v-881q1 -302 229 -372q70 -22 152 -21q178 0 289 97q112 97 112 309v868h190v-879q0 -269 -173 -416q-96 -82 -236 -114q-96 -53 -134 -153q-14 -35 -13 -75t25 -65q24 -24 73 -24t111 24v-107
q-63 -27 -154 -27q-90 0 -143 51t-53 136z" />
    <glyph glyph-name="uogonek" unicode="&#x173;" 
d="M876 -427q-90 0 -144 51q-53 51 -53 135t50 147t105 94h-1q-1 5 -2 27q-1 21 -3 69t-3 89h-3q-113 -205 -325 -205q-200 0 -282 89t-82 292v721h181v-686q0 -156 48 -217q48 -60 176 -60q127 0 203 88t76 248v627h180v-851q0 -189 6 -231h-36q-95 -53 -133 -153
q-14 -35 -14 -75t24 -65q24 -24 74 -24q49 0 111 24v-107q-63 -27 -153 -27z" />
    <glyph glyph-name="Wcircumflex" unicode="&#x174;" horiz-adv-x="1933" 
d="M1511 0h-228l-244 895q-24 84 -70 301q-13 -58 -34 -151t-37 -150l-246 -895h-228l-415 1409h199l253 -895q45 -168 83 -346q14 68 26 116t19 79t15 61t14 58q8 28 14 50l245 877h183l245 -877q5 -22 13 -50t16 -58t14 -60t18 -78t27 -118q1 0 33 138t52 208l249 895h199
zM1295 1530h-105l-219 139h-2l-232 -139h-104v20l234 240h204l224 -240v-20z" />
    <glyph glyph-name="wcircumflex" unicode="&#x175;" horiz-adv-x="1479" 
d="M1174 0h-209l-173 698q-19 65 -52 236q-27 -137 -54 -240l-178 -694h-208l-303 1082h178l183 -735q8 -27 22 -93q13 -66 21 -105q9 37 17 71t16 66t14 53l196 743h193l189 -743q17 -63 46 -190q8 37 16 71t14 68q8 34 15 59l191 735h176zM1066 1201h-105l-219 169h-2
l-232 -169h-104v20l234 270h204l224 -270v-20z" />
    <glyph glyph-name="Ycircumflex" unicode="&#x176;" horiz-adv-x="1366" 
d="M777 0h-190v584l-542 825h210l429 -671l427 671h210l-544 -825v-584zM1009 1530h-105l-219 139h-2l-232 -139h-104v20l234 240h204l224 -240v-20z" />
    <glyph glyph-name="ycircumflex" unicode="&#x177;" horiz-adv-x="1024" 
d="M151 -285q168 0 266 247l17 43l-429 1077h192l228 -598q9 -27 25 -72t43 -123t30 -93q6 22 46 130q39 108 49 138l212 618h190l-416 -1082q-85 -218 -166 -310q-101 -115 -247 -115q-74 0 -124 11v135q38 -6 84 -6zM844 1201h-105l-219 169h-2l-232 -169h-104v20l234 270
h204l224 -270v-20z" />
    <glyph glyph-name="Ydieresis" unicode="&#x178;" horiz-adv-x="1366" 
d="M777 0h-190v584l-542 825h210l429 -671l427 671h210l-544 -825v-584zM405 1530v184h165v-184h-165zM799 1530v184h163v-184h-163z" />
    <glyph glyph-name="Zacute" unicode="&#x179;" horiz-adv-x="1251" 
d="M1187 0h-1122v143l858 1110h-785v156h1002v-139l-858 -1114h905v-156zM488 1530v20l217 226h207v-29l-310 -217h-114z" />
    <glyph glyph-name="zacute" unicode="&#x17a;" horiz-adv-x="1024" 
d="M49 0v137l661 806h-621v139h824v-137l-662 -806h699v-139h-901zM381 1201v20l217 287h207v-29l-330 -278h-94z" />
    <glyph glyph-name="Zdotaccent" unicode="&#x17b;" horiz-adv-x="1251" 
d="M1187 0h-1122v143l858 1110h-785v156h1002v-139l-858 -1114h905v-156zM536 1530v172h180v-172h-180z" />
    <glyph glyph-name="zdotaccent" unicode="&#x17c;" horiz-adv-x="1024" 
d="M49 0v137l661 806h-621v139h824v-137l-662 -806h699v-139h-901zM409 1237v172h180v-172h-180z" />
    <glyph glyph-name="Zcaron" unicode="&#x17d;" horiz-adv-x="1251" 
d="M1187 0h-1122v143l858 1110h-785v156h1002v-139l-858 -1114h905v-156zM312 1790h104l232 -139h2l219 139h105v-21l-224 -239h-204l-234 239v21z" />
    <glyph glyph-name="zcaron" unicode="&#x17e;" horiz-adv-x="1024" 
d="M49 0v137l661 806h-621v139h824v-137l-662 -806h699v-139h-901zM156 1491h104l232 -169h2l219 169h105v-20l-224 -270h-204l-234 270v20z" />
    <glyph glyph-name="longs" unicode="&#x17f;" horiz-adv-x="455" 
d="M318 1179v-1179h-180v1204q0 132 57.5 205t206.5 73q75 0 127 -12v-137q-45 8 -100 8q-111 0 -111 -162z" />
    <glyph glyph-name="florin" unicode="&#x192;" 
d="M729 1288.5q-32 -38.5 -50 -129.5l-26 -137h211l-25 -131h-213l-254 -1325h-180l254 1325h-152l27 131h151l29 152q27 135 95 207.5t218 72.5q79 0 149 -20l-31 -122q-51 15 -111 15t-92 -38.5z" />
    <glyph glyph-name="Aringacute" unicode="&#x1fa;" horiz-adv-x="1366" 
d="M571 1657v16l217 181h207v-23l-310 -174h-114zM779 1477.5q-39 35.5 -81 35.5q-71 0 -110 -35.5t-39 -73.5t22.5 -85.5t103.5 -50.5h9q57 0 95.5 37t38.5 87t-39 85.5zM768 923q-27 61 -54.5 136t-28.5 79q-2 -4 -18.5 -53t-64.5 -163l-180 -417h527zM442 1392
q0 45 19 84.5t52 69t77 46.5t119 17t146 -63.5t71 -153t-71 -154.5q-16 -15 -34 -26l541 -1212h-195l-161 371h-642l-162 -371h-198l548 1209q-60 34 -85 86t-25 97z" />
    <glyph glyph-name="aringacute" unicode="&#x1fb;" 
d="M454 115q161 0 252 105t91 225v89l-197 -4q-157 -2 -216 -35q-60 -33 -86 -78t-26 -125t48 -129q48 -48 134 -48zM1010 -10q-111 0 -156 53t-51 164h-6q-64 -114 -152 -170q-88 -57 -241 -57t-235 86t-82 236q1 196 147 283q111 66 320 71l243 4v59q1 193 -129 233
q-44 14 -100 13q-116 0 -174 -37q-59 -37 -71 -135l-188 17q33 213 250 272q-58 68 -58 163t71 165t171 70q99 0 171 -70q71 -70 71 -167q0 -96 -61 -165q229 -71 229 -340v-466q0 -80 21 -120t80 -41q26 0 59 7v-112q-68 -16 -129 -16zM664 1334q-40 39 -82 39
q-70 0 -109 -39q-39 -40 -39 -82q0 -69 38 -109q38 -41 82 -41t68 10t42 30q39 41 39 97t-39 95zM427 1547v20l217 287h207v-29l-330 -278h-94z" />
    <glyph glyph-name="AEacute" unicode="&#x1fc;" horiz-adv-x="2048" 
d="M969 1262h-151q-1 -2 -9 -20t-19 -43q-10 -25 -24 -54t-26 -55t-21 -44q-9 -19 -11 -24l-217 -461h478v701zM969 0v412h-548l-198 -412h-199l686 1409h1209v-156h-759v-452h699v-154h-699v-491h800v-156h-991zM1068 1530v20l217 226h207v-29l-310 -217h-114z" />
    <glyph glyph-name="aeacute" unicode="&#x1fd;" horiz-adv-x="1821" 
d="M1250 969q-178 -1 -249 -167q-27 -64 -31 -161h574q-15 171 -87 249t-207 79zM251 281q0 -69 50 -117q49 -48 141 -49q167 0 256 104q88 104 88 226v89l-195 -4q-213 -6 -287 -82q-52 -54 -53 -167zM1253 1102q477 0 477 -575v-24h-762v-17q4 -266 160 -344
q54 -28 152 -27q98 0 168 47t95 119l158 -45q-97 -256 -429 -256q-333 0 -435 257q-68 -120 -167 -188q-99 -69 -267 -69q-169 0 -253 86t-84 236q0 346 480 354l240 4v59q0 135 -55 190q-55 56 -174 56q-120 0 -165 -27q-44 -26 -64 -60t-26 -85l-188 17q46 292 444 292
q250 0 349 -139q118 139 346 139zM759 1201v20l217 287h207v-29l-330 -278h-94z" />
    <glyph glyph-name="Oslashacute" unicode="&#x1fe;" horiz-adv-x="1593" 
d="M797 1274q-247 0 -377 -151q-129 -151 -129 -396q0 -246 101 -394l707 853q-124 88 -302 88zM795 135q254 0 379 156q126 156 126 400t-98 388l-709 -853q122 -91 302 -91zM1323 1224q172 -190 172 -518t-186 -527t-514 -199q-246 0 -414 112l-120 -145h-190l200 241
q-174 192 -174 525t183 525t517 192q247 0 414 -110l121 146h192zM659 1530v20l217 226h207v-29l-310 -217h-114z" />
    <glyph glyph-name="oslashacute" unicode="&#x1ff;" horiz-adv-x="1251" 
d="M840 888q-67 81 -211 81t-219 -96q-76 -96 -76 -331q0 -130 24 -215zM417 201q68 -88 212 -88q143 0 218 95q76 95 76 334q0 129 -23 221zM1112 520q0 -262 -125 -401t-363 -139q-195 0 -313 98l-100 -116h-167l184 214q-83 138 -83 366q0 560 485 560q201 0 316 -91
l91 105h167l-173 -201q81 -133 81 -395zM506 1201v20l217 287h207v-29l-330 -278h-94z" />
    <glyph glyph-name="circumflex" unicode="&#x2c6;" horiz-adv-x="682" 
d="M662 1201h-105l-219 169h-2l-232 -169h-104v20l234 270h204l224 -270v-20z" />
    <glyph glyph-name="caron" unicode="&#x2c7;" horiz-adv-x="682" 
d="M0 1491h104l232 -169h2l219 169h105v-20l-224 -270h-204l-234 270v20z" />
    <glyph glyph-name="uni02C9" unicode="&#x2c9;" horiz-adv-x="682" 
d="M600 1236h-549v127h549v-127z" />
    <glyph glyph-name="breve" unicode="&#x2d8;" horiz-adv-x="682" 
d="M297.5 1357q187.5 0 216.5 153h117q-31 -209 -144.5 -259t-188.5 -50q-141 0 -228.5 88.5t-104.5 220.5h117q28 -153 215.5 -153z" />
    <glyph glyph-name="dotaccent" unicode="&#x2d9;" horiz-adv-x="682" 
d="M156 1237v172h180v-172h-180z" />
    <glyph glyph-name="ring" unicode="&#x2da;" horiz-adv-x="682" 
d="M387.5 1505q-39.5 39 -81.5 39q-70 0 -109 -39t-39 -81q0 -69 38.5 -110t81.5 -41t67.5 10.5t53 40.5t28.5 86t-39.5 95zM535 1410q0 -50 -19 -94t-52 -77t-77 -52t-94 -19t-94 19t-77 52t-52 77t-19 94t19 94t52 76.5t77 51.5t94 19t94 -19t77 -51.5t52 -76.5t19 -94z
" />
    <glyph glyph-name="ogonek" unicode="&#x2db;" horiz-adv-x="682" 
d="M133 -376q-53 51 -53 135t50 147.5t105 93.5h133q-95 -53 -121 -120.5t-26 -107.5t24.5 -64.5t73.5 -24.5t111 24v-107q-63 -27 -154 -27q-90 0 -143 51z" />
    <glyph glyph-name="tilde" unicode="&#x2dc;" horiz-adv-x="682" 
d="M485 1350q100 0 117 119h92q-13 -118 -40.5 -167.5t-64.5 -75t-88 -25.5t-93 18.5t-81 41t-74.5 41t-78.5 18.5q-87 0 -106 -119h-91q13 120 41.5 169t65 74t88.5 25t94 -18.5t81 -41t73.5 -41t64.5 -18.5z" />
    <glyph glyph-name="hungarumlaut" unicode="&#x2dd;" horiz-adv-x="682" 
d="M369 1201v20l217 287h207v-29l-330 -278h-94zM22 1201v20l217 287h207v-29l-330 -278h-94z" />
    <glyph glyph-name="tonos" unicode="&#x384;" horiz-adv-x="682" 
d="M205 1218v33l69 292h207v-37l-201 -288h-75z" />
    <glyph glyph-name="dieresistonos" unicode="&#x385;" horiz-adv-x="682" 
d="M501 1231v172h150v-172h-150zM29 1231v172h150v-172h-150zM250 1200v33l69 368h187v-37l-181 -364h-75z" />
    <glyph glyph-name="Alphatonos" unicode="&#x386;" horiz-adv-x="1367" 
d="M768 1026q-28 69 -47 129q-19 61 -27 83t-9 27q-2 -5 -9 -28q-25 -83 -74 -213l-180 -463h527zM1167 0l-161 412h-642l-162 -412h-198l575 1409h217l566 -1409h-195zM57 1086v33l69 292h207v-37l-201 -288h-75z" />
    <glyph glyph-name="anoteleia" unicode="&#x387;" horiz-adv-x="569" 
d="M187 446v220h195v-220h-195z" />
    <glyph glyph-name="Epsilontonos" unicode="&#x388;" horiz-adv-x="1606" 
d="M408 0v1409h1069v-156h-878v-452h818v-154h-818v-491h919v-156h-1110zM-11 1086v33l69 292h207v-37l-201 -288h-75z" />
    <glyph glyph-name="Etatonos" unicode="&#x389;" horiz-adv-x="1716" 
d="M1358 0v653h-762v-653h-191v1409h191v-596h762v596h191v-1409h-191zM-14 1086v33l69 292h207v-37l-201 -288h-75z" />
    <glyph glyph-name="Iotatonos" unicode="&#x38a;" horiz-adv-x="786" 
d="M406 0v1409h191v-1409h-191zM-24 1086v33l69 292h207v-37l-201 -288h-75z" />
    <glyph glyph-name="Omicrontonos" unicode="&#x38c;" horiz-adv-x="1586" 
d="M1166 1122q-130 152 -376 152q-245 0 -374 -151t-129 -411q0 -261 131 -419t379 -158t373 156q126 156 126 418q0 261 -130 413zM1305 179q-186 -199 -520 -199q-333 0 -512 201q-180 201 -180 533q0 331 183 524q183 192 517 192q333 0 515 -194q183 -194 183 -526
t-186 -531zM-69 1086v33l69 292h207v-37l-201 -288h-75z" />
    <glyph glyph-name="Upsilontonos" unicode="&#x38e;" horiz-adv-x="1752" 
d="M1163 0h-190v584l-542 825h210l429 -671l427 671h210l-544 -825v-584zM65 1086v33l69 292h207v-37l-201 -288h-75z" />
    <glyph glyph-name="Omegatonos" unicode="&#x38f;" horiz-adv-x="1541" 
d="M549 145q-424 231 -424 677q0 126 45 243t129 198q85 81 205 124t271 43q303 0 476 -167q174 -167 174 -462q0 -207 -111 -376t-313 -280l208 11h244v-156h-589v224q366 194 366 564q0 232 -119 359t-336 127t-336 -127t-119 -359q0 -370 366 -564v-224h-589v156h244
q28 0 97 -4t111 -7zM-69 1086v33l69 292h207v-37l-201 -288h-75z" />
    <glyph glyph-name="iotadieresistonos" unicode="&#x390;" horiz-adv-x="455" 
d="M137 236v846h180v-855q0 -143 80 -227h-198q-62 66 -62 236zM392 1231v172h150v-172h-150zM-80 1231v172h150v-172h-150zM141 1200v33l69 368h187v-37l-181 -364h-75z" />
    <glyph glyph-name="Alpha" unicode="&#x391;" horiz-adv-x="1366" 
d="M768 1026q-28 69 -47 129q-19 61 -27 83t-9 27q-2 -5 -9 -28q-25 -83 -74 -213l-180 -463h527zM1167 0l-161 412h-642l-162 -412h-198l575 1409h217l566 -1409h-195z" />
    <glyph glyph-name="Beta" unicode="&#x392;" horiz-adv-x="1366" 
d="M1065 412q0 249 -350 249h-356v-508h371q243 0 310 134q25 50 25 125zM984 1044q0 114 -78 163t-226 49h-321v-446h321q237 0 288 137q16 43 16 97zM680 1409q496 0 496 -342q0 -189 -150 -279q-50 -30 -118 -45q254 -29 327 -217q23 -60 23 -148t-42 -164
q-119 -215 -476 -214h-572v1409h512z" />
    <glyph glyph-name="Gamma" unicode="&#x393;" horiz-adv-x="1128" 
d="M1071 1410v-156h-712v-1253h-191v1409h903z" />
    <glyph glyph-name="uni0394" unicode="&#x394;" horiz-adv-x="1368" 
d="M1106 156l-338 862q-33 84 -57.5 161.5t-25.5 85.5q-28 -111 -83 -249l-339 -860h843zM1306 0h-1245l1 141l517 1268h217l510 -1268v-141z" />
    <glyph glyph-name="Epsilon" unicode="&#x395;" horiz-adv-x="1366" 
d="M168 0v1409h1069v-156h-878v-452h818v-154h-818v-491h919v-156h-1110z" />
    <glyph glyph-name="Zeta" unicode="&#x396;" horiz-adv-x="1251" 
d="M1187 0h-1122v143l858 1110h-785v156h1002v-139l-858 -1114h905v-156z" />
    <glyph glyph-name="Eta" unicode="&#x397;" horiz-adv-x="1479" 
d="M1121 0v653h-762v-653h-191v1409h191v-596h762v596h191v-1409h-191z" />
    <glyph glyph-name="Theta" unicode="&#x398;" horiz-adv-x="1593" 
d="M502 794h587v-160h-587v160zM1169 1122q-131 152 -375 152q-245 0 -374 -150.5t-129 -411.5t131.5 -419t378.5 -158q248 0 373.5 156t125.5 418q0 261 -131 413zM1308.5 178.5q-186.5 -198.5 -519.5 -198.5t-512.5 201.5t-179.5 532.5t183 523.5t517 192.5
q333 0 515.5 -194t182.5 -526q0 -333 -186.5 -531.5z" />
    <glyph glyph-name="Iota" unicode="&#x399;" horiz-adv-x="569" 
d="M189 0v1409h191v-1409h-191z" />
    <glyph glyph-name="Kappa" unicode="&#x39a;" horiz-adv-x="1366" 
d="M359 0h-191v1409h191v-706l679 706h225l-600 -612l680 -797h-237l-563 680l-184 -140v-540z" />
    <glyph glyph-name="Lambda" unicode="&#x39b;" horiz-adv-x="1368" 
d="M1358 1h-201l-388 992q-17 47 -31.5 91.5t-27.5 82.5t-25 75l-32 -96t-52 -153l-390 -992h-201l575 1409h198z" />
    <glyph glyph-name="Mu" unicode="&#x39c;" horiz-adv-x="1706" 
d="M338 0h-170v1409h251l375 -977q45 -129 63 -224q8 43 34 123q26 81 34 101l368 977h245v-1409h-172v940q0 156 9 300q-49 -179 -88 -280l-364 -960h-134l-369 960q-6 15 -12 35t-29 85q-22 65 -48 160l7 -300v-940z" />
    <glyph glyph-name="Nu" unicode="&#x39d;" horiz-adv-x="1479" 
d="M338 936v-936h-170v1409h222l762 -1208q-12 196 -12 284v924h172v-1409h-230l-754 1200q10 -245 10 -264z" />
    <glyph glyph-name="Xi" unicode="&#x39e;" horiz-adv-x="1331" 
d="M1086 801v-154h-841v154h841zM1241 156v-156h-1151v156h1151zM125 1409h1081v-156h-1081v156z" />
    <glyph glyph-name="Omicron" unicode="&#x39f;" horiz-adv-x="1593" 
d="M1170 1122q-130 152 -376 152q-245 0 -374 -151t-129 -411q0 -261 131 -419t379 -158t373 156q126 156 126 418q0 261 -130 413zM1309 179q-186 -199 -520 -199q-333 0 -512 201q-180 201 -180 533q0 331 183 524q183 192 517 192q333 0 515 -194q183 -194 183 -526
t-186 -531z" />
    <glyph glyph-name="Pi" unicode="&#x3a0;" horiz-adv-x="1479" 
d="M1121 0v1248h-762v-1248h-191v1409h1144v-1409h-191z" />
    <glyph glyph-name="Rho" unicode="&#x3a1;" horiz-adv-x="1366" 
d="M746 700q320 0 320 283q0 273 -328 273h-379v-556h387zM1132 671q-126 -122 -359 -122h-414v-549h-191v1409h593q243 0 370 -114t127 -308t-126 -316z" />
    <glyph glyph-name="Sigma" unicode="&#x3a3;" horiz-adv-x="1266" 
d="M108 0v162l538 579l-521 507v161h999v-156h-784l458 -445v-124l-490 -528h877v-156h-1077z" />
    <glyph glyph-name="Tau" unicode="&#x3a4;" horiz-adv-x="1251" 
d="M720 1253v-1253h-190v1253h-484v156h1158v-156h-484z" />
    <glyph glyph-name="Upsilon" unicode="&#x3a5;" horiz-adv-x="1366" 
d="M777 0h-190v584l-542 825h210l429 -671l427 671h210l-544 -825v-584z" />
    <glyph glyph-name="Phi" unicode="&#x3a6;" horiz-adv-x="1634" 
d="M673 1099q-364 0 -364 -367q0 -275 134 -327t226 -52h56v746h-52zM1326 732q0 367 -368 367h-48v-746h56q271 0 315.5 145.5t44.5 233.5zM1382 364.5q-136 -148.5 -389 -148.5h-83v-227h-185v227h-83q-253 0 -389 148.5t-136 375.5q0 228 136.5 362.5t399.5 134.5h72v182
h185v-182h71q264 0 400.5 -134.5t136.5 -362.5q0 -227 -136 -375.5z" />
    <glyph glyph-name="Chi" unicode="&#x3a7;" horiz-adv-x="1366" 
d="M1112 0l-423 616l-432 -616h-211l536 732l-495 677h211l392 -553l381 553h211l-482 -670l523 -739h-211z" />
    <glyph glyph-name="Psi" unicode="&#x3a8;" horiz-adv-x="1711" 
d="M763 0v427h-83q-255 0 -395 148.5t-140 370.5v463h191v-467q0 -166 96.5 -270t274.5 -104h56v841h185v-841h56q183 0 277 103t94 271v467h191v-463q0 -221 -140.5 -370t-394.5 -149h-83v-427h-185z" />
    <glyph glyph-name="uni03A9" unicode="&#x3a9;" horiz-adv-x="1531" 
d="M539 145q-424 231 -424 677q0 126 45 243t129 198t204.5 124t347.5 43t400.5 -167.5t173.5 -461.5q0 -207 -110.5 -376t-313.5 -280l208 11h244v-156h-589v224q366 194 366 564q0 232 -119 359t-336 127t-336 -127t-119 -359q0 -370 366 -564v-224h-589v156h244
q28 0 97 -4t111 -7z" />
    <glyph glyph-name="Iotadieresis" unicode="&#x3aa;" horiz-adv-x="569" 
d="M189 0v1409h191v-1409h-191zM7 1530v184h165v-184h-165zM401 1530v184h163v-184h-163z" />
    <glyph glyph-name="Upsilondieresis" unicode="&#x3ab;" horiz-adv-x="1366" 
d="M408 1530v184h165v-184h-165zM802 1530v184h163v-184h-163zM777 0h-190l2 584l-544 825h205l434 -671l432 671h205l-544 -825v-584z" />
    <glyph glyph-name="alphatonos" unicode="&#x3ac;" horiz-adv-x="1184" 
d="M532 969q-133 0 -195 -99t-62 -328q-1 -330 133 -399q46 -24 107 -24q120 0 205 111t112 316q-59 423 -300 423zM86 538q0 282 108 423t310 141q200 0 306 -154q32 -46 52 -101h2q23 119 73 235h188q-73 -156 -122 -384q-15 -70 -20 -127q10 -353 111 -571h-183
q-46 117 -64 237h-4q-119 -257 -359 -257q-206 0 -302 138t-96 420zM494 1218v33l69 292h207v-37l-201 -288h-75z" />
    <glyph glyph-name="epsilontonos" unicode="&#x3ad;" horiz-adv-x="913" 
d="M285 818q-1 -114 103 -154q80 -30 255 -31v-135q-181 0 -251 -26q-69 -26 -102 -65q-33 -40 -33 -97q0 -100 54 -148t127 -48q117 0 199 50t132 111l105 -100q-160 -195 -434 -195t-348 188q-22 58 -22 122q0 118 76 191t188 83v2q-161 19 -214 153q-17 43 -17 99
q0 122 100 203t268 81q251 0 376 -185l-128 -88q-92 139 -247 139q-91 0 -139 -42t-48 -108zM407 1218v33l69 292h207v-37l-201 -288h-75z" />
    <glyph glyph-name="etatonos" unicode="&#x3ae;" 
d="M314 897h3q113 205 325 205q200 0 282 -89t82 -292v-1145h-181v1110q0 156 -48 217q-48 60 -176 60q-127 0 -203 -88t-76 -248v-627h-180v851q0 123 -36 231h170q38 -89 38 -185zM518 1218v33l69 292h207v-37l-201 -288h-75z" />
    <glyph glyph-name="iotatonos" unicode="&#x3af;" horiz-adv-x="455" 
d="M137 236v846h180v-855q0 -143 80 -227h-198q-62 66 -62 236zM158 1218v33l69 292h207v-37l-201 -288h-75z" />
    <glyph glyph-name="upsilondieresistonos" unicode="&#x3b0;" horiz-adv-x="1120" 
d="M1022 540q0 -106 -26 -215q-84 -345 -439 -345q-220 0 -322 105t-102 334v663h181v-669q0 -146 58 -220t199 -74q139 0 203 104q62 104 63 321q0 218 -73 437q-20 60 -41 101h188q111 -247 111 -542zM723 1231v172h150v-172h-150zM251 1231v172h150v-172h-150zM472 1200
v33l69 368h187v-37l-181 -364h-75z" />
    <glyph glyph-name="alpha" unicode="&#x3b1;" horiz-adv-x="1184" 
d="M532 969q-133 0 -195 -98.5t-62 -328.5q0 -330 90 -376.5t150 -46.5q120 0 205 111t112 316q-59 423 -300 423zM86 538q0 282 108.5 423t309.5 141t269.5 -100.5t88.5 -154.5h2q23 119 73 235h188q-73 -156 -105 -304.5t-37 -206.5q10 -353 111 -571h-183
q-46 117 -64 237h-4q-119 -257 -359 -257q-205 0 -301.5 138t-96.5 420z" />
    <glyph glyph-name="beta" unicode="&#x3b2;" horiz-adv-x="1178" 
d="M632 113q213 0 253 111.5t40 177.5q0 138 -82 219.5t-254 81.5v142q127 27 183.5 96.5t56.5 191.5q0 147 -85.5 178.5t-150.5 31.5q-138 0 -204.5 -75.5t-66.5 -246.5v-816q136 -92 310 -92zM1002 1135q0 -253 -223 -340q214 -41 266 -168t52 -219q0 -190 -113.5 -309
t-343.5 -119q-183 0 -318 94h-6q6 -114 6 -202v-297h-180v1452q0 237 114 347t340 110q297 0 351.5 -133.5t54.5 -215.5z" />
    <glyph glyph-name="gamma" unicode="&#x3b3;" horiz-adv-x="1024" 
d="M331 -424q25 192 89 435l-413 1071h192l245 -675q7 -22 32 -97.5t37 -139.5q22 91 74 235l239 677h191l-390 -1029q-75 -199 -105 -477h-191z" />
    <glyph glyph-name="delta" unicode="&#x3b4;" horiz-adv-x="1140" 
d="M86 473q0 393 465 553l-319 339v119h733v-132h-358q-25 0 -62.5 2.5t-58 3.5t-33.5 2l316 -324q138 -141 211 -264.5t73 -296.5q0 -224 -127.5 -359.5t-354.5 -135.5t-356 131t-129 362zM864 474q0 145 -64.5 253t-155.5 202q-256 -91 -312.5 -229t-56.5 -222
q0 -168 75 -266.5t221 -98.5q293 -1 293 361z" />
    <glyph glyph-name="epsilon" unicode="&#x3b5;" horiz-adv-x="913" 
d="M285 818q0 -115 91.5 -150t266.5 -35v-135q-181 0 -250.5 -25.5t-102.5 -65.5t-33 -97q0 -100 54 -148t127 -48q117 0 199.5 50t131.5 111l105 -100q-160 -195 -434 -195t-322 123t-48 187q0 118 76 191t188 83v2q-161 19 -196 107.5t-35 144.5q0 122 99.5 203t268.5 81
q251 0 376 -185l-128 -88q-92 139 -247 139q-91 0 -139 -42t-48 -108z" />
    <glyph glyph-name="zeta" unicode="&#x3b6;" horiz-adv-x="903" 
d="M277 379q0 -115 64.5 -157.5t163.5 -68.5q100 -27 229.5 -66.5t129.5 -207.5q0 -87 -36.5 -151t-46.5 -81l-126 56q55 73 55 141q0 85 -98 110.5t-148 37.5t-94 23.5t-112 41.5t-120 101t-52 196q0 390 573 999v4q-48 -4 -127 -4h-345v131h642v-127q-552 -623 -552 -978z
" />
    <glyph glyph-name="eta" unicode="&#x3b7;" 
d="M314 897h3q113 205 325 205q200 0 282 -89.5t82 -291.5v-1145h-181v1110q0 156 -48.5 216.5t-175.5 60.5t-203 -88.5t-76 -247.5v-627h-180v851q0 123 -36 231h170q38 -89 38 -185z" />
    <glyph glyph-name="theta" unicode="&#x3b8;" 
d="M573 1354q-131 0 -201 -123t-76 -427h547q-8 444 -108.5 497t-161.5 53zM566 113q129 0 200 124.5t77 435.5h-547q8 -447 110 -503.5t160 -56.5zM106 733q0 750 465 750q241 0 351.5 -186t110.5 -565q0 -380 -120 -566t-348 -186q-336 0 -397.5 280.5t-61.5 472.5z" />
    <glyph glyph-name="iota" unicode="&#x3b9;" horiz-adv-x="455" 
d="M137 236v846h180v-855q0 -143 80 -227h-198q-62 66 -62 236z" />
    <glyph glyph-name="kappa" unicode="&#x3ba;" horiz-adv-x="1024" 
d="M318 0h-180v1082h180v-525l475 525h211l-439 -465l462 -617h-211l-366 494l-132 -109v-385z" />
    <glyph glyph-name="lambda" unicode="&#x3bb;" horiz-adv-x="1024" 
d="M257 1484q113 0 181 -75t141 -268l427 -1141h-190l-207 577q-41 112 -65 214q-30 -90 -86 -216l-257 -575h-187l449 965l-36 99q-62 168 -98.5 222t-112.5 54q-29 0 -49 -10l-35 130q66 24 125 24z" />
    <glyph glyph-name="uni03BC" unicode="&#x3bc;" horiz-adv-x="1180" 
d="M320 438q0 -317 252 -317q132 0 201.5 94t69.5 250v617h181v-849q0 -191 6 -233h-168q-2 12 -2 24l-4 79q-4 67 -4 87h-4q-56 -110 -121 -160t-173 -50q-167 0 -234 122h-4q4 -43 4 -122v-373h-182v1475h182v-644z" />
    <glyph glyph-name="nu" unicode="&#x3bd;" horiz-adv-x="1024" 
d="M946 866q0 -205 -109.5 -433.5t-276.5 -432.5h-170l-390 1082h189l311 -928q266 347 266 683q0 135 -49 245h177q52 -97 52 -216z" />
    <glyph glyph-name="xi" unicode="&#x3be;" horiz-adv-x="917" 
d="M720 -156q0 84 -103 110t-153 38t-94 23.5t-112 41.5t-120 101t-52 196q0 166 113 293t348 163v2q-222 16 -273 112t-51 159q0 115 80.5 180.5t192.5 89.5v8q-96 -8 -254 -8h-74v131h634v-125q-179 -21 -256 -61.5t-111 -85.5t-34 -110q0 -116 95 -163t263 -62v-131
q-339 -44 -410.5 -163.5t-71.5 -193.5q0 -125 64.5 -167.5t163.5 -68.5q100 -27 234.5 -67t134.5 -207q0 -87 -36.5 -151t-46.5 -81l-126 56q55 73 55 141z" />
    <glyph glyph-name="omicron" unicode="&#x3bf;" 
d="M864 542q0 239 -72 333t-219 94t-222 -96q-76 -96 -76 -331q-1 -343 173 -409q52 -20 118 -20q66 -1 122 19t95 69q81 102 81 341zM1053 542q0 -284 -125 -423t-363 -139q-351 0 -447 314q-32 106 -32 248q0 560 485 560q370 0 454 -315q28 -105 28 -245z" />
    <glyph glyph-name="pi" unicode="&#x3c0;" horiz-adv-x="1413" 
d="M1129 -20q-120 0 -170 57t-50 190v724h-402v-72q0 -497 -98 -879h-188q110 440 110 871v80q-118 0 -179 -15t-73 -22v139q58 29 183 29h1061v-131h-234v-685q0 -83 18.5 -107.5t36 -31t39.5 -6.5t86 8v-129q-78 -20 -140 -20z" />
    <glyph glyph-name="rho" unicode="&#x3c1;" horiz-adv-x="1165" 
d="M312 260q118 -147 322 -147q119 0 187.5 109t68.5 310t-85.5 319.5t-229.5 118.5q-263 0 -263 -393v-317zM312 0v-425h-180v1006q0 242 119.5 382t334.5 140t356 -158t141 -412t-121 -403.5t-325 -149.5t-325 143h-4q4 -60 4 -123z" />
    <glyph glyph-name="sigma1" unicode="&#x3c2;" horiz-adv-x="987" 
d="M277 487q0 -83 16 -131t67.5 -96.5t240.5 -110.5q53 -17 188 -61t135 -209q0 -87 -36.5 -151t-46.5 -81l-126 56q55 73 55 141q0 77 -100 108.5t-164 49.5t-121 38t-129 59t-121 130t-49 267t92 343t200 215t190 48q136 0 205.5 -32.5t124.5 -89.5l-116 -119
q-95 100 -200 100q-189 0 -247 -195.5t-58 -278.5z" />
    <glyph glyph-name="sigma" unicode="&#x3c3;" horiz-adv-x="1264" 
d="M276 526q0 -413 298 -413q230 0 269.5 144t39.5 231q0 255 -124 463h-89q-175 0 -284.5 -107.5t-109.5 -317.5zM920 953q152 -228 152 -462t-126.5 -372.5t-366.5 -138.5t-366.5 142t-126.5 410t156 409t422 141h569v-131h-165q-46 0 -148 6v-4z" />
    <glyph glyph-name="tau" unicode="&#x3c4;" horiz-adv-x="809" 
d="M528 -20q-120 0 -170 57t-50 190v724h-27q-118 0 -179 -15t-73 -22v139q58 29 183 29h580v-131h-304v-685q0 -83 18.5 -107.5t36 -31t39.5 -6.5t86 8v-129q-78 -20 -140 -20z" />
    <glyph glyph-name="upsilon" unicode="&#x3c5;" horiz-adv-x="1120" 
d="M1022 540q0 -106 -55 -333t-410 -227q-220 0 -322 104.5t-102 334.5v663h181v-669q0 -146 58.5 -220t198.5 -74t203 104t63 321q0 218 -46.5 357.5t-67.5 180.5h188q111 -247 111 -542z" />
    <glyph glyph-name="phi" unicode="&#x3c6;" horiz-adv-x="1328" 
d="M886 971q-144 0 -144 -269v-583q162 7 236.5 116t74.5 317t-43.5 313.5t-123.5 105.5zM1108.5 136q-133.5 -141 -366.5 -154v-407h-170v407q-355 16 -421 219t-66 325q0 238 105.5 392t314.5 188l21 -136q-252 -55 -252 -429q0 -213 73.5 -313.5t224.5 -108.5v580
q0 193 77 299t240 106t258 -146t95 -413q0 -268 -133.5 -409z" />
    <glyph glyph-name="chi" unicode="&#x3c7;" horiz-adv-x="1075" 
d="M139 1104q100 0 153 -55t128 -211l142 -295l264 539h187l-368 -697l406 -809h-190l-319 663l-333 -663h-188l440 825l-170 343q-61 123 -96 171t-82 48q-27 0 -50 -10l-34 131q54 20 110 20z" />
    <glyph glyph-name="psi" unicode="&#x3c8;" horiz-adv-x="1460" 
d="M1142 436v646h182v-644q0 -242 -121 -349t-389 -109v-405h-170v405q-267 2 -388 109t-121 349v644h181v-646q0 -176 75.5 -245.5t252.5 -71.5v1221h170v-1221q178 2 253 70.5t75 246.5z" />
    <glyph glyph-name="omega" unicode="&#x3c9;" horiz-adv-x="1599" 
d="M272 512q0 -393 218 -393q109 0 168 86.5t59 243.5v252h166v-252q0 -157 57 -243.5t159 -86.5q181 0 204 151.5t23 237.5q0 178 -62.5 302.5t-191.5 153.5l23 139q207 -34 313.5 -201t106.5 -385q0 -390 -150.5 -463.5t-232.5 -73.5q-145 0 -221.5 67.5t-109.5 199.5h-4
q-67 -267 -317 -267q-190 0 -293.5 140.5t-103.5 377.5t106.5 404t313.5 201l23 -139q-128 -28 -191 -151.5t-63 -300.5z" />
    <glyph glyph-name="iotadieresis" unicode="&#x3ca;" horiz-adv-x="455" 
d="M137 236v846h180v-855q0 -143 80 -227h-198q-62 66 -62 236zM-51 1219v184h165v-184h-165zM343 1219v184h163v-184h-163z" />
    <glyph glyph-name="upsilondieresis" unicode="&#x3cb;" horiz-adv-x="1120" 
d="M1022 540q0 -106 -26 -215q-84 -345 -439 -345q-220 0 -322 105t-102 334v663h181v-669q0 -146 58 -220t199 -74q139 0 203 104q62 104 63 321q0 218 -73 437q-20 60 -41 101h188q111 -247 111 -542zM287 1219v184h165v-184h-165zM681 1219v184h163v-184h-163z" />
    <glyph glyph-name="omicrontonos" unicode="&#x3cc;" 
d="M864 542q0 239 -72 333t-219 94t-222 -96q-76 -96 -76 -331q-1 -343 173 -409q52 -20 118 -20q66 -1 122 19t95 69q81 102 81 341zM1053 542q0 -284 -125 -423t-363 -139q-351 0 -447 314q-32 106 -32 248q0 560 485 560q370 0 454 -315q28 -105 28 -245zM502 1218v33
l69 292h207v-37l-201 -288h-75z" />
    <glyph glyph-name="upsilontonos" unicode="&#x3cd;" horiz-adv-x="1120" 
d="M1022 540q0 -106 -26 -215q-84 -345 -439 -345q-220 0 -322 105t-102 334v663h181v-669q0 -146 58 -220t199 -74q139 0 203 104q62 104 63 321q0 218 -73 437q-20 60 -41 101h188q111 -247 111 -542zM457 1218v33l69 292h207v-37l-201 -288h-75z" />
    <glyph glyph-name="omegatonos" unicode="&#x3ce;" horiz-adv-x="1599" 
d="M272 512q0 -393 218 -393q109 0 168 87t59 243v252h166v-252q0 -157 57 -243t159 -87q181 1 216 231q11 72 11 158q0 178 -63 303q-63 124 -191 153l23 139q207 -34 313 -201q107 -167 107 -385q0 -390 -228 -501q-73 -36 -155 -36q-145 0 -222 67q-76 67 -109 200h-4
q-67 -267 -317 -267q-190 0 -294 140t-103 378q0 237 107 404t313 201l23 -139q-128 -28 -191 -151q-63 -124 -63 -301zM716 1218v33l69 292h207v-37l-201 -288h-75z" />
    <glyph glyph-name="afii10023" unicode="&#x401;" horiz-adv-x="1367" 
d="M168 0v1409h1069v-156h-878v-452h818v-154h-818v-491h919v-156h-1110zM422 1530v184h165v-184h-165zM816 1530v184h163v-184h-163z" />
    <glyph glyph-name="afii10051" unicode="&#x402;" horiz-adv-x="1771" 
d="M1615 371q0 -391 -352 -391q-148 0 -214 47.5t-95 75.5l111 123q73 -65 118 -78.5t78 -13.5q84 0 124 50.5t40 161.5v219q0 119 -64.5 180t-206.5 61t-271.5 -21t-162.5 -29v-756h-190v1253h-484v156h1158v-156h-484v-352q278 59 478 59t308.5 -93.5t108.5 -281.5v-214z
" />
    <glyph glyph-name="afii10052" unicode="&#x403;" horiz-adv-x="1109" 
d="M1071 1410v-156h-712v-1253h-191v1409h903zM441 1530v20l217 226h207v-29l-310 -217h-114z" />
    <glyph glyph-name="afii10053" unicode="&#x404;" horiz-adv-x="1472" 
d="M791 -20q-331 0 -509 200.5t-178 532.5t180.5 524.5t505.5 192.5q455 0 598 -349l-181 -60q-70 174 -198.5 213.5t-228.5 39.5q-206 0 -332.5 -129t-146.5 -353h654v-154h-654q18 -227 151 -364t348 -137q302 0 445 292l156 -77q-188 -372 -610 -372z" />
    <glyph glyph-name="afii10054" unicode="&#x405;" horiz-adv-x="1366" 
d="M692 1286q-347 0 -347 -223q0 -112 117 -171q69 -34 205 -65q137 -31 201 -47t123 -36q134 -49 208 -130q73 -81 73 -225q0 -289 -322 -379q-110 -30 -260 -30q-515 0 -597 358l185 37q63 -246 419 -246q275 1 357 137q28 48 29 114q1 68 -31 111t-89 71t-136 47t-157 37
t-136 32q-60 16 -114 38q-260 103 -261 322q0 207 145 299q145 93 390 93q368 0 484 -184q38 -60 61 -140l-188 -33q-45 160 -215 199q-62 14 -144 14z" />
    <glyph glyph-name="afii10055" unicode="&#x406;" horiz-adv-x="569" 
d="M189 0v1409h191v-1409h-191z" />
    <glyph glyph-name="afii10056" unicode="&#x407;" horiz-adv-x="569" 
d="M189 0v1409h191v-1409h-191zM7 1530v184h165v-184h-165zM401 1530v184h163v-184h-163z" />
    <glyph glyph-name="afii10057" unicode="&#x408;" horiz-adv-x="1024" 
d="M458 135q104 -1 164 71t60 210v837h-271v156h461v-989q0 -203 -110 -321q-110 -119 -305 -119q-358 0 -425 370l187 31q28 -185 159 -232q39 -14 80 -14z" />
    <glyph glyph-name="afii10058" unicode="&#x409;" horiz-adv-x="2165" 
d="M1867 410q0 122 -82 186.5t-246 64.5h-359v-510h367q164 0 242 68.5t78 190.5zM71 139q33 0 59 11.5t61 60t73.5 213.5t78.5 475l67 510h770v-596h382q243 0 370 -107.5t127 -290.5t-125.5 -299t-359.5 -116h-585v1249h-416l-49 -368q-47 -364 -80.5 -501t-63.5 -205.5
t-86 -129.5t-190 -61q-58 0 -86 10v152q20 -7 53 -7z" />
    <glyph glyph-name="afii10059" unicode="&#x40a;" horiz-adv-x="2069" 
d="M1771 410q0 122 -82 186.5t-246 64.5h-319v-510h327q164 0 242 68.5t78 190.5zM1837.5 116q-125.5 -116 -359.5 -116h-545v653h-574v-653h-191v1409h191v-596h574v596h191v-596h342q243 0 370 -107.5t127 -290.5t-125.5 -299z" />
    <glyph glyph-name="afii10060" unicode="&#x40b;" horiz-adv-x="1749" 
d="M1140 960q443 0 443 -365v-595h-190v575q0 122 -63.5 176.5t-211.5 54.5t-398 -50v-756h-190v1253h-484v156h1203v-156h-529v-352q266 59 420 59z" />
    <glyph glyph-name="afii10061" unicode="&#x40c;" horiz-adv-x="1193" 
d="M168 1409h191v-619q111 0 173 55q61 55 197 259l205 305h200l-283 -410q-131 -189 -179 -224l509 -775h-222l-427 683q-81 -38 -173 -38v-645h-191v1409zM500 1530v20l217 226h207v-29l-310 -217h-114z" />
    <glyph glyph-name="afii10062" unicode="&#x40e;" horiz-adv-x="1301" 
d="M354 -20q-164 0 -265 70l81 144q184 -115 288 -12q41 41 121 184l49 89l-573 954h218l449 -784l384 784h205l-577 -1091q-103 -194 -161 -246q-100 -92 -219 -92zM1057 1850q-11 -320 -367 -320t-367 320h164q12 -199 203 -199t203 199h164z" />
    <glyph glyph-name="afii10145" unicode="&#x40f;" horiz-adv-x="1472" 
d="M646 -408v408h-478v1409h191v-1249h759v1249h186v-1409h-478v-408h-180z" />
    <glyph glyph-name="afii10017" unicode="&#x410;" horiz-adv-x="1366" 
d="M768 1026q-28 69 -47 129q-19 61 -27 83t-9 27q-2 -5 -9 -28q-25 -83 -74 -213l-180 -463h527zM1167 0l-161 412h-642l-162 -412h-198l575 1409h217l566 -1409h-195z" />
    <glyph glyph-name="afii10018" unicode="&#x411;" horiz-adv-x="1344" 
d="M1046 410q0 122 -82 186.5t-246 64.5h-359v-510h367q164 0 242 68.5t78 190.5zM1112.5 116q-125.5 -116 -359.5 -116h-585v1409h926v-156h-735v-440h382q243 0 370 -107.5t127 -290.5t-125.5 -299z" />
    <glyph glyph-name="afii10019" unicode="&#x412;" horiz-adv-x="1366" 
d="M1065 412q0 249 -350 249h-356v-508h371q243 0 310 134q25 50 25 125zM984 1044q0 114 -78 163t-226 49h-321v-446h321q237 0 288 137q16 43 16 97zM680 1409q496 0 496 -342q0 -189 -150 -279q-50 -30 -118 -45q254 -29 327 -217q23 -60 23 -148t-42 -164
q-119 -215 -476 -214h-572v1409h512z" />
    <glyph glyph-name="afii10020" unicode="&#x413;" horiz-adv-x="1109" 
d="M1071 1410v-156h-712v-1253h-191v1409h903z" />
    <glyph glyph-name="afii10021" unicode="&#x414;" horiz-adv-x="1387" 
d="M988 160v1089h-375l-49 -368q-71 -532 -190 -721h614zM1174 160h175v-568h-180v408h-974v-408h-180v568h144q154 192 224 739l67 510h724v-1249z" />
    <glyph glyph-name="afii10022" unicode="&#x415;" horiz-adv-x="1366" 
d="M168 0v1409h1069v-156h-878v-452h818v-154h-818v-491h919v-156h-1110z" />
    <glyph glyph-name="afii10024" unicode="&#x416;" horiz-adv-x="1891" 
d="M850 645q-50 0 -103 15t-70 23l-427 -683h-222l509 775q-48 35 -179 224l-283 410h200l205 -305q136 -204 184 -247t88.5 -55t97.5 -12v619h191v-619q111 0 172.5 55t197.5 259l205 305h200l-283 -410q-131 -189 -179 -224l509 -775h-222l-427 683q-81 -38 -173 -38v-645
h-191v645z" />
    <glyph glyph-name="afii10025" unicode="&#x417;" horiz-adv-x="1237" 
d="M630 1429q214 0 339 -100t125 -268q0 -195 -108.5 -252.5t-171.5 -72.5q223 -33 272.5 -145t49.5 -196q0 -181 -136.5 -298t-378.5 -117q-320 0 -419 134.5t-135 213.5l165 77q119 -272 382 -272q153 0 241 71.5t88 201.5t-96 189t-298 59h-71v148h71q181 0 267.5 59.5
t86.5 175.5t-74 176.5t-206 60.5q-207 0 -268.5 -99t-80.5 -148l-178 61q137 341 534 341z" />
    <glyph glyph-name="afii10026" unicode="&#x418;" horiz-adv-x="1472" 
d="M168 0v1409h172v-924q0 -114 -8 -274l750 1198h222v-1409h-170v936q0 122 6 254l-742 -1190h-230z" />
    <glyph glyph-name="afii10027" unicode="&#x419;" horiz-adv-x="1472" 
d="M168 0v1409h172v-924q0 -114 -8 -274l750 1198h222v-1409h-170v936q0 122 6 254l-742 -1190h-230zM1109 1850q-11 -320 -367 -320t-367 320h164q12 -199 203 -199t203 199h164z" />
    <glyph glyph-name="afii10028" unicode="&#x41a;" horiz-adv-x="1193" 
d="M168 1409h191v-619q111 0 172.5 55t197.5 259l205 305h200l-283 -410q-131 -189 -179 -224l509 -775h-222l-427 683q-81 -38 -173 -38v-645h-191v1409z" />
    <glyph glyph-name="afii10029" unicode="&#x41b;" horiz-adv-x="1344" 
d="M71 139q33 0 59 11.5t61 60t73.5 213.5t78.5 475l67 510h767v-1409h-186v1249h-418l-49 -368q-47 -364 -80.5 -501t-63.5 -205.5t-86 -129.5t-190 -61q-58 0 -86 10v152q20 -7 53 -7z" />
    <glyph glyph-name="afii10030" unicode="&#x41c;" horiz-adv-x="1706" 
d="M338 0h-170v1409h251l375 -977q45 -129 63 -224q8 43 34 123q26 81 34 101l368 977h245v-1409h-172v940q0 156 9 300q-49 -179 -88 -280l-364 -960h-134l-369 960q-6 15 -12 35t-29 85q-22 65 -48 160l7 -300v-940z" />
    <glyph glyph-name="afii10031" unicode="&#x41d;" horiz-adv-x="1479" 
d="M1121 0v653h-762v-653h-191v1409h191v-596h762v596h191v-1409h-191z" />
    <glyph glyph-name="afii10032" unicode="&#x41e;" horiz-adv-x="1593" 
d="M1170 1122q-130 152 -376 152q-245 0 -374 -151t-129 -411q0 -261 131 -419t379 -158t373 156q126 156 126 418q0 261 -130 413zM1309 179q-186 -199 -520 -199q-333 0 -512 201q-180 201 -180 533q0 331 183 524q183 192 517 192q333 0 515 -194q183 -194 183 -526
t-186 -531z" />
    <glyph glyph-name="afii10033" unicode="&#x41f;" horiz-adv-x="1472" 
d="M1119 0v1248h-762v-1248h-191v1409h1144v-1409h-191z" />
    <glyph glyph-name="afii10034" unicode="&#x420;" horiz-adv-x="1366" 
d="M746 700q320 0 320 283q0 273 -328 273h-379v-556h387zM1132 671q-126 -122 -359 -122h-414v-549h-191v1409h593q243 0 370 -114t127 -308t-126 -316z" />
    <glyph glyph-name="afii10035" unicode="&#x421;" horiz-adv-x="1479" 
d="M1207 1021q-101 253 -431 253q-104 0 -196 -40t-156 -114q-62 -74 -94 -178t-32 -231q0 -257 135 -415q135 -159 367 -159q296 0 445 293l156 -78q-127 -264 -397 -344q-96 -28 -240 -28t-272 54t-216 152q-172 194 -172 527q0 332 180 524q180 193 506 193
q455 0 598 -349z" />
    <glyph glyph-name="afii10036" unicode="&#x422;" horiz-adv-x="1251" 
d="M720 1253v-1253h-190v1253h-484v156h1158v-156h-484z" />
    <glyph glyph-name="afii10037" unicode="&#x423;" horiz-adv-x="1301" 
d="M354 -20q-164 0 -265 70l81 144q183 -115 256 -43t153 215l49 89l-573 954h218l449 -784l384 784h205l-577 -1091q-103 -194 -182 -266t-198 -72z" />
    <glyph glyph-name="afii10038" unicode="&#x424;" horiz-adv-x="1557" 
d="M674 1099q-364 0 -364 -367q0 -275 134 -327t226 -52h13v746h-9zM1247 732q0 367 -368 367h-5v-746h13q271 0 315.5 145.5t44.5 233.5zM1303 364.5q-136 -148.5 -389 -148.5h-40v-227h-191v227h-40q-253 0 -389 148.5t-136 375.5q0 228 136.5 362.5t399.5 134.5h29v182
h191v-182h28q264 0 400.5 -134.5t136.5 -362.5q0 -227 -136 -375.5z" />
    <glyph glyph-name="afii10039" unicode="&#x425;" horiz-adv-x="1366" 
d="M1112 0l-423 616l-432 -616h-211l536 732l-495 677h211l392 -553l381 553h211l-482 -670l523 -739h-211z" />
    <glyph glyph-name="afii10040" unicode="&#x426;" horiz-adv-x="1515" 
d="M1477 160v-568h-180v408h-1129v1409h191v-1249h757v1249h186v-1249h175z" />
    <glyph glyph-name="afii10041" unicode="&#x427;" horiz-adv-x="1365" 
d="M600 450q-440 0 -440 365v594h190v-574q0 -123 65 -177t207 -54t386 49v756h190v-1409h-190v508q-261 -58 -408 -58z" />
    <glyph glyph-name="afii10042" unicode="&#x428;" horiz-adv-x="1877" 
d="M168 0v1409h191v-1249h489v1249h186v-1249h489v1249h186v-1409h-1541z" />
    <glyph glyph-name="afii10043" unicode="&#x429;" horiz-adv-x="1920" 
d="M1839 160v-568h-180v408h-1491v1409h191v-1249h467v1249h186v-1249h466v1249h186v-1249h175z" />
    <glyph glyph-name="afii10044" unicode="&#x42a;" horiz-adv-x="1621" 
d="M1323 410q0 122 -82 186.5t-246 64.5h-299v-510h307q164 0 242 68.5t78 190.5zM696 813h322q243 0 370 -107.5t127 -290.5t-125.5 -299t-359.5 -116h-525v1253h-459v156h650v-596z" />
    <glyph glyph-name="afii10045" unicode="&#x42b;" horiz-adv-x="1813" 
d="M1454 0v1409h191v-1409h-191zM1046 410q0 122 -82 186.5t-246 64.5h-359v-510h367q164 0 242 68.5t78 190.5zM1112.5 116q-125.5 -116 -359.5 -116h-585v1409h191v-596h382q243 0 370 -107.5t127 -290.5t-125.5 -299z" />
    <glyph glyph-name="afii10046" unicode="&#x42c;" horiz-adv-x="1344" 
d="M726 151q320 0 320 256q0 121 -82 186.5t-246 65.5h-359v-508h367zM1112.5 116q-125.5 -116 -359.5 -116h-585v1409h191v-596h382q243 0 370 -107.5t127 -290.5t-125.5 -299z" />
    <glyph glyph-name="afii10047" unicode="&#x42d;" horiz-adv-x="1472" 
d="M261 430q144 -293 455 -293q204 0 337 137t151 364h-654v154h654q-20 224 -147 353t-356 129q-230 0 -307 -101.5t-96 -151.5l-181 60q143 349 598 349q325 0 505.5 -192.5t180.5 -524.5t-177 -532.5t-509 -200.5q-426 0 -610 372z" />
    <glyph glyph-name="afii10048" unicode="&#x42e;" horiz-adv-x="2069" 
d="M1656 1122q-120 152 -346 152q-225 0 -344 -150.5t-119 -411.5t121 -419t348 -158t343.5 155.5t116.5 417.5t-120 414zM1795 179q-176 -199 -482 -199t-475.5 184t-183.5 489h-295v-653h-191v1409h191v-596h298q26 289 196.5 453t471.5 164t473.5 -194t172.5 -526
t-176 -531z" />
    <glyph glyph-name="afii10049" unicode="&#x42f;" horiz-adv-x="1479" 
d="M344 1008q0 -124 79 -198t237 -74h461v520h-453q-236 0 -280 -94t-44 -154zM152 1020q0 80 68 234.5t429 154.5h663v-1409h-191v585h-439l-366 -585h-220l400 607q-171 30 -257.5 141.5t-86.5 271.5z" />
    <glyph glyph-name="afii10065" unicode="&#x430;" 
d="M454 115q161 0 252 105t91 225v89l-197 -4q-157 -2 -216 -35q-60 -33 -86 -78t-26 -125t48 -129q48 -48 134 -48zM1010 -10q-111 0 -156 53t-51 164h-6q-64 -114 -152 -170q-88 -57 -241 -57t-235 86t-82 236q1 196 147 283q111 66 320 71l243 4v59q1 193 -129 233
q-44 14 -100 13q-116 0 -174 -37q-59 -37 -71 -135l-188 17q46 292 434 292q204 0 307 -94t103 -270v-466q0 -80 21 -120t80 -41q26 0 59 7v-112q-68 -16 -129 -16z" />
    <glyph glyph-name="afii10066" unicode="&#x431;" horiz-adv-x="1173" 
d="M655 1027q222 0 327 -130.5t105 -394.5t-125 -393t-362 -129t-358.5 154t-121.5 519t122 549t417 240q138 27 163 30l214 30v-161q-331 -42 -435.5 -70t-175.5 -65.5t-113 -141.5t-46 -302q64 185 186.5 225t202.5 40zM827 806.5q-71 88.5 -215 88.5t-223.5 -90.5
t-79.5 -302.5q0 -312 112.5 -350.5t178.5 -38.5t122 18t116 85.5t60 284.5t-71 305.5z" />
    <glyph glyph-name="afii10067" unicode="&#x432;" horiz-adv-x="1088" 
d="M322 945v-320h216q192 0 214.5 59.5t22.5 102.5q0 82 -51 120t-172 38h-230zM322 133h236q197 0 223.5 65.5t26.5 113.5q0 99 -60 141t-202 42h-224v-362zM741 566q258 -32 258 -262q0 -143 -112 -223.5t-300 -80.5h-445v1082h422q276 0 338 -95t62 -162
q0 -208 -223 -252v-7z" />
    <glyph glyph-name="afii10068" unicode="&#x433;" horiz-adv-x="747" 
d="M687 1082v-131h-365v-951h-180v1082h545z" />
    <glyph glyph-name="afii10069" unicode="&#x434;" horiz-adv-x="1195" 
d="M1014 1082v-951h146v-539h-163v408h-814v-408h-163v539h119q141 235 231 951h644zM834 951h-306q-76 -558 -191 -820h497v820z" />
    <glyph glyph-name="afii10070" unicode="&#x435;" 
d="M568 969q-181 -1 -257 -167q-29 -64 -33 -161h584q-15 171 -87 249t-207 79zM571 1102q477 0 477 -575v-24h-772q0 -277 165 -359q57 -28 155 -29q98 0 170 47q70 47 95 119l158 -45q-97 -256 -441 -256q-240 0 -366 143t-125 427q-1 284 133 418t351 134z" />
    <glyph glyph-name="afii10072" unicode="&#x436;" horiz-adv-x="1370" 
d="M775 477v-477h-180v477q-62 0 -110 20l-278 -497h-200l353 592q-35 29 -128 165l-216 325h188l148 -239q94 -151 129.5 -185t59.5 -42t54 -8v474h180v-474q61 0 105 42t138 193l148 239h188l-216 -325q-93 -136 -128 -165l353 -592h-200l-278 497q-48 -20 -110 -20z" />
    <glyph glyph-name="afii10073" unicode="&#x437;" horiz-adv-x="939" 
d="M462 1102q169 0 271.5 -79.5t102.5 -196.5t-76 -181.5t-172 -73.5v-2q117 -13 195.5 -82.5t78.5 -199.5q0 -129 -103.5 -218t-285.5 -89t-280.5 62.5t-143.5 191.5l159 44q53 -164 254 -164q96 0 152.5 47t56.5 138q0 200 -331 200v137q144 0 204 26.5t84.5 60t24.5 96.5
t-49.5 106t-160.5 43t-150 -51t-46 -93l-162 20q46 258 377 258z" />
    <glyph glyph-name="afii10074" unicode="&#x438;" horiz-adv-x="1144" 
d="M316 1082v-592q0 -23 -1.5 -61.5t-4 -103t-4.5 -112.5l499 869h197v-1082h-172v660q0 113 10 213l-506 -873h-192v1082h174z" />
    <glyph glyph-name="afii10075" unicode="&#x439;" horiz-adv-x="1144" 
d="M316 1082v-592q0 -24 -2 -62t-3 -103q-2 -65 -5 -112l499 869h197v-1082h-172v660q0 113 10 213l-506 -873h-192v1082h174zM941 1520q-11 -320 -367 -320t-367 320h164q12 -199 203 -199t203 199h164z" />
    <glyph glyph-name="afii10076" unicode="&#x43a;" horiz-adv-x="896" 
d="M318 477v-477h-180v1082h180v-474q61 0 105 42t138 193l148 239h188l-216 -325q-93 -136 -128 -165l353 -592h-200l-278 497q-47 -20 -110 -20z" />
    <glyph glyph-name="afii10077" unicode="&#x43b;" horiz-adv-x="1195" 
d="M75 113q39 0 64.5 21t45.5 68t36.5 121.5t33.5 182.5t36 250.5t44 325.5h718v-1082h-181v951h-375q-58 -427 -96 -613t-103.5 -272t-192.5 -86q-50 0 -94 13v129q25 -9 64 -9z" />
    <glyph glyph-name="afii10078" unicode="&#x43c;" horiz-adv-x="1408" 
d="M316 724v-724h-174v1082h280l220 -661q52 -143 68 -286q22 161 68 286l220 661h269v-1082h-173v724q0 61 2 103.5t3 72.5t3 53l-315 -953h-153l-324 951q6 -156 6 -227z" />
    <glyph glyph-name="afii10079" unicode="&#x43d;" horiz-adv-x="1131" 
d="M322 1082v-458h487v458h180v-1082h-180v493h-487v-493h-180v1082h180z" />
    <glyph glyph-name="afii10080" unicode="&#x43e;" 
d="M864 542q0 239 -72 333t-219 94t-222 -96q-76 -96 -76 -331q-1 -343 173 -409q52 -20 118 -20q66 -1 122 19t95 69q81 102 81 341zM1053 542q0 -284 -125 -423t-363 -139q-351 0 -447 314q-32 106 -32 248q0 560 485 560q370 0 454 -315q28 -105 28 -245z" />
    <glyph glyph-name="afii10081" unicode="&#x43f;" horiz-adv-x="1109" 
d="M967 1082v-1082h-180v951h-465v-951h-180v1082h825z" />
    <glyph glyph-name="afii10082" unicode="&#x440;" 
d="M807 858q-57 104 -196 104t-207 -82q-86 -104 -86 -352q0 -328 165 -394q55 -22 127 -21q72 0 122 29t78 84q54 100 54 314t-57 318zM138 861q0 167 -6 221h174q3 -8 6 -78q4 -70 4 -96h4q74 152 222 182q50 10 138 11q88 0 164 -40q76 -41 122 -113q86 -135 87 -402
q0 -566 -398 -566q-250 0 -336 188h-5q4 -8 4 -170v-423h-180v1286z" />
    <glyph glyph-name="afii10083" unicode="&#x441;" horiz-adv-x="1024" 
d="M338 233q63 -111 210 -111q96 0 160 52t80 160l182 -12q-20 -146 -127 -244t-290 -98q-243 0 -361 162q-106 144 -105 400q1 392 241 512q98 48 206 48q191 0 297 -89t133 -234l-185 -14q-14 90 -71 143t-148 53q-90 1 -142 -25t-84 -78q-59 -95 -59 -304q0 -210 63 -321
z" />
    <glyph glyph-name="afii10084" unicode="&#x442;" horiz-adv-x="938" 
d="M35 1082h868v-131h-344v-951h-180v951h-344v131z" />
    <glyph glyph-name="afii10085" unicode="&#x443;" horiz-adv-x="1024" 
d="M151 -285q168 0 266 247l17 43l-429 1077h192l228 -598q9 -27 25 -72t43 -123t30 -93q6 22 46 130q39 108 49 138l212 618h190l-416 -1082q-85 -218 -166 -310q-101 -115 -247 -115q-74 0 -124 11v135q38 -6 84 -6z" />
    <glyph glyph-name="afii10086" unicode="&#x444;" horiz-adv-x="1685" 
d="M1358 856q-51 106 -174 106t-190 -92.5t-67 -341.5v-23q3 -307 98 -349.5t157 -42.5t106.5 29t82.5 108t38 289q0 211 -51 317zM275 544q0 -114 13 -194t41 -131.5t70.5 -75.5t135 -24t155.5 94.5t67 316.5v24q0 327 -96 371t-155 44t-102 -23t-71.5 -74t-43 -132.5
t-14.5 -195.5zM1233 1101q365 0 365 -555q0 -406 -132 -486t-233 -80q-226 0 -305 188h-6q5 -88 5 -170v-423h-170v423q0 109 5 176h-5q-46 -104 -120.5 -149t-185.5 -45q-186 0 -275.5 137.5t-89.5 418.5q0 566 365 566q112 0 186.5 -45t119.5 -143h5l-5 151v419h170v-420
l-3 -156h5q46 104 118 148.5t186 44.5z" />
    <glyph glyph-name="afii10087" unicode="&#x445;" horiz-adv-x="1024" 
d="M801 0l-291 444l-293 -444h-194l385 556l-367 526h199l270 -421l268 421h201l-367 -524l390 -558h-201z" />
    <glyph glyph-name="afii10088" unicode="&#x446;" horiz-adv-x="1173" 
d="M322 1082v-951h477v951h180v-951h147v-539h-163v408h-821v1082h180z" />
    <glyph glyph-name="afii10089" unicode="&#x447;" horiz-adv-x="1067" 
d="M468 518q110 0 276 47v517h180v-1082h-180v461q-155 -61 -227.5 -73.5t-130.5 -12.5q-122 0 -193 78.5t-71 217.5v411h180v-402q0 -162 166 -162z" />
    <glyph glyph-name="afii10090" unicode="&#x448;" horiz-adv-x="1643" 
d="M142 0v1082h180v-951h410v951h180v-951h409v951h180v-1082h-1359z" />
    <glyph glyph-name="afii10091" unicode="&#x449;" horiz-adv-x="1685" 
d="M142 0v1082h180v-951h405v951h180v-951h404v951h180v-951h147v-539h-163v408h-1333z" />
    <glyph glyph-name="afii10092" unicode="&#x44a;" horiz-adv-x="1280" 
d="M553 127h202q197 0 223.5 72.5t26.5 118.5q0 94 -58 137.5t-191 43.5h-203v-372zM781 624q205 0 310 -73.5t105 -232.5q0 -230 -155.5 -274t-258.5 -44h-409v951h-328v131h508v-458h228z" />
    <glyph glyph-name="afii10093" unicode="&#x44b;" horiz-adv-x="1472" 
d="M1150 0v1082h180v-1082h-180zM322 127h202q197 0 223.5 72.5t26.5 118.5q0 94 -58 137.5t-191 43.5h-203v-372zM550 624q205 0 310 -73.5t105 -232.5q0 -230 -155.5 -274t-258.5 -44h-409v1082h180v-458h228z" />
    <glyph glyph-name="afii10094" unicode="&#x44c;" horiz-adv-x="1067" 
d="M322 127h220q197 0 223.5 72.5t26.5 118.5q0 94 -58 137.5t-191 43.5h-221v-372zM568 624q205 0 310 -73.5t105 -232.5q0 -230 -155.5 -274t-258.5 -44h-427v1082h180v-458h246z" />
    <glyph glyph-name="afii10095" unicode="&#x44d;" horiz-adv-x="1045" 
d="M472 115q152 0 219 95t78 272h-413v131h413q-8 184 -73.5 269.5t-190.5 85.5q-126 0 -185 -52.5t-74 -143.5l-185 14q42 221 185.5 268.5t235.5 47.5q206 0 341 -129t135 -431q0 -398 -174 -480t-288 -82q-203 0 -312 95t-129 240l182 12q16 -108 82.5 -160t152.5 -52z
" />
    <glyph glyph-name="afii10096" unicode="&#x44e;" horiz-adv-x="1536" 
d="M1261 542q0 239 -64.5 333t-196.5 94t-200 -96t-68 -331q0 -343 101.5 -386t160.5 -43t109 19.5t104 95t54 314.5zM1450 540q0 -282 -117.5 -421t-340.5 -139q-314 0 -378.5 191t-69.5 322h-222v-493h-180v1082h180v-458h223q33 478 453 478q237 0 344.5 -140t107.5 -422
z" />
    <glyph glyph-name="afii10097" unicode="&#x44f;" horiz-adv-x="1109" 
d="M787 955h-234q-130 0 -190 -45.5t-60 -139.5t53.5 -140.5t177.5 -46.5h253v372zM112 783q0 299 423 299h432v-1082h-180v458h-252l-315 -458h-203l344 471q-249 51 -249 312z" />
    <glyph glyph-name="afii10071" unicode="&#x451;" 
d="M568 969q-181 -1 -257 -167q-29 -64 -33 -161h584q-15 171 -87 249t-207 79zM571 1102q477 0 477 -575v-24h-772q0 -277 165 -359q57 -28 155 -29q98 0 170 47q70 47 95 119l158 -45q-97 -256 -441 -256q-240 0 -366 143t-125 427q-1 284 133 418t351 134zM293 1219v184
h165v-184h-165zM687 1219v184h163v-184h-163z" />
    <glyph glyph-name="afii10099" unicode="&#x452;" 
d="M708 -283q67 0 92 39.5t25 136.5v753q0 149 -44.5 213t-175.5 64q-130 0 -206.5 -88t-76.5 -237v-598h-180v1206h-132v131h132v147h180v-147h300v-131h-300v-148q0 -145 -8 -201h3q87 160 185.5 182.5t181.5 22.5q173 0 247.5 -97.5t74.5 -283.5v-815q0 -210 -84 -250.5
t-158 -40.5t-125 9v139q39 -6 69 -6z" />
    <glyph glyph-name="afii10100" unicode="&#x453;" horiz-adv-x="747" 
d="M687 1082v-131h-365v-951h-180v1082h545zM288 1201v20l217 287h207v-29l-330 -278h-94z" />
    <glyph glyph-name="afii10101" unicode="&#x454;" horiz-adv-x="1045" 
d="M202 132.5q-115 152.5 -115 431.5q0 280 135 409t327 129q191 0 299.5 -86.5t135.5 -229.5l-185 -14q-15 91 -74 143.5t-150 52.5t-142.5 -22t-100 -85.5t-56.5 -247.5h412v-131h-413q18 -367 284 -367q100 0 166.5 51.5t82.5 160.5l182 -12q-20 -145 -129 -240t-297 -95
q-247 0 -362 152.5z" />
    <glyph glyph-name="afii10102" unicode="&#x455;" horiz-adv-x="1024" 
d="M275 814q-1 -78 81 -120q48 -24 152 -50q103 -26 148 -38q46 -12 88 -30q206 -85 206 -261q0 -168 -115 -252q-115 -83 -324 -83q-291 0 -397 146q-38 52 -57 128l159 31q23 -87 95 -127t200 -41q264 0 264 168q0 88 -87 133q-42 20 -100 36t-126 34q-176 46 -246 94
q-116 77 -116 220q0 142 106 220t296 77q190 0 296 -63t133 -202l-162 -20q-32 149 -263 149t-231 -149z" />
    <glyph glyph-name="afii10103" unicode="&#x456;" horiz-adv-x="455" 
d="M137 0v1082h180v-1082h-180zM137 1312v172h180v-172h-180z" />
    <glyph glyph-name="afii10104" unicode="&#x457;" horiz-adv-x="569" 
d="M194 0v1082h180v-1082h-180zM-8 1219v184h165v-184h-165zM386 1219v184h163v-184h-163z" />
    <glyph glyph-name="afii10105" unicode="&#x458;" horiz-adv-x="455" 
d="M20 -283q66 0 91 39q26 39 26 137v1189h180v-1216q1 -210 -121 -268q-46 -22 -121 -23q-74 0 -125 9v139q40 -6 70 -6zM137 1312v172h180v-172h-180z" />
    <glyph glyph-name="afii10106" unicode="&#x459;" horiz-adv-x="1856" 
d="M1089 127h242q197 0 223.5 72.5t26.5 118.5q0 94 -58 137.5t-191 43.5h-243v-372zM75 113q39 0 64.5 21t45.5 68t36.5 121.5t33.5 182.5t36 250.5t44 325.5h754v-458h268q205 0 310 -73.5t105 -232.5q0 -230 -155.5 -274t-258.5 -44h-450v951h-411q-58 -427 -96 -613
t-103.5 -272t-192.5 -86q-50 0 -94 13v129q25 -9 64 -9z" />
    <glyph glyph-name="afii10107" unicode="&#x45a;" horiz-adv-x="1664" 
d="M937 127h202q197 0 223.5 72.5t26.5 118.5q0 94 -58 137.5t-191 43.5h-203v-372zM937 1082v-458h228q205 0 310 -73.5t105 -232.5q0 -230 -155.5 -274t-258.5 -44h-410v493h-434v-493h-180v1082h180v-458h434v458h181z" />
    <glyph glyph-name="afii10108" unicode="&#x45b;" 
d="M322 1058q0 -145 -8 -201h3q87 160 185.5 182.5t181.5 22.5q173 0 247.5 -97.5t74.5 -283.5v-681h-181v646q0 149 -44.5 213t-175.5 64q-130 0 -206.5 -88t-76.5 -237v-598h-180v1206h-132v131h132v147h180v-147h300v-131h-300v-148z" />
    <glyph glyph-name="afii10109" unicode="&#x45c;" horiz-adv-x="896" 
d="M318 477v-477h-180v1082h180v-474q61 0 105 42t138 193l148 239h188l-216 -325q-93 -136 -128 -165l353 -592h-200l-278 497q-47 -20 -110 -20zM391 1201v20l217 287h207v-29l-330 -278h-94z" />
    <glyph glyph-name="afii10110" unicode="&#x45e;" horiz-adv-x="1024" 
d="M151 -285q168 0 266 247l17 43l-429 1077h192l228 -598q9 -27 25 -72t43 -123t30 -93q6 22 46 130q39 108 49 138l212 618h190l-416 -1082q-85 -218 -166 -310q-101 -115 -247 -115q-74 0 -124 11v135q38 -6 84 -6zM890 1520q-11 -320 -367 -320t-367 320h164
q12 -199 203 -199t203 199h164z" />
    <glyph glyph-name="afii10193" unicode="&#x45f;" horiz-adv-x="1131" 
d="M142 0v1082h180v-951h487v951h180v-1082h-342v-408h-163v408h-342z" />
    <glyph glyph-name="afii10050" unicode="&#x490;" horiz-adv-x="1001" 
d="M774 1409v411h180v-567h-595v-1252h-191v1408h606z" />
    <glyph glyph-name="afii10098" unicode="&#x491;" horiz-adv-x="842" 
d="M322 0h-180v1082h473v402h163v-533h-456v-951z" />
    <glyph glyph-name="Wgrave" unicode="&#x1e80;" horiz-adv-x="1933" 
d="M1511 0h-228l-244 895q-24 84 -70 301q-13 -58 -34 -151t-37 -150l-246 -895h-228l-415 1409h199l253 -895q45 -168 83 -346q14 68 26 116t19 79t15 61t14 58q8 28 14 50l245 877h183l245 -877q5 -22 13 -50t16 -58t14 -60t18 -78t27 -118q1 0 33 138t52 208l249 895h199
zM683 1776h207l217 -226v-20h-114l-310 217v29z" />
    <glyph glyph-name="wgrave" unicode="&#x1e81;" horiz-adv-x="1479" 
d="M1174 0h-209l-173 698q-19 65 -52 236q-27 -137 -54 -240l-178 -694h-208l-303 1082h178l183 -735q8 -27 22 -93q13 -66 21 -105q9 37 17 71t16 66t14 53l196 743h193l189 -743q17 -63 46 -190q8 37 16 71t14 68q8 34 15 59l191 735h176zM434 1508h207l217 -287v-20h-94
l-330 278v29z" />
    <glyph glyph-name="Wacute" unicode="&#x1e82;" horiz-adv-x="1933" 
d="M1511 0h-228l-244 895q-24 84 -70 301q-13 -58 -34 -151t-37 -150l-246 -895h-228l-415 1409h199l253 -895q45 -168 83 -346q14 68 26 116t19 79t15 61t14 58q8 28 14 50l245 877h183l245 -877q5 -22 13 -50t16 -58t14 -60t18 -78t27 -118q1 0 33 138t52 208l249 895h199
zM831 1530v20l217 226h207v-29l-310 -217h-114z" />
    <glyph glyph-name="wacute" unicode="&#x1e83;" horiz-adv-x="1479" 
d="M1174 0h-209l-173 698q-19 65 -52 236q-27 -137 -54 -240l-178 -694h-208l-303 1082h178l183 -735q8 -27 22 -93q13 -66 21 -105q9 37 17 71t16 66t14 53l196 743h193l189 -743q17 -63 46 -190q8 37 16 71t14 68q8 34 15 59l191 735h176zM622 1201v20l217 287h207v-29
l-330 -278h-94z" />
    <glyph glyph-name="Wdieresis" unicode="&#x1e84;" horiz-adv-x="1933" 
d="M1511 0h-228l-244 895q-24 84 -70 301q-13 -58 -34 -151t-37 -150l-246 -895h-228l-415 1409h199l253 -895q45 -168 83 -346q14 68 26 116t19 79t15 61t14 58q8 28 14 50l245 877h183l245 -877q5 -22 13 -50t16 -58t14 -60t18 -78t27 -118q1 0 33 138t52 208l249 895h199
zM691 1530v184h165v-184h-165zM1085 1530v184h163v-184h-163z" />
    <glyph glyph-name="wdieresis" unicode="&#x1e85;" horiz-adv-x="1479" 
d="M1174 0h-209l-173 698q-19 65 -52 236q-27 -137 -54 -240l-178 -694h-208l-303 1082h178l183 -735q8 -27 22 -93q13 -66 21 -105q9 37 17 71t16 66t14 53l196 743h193l189 -743q17 -63 46 -190q8 37 16 71t14 68q8 34 15 59l191 735h176zM462 1219v184h165v-184h-165z
M856 1219v184h163v-184h-163z" />
    <glyph glyph-name="Ygrave" unicode="&#x1ef2;" horiz-adv-x="1366" 
d="M777 0h-190v584l-542 825h210l429 -671l427 671h210l-544 -825v-584zM396 1776h207l217 -226v-20h-114l-310 217v29z" />
    <glyph glyph-name="ygrave" unicode="&#x1ef3;" horiz-adv-x="1024" 
d="M151 -285q168 0 266 247l17 43l-429 1077h192l228 -598q9 -27 25 -72t43 -123t30 -93q6 22 46 130q39 108 49 138l212 618h190l-416 -1082q-85 -218 -166 -310q-101 -115 -247 -115q-74 0 -124 11v135q38 -6 84 -6zM211 1508h207l217 -287v-20h-94l-330 278v29z" />
    <glyph glyph-name="endash" unicode="&#x2013;" 
d="M0 451v137h1138v-137h-1138z" />
    <glyph glyph-name="emdash" unicode="&#x2014;" horiz-adv-x="2048" 
d="M0 451v137h2048v-137h-2048z" />
    <glyph glyph-name="afii00208" unicode="&#x2015;" horiz-adv-x="2048" 
d="M0 451v137h2048v-137h-2048z" />
    <glyph glyph-name="underscoredbl" unicode="&#x2017;" horiz-adv-x="1131" 
d="M-31 -434v130h1193v-130h-1193zM-31 -217v130h1193v-130h-1193z" />
    <glyph glyph-name="quoteleft" unicode="&#x2018;" horiz-adv-x="455" 
d="M127 1098q0 183 80 311h121q-95 -137 -95 -262h89v-195h-195v146z" />
    <glyph glyph-name="quoteright" unicode="&#x2019;" horiz-adv-x="455" 
d="M328 1264q0 -187 -78 -312h-123q94 136 94 260h-88v197h195v-145z" />
    <glyph glyph-name="quotesinglbase" unicode="&#x201a;" horiz-adv-x="455" 
d="M328 51q0 -188 -78 -313h-123q94 136 94 262h-88v195h195v-144z" />
    <glyph glyph-name="quotereversed" unicode="&#x201b;" horiz-adv-x="455" 
d="M126 1264v145h195v-197h-88q0 -124 94 -260h-123q-78 125 -78 312z" />
    <glyph glyph-name="quotedblleft" unicode="&#x201c;" horiz-adv-x="682" 
d="M75 1098q0 183 80 311h121q-95 -137 -95 -262h89v-195h-195v146zM407 1098q0 186 78 311h122q-94 -136 -94 -262h88v-195h-194v146z" />
    <glyph glyph-name="quotedblright" unicode="&#x201d;" horiz-adv-x="682" 
d="M276 1264q0 -187 -78 -312h-123q94 136 94 262h-88v195h195v-145zM607 1264q0 -186 -79 -312h-121q94 136 94 262h-88v195h194v-145z" />
    <glyph glyph-name="quotedblbase" unicode="&#x201e;" horiz-adv-x="682" 
d="M276 51q0 -188 -78 -313h-123q94 136 94 262h-88v195h195v-144zM607 51q0 -187 -79 -313h-121q94 136 94 262h-88v195h194v-144z" />
    <glyph glyph-name="dagger" unicode="&#x2020;" 
d="M649 1000l-22 -1138h-115l-22 1138l-352 -27v164l352 -29l-28 376h215l-28 -376l353 29v-164z" />
    <glyph glyph-name="daggerdbl" unicode="&#x2021;" 
d="M497 1000l-360 -27v164l360 -29l-16 376h175l-16 -376l361 29v-164l-361 27l-26 -330l26 -327l360 27v-164l-360 29l16 -376h-175l16 376l-361 -29v164l361 -27l26 327z" />
    <glyph glyph-name="bullet" unicode="&#x2022;" horiz-adv-x="717" 
d="M554 484.5q-82 -83.5 -197 -83.5t-195.5 82.5t-80.5 197.5t81 195t195 80t196.5 -80.5t82.5 -194.5q0 -113 -82 -196.5z" />
    <glyph glyph-name="ellipsis" unicode="&#x2026;" horiz-adv-x="2048" 
d="M278 0v219h195v-219h-195zM929 0v219h192v-219h-192zM1576 0v219h194v-219h-194z" />
    <glyph glyph-name="perthousand" unicode="&#x2030;" horiz-adv-x="2048" 
d="M1845 355q0 205 -55.5 229t-91.5 24q-152 0 -153 -218q0 -173 38 -230.5t114 -57.5q148 0 148 253zM1697 716q137 0 216 -82t79 -279q0 -283 -118 -324.5t-180 -41.5q-136 0 -216 86t-80 280q0 290 118.5 325.5t180.5 35.5zM1190 355q0 205 -56 229t-92 24
q-152 0 -152 -218q0 -173 38 -230.5t114 -57.5q148 0 148 253zM1042 716q137 0 216 -82t79 -279q0 -283 -117.5 -324.5t-179.5 -41.5q-136 0 -216.5 86t-80.5 280q0 290 118.5 325.5t180.5 35.5zM502 1060q0 205 -56 229t-92 24q-152 0 -152 -218q0 -173 38 -230.5
t114 -57.5q148 0 148 253zM354 1421q137 0 216 -82t79 -279q0 -283 -117.5 -324.5t-179.5 -41.5q-136 0 -216.5 86t-80.5 280q0 290 118.5 325.5t180.5 35.5zM304 0h-155l922 1409h157z" />
    <glyph glyph-name="minute" unicode="&#x2032;" horiz-adv-x="384" 
d="M85 890l64 519h196l-158 -519h-102z" />
    <glyph glyph-name="second" unicode="&#x2033;" horiz-adv-x="725" 
d="M85 890l64 519h196l-158 -519h-102zM427 890l64 519h196l-158 -519h-102z" />
    <glyph glyph-name="guilsinglleft" unicode="&#x2039;" horiz-adv-x="682" 
d="M591 940v-31l-335 -372l337 -367v-29h-169l-336 365v63l336 371h167z" />
    <glyph glyph-name="guilsinglright" unicode="&#x203a;" horiz-adv-x="682" 
d="M89 141v29l338 367l-336 372v31h166l337 -371v-63l-337 -365h-168z" />
    <glyph glyph-name="exclamdbl" unicode="&#x203c;" horiz-adv-x="1024" 
d="M185 0v201h194v-201h-194zM359 397h-148l-24 1012h196zM641 0v201h194v-201h-194zM815 397h-148l-24 1012h196z" />
    <glyph glyph-name="uni203E" unicode="&#x203e;" horiz-adv-x="682" 
d="M747 1503h-811v117h811v-117z" />
    <glyph glyph-name="fraction" unicode="&#x2044;" horiz-adv-x="342" 
d="M-268 0h-148l881 1409h145z" />
    <glyph glyph-name="fraction" unicode="&#x2215;" horiz-adv-x="342" 
d="M-268 0h-148l881 1409h145z" />
    <glyph glyph-name="uni207F" unicode="&#x207f;" horiz-adv-x="747" 
d="M451 1181q95 0 143.5 -54t48.5 -175v-433h-129v398q0 90 -21 117t-44.5 35t-58.5 8q-72 0 -114.5 -50t-42.5 -144v-364h-128v511l-4 139h119l6 -111h2q32 61 80 92t143 31z" />
    <glyph glyph-name="franc" unicode="&#x20a3;" 
d="M359 1254v-476h687v-157h-687v-213h402v-129h-402v-279h-180v279h-175v129h175v1001h891v-155h-711z" />
    <glyph glyph-name="lira" unicode="&#x20a4;" 
d="M738 153q174 0 203 176l163 -18q-26 -233 -148 -272t-189 -39h-698v154q175 90 175 327v25h-186v129h186v140h-186v129h186v130q0 288 150 342t236 54q160 0 261 -59.5t136 -170.5l-174 -57q-31 97 -99 118t-104 21q-114 0 -170 -57.5t-56 -182.5v-138h408v-129h-408
v-140h408v-129h-408v-7q0 -180 -64.5 -252.5t-104.5 -93.5h483z" />
    <glyph glyph-name="peseta" unicode="&#x20a7;" horiz-adv-x="2240" 
d="M1652 601q0 -65 84.5 -88t173 -43.5t165 -70.5t76.5 -170t-91.5 -184.5t-261.5 -64.5q-234 0 -291.5 83t-72.5 147l159 26q33 -119 211 -119q177 0 177 80t-51 104t-142 46q-91 23 -201 59.5t-110 189.5q0 109 84 168.5t235 59.5t233.5 -52.5t104.5 -168.5l-161 -17
q-21 100 -171 100t-150 -85zM1222 268q0 -151 83 -151q42 0 102 14v-123q-76 -24 -169 -24q-186 0 -186 245v453h-104v131h111l53 242h110v-242h157v-131h-157v-414zM452 700q320 0 320 283q0 273 -328 273h-105v-556h113zM828 671q-126 -122 -359 -122h-130v-549h-181v1409
h299q243 0 370 -113.5t127 -308.5q0 -194 -126 -316z" />
    <glyph glyph-name="Euro" unicode="&#x20ac;" 
d="M676 -20q-218 0 -339.5 139t-149.5 383h-171l40 129h120q-3 24 -3 85t3 79h-160l40 127h129q46 377 215 442.5t275 65.5q194 0 299 -89t133 -234l-185 -14q-14 91 -74.5 141t-147.5 50t-194.5 -39.5t-138.5 -322.5h446l-40 -127h-413q-3 -24 -3 -75t4 -89h452l-40 -129
h-404q42 -376 322 -376q100 0 160 50t74 141l185 -14q-43 -227 -184.5 -275t-249.5 -48z" />
    <glyph glyph-name="afii61248" unicode="&#x2105;" horiz-adv-x="1813" 
d="M215 975q0 -339 196 -339q69 0 116 41t58 128l141 -9q-13 -115 -93.5 -194.5t-217.5 -79.5q-179 0 -262.5 123t-83.5 345t98 326t247 104q194 0 246 -102t61 -157l-143 -11q-10 72 -51.5 114.5t-116.5 42.5q-108 0 -151.5 -82t-43.5 -250zM1554.5 699q-41.5 75 -127.5 75
t-128.5 -75t-42.5 -265q0 -266 64.5 -301t104.5 -35t71.5 17t65.5 78t34 246t-41.5 260zM523 0h-155l922 1409h157zM1744 438q0 -129 -25.5 -214.5t-69 -138t-101.5 -75t-163 -22.5t-190.5 104.5t-85.5 341.5q0 363 125.5 407t192.5 44t124.5 -20.5t100 -72t67.5 -138.5
t25 -216z" />
    <glyph glyph-name="afii61289" unicode="&#x2113;" horiz-adv-x="662" 
d="M525 1108q0 246 -107 245q-83 0 -92 -89t-9 -135v-507q149 100 178.5 260t29.5 226zM151 1130q0 208 91 253.5t153 45.5q112 0 166.5 -80t54.5 -199q0 -215 -82 -372.5t-217 -235.5v-244q0 -162 46.5 -191t69.5 -29q103 0 136 213h69q-20 -154 -80 -232.5t-170 -78.5
t-173.5 79.5t-63.5 234.5v175q-51 -27 -132 -58v73q79 31 132 59v587z" />
    <glyph glyph-name="afii61352" unicode="&#x2116;" horiz-adv-x="2197" 
d="M1439 0v146h635v-146h-635zM1890 906.5q-45 61.5 -141 61.5t-142.5 -62t-46.5 -216q0 -224 70 -251.5t114 -27.5t80 13t73.5 60.5t37.5 203.5q0 157 -45 218.5zM1747 1080q347 0 347 -390q0 -188 -88 -289.5t-260 -101.5t-260 100.5t-88 290.5q0 284 130.5 337t218.5 53z
M348 0h-160v1409h202l728 -1198q-8 160 -8 274v924h162v-1409h-210l-720 1190l6 -254v-936z" />
    <glyph glyph-name="trademark" unicode="&#x2122;" horiz-adv-x="2048" 
d="M577 1298v-664h-134v664h-255v111h650v-111h-261zM1817 1409v-775h-126v619q-11 -25 -14.5 -37t-5.5 -17l-230 -565h-108l-163 413q-23 58 -77 206q-2 -20 -2 -23v-596h-128v775h190l223 -563q3 -6 15 -42q74 189 74 192l168 413h184z" />
    <glyph glyph-name="Omega" unicode="&#x2126;" horiz-adv-x="1573" 
d="M560 145q-424 231 -424 677q0 126 45 243t129 198t204.5 124t347.5 43t400.5 -167.5t173.5 -461.5q0 -207 -110.5 -376t-313.5 -280l208 11h244v-156h-589v224q366 194 366 564q0 232 -119 359t-336 127t-336 -127t-119 -359q0 -370 366 -564v-224h-589v156h244
q28 0 97 -4t111 -7z" />
    <glyph glyph-name="estimated" unicode="&#x212e;" horiz-adv-x="1229" 
d="M617 1011q-179 0 -296 -117v-278h596v277q-72 76 -159.5 97t-140.5 21zM321 175q115 -124 313 -124q128 0 216.5 57t163.5 177l72 -42q-83 -131 -187.5 -204t-296.5 -73q-112 0 -211.5 46.5t-201 165.5t-101.5 353q0 273 159.5 419t380.5 146q220 0 370 -154t150 -411
h-827v-356z" />
    <glyph glyph-name="oneeighth" unicode="&#x215b;" horiz-adv-x="1708" 
d="M80 563v107h211v620l-202 -138v120l210 137h123v-739h215v-107h-557zM493 0h-148l881 1409h145zM1614 234q0 -50 -18 -96t-54 -78q-36 -34 -92 -52t-134 -18q-149 0 -224 67t-75 167q0 99 50 154t119 66v3q-106 24 -139 129q-10 32 -10 72q0 90 73 151t207 61t205 -62
t71 -165t-86 -159q-28 -18 -64 -26v-3q120 -20 158 -125q13 -36 13 -86zM1159 246q0 -156 158 -155q126 0 148 95q7 30 7 62q0 69 -34 109q-34 39 -124 39q-155 0 -155 -150zM1333 760q-94 0 -124 -34q-31 -34 -31 -76q0 -77 28 -115t93 -38q64 1 91 13q26 12 40 32
q20 30 21 90q0 128 -118 128z" />
    <glyph glyph-name="threeeighths" unicode="&#x215c;" horiz-adv-x="1708" 
d="M493 0h-148l881 1409h145zM1614 234q0 -50 -18 -96t-54 -78q-36 -34 -92 -52t-134 -18q-149 0 -224 67t-75 167q0 99 50 154t119 66v3q-106 24 -139 129q-10 32 -10 72q0 90 73 151t207 61t205 -62t71 -165t-86 -159q-28 -18 -64 -26v-3q120 -20 158 -125q13 -36 13 -86z
M1159 246q0 -156 158 -155q126 0 148 95q7 30 7 62q0 69 -34 109q-34 39 -124 39q-155 0 -155 -150zM1333 760q-94 0 -124 -34q-31 -34 -31 -76q0 -77 28 -115t93 -38q64 1 91 13q26 12 40 32q20 30 21 90q0 128 -118 128zM539 803q0 137 -189 137h-61v109h57q113 1 156 71
q16 26 16 76t-37 84t-107 35q-70 0 -111 -35q-42 -35 -48 -100l-135 12q20 169 187 215q51 14 115 14q129 0 201 -61t72 -146q0 -176 -176 -215v-2q98 -9 148 -65q49 -56 49 -137q0 -116 -78 -180t-219 -64q-286 0 -318 227l136 13q18 -136 180 -136t162 148z" />
    <glyph glyph-name="fiveeighths" unicode="&#x215d;" horiz-adv-x="1708" 
d="M493 0h-148l881 1409h145zM1614 234q0 -50 -18 -96t-54 -78q-36 -34 -92 -52t-134 -18q-149 0 -224 67t-75 167q0 99 50 154t119 66v3q-106 24 -139 129q-10 32 -10 72q0 90 73 151t207 61t205 -62t71 -165t-86 -159q-28 -18 -64 -26v-3q120 -20 158 -125q13 -36 13 -86z
M1159 246q0 -156 158 -155q126 0 148 95q7 30 7 62q0 69 -34 109q-34 39 -124 39q-155 0 -155 -150zM1333 760q-94 0 -124 -34q-31 -34 -31 -76q0 -77 28 -115t93 -38q64 1 91 13q26 12 40 32q20 30 21 90q0 128 -118 128zM226 788q24 -131 176 -131q54 1 96 43
q43 42 43 129q0 172 -156 172q-91 0 -151 -60h-129l33 468h506v-113h-398l-19 -245q66 59 174 59q200 0 257 -161q18 -51 18 -115q0 -129 -75 -206q-75 -76 -214 -76q-191 0 -263 132q-22 40 -31 89z" />
    <glyph glyph-name="seveneighths" unicode="&#x215e;" horiz-adv-x="1708" 
d="M433 0h-148l881 1409h145zM1614 234q0 -50 -18 -96t-54 -78q-36 -34 -92 -52t-134 -18q-149 0 -224 67t-75 167q0 99 50 154t119 66v3q-106 24 -139 129q-10 32 -10 72q0 90 73 151t207 61t205 -62t71 -165t-86 -159q-28 -18 -64 -26v-3q120 -20 158 -125q13 -36 13 -86z
M1159 246q0 -156 158 -155q126 0 148 95q7 30 7 62q0 69 -34 109q-34 39 -124 39q-155 0 -155 -150zM1333 760q-94 0 -124 -34q-31 -34 -31 -76q0 -77 28 -115t93 -38q64 1 91 13q26 12 40 32q20 30 21 90q0 128 -118 128zM444 564h-133q1 260 181 556q54 88 113 176h-460
v113h589v-101q-150 -227 -199 -338q-91 -209 -91 -406z" />
    <glyph glyph-name="arrowleft" unicode="&#x2190;" horiz-adv-x="2048" 
d="M1630 383v-86h-989q57 -67 119 -197h-72q-127 149 -270 222v36q143 73 270 222h72q-62 -130 -119 -197h989z" />
    <glyph glyph-name="arrowup" unicode="&#x2191;" horiz-adv-x="1024" 
d="M555 -61h-86v989q-67 -57 -197 -119v72q149 127 222 270h36q73 -143 222 -270v-72q-130 62 -197 119v-989z" />
    <glyph glyph-name="arrowright" unicode="&#x2192;" horiz-adv-x="2048" 
d="M418 297v86h989q-57 67 -119 197h72q127 -149 270 -222v-36q-143 -73 -270 -222h-72q62 130 119 197h-989z" />
    <glyph glyph-name="arrowdown" unicode="&#x2193;" horiz-adv-x="1024" 
d="M469 1151h86v-989q67 57 197 119v-72q-149 -127 -222 -270h-36q-73 143 -222 270v72q130 -62 197 -119v989z" />
    <glyph glyph-name="arrowboth" unicode="&#x2194;" horiz-adv-x="2048" 
d="M1630 322q-143 -73 -270 -222h-72q62 130 119 197h-766q57 -67 119 -197h-72q-127 149 -270 222v36q143 73 270 222h72q-62 -130 -119 -197h766q-57 67 -119 197h72q127 -149 270 -222v-36z" />
    <glyph glyph-name="arrowupdn" unicode="&#x2195;" horiz-adv-x="1024" 
d="M494 -61q-73 143 -222 270v72q130 -62 197 -119v766q-67 -57 -197 -119v72q149 127 222 270h36q73 -143 222 -270v-72q-130 62 -197 119v-766q67 57 197 119v-72q-149 -127 -222 -270h-36z" />
    <glyph glyph-name="arrowupdnbse" unicode="&#x21a8;" horiz-adv-x="1024" 
d="M494 -61q-73 143 -222 270v72q130 -62 197 -119v766q-67 -57 -197 -119v72q149 127 222 270h36q73 -143 222 -270v-72q-130 62 -197 119v-766q67 57 197 119v-72q-149 -127 -222 -270h-36zM272 -104h480v-80h-480v80z" />
    <glyph glyph-name="partialdiff" unicode="&#x2202;" horiz-adv-x="1012" 
d="M540 883q-44 0 -87.5 -25.5t-91.5 -85.5t-81.5 -182t-33.5 -204q0 -139 43.5 -208t118.5 -69q133 0 221 171t114 400q-26 136 -92.5 169.5t-110.5 33.5zM494 1004q200 0 270 -183h4q4 100 4 117q0 196 -65 300.5t-192 104.5t-224 -75l36 147q113 62 226 62
q211 0 306 -151t95 -368t-40 -387q-40 -171 -88 -274t-148 -213.5t-281 -110.5q-182 0 -261.5 109t-79.5 274q0 220 91.5 388t188 214t158.5 46z" />
    <glyph glyph-name="Delta" unicode="&#x2206;" horiz-adv-x="1253" 
d="M1049 156l-338 862q-33 84 -57.5 161.5t-25.5 85.5q-28 -111 -83 -249l-339 -860h843zM1249 0h-1245l1 141l517 1268h217l510 -1268v-141z" />
    <glyph glyph-name="product" unicode="&#x220f;" horiz-adv-x="1686" 
d="M1268 -434v1681h-842v-1681h-191v1843h1217v-1843h-184z" />
    <glyph glyph-name="summation" unicode="&#x2211;" horiz-adv-x="1460" 
d="M154 -434v109l635 816l-619 812v106h1090v-152h-846l584 -764l-600 -775h930v-152h-1174z" />
    <glyph glyph-name="minus" unicode="&#x2212;" horiz-adv-x="1196" 
d="M101 608v146h995v-146h-995z" />
    <glyph glyph-name="radical" unicode="&#x221a;" horiz-adv-x="1124" 
d="M51 778v117h270l242 -690l430 1415h129l-500 -1634h-106l-283 792h-182z" />
    <glyph glyph-name="infinity" unicode="&#x221e;" horiz-adv-x="1460" 
d="M227 594q0 -171 72.5 -212.5t130.5 -41.5q124 0 234 256q-51 128 -110.5 192t-141.5 64t-133.5 -74.5t-51.5 -183.5zM1026 846q-56 0 -115.5 -63t-115.5 -193q51 -128 110.5 -192t140.5 -64t134.5 73.5t53.5 182.5t-54.5 182.5t-153.5 73.5zM727 485q-141 -276 -339 -276
q-58 0 -115 27.5t-121.5 105t-64.5 249.5t86.5 282t226.5 110q201 0 329 -283q138 277 344 277q130 0 215 -106t85 -275t-87 -281t-224 -112q-203 0 -335 282z" />
    <glyph glyph-name="orthogonal" unicode="&#x221f;" horiz-adv-x="2005" 
d="M408 1223h94v-1129h1130v-94h-1224v1223z" />
    <glyph glyph-name="intersection" unicode="&#x2229;" horiz-adv-x="1472" 
d="M278 -2v512q0 231 128.5 376.5t327.5 145.5t329.5 -146.5t130.5 -375.5v-512h-103v514q0 193 -99 305.5t-257.5 112.5t-256 -112t-97.5 -308v-512h-103z" />
    <glyph glyph-name="integral" unicode="&#x222b;" horiz-adv-x="561" 
d="M189 1153q0 354 346 354q81 0 125 -18v-148q-49 27 -107 27q-101 0 -140.5 -66t-39.5 -167v-1214q0 -268 -131.5 -311.5t-208.5 -43.5t-131 19v147q60 -24 117 -24q172 0 172 233z" />
    <glyph glyph-name="approxequal" unicode="&#x2248;" horiz-adv-x="1124" 
d="M911.5 343.5q-63.5 -7.5 -128.5 -7.5t-196 46t-184.5 58.5t-98.5 12.5q-126 0 -248 -88v141q111 84 263 84q109 0 301 -70q131 -47 204 -47q130 0 244 92v-147q-93 -67 -156.5 -74.5zM808 758q-69 0 -141.5 21t-174.5 57t-188 36q-126 0 -248 -88v144q114 84 263 84
q103 0 187.5 -31t113.5 -41q131 -48 204 -47q130 0 244 94v-149q-111 -80 -260 -80z" />
    <glyph glyph-name="notequal" unicode="&#x2260;" horiz-adv-x="1124" 
d="M65 344v148h311l190 364h-501v148h573l154 292h143l-152 -292h277v-148h-350l-191 -364h541v-148h-612l-152 -289h-145l151 289h-237z" />
    <glyph glyph-name="equivalence" unicode="&#x2261;" horiz-adv-x="1195" 
d="M100 600v148h995v-148h-995zM100 244v148h995v-148h-995zM100 956v148h995v-148h-995z" />
    <glyph glyph-name="lessequal" unicode="&#x2264;" horiz-adv-x="1124" 
d="M63 0v145h995v-145h-995zM65 631v205l995 395v-154l-858 -344l858 -344v-153z" />
    <glyph glyph-name="greaterequal" unicode="&#x2265;" horiz-adv-x="1124" 
d="M65 0v145h995v-145h-995zM65 236v153l858 344l-858 344v154l995 -395v-205z" />
    <glyph glyph-name="house" unicode="&#x2302;" horiz-adv-x="1237" 
d="M237 82h762v518l-381 426l-381 -426v-518zM157 0v635l461 518l461 -518v-635h-922z" />
    <glyph glyph-name="revlogicalnot" unicode="&#x2310;" horiz-adv-x="1196" 
d="M100 180v574h995v-146h-850v-428h-145z" />
    <glyph glyph-name="integraltp" unicode="&#x2320;" horiz-adv-x="1237" 
d="M693 -614h-147v1878q0 196 83 319t211 123q63 0 100.5 -31.5t37.5 -75.5t-25 -70t-59 -26t-50 11t-50 49q-34 39 -50 39q-36 0 -44 -37t-7 -142v-2037z" />
    <glyph glyph-name="integralbt" unicode="&#x2321;" horiz-adv-x="1237" 
d="M546 1706h147v-1880q0 -205 -84 -323t-211 -117q-60 0 -98.5 30.5t-38.5 84.5t33.5 69.5t59.5 15.5t45 -11t48 -50q31 -37 47 -37q37 0 45 41q7 31 7 137v2040z" />
    <glyph glyph-name="SF100000" unicode="&#x2500;" horiz-adv-x="1451" 
d="M-10 549v145h1471v-145h-1471z" />
    <glyph glyph-name="SF110000" unicode="&#x2502;" horiz-adv-x="1280" 
d="M472 1864h145v-2485h-145v2485z" />
    <glyph glyph-name="SF010000" unicode="&#x250c;" horiz-adv-x="1451" 
d="M653 694h808v-145h-663v-1170h-145v1315z" />
    <glyph glyph-name="SF030000" unicode="&#x2510;" horiz-adv-x="1451" 
d="M-10 549v145h808v-1315h-145v1170h-663z" />
    <glyph glyph-name="SF020000" unicode="&#x2514;" horiz-adv-x="1451" 
d="M653 1864h145v-1170h663v-145h-808v1315z" />
    <glyph glyph-name="SF040000" unicode="&#x2518;" horiz-adv-x="1451" 
d="M-10 549v145h663v1170h145v-1315h-808z" />
    <glyph glyph-name="SF080000" unicode="&#x251c;" horiz-adv-x="1451" 
d="M653 1864h145v-1170h663v-145h-663v-1170h-145v2485z" />
    <glyph glyph-name="SF090000" unicode="&#x2524;" horiz-adv-x="1451" 
d="M-10 549v145h663v1170h145v-2485h-145v1170h-663z" />
    <glyph glyph-name="SF060000" unicode="&#x252c;" horiz-adv-x="1451" 
d="M-10 549v145h1471v-145h-663v-1170h-145v1170h-663z" />
    <glyph glyph-name="SF070000" unicode="&#x2534;" horiz-adv-x="1451" 
d="M-10 549v145h663v1170h145v-1170h663v-145h-1471z" />
    <glyph glyph-name="SF050000" unicode="&#x253c;" horiz-adv-x="1451" 
d="M-10 549v145h663v1170h145v-1170h663v-145h-663v-1170h-145v1170h-663z" />
    <glyph glyph-name="SF430000" unicode="&#x2550;" horiz-adv-x="1451" 
d="M-10 369v145h1471v-145h-1471zM-10 729v145h1471v-145h-1471z" />
    <glyph glyph-name="SF240000" unicode="&#x2551;" horiz-adv-x="1451" 
d="M833 1864h145v-2485h-145v2485zM473 1864h145v-2485h-145v2485z" />
    <glyph glyph-name="SF510000" unicode="&#x2552;" horiz-adv-x="1451" 
d="M653 874h808v-145h-663v-215h663v-145h-663v-990h-145v1495z" />
    <glyph glyph-name="SF520000" unicode="&#x2553;" horiz-adv-x="1451" 
d="M1461 694v-145h-483v-1170h-145v1170h-215v-1170h-145v1315h988z" />
    <glyph glyph-name="SF390000" unicode="&#x2554;" horiz-adv-x="1451" 
d="M833 514h628v-145h-483v-990h-145v1135zM473 874h988v-145h-843v-1350h-145v1495z" />
    <glyph glyph-name="SF220000" unicode="&#x2555;" horiz-adv-x="1451" 
d="M-10 369v145h663v215h-663v145h808v-1495h-145v990h-663z" />
    <glyph glyph-name="SF210000" unicode="&#x2556;" horiz-adv-x="1451" 
d="M-10 549v145h988v-1315h-145v1170h-215v-1170h-145v1170h-483z" />
    <glyph glyph-name="SF250000" unicode="&#x2557;" horiz-adv-x="1451" 
d="M618 -621h-145v990h-483v145h628v-1135zM978 874v-1495h-145v1350h-843v145h988z" />
    <glyph glyph-name="SF500000" unicode="&#x2558;" horiz-adv-x="1451" 
d="M653 1864h145v-990h663v-145h-663v-215h663v-145h-808v1495z" />
    <glyph glyph-name="SF490000" unicode="&#x2559;" horiz-adv-x="1451" 
d="M833 1864h145v-1170h483v-145h-988v1315h145v-1170h215v1170z" />
    <glyph glyph-name="SF380000" unicode="&#x255a;" horiz-adv-x="1451" 
d="M833 1864h145v-990h483v-145h-628v1135zM473 1864h145v-1350h843v-145h-988v1495z" />
    <glyph glyph-name="SF280000" unicode="&#x255b;" horiz-adv-x="1451" 
d="M-10 369v145h663v215h-663v145h663v990h145v-1495h-808z" />
    <glyph glyph-name="SF270000" unicode="&#x255c;" horiz-adv-x="1451" 
d="M978 549h-988v145h483v1170h145v-1170h215v1170h145v-1315z" />
    <glyph glyph-name="SF260000" unicode="&#x255d;" horiz-adv-x="1451" 
d="M473 1864h145v-1135h-628v145h483v990zM978 369h-988v145h843v1350h145v-1495z" />
    <glyph glyph-name="SF360000" unicode="&#x255e;" horiz-adv-x="1451" 
d="M653 1864h145v-990h663v-145h-663v-215h663v-145h-663v-990h-145v2485z" />
    <glyph glyph-name="SF370000" unicode="&#x255f;" horiz-adv-x="1451" 
d="M473 1864h145v-2485h-145v2485zM833 1864h145v-1170h483v-145h-483v-1170h-145v2485z" />
    <glyph glyph-name="SF420000" unicode="&#x2560;" horiz-adv-x="1451" 
d="M833 1864h145v-990h483v-145h-628v1135zM833 514h628v-145h-483v-990h-145v1135zM618 -621h-145v2485h145v-2485z" />
    <glyph glyph-name="SF190000" unicode="&#x2561;" horiz-adv-x="1451" 
d="M-10 369v145h663v215h-663v145h663v990h145v-2485h-145v990h-663z" />
    <glyph glyph-name="SF200000" unicode="&#x2562;" horiz-adv-x="1451" 
d="M833 1864h145v-2485h-145v2485zM-10 549v145h483v1170h145v-2485h-145v1170h-483z" />
    <glyph glyph-name="SF230000" unicode="&#x2563;" horiz-adv-x="1451" 
d="M618 -621h-145v990h-483v145h628v-1135zM473 1864h145v-1135h-628v145h483v990zM833 1864h145v-2485h-145v2485z" />
    <glyph glyph-name="SF470000" unicode="&#x2564;" horiz-adv-x="1451" 
d="M-10 729v145h1471v-145h-1471zM-10 369v145h1471v-145h-663v-990h-145v990h-663z" />
    <glyph glyph-name="SF480000" unicode="&#x2565;" horiz-adv-x="1451" 
d="M-10 549v145h1471v-145h-483v-1170h-145v1170h-215v-1170h-145v1170h-483z" />
    <glyph glyph-name="SF410000" unicode="&#x2566;" horiz-adv-x="1451" 
d="M1461 874v-145h-1471v145h1471zM833 514h628v-145h-483v-990h-145v1135zM618 -621h-145v990h-483v145h628v-1135z" />
    <glyph glyph-name="SF450000" unicode="&#x2567;" horiz-adv-x="1451" 
d="M-10 369v145h1471v-145h-1471zM-10 729v145h663v990h145v-990h663v-145h-1471z" />
    <glyph glyph-name="SF460000" unicode="&#x2568;" horiz-adv-x="1451" 
d="M-10 549v145h483v1170h145v-1170h215v1170h145v-1170h483v-145h-1471z" />
    <glyph glyph-name="SF400000" unicode="&#x2569;" horiz-adv-x="1451" 
d="M-10 369v145h1471v-145h-1471zM473 1864h145v-1135h-628v145h483v990zM833 1864h145v-990h483v-145h-628v1135z" />
    <glyph glyph-name="SF540000" unicode="&#x256a;" horiz-adv-x="1451" 
d="M-10 369v145h663v215h-663v145h663v990h145v-990h663v-145h-663v-215h663v-145h-663v-990h-145v990h-663z" />
    <glyph glyph-name="SF530000" unicode="&#x256b;" horiz-adv-x="1451" 
d="M833 1864h145v-1170h483v-145h-483v-1170h-145v1170h-215v-1170h-145v1170h-483v145h483v1170h145v-1170h215v1170z" />
    <glyph glyph-name="SF440000" unicode="&#x256c;" horiz-adv-x="1451" 
d="M473 1864h145v-1135h-628v145h483v990zM833 514h628v-145h-483v-990h-145v1135zM618 -621h-145v990h-483v145h628v-1135zM833 1864h145v-990h483v-145h-628v1135z" />
    <glyph glyph-name="upblock" unicode="&#x2580;" horiz-adv-x="1451" 
d="M1451 621h-1451v1243h1451v-1243z" />
    <glyph glyph-name="dnblock" unicode="&#x2584;" horiz-adv-x="1451" 
d="M1451 -621h-1451v1242h1451v-1242z" />
    <glyph glyph-name="block" unicode="&#x2588;" horiz-adv-x="1451" 
d="M1451 -621h-1451v2485h1451v-2485z" />
    <glyph glyph-name="lfblock" unicode="&#x258c;" horiz-adv-x="1451" 
d="M726 -621h-726v2485h726v-2485z" />
    <glyph glyph-name="rtblock" unicode="&#x2590;" horiz-adv-x="1451" 
d="M1451 -621h-726v2485h726v-2485z" />
    <glyph glyph-name="ltshade" unicode="&#x2591;" horiz-adv-x="1451" 
d="M1347 1699h104v-96h-104v96zM1347 -234h104v-97h-104v97zM1347 153h104v-97h-104v97zM1347 540h104v-96h-104v96zM1347 927h104v-96h-104v96zM1347 1314h104v-98h-104v98zM933 1699h103v-96h-103v96zM517 1699h104v-96h-104v96zM103 1699h104v-96h-104v96zM1140 1506h104
v-98h-104v98zM725 1506h104v-98h-104v98zM310 1506h104v-98h-104v98zM1140 -427h104v-96h-104v96zM725 -427h104v-96h-104v96zM310 -427h104v-96h-104v96zM103 -234h104v-97h-104v97zM517 -234h104v-97h-104v97zM933 -234h103v-97h-103v97zM1140 -42h104v-94h-104v94z
M725 -42h104v-94h-104v94zM310 -42h104v-94h-104v94zM933 153h103v-97h-103v97zM517 153h104v-97h-104v97zM103 153h104v-97h-104v97zM310 345h104v-96h-104v96zM725 345h104v-96h-104v96zM1140 345h104v-96h-104v96zM933 540h103v-96h-103v96zM517 540h104v-96h-104v96z
M103 540h104v-96h-104v96zM310 732h104v-96h-104v96zM725 732h104v-96h-104v96zM1140 732h104v-96h-104v96zM103 927h104v-96h-104v96zM517 927h104v-96h-104v96zM933 927h103v-96h-103v96zM1140 1119h104v-96h-104v96zM725 1119h104v-96h-104v96zM310 1119h104v-96h-104v96
zM933 1314h103v-98h-103v98zM517 1314h104v-98h-104v98zM103 1314h104v-98h-104v98z" />
    <glyph glyph-name="shade" unicode="&#x2592;" horiz-adv-x="1451" 
d="M1347 1699h104v-96h-104v96zM1244 1506h103v-98h-103v98zM1244 -427h103v-96h-103v96zM1347 -234h104v-97h-104v97zM1244 -42h103v-94h-103v94zM1347 153h104v-97h-104v97zM1244 345h103v-96h-103v96zM1347 540h104v-96h-104v96zM1244 732h103v-96h-103v96zM1347 927h104
v-96h-104v96zM1244 1119h103v-96h-103v96zM1347 1314h104v-98h-104v98zM1140 1699h104v-96h-104v96zM933 1699h104v-96h-104v96zM725 1699h104v-96h-104v96zM517 1699h104v-96h-104v96zM310 1699h104v-96h-104v96zM103 1699h104v-96h-104v96zM1037 1506h103v-98h-103v98z
M829 1506h104v-98h-104v98zM621 1506h104v-98h-104v98zM414 1506h103v-98h-103v98zM207 1506h103v-98h-103v98zM0 1506h103v-98h-103v98zM1037 -427h103v-96h-103v96zM829 -427h104v-96h-104v96zM621 -427h104v-96h-104v96zM414 -427h103v-96h-103v96zM207 -427h103v-96
h-103v96zM0 -427h103v-96h-103v96zM103 -234h104v-97h-104v97zM310 -234h104v-97h-104v97zM517 -234h104v-97h-104v97zM725 -234h104v-97h-104v97zM933 -234h104v-97h-104v97zM1140 -234h104v-97h-104v97zM1037 -42h103v-94h-103v94zM829 -42h104v-94h-104v94zM621 -42h104
v-94h-104v94zM414 -42h103v-94h-103v94zM207 -42h103v-94h-103v94zM0 -42h103v-94h-103v94zM103 153h104v-97h-104v97zM310 153h104v-97h-104v97zM517 153h104v-97h-104v97zM725 153h104v-97h-104v97zM933 153h104v-97h-104v97zM1140 153h104v-97h-104v97zM207 345h103v-96
h-103v96zM1037 345h103v-96h-103v96zM829 345h104v-96h-104v96zM621 345h104v-96h-104v96zM414 345h103v-96h-103v96zM0 345h103v-96h-103v96zM1140 540h104v-96h-104v96zM933 540h104v-96h-104v96zM725 540h104v-96h-104v96zM517 540h104v-96h-104v96zM310 540h104v-96
h-104v96zM103 540h104v-96h-104v96zM1037 732h103v-96h-103v96zM829 732h104v-96h-104v96zM621 732h104v-96h-104v96zM414 732h103v-96h-103v96zM207 732h103v-96h-103v96zM0 732h103v-96h-103v96zM1140 927h104v-96h-104v96zM933 927h104v-96h-104v96zM725 927h104v-96
h-104v96zM517 927h104v-96h-104v96zM310 927h104v-96h-104v96zM103 927h104v-96h-104v96zM1037 1119h103v-96h-103v96zM829 1119h104v-96h-104v96zM621 1119h104v-96h-104v96zM414 1119h103v-96h-103v96zM207 1119h103v-96h-103v96zM0 1119h103v-96h-103v96zM1140 1314h104
v-98h-104v98zM933 1314h104v-98h-104v98zM725 1314h104v-98h-104v98zM517 1314h104v-98h-104v98zM310 1314h104v-98h-104v98zM103 1314h104v-98h-104v98z" />
    <glyph glyph-name="dkshade" unicode="&#x2593;" horiz-adv-x="1493" 
d="M1067 1506h-107v-98h107v98zM1280 1506h-107v-98h107v98zM1173 1314h-106v-98h106v98zM1386 1314h-106v-98h106v98zM1173 -427v-96h107v96h-107zM960 -427v-96h107v96h-107zM1173 -331v97h-106v-97h106zM1386 -331v97h-106v-97h106zM1173 -42v-94h107v94h-107zM960 -42
v-94h107v94h-107zM1173 56v97h-106v-97h106zM1386 56v97h-106v-97h106zM1280 249v96h-107v-96h107zM960 345v-96h107v96h-107zM1280 540v-96h106v96h-106zM1173 540h-106v-96h106v96zM1173 732v-96h107v96h-107zM960 732v-96h107v96h-107zM1173 927h-106v-98h106v98z
M1386 927h-106v-98h106v98zM1173 1119v-96h107v96h-107zM960 1119v-96h107v96h-107zM213 1506h-107v-98h107v98zM426 1506h-107v-98h107v98zM639 1506h-107v-98h107v98zM853 1506h-107v-98h107v98zM319 1314h-106v-98h106v98zM532 1314h-106v-98h106v98zM746 1314h-107v-98
h107v98zM960 1314h-107v-98h107v98zM746 -427v-96h107v96h-107zM532 -427v-96h107v96h-107zM319 -427v-96h107v96h-107zM106 -427v-96h107v96h-107zM319 -331v97h-106v-97h106zM532 -331v97h-106v-97h106zM746 -331v97h-107v-97h107zM960 -331v97h-107v-97h107zM746 -42v-94
h107v94h-107zM532 -42v-94h107v94h-107zM319 -42v-94h107v94h-107zM106 -42v-94h107v94h-107zM319 56v97h-106v-97h106zM532 56v97h-106v-97h106zM746 56v97h-107v-97h107zM960 56v97h-107v-97h107zM746 345v-96h107v96h-107zM426 249v96h-107v-96h107zM532 345v-96h107v96
h-107zM106 345v-96h107v96h-107zM853 540v-96h107v96h-107zM639 540v-96h107v96h-107zM426 540v-96h106v96h-106zM319 540h-106v-96h106v96zM746 732v-96h107v96h-107zM532 732v-96h107v96h-107zM319 732v-96h107v96h-107zM106 732v-96h107v96h-107zM319 927h-106v-98h106
v98zM532 927h-106v-98h106v98zM746 927h-107v-98h107v98zM960 927h-107v-98h107v98zM746 1119v-96h107v96h-107zM532 1119v-96h107v96h-107zM319 1119v-96h107v96h-107zM106 1119v-96h107v96h-107zM1493 -621h-1493v290h106v97h-106v290h106v97h-106v291h106v96h-106v289
h106v98h-106v289h106v98h-106v289h106v96h107v-96h106v96h107v-96h106v96h107v-96h107v96h107v-96h107v96h107v-96h106v96h107v-96h106v96h107v-193h-107v-98h107v-289h-107v-96h107v-291h-107v-96h107v-291h-107v-96h107v-291h-107v-94h107v-291h-107v-96h107v-98z" />
    <glyph glyph-name="filledbox" unicode="&#x25a0;" horiz-adv-x="1237" 
d="M123 1108h991v-991h-991v991z" />
    <glyph glyph-name="H22073" unicode="&#x25a1;" horiz-adv-x="1237" 
d="M82 1149v-1073h1073v1073h-1073zM6 1225h1225v-1225h-1225v1225z" />
    <glyph glyph-name="H18543" unicode="&#x25aa;" horiz-adv-x="726" 
d="M617 383h-508v508h508v-508z" />
    <glyph glyph-name="H18551" unicode="&#x25ab;" horiz-adv-x="726" 
d="M541 459v354h-356v-354h356zM617 383h-508v508h508v-508z" />
    <glyph glyph-name="filledrect" unicode="&#x25ac;" horiz-adv-x="2048" 
d="M0 616h2048v-616h-2048v616z" />
    <glyph glyph-name="triagup" unicode="&#x25b2;" horiz-adv-x="2027" 
d="M414 0l600 1198l598 -1198h-1198z" />
    <glyph glyph-name="triagrt" unicode="&#x25ba;" horiz-adv-x="2027" 
d="M401 1196l1225 -610l-1225 -613v1223z" />
    <glyph glyph-name="triagdn" unicode="&#x25bc;" horiz-adv-x="2027" 
d="M1612 1171l-598 -1198l-600 1198h1198z" />
    <glyph glyph-name="triaglf" unicode="&#x25c4;" horiz-adv-x="2027" 
d="M1626 1196v-1223l-1225 613z" />
    <glyph glyph-name="lozenge" unicode="&#x25ca;" horiz-adv-x="1012" 
d="M508 1286l-354 -565l354 -574l352 574zM547 0h-82l-457 719l457 721h82l459 -719z" />
    <glyph glyph-name="circle" unicode="&#x25cb;" horiz-adv-x="1237" 
d="M253 612q0 -76 28.5 -142t77.5 -115.5t115.5 -78t142.5 -28.5t143 28.5t116.5 78t78.5 115.5t29 142t-29 143t-78.5 116.5t-116.5 78.5t-143 29t-142.5 -29t-115.5 -78.5t-77.5 -116.5t-28.5 -143zM167 612q0 94 35 176.5t96 144t143 97t176 35.5t176.5 -35.5t144 -97
t97 -144t35.5 -176.5t-35.5 -176t-97 -143t-144 -96t-176.5 -35t-176 35t-143 96t-96 143t-35 176z" />
    <glyph glyph-name="H18533" unicode="&#x25cf;" horiz-adv-x="1237" 
d="M618 1018q110 0 217 -57q155 -82 189.5 -204t34.5 -179q0 -183 -129.5 -312t-311.5 -129t-311 129t-129 312q0 111 59 219t165 164q106 57 216 57z" />
    <glyph glyph-name="invbullet" unicode="&#x25d8;" horiz-adv-x="1237" 
d="M176 577q0 -91 34.5 -171t94.5 -140t140 -94.5t171 -34.5t171.5 34.5t140.5 94.5t94.5 140t34.5 171t-34.5 171.5t-94.5 140.5t-140.5 94.5t-171.5 34.5t-171 -34.5t-140 -94.5t-94.5 -140.5t-34.5 -171.5zM41 0v1155h1155v-1155h-1155z" />
    <glyph glyph-name="invcircle" unicode="&#x25d9;" horiz-adv-x="1237" 
d="M176 577q0 -91 34.5 -171t94.5 -140t140 -94.5t171 -34.5t171.5 34.5t140.5 94.5t94.5 140t34.5 171t-34.5 171.5t-94.5 140.5t-140.5 94.5t-171.5 34.5t-171 -34.5t-140 -94.5t-94.5 -140.5t-34.5 -171.5zM253 577q0 75 29 141.5t78.5 116t116 78.5t141.5 29t141.5 -29
t116 -78.5t78.5 -116t29 -141.5t-29 -141.5t-78.5 -116t-116 -78.5t-141.5 -29t-141.5 29t-116 78.5t-78.5 116t-29 141.5zM41 0v1155h1155v-1155h-1155z" />
    <glyph glyph-name="openbullet" unicode="&#x25e6;" horiz-adv-x="726" 
d="M363 464q72 0 122 52t50 122t-51 120.5t-121 50.5t-121 -50.5t-51 -120.5t50 -122t122 -52zM361 389q-99 0 -174 72q-72 76 -72 177t73 174q74 73 176 73t173 -74q74 -71 74 -173t-74 -177q-77 -72 -176 -72z" />
    <glyph glyph-name="smileface" unicode="&#x263a;" horiz-adv-x="2091" 
d="M1044 285q146 0 222 137l62 -35q-98 -186 -283 -186t-283 186l60 35q76 -137 222 -137zM1356 711q0 -32 -22 -55t-54 -23t-55.5 23t-23.5 55t23.5 54.5t55.5 22.5t54 -22.5t22 -54.5zM889 711q0 -32 -23 -55t-55 -23t-54.5 23t-22.5 55t22.5 54.5t54.5 22.5t55 -22.5
t23 -54.5zM1045 60q217 0 369 154t153 370q0 216 -152 370t-370 154t-370 -154t-152 -370q1 -216 153 -370t369 -154zM1045 -26q-253 0 -433 178t-179 431q0 253 179 433t433 180t433 -180t179 -433q1 -253 -179 -431t-433 -178z" />
    <glyph glyph-name="invsmileface" unicode="&#x263b;" horiz-adv-x="2155" 
d="M1077 201q185 0 283 186l-62 35q-76 -137 -222 -137t-222 137l-60 -35q98 -186 283 -186zM1388 711q0 32 -22 54.5t-54 22.5t-55.5 -22.5t-23.5 -54.5t23.5 -55t55.5 -23t54 23t22 55zM921 711q0 32 -23 54.5t-55 22.5t-54.5 -22.5t-22.5 -54.5t22.5 -55t54.5 -23t55 23
t23 55zM1077 -26q-253 0 -433 178t-179 431q0 253 179 433t433 180t433 -180t179 -433q1 -253 -179 -431t-433 -178z" />
    <glyph glyph-name="sun" unicode="&#x263c;" horiz-adv-x="1877" 
d="M604 470q0 -136 96 -233t235 -98q139 0 237 97q98 96 98 234t-99 237q-100 98 -235.5 98t-233.5 -99q-98 -100 -98 -236zM905 1083h66v-217q121 -11 225 -90l186 182l45 -45l-184 -184q86 -113 92 -229h215v-62h-215q-17 -125 -92 -221l184 -188l-49 -43l-182 182
q-53 -39 -99 -60t-126 -32v-217h-66v217q-121 17 -221 90l-188 -180l-43 45l182 184q-78 100 -94 225h-215v62h215q12 128 92 223l-180 184l40 49l189 -182q110 77 223 90v217z" />
    <glyph glyph-name="female" unicode="&#x2640;" horiz-adv-x="1536" 
d="M768 1069q-84 0 -146 -59q-60 -64 -60 -146q0 -81 60 -145q62 -62 147 -62q85 -1 145 61t60 145t-59 147q-63 59 -147 59zM481 869q-1 115 85 199t204 85q118 0 200 -86q86 -83 86 -199t-72 -196q-72 -82 -178 -94v-166h256v-70h-256v-262h-74v262h-258v70h258v166
q-114 17 -180 96q-71 80 -71 195z" />
    <glyph glyph-name="male" unicode="&#x2642;" horiz-adv-x="1536" 
d="M628 750q-90 0 -152 -62t-61 -150q1 -90 63 -151t150 -61t150 62q61 62 61 150t-61 150q-60 62 -150 62zM825 1128q0 21 13.5 20.5t64.5 -10.5t120 -10q70 0 108 12q39 12 53 13t15 -11q0 -12 -11 -50t-11 -127t7 -120q9 -40 9 -50.5t-4 -16.5q-9 -6 -14 -6
q-32 0 -63 81.5t-42 123.5l-237 -238q84 -81 84 -198q-1 -117 -87 -204t-204 -87t-205 84q-84 84 -84 201t84 204q85 86 207 86q71 0 154 -43l241 242q-198 58 -198 104z" />
    <glyph glyph-name="spade" unicode="&#x2660;" horiz-adv-x="1088" 
d="M278 274q-90 0 -154 64t-65 148q1 82 27 132q46 87 161 183q150 128 211 220q62 92 86 210q27 -103 80 -193q57 -88 195 -213t174 -191t36 -148q-1 -82 -65 -148q-64 -64 -152 -64q-157 0 -256 191q3 -147 40 -233q76 -177 337 -195l8 -37h-792l6 37q183 0 284.5 106
t98.5 322q-90 -191 -260 -191z" />
    <glyph glyph-name="club" unicode="&#x2663;" horiz-adv-x="1344" 
d="M662 461q0 8 -1 19t-1 28q-82 -171 -180.5 -204.5t-150.5 -33.5q-104 0 -190 80q-79 82 -79 198t73 196t166 79q62 0 162 -51q-38 65 -52 101q-14 37 -14 79q0 115 78 193q82 78 198 78q115 0 195 -79q80 -78 80 -176t-69 -196q84 40 105 46t64 5q97 0 165 -78
q73 -76 73 -193q0 -116 -80 -198t-192 -82q-62 0 -128 30t-109 75t-93 131q6 -166 50 -255q44 -88 134 -149q61 -39 220 -69l8 -35h-842l8 35q166 34 213 63q84 52 136 153q53 101 53 210z" />
    <glyph glyph-name="heart" unicode="&#x2665;" horiz-adv-x="1216" 
d="M340 1143q100 0 178 -72q60 -60 92 -162q34 119 105 177.5t164 58.5t164 -70t71 -160t-42 -182t-174 -258t-193 -272q-62 -106 -95 -226q-38 152 -126 278t-188 260.5t-128 178.5q-66 100 -66 204t68 175q70 70 170 70z" />
    <glyph glyph-name="diamond" unicode="&#x2666;" horiz-adv-x="1045" 
d="M519 1223q78 -135 210 -313t249 -310q-73 -74 -226 -281q-154 -206 -231 -344q-55 105 -266 387q-34 48 -189 238q310 366 453 623z" />
    <glyph glyph-name="musicalnote" unicode="&#x266a;" horiz-adv-x="1024" 
d="M311 29q-115 -1 -115 113q0 60 60 120q63 60 143 60q44 0 90 -19v850h76v-100l153 -193q109 -147 109 -307t-94 -281h-47q57 128 57 248t-57 200t-121 89v-506q0 -123 -73 -199t-181 -75z" />
    <glyph glyph-name="musicalnotedbl" unicode="&#x266b;" horiz-adv-x="1536" 
d="M639 750l550 149v117l-550 -152v-114zM1013 49q-114 -1 -114 115q-1 62 59 120t141 58q48 0 90 -18v448l-550 -149v-394q0 -120 -72 -198q-74 -74 -180 -74q-57 0 -86 26.5t-29 71.5q0 77 60 135t143 58q45 0 90 -19v752l698 178v-835q0 -131 -74 -199q-76 -76 -176 -76z
" />
    <glyph glyph-name="uniF001" unicode="&#xf001;" horiz-adv-x="1024" 
d="M706 0v1082h180v-1082h-180zM706 1312v172h180v-172h-180zM361 1179v-97h211v-131h-211v-951h-180v951h-152v131h152v122q0 132 57.5 205t206.5 73q75 0 127 -12v-137q-45 8 -100 8q-111 0 -111 -162z" />
    <glyph glyph-name="uniF001" unicode="&#xfb01;" horiz-adv-x="1024" 
d="M706 0v1082h180v-1082h-180zM706 1312v172h180v-172h-180zM361 1179v-97h211v-131h-211v-951h-180v951h-152v131h152v122q0 132 57.5 205t206.5 73q75 0 127 -12v-137q-45 8 -100 8q-111 0 -111 -162z" />
    <glyph glyph-name="uniF002" unicode="&#xf002;" horiz-adv-x="1024" 
d="M707 0v1484h180v-1484h-180zM361 1179v-97h211v-131h-211v-951h-180v951h-152v131h152v122q0 132 57.5 205t206.5 73q75 0 127 -12v-137q-45 8 -100 8q-111 0 -111 -162z" />
    <glyph glyph-name="uniF002" unicode="&#xfb02;" horiz-adv-x="1024" 
d="M707 0v1484h180v-1484h-180zM361 1179v-97h211v-131h-211v-951h-180v951h-152v131h152v122q0 132 57.5 205t206.5 73q75 0 127 -12v-137q-45 8 -100 8q-111 0 -111 -162z" />
    <glyph glyph-name="uniF005" unicode="&#xf005;" horiz-adv-x="682" 
d="M255 -86q228 0 228 -167q0 -181 -274 -181q-57 0 -90 4v98q49 -6 86 -6q147 0 147 79t-133 79h-21q-22 0 -36 -2l31 96h62z" />
    <glyph glyph-name="glyph256" horiz-adv-x="682" 
d="M243 446v220h195v-220h-195z" />
    <glyph glyph-name="uniF004" horiz-adv-x="682" 
d="M328 -193q0 -87 -22 -140.5t-62 -100.5h-117q94 100 94 180h-88v156h195v-95z" />
    <glyph glyph-name="uni2074" horiz-adv-x="682" 
d="M420 854v202q0 202 2 220q-22 -40 -82 -135l-199 -287h279zM551 741v-178h-131v178h-406v111l386 557h151v-555h111v-113h-111z" />
    <glyph glyph-name="uni2075" horiz-adv-x="682" 
d="M186 788q24 -131 176 -131q54 0 96.5 42.5t42.5 129.5q0 172 -156 172q-91 0 -151 -60h-129l33 468h506v-113h-398l-19 -245q66 59 174 59q200 0 237.5 -106t37.5 -170q0 -129 -75 -205.5t-214 -76.5q-191 0 -238 86.5t-56 134.5z" />
    <glyph glyph-name="uni2077" horiz-adv-x="682" 
d="M342 564h-133q0 261 117 452.5t177 279.5h-460v113h589v-101q-150 -227 -220 -387t-70 -357z" />
    <glyph glyph-name="uni2078" horiz-adv-x="682" 
d="M642 796q0 -50 -17.5 -95.5t-54 -78.5t-93 -51.5t-169.5 -18.5t-188 67t-75 167q0 99 50 154t119 66v3q-106 24 -127.5 92.5t-21.5 108.5q0 90 72.5 151t207.5 61q134 0 205 -62t71 -165t-57 -140.5t-93 -44.5v-3q120 -20 145.5 -90.5t25.5 -120.5zM187 808
q0 -156 142 -155.5t156.5 63t14.5 94.5q0 69 -34.5 108.5t-123.5 39.5q-155 0 -155 -150zM361 1322q-94 0 -124.5 -33.5t-30.5 -76.5q0 -77 28.5 -115t92.5 -38t91 12.5t44 37t17 85.5q0 128 -118 128z" />
    <glyph glyph-name="glyph571" horiz-adv-x="682" 
d="M707 1520q-11 -320 -367 -320t-367 320h164q12 -199 203 -199t203 199h164z" />
    <glyph glyph-name="glyph572" horiz-adv-x="455" 
d="M325 1303q0 -152 -84 -251h-117q94 100 94 190h-88v167h195v-106z" />
    <glyph glyph-name="glyph573" horiz-adv-x="455" 
d="M130 1317q0 152 84 251h117q-94 -100 -94 -190h88v-167h-195v106z" />
    <glyph glyph-name="glyph574" horiz-adv-x="602" 
d="M106 1776h207l217 -226v-20h-114l-310 217v29z" />
    <glyph glyph-name="glyph575" horiz-adv-x="602" 
d="M72 1530v20l217 226h207v-29l-310 -217h-114z" />
    <glyph glyph-name="glyph576" horiz-adv-x="664" 
d="M662 1530h-105l-219 139h-2l-232 -139h-104v20l234 240h204l224 -240v-20z" />
    <glyph glyph-name="glyph577" horiz-adv-x="664" 
d="M0 1790h104l232 -139h2l219 139h105v-21l-224 -239h-204l-234 239v21z" />
    <glyph glyph-name="glyph578" horiz-adv-x="647" 
d="M45 1530v184h165v-184h-165zM439 1530v184h163v-184h-163z" />
    <glyph glyph-name="glyph579" horiz-adv-x="672" 
d="M485 1679q100 0 117 119h92q-13 -118 -40.5 -167.5t-64.5 -75t-88 -25.5t-93 18.5t-81 41t-74.5 41t-78.5 18.5q-87 0 -106 -119h-91q13 120 41.5 169t65 74t88.5 25t94 -18.5t81 -41t73.5 -41t64.5 -18.5z" />
    <glyph glyph-name="glyph580" horiz-adv-x="815" 
d="M379 1530v20l197 227h207v-29l-310 -218h-94zM32 1530v20l197 227h207v-29l-310 -218h-94z" />
    <glyph glyph-name="glyph581" horiz-adv-x="584" 
d="M308.5 1666q179.5 0 216.5 113h117q-31 -169 -144.5 -209t-188.5 -40q-141 0 -228.5 71.5t-104.5 177.5h117q36 -113 215.5 -113z" />
    </font>
</defs>
</svg>
